<?xml version="1.0" encoding="us-ascii" standalone="no"?><svg xmlns="http://www.w3.org/2000/svg" xmlns:xlink="http://www.w3.org/1999/xlink" contentStyleType="text/css" height="917px" preserveAspectRatio="none" style="width:563px;height:917px;background:#FFFFFF;" version="1.1" viewBox="0 0 563 917" width="563px" zoomAndPan="magnify"><defs/><g><text fill="#000000" font-family="sans-serif" font-size="14" font-weight="bold" lengthAdjust="spacing" textLength="350" x="105.75" y="27.6738">System Sequence Diagram (SSD) - Alternative Two</text><rect fill="#FFFFFF" height="700.6094" style="stroke:#181818;stroke-width:1.0;" width="10" x="52.5" y="127.2813"/><rect fill="#FFFFFF" height="57.0469" style="stroke:#181818;stroke-width:1.0;" width="10" x="520.5" y="147.8047"/><rect fill="#FFFFFF" height="28.5234" style="stroke:#181818;stroke-width:1.0;" width="10" x="520.5" y="233.375"/><rect fill="#FFFFFF" height="57.0469" style="stroke:#181818;stroke-width:1.0;" width="10" x="520.5" y="290.4219"/><rect fill="#FFFFFF" height="28.5234" style="stroke:#181818;stroke-width:1.0;" width="10" x="520.5" y="375.9922"/><rect fill="#FFFFFF" height="28.5234" style="stroke:#181818;stroke-width:1.0;" width="10" x="520.5" y="505.1328"/><rect fill="#FFFFFF" height="28.5234" style="stroke:#181818;stroke-width:1.0;" width="10" x="520.5" y="590.7031"/><rect fill="#FFFFFF" height="28.5234" style="stroke:#181818;stroke-width:1.0;" width="10" x="520.5" y="676.2734"/><rect fill="#FFFFFF" height="94.5703" style="stroke:#181818;stroke-width:1.0;" width="10" x="520.5" y="733.3203"/><rect fill="#FFFFFF" height="57.0469" style="stroke:#181818;stroke-width:1.0;" width="10" x="525.5" y="761.8438"/><line style="stroke:#181818;stroke-width:0.5;stroke-dasharray:5.0,5.0;" x1="57" x2="57" y1="117.2813" y2="836.8906"/><line style="stroke:#181818;stroke-width:0.5;stroke-dasharray:5.0,5.0;" x1="525.5" x2="525.5" y1="117.2813" y2="836.8906"/><text fill="#000000" font-family="sans-serif" font-size="14" lengthAdjust="spacing" textLength="99" x="5" y="114.3145">Property Owner</text><ellipse cx="57.5" cy="50.1406" fill="#E3E3E3" rx="8" ry="8" style="stroke:#181818;stroke-width:0.5;"/><path d="M57.5,58.1406 L57.5,85.1406 M44.5,66.1406 L70.5,66.1406 M57.5,85.1406 L44.5,100.1406 M57.5,85.1406 L70.5,100.1406 " fill="none" style="stroke:#181818;stroke-width:0.5;"/><text fill="#000000" font-family="sans-serif" font-size="14" lengthAdjust="spacing" textLength="99" x="5" y="848.5645">Property Owner</text><ellipse cx="57.5" cy="860.0313" fill="#E3E3E3" rx="8" ry="8" style="stroke:#181818;stroke-width:0.5;"/><path d="M57.5,868.0313 L57.5,895.0313 M44.5,876.0313 L70.5,876.0313 M57.5,895.0313 L44.5,910.0313 M57.5,895.0313 L70.5,910.0313 " fill="none" style="stroke:#181818;stroke-width:0.5;"/><rect fill="#E3E3E3" height="29.6406" rx="2.5" ry="2.5" style="stroke:#181818;stroke-width:0.5;" width="64" x="493.5" y="86.6406"/><text fill="#000000" font-family="sans-serif" font-size="14" lengthAdjust="spacing" textLength="50" x="500.5" y="106.3145">:System</text><rect fill="#E3E3E3" height="29.6406" rx="2.5" ry="2.5" style="stroke:#181818;stroke-width:0.5;" width="64" x="493.5" y="835.8906"/><text fill="#000000" font-family="sans-serif" font-size="14" lengthAdjust="spacing" textLength="50" x="500.5" y="855.5645">:System</text><rect fill="#FFFFFF" height="700.6094" style="stroke:#181818;stroke-width:1.0;" width="10" x="52.5" y="127.2813"/><rect fill="#FFFFFF" height="57.0469" style="stroke:#181818;stroke-width:1.0;" width="10" x="520.5" y="147.8047"/><rect fill="#FFFFFF" height="28.5234" style="stroke:#181818;stroke-width:1.0;" width="10" x="520.5" y="233.375"/><rect fill="#FFFFFF" height="57.0469" style="stroke:#181818;stroke-width:1.0;" width="10" x="520.5" y="290.4219"/><rect fill="#FFFFFF" height="28.5234" style="stroke:#181818;stroke-width:1.0;" width="10" x="520.5" y="375.9922"/><rect fill="#FFFFFF" height="28.5234" style="stroke:#181818;stroke-width:1.0;" width="10" x="520.5" y="505.1328"/><rect fill="#FFFFFF" height="28.5234" style="stroke:#181818;stroke-width:1.0;" width="10" x="520.5" y="590.7031"/><rect fill="#FFFFFF" height="28.5234" style="stroke:#181818;stroke-width:1.0;" width="10" x="520.5" y="676.2734"/><rect fill="#FFFFFF" height="94.5703" style="stroke:#181818;stroke-width:1.0;" width="10" x="520.5" y="733.3203"/><rect fill="#FFFFFF" height="57.0469" style="stroke:#181818;stroke-width:1.0;" width="10" x="525.5" y="761.8438"/><polygon fill="#181818" points="508.5,143.8047,518.5,147.8047,508.5,151.8047,512.5,147.8047" style="stroke:#181818;stroke-width:1.0;"/><line style="stroke:#181818;stroke-width:1.0;" x1="62.5" x2="514.5" y1="147.8047" y2="147.8047"/><text fill="#000000" font-family="sans-serif" font-size="13" font-weight="bold" lengthAdjust="spacing" textLength="7" x="69.5" y="143.0498">1</text><text fill="#000000" font-family="sans-serif" font-size="13" lengthAdjust="spacing" textLength="172" x="80.5" y="143.0498">asks to create a new property</text><polygon fill="#181818" points="73.5,172.3281,63.5,176.3281,73.5,180.3281,69.5,176.3281" style="stroke:#181818;stroke-width:1.0;"/><line style="stroke:#181818;stroke-width:1.0;stroke-dasharray:2.0,2.0;" x1="67.5" x2="519.5" y1="176.3281" y2="176.3281"/><text fill="#000000" font-family="sans-serif" font-size="13" font-weight="bold" lengthAdjust="spacing" textLength="7" x="79.5" y="171.5732">2</text><text fill="#000000" font-family="sans-serif" font-size="13" lengthAdjust="spacing" textLength="198" x="90.5" y="171.5732">initiate process (year, month, day)</text><polygon fill="#181818" points="73.5,200.8516,63.5,204.8516,73.5,208.8516,69.5,204.8516" style="stroke:#181818;stroke-width:1.0;"/><line style="stroke:#181818;stroke-width:1.0;stroke-dasharray:2.0,2.0;" x1="67.5" x2="524.5" y1="204.8516" y2="204.8516"/><text fill="#000000" font-family="sans-serif" font-size="13" font-weight="bold" lengthAdjust="spacing" textLength="7" x="79.5" y="200.0967">3</text><text fill="#000000" font-family="sans-serif" font-size="13" lengthAdjust="spacing" textLength="281" x="90.5" y="200.0967">shows store category list and asks to select one</text><polygon fill="#181818" points="508.5,229.375,518.5,233.375,508.5,237.375,512.5,233.375" style="stroke:#181818;stroke-width:1.0;"/><line style="stroke:#181818;stroke-width:1.0;" x1="62.5" x2="514.5" y1="233.375" y2="233.375"/><text fill="#000000" font-family="sans-serif" font-size="13" font-weight="bold" lengthAdjust="spacing" textLength="7" x="69.5" y="228.6201">4</text><text fill="#000000" font-family="sans-serif" font-size="13" lengthAdjust="spacing" textLength="140" x="80.5" y="228.6201">selects a store category</text><polygon fill="#181818" points="73.5,257.8984,63.5,261.8984,73.5,265.8984,69.5,261.8984" style="stroke:#181818;stroke-width:1.0;"/><line style="stroke:#181818;stroke-width:1.0;stroke-dasharray:2.0,2.0;" x1="67.5" x2="524.5" y1="261.8984" y2="261.8984"/><text fill="#000000" font-family="sans-serif" font-size="13" font-weight="bold" lengthAdjust="spacing" textLength="7" x="79.5" y="257.1436">5</text><text fill="#000000" font-family="sans-serif" font-size="13" lengthAdjust="spacing" textLength="284" x="90.5" y="257.1436">shows agent category list and asks to select one</text><polygon fill="#181818" points="508.5,286.4219,518.5,290.4219,508.5,294.4219,512.5,290.4219" style="stroke:#181818;stroke-width:1.0;"/><line style="stroke:#181818;stroke-width:1.0;" x1="62.5" x2="514.5" y1="290.4219" y2="290.4219"/><text fill="#000000" font-family="sans-serif" font-size="13" font-weight="bold" lengthAdjust="spacing" textLength="7" x="69.5" y="285.667">6</text><text fill="#000000" font-family="sans-serif" font-size="13" lengthAdjust="spacing" textLength="143" x="80.5" y="285.667">selects a agent category</text><polygon fill="#181818" points="73.5,314.9453,63.5,318.9453,73.5,322.9453,69.5,318.9453" style="stroke:#181818;stroke-width:1.0;"/><line style="stroke:#181818;stroke-width:1.0;stroke-dasharray:2.0,2.0;" x1="67.5" x2="519.5" y1="318.9453" y2="318.9453"/><text fill="#000000" font-family="sans-serif" font-size="13" font-weight="bold" lengthAdjust="spacing" textLength="7" x="79.5" y="314.1904">7</text><text fill="#000000" font-family="sans-serif" font-size="13" lengthAdjust="spacing" textLength="100" x="90.5" y="314.1904">creates reference</text><polygon fill="#181818" points="73.5,343.4688,63.5,347.4688,73.5,351.4688,69.5,347.4688" style="stroke:#181818;stroke-width:1.0;"/><line style="stroke:#181818;stroke-width:1.0;stroke-dasharray:2.0,2.0;" x1="67.5" x2="524.5" y1="347.4688" y2="347.4688"/><text fill="#000000" font-family="sans-serif" font-size="13" font-weight="bold" lengthAdjust="spacing" textLength="7" x="79.5" y="342.7139">8</text><text fill="#000000" font-family="sans-serif" font-size="13" lengthAdjust="spacing" textLength="79" x="90.5" y="342.7139">requests data</text><polygon fill="#181818" points="508.5,371.9922,518.5,375.9922,508.5,379.9922,512.5,375.9922" style="stroke:#181818;stroke-width:1.0;"/><line style="stroke:#181818;stroke-width:1.0;" x1="62.5" x2="514.5" y1="375.9922" y2="375.9922"/><text fill="#000000" font-family="sans-serif" font-size="13" font-weight="bold" lengthAdjust="spacing" textLength="7" x="69.5" y="371.2373">9</text><text fill="#000000" font-family="sans-serif" font-size="13" lengthAdjust="spacing" textLength="249" x="80.5" y="371.2373">types requested data (category of property)</text><polygon fill="#181818" points="73.5,400.5156,63.5,404.5156,73.5,408.5156,69.5,404.5156" style="stroke:#181818;stroke-width:1.0;"/><line style="stroke:#181818;stroke-width:1.0;stroke-dasharray:2.0,2.0;" x1="67.5" x2="524.5" y1="404.5156" y2="404.5156"/><text fill="#000000" font-family="sans-serif" font-size="13" font-weight="bold" lengthAdjust="spacing" textLength="14" x="79.5" y="399.7607">10</text><text fill="#000000" font-family="sans-serif" font-size="13" lengthAdjust="spacing" textLength="299" x="97.5" y="399.7607">shows property category list and asks to select one</text><polygon fill="#181818" points="513.5,429.0391,523.5,433.0391,513.5,437.0391,517.5,433.0391" style="stroke:#181818;stroke-width:1.0;"/><line style="stroke:#181818;stroke-width:1.0;" x1="62.5" x2="519.5" y1="433.0391" y2="433.0391"/><text fill="#000000" font-family="sans-serif" font-size="13" font-weight="bold" lengthAdjust="spacing" textLength="14" x="69.5" y="428.2842">11</text><text fill="#000000" font-family="sans-serif" font-size="13" lengthAdjust="spacing" textLength="158" x="87.5" y="428.2842">selects a property category</text><polygon fill="#181818" points="508.5,501.1328,518.5,505.1328,508.5,509.1328,512.5,505.1328" style="stroke:#181818;stroke-width:1.0;"/><line style="stroke:#181818;stroke-width:1.0;" x1="62.5" x2="514.5" y1="505.1328" y2="505.1328"/><text fill="#000000" font-family="sans-serif" font-size="13" font-weight="bold" lengthAdjust="spacing" textLength="14" x="69.5" y="478.5928">12</text><text fill="#000000" font-family="sans-serif" font-size="13" lengthAdjust="spacing" textLength="382" x="87.5" y="456.8076">types requested data (number of bedrooms, number of bathrooms,</text><text fill="#000000" font-family="sans-serif" font-size="13" lengthAdjust="spacing" textLength="304" x="91.5" y="471.3311">number of parking spaces, yes or no central heating,</text><text fill="#000000" font-family="sans-serif" font-size="13" lengthAdjust="spacing" textLength="421" x="87.5" y="485.8545">yes or no air conditioning, yes or no basement, yes or no inhabitable loft,</text><text fill="#000000" font-family="sans-serif" font-size="13" lengthAdjust="spacing" textLength="129" x="91.5" y="500.3779">type of Sun Exposure)</text><polygon fill="#181818" points="73.5,529.6563,63.5,533.6563,73.5,537.6563,69.5,533.6563" style="stroke:#181818;stroke-width:1.0;"/><line style="stroke:#181818;stroke-width:1.0;stroke-dasharray:2.0,2.0;" x1="67.5" x2="524.5" y1="533.6563" y2="533.6563"/><text fill="#000000" font-family="sans-serif" font-size="13" font-weight="bold" lengthAdjust="spacing" textLength="14" x="79.5" y="528.9014">13</text><text fill="#000000" font-family="sans-serif" font-size="13" lengthAdjust="spacing" textLength="334" x="97.5" y="528.9014">shows Sun Exposure category list and asks to select one</text><polygon fill="#181818" points="513.5,558.1797,523.5,562.1797,513.5,566.1797,517.5,562.1797" style="stroke:#181818;stroke-width:1.0;"/><line style="stroke:#181818;stroke-width:1.0;" x1="62.5" x2="519.5" y1="562.1797" y2="562.1797"/><text fill="#000000" font-family="sans-serif" font-size="13" font-weight="bold" lengthAdjust="spacing" textLength="14" x="69.5" y="557.4248">14</text><text fill="#000000" font-family="sans-serif" font-size="13" lengthAdjust="spacing" textLength="193" x="87.5" y="557.4248">selects a Sun Exposure category</text><polygon fill="#181818" points="508.5,586.7031,518.5,590.7031,508.5,594.7031,512.5,590.7031" style="stroke:#181818;stroke-width:1.0;"/><line style="stroke:#181818;stroke-width:1.0;" x1="62.5" x2="514.5" y1="590.7031" y2="590.7031"/><text fill="#000000" font-family="sans-serif" font-size="13" font-weight="bold" lengthAdjust="spacing" textLength="14" x="69.5" y="585.9482">15</text><text fill="#000000" font-family="sans-serif" font-size="13" lengthAdjust="spacing" textLength="233" x="87.5" y="585.9482">types requested data (address, location)</text><polygon fill="#181818" points="73.5,615.2266,63.5,619.2266,73.5,623.2266,69.5,619.2266" style="stroke:#181818;stroke-width:1.0;"/><line style="stroke:#181818;stroke-width:1.0;stroke-dasharray:2.0,2.0;" x1="67.5" x2="524.5" y1="619.2266" y2="619.2266"/><text fill="#000000" font-family="sans-serif" font-size="13" font-weight="bold" lengthAdjust="spacing" textLength="14" x="79.5" y="614.4717">16</text><text fill="#000000" font-family="sans-serif" font-size="13" lengthAdjust="spacing" textLength="297" x="97.5" y="614.4717">shows location category list and asks to select one</text><polygon fill="#181818" points="513.5,643.75,523.5,647.75,513.5,651.75,517.5,647.75" style="stroke:#181818;stroke-width:1.0;"/><line style="stroke:#181818;stroke-width:1.0;" x1="62.5" x2="519.5" y1="647.75" y2="647.75"/><text fill="#000000" font-family="sans-serif" font-size="13" font-weight="bold" lengthAdjust="spacing" textLength="14" x="69.5" y="642.9951">17</text><text fill="#000000" font-family="sans-serif" font-size="13" lengthAdjust="spacing" textLength="156" x="87.5" y="642.9951">selects a location category</text><polygon fill="#181818" points="508.5,672.2734,518.5,676.2734,508.5,680.2734,512.5,676.2734" style="stroke:#181818;stroke-width:1.0;"/><line style="stroke:#181818;stroke-width:1.0;" x1="62.5" x2="514.5" y1="676.2734" y2="676.2734"/><text fill="#000000" font-family="sans-serif" font-size="13" font-weight="bold" lengthAdjust="spacing" textLength="14" x="69.5" y="671.5186">18</text><text fill="#000000" font-family="sans-serif" font-size="13" lengthAdjust="spacing" textLength="368" x="87.5" y="671.5186">types requested data (area, distance from the city centre, price)</text><polygon fill="#181818" points="73.5,700.7969,63.5,704.7969,73.5,708.7969,69.5,704.7969" style="stroke:#181818;stroke-width:1.0;"/><line style="stroke:#181818;stroke-width:1.0;stroke-dasharray:2.0,2.0;" x1="67.5" x2="524.5" y1="704.7969" y2="704.7969"/><text fill="#000000" font-family="sans-serif" font-size="13" font-weight="bold" lengthAdjust="spacing" textLength="14" x="79.5" y="700.042">19</text><text fill="#000000" font-family="sans-serif" font-size="13" lengthAdjust="spacing" textLength="291" x="97.5" y="700.042">pre selected property condition category to &#8220;ready&#8221;</text><polygon fill="#181818" points="508.5,729.3203,518.5,733.3203,508.5,737.3203,512.5,733.3203" style="stroke:#181818;stroke-width:1.0;"/><line style="stroke:#181818;stroke-width:1.0;" x1="62.5" x2="514.5" y1="733.3203" y2="733.3203"/><text fill="#000000" font-family="sans-serif" font-size="13" font-weight="bold" lengthAdjust="spacing" textLength="14" x="69.5" y="728.5654">20</text><text fill="#000000" font-family="sans-serif" font-size="13" lengthAdjust="spacing" textLength="82" x="87.5" y="728.5654">inserts photos</text><polygon fill="#181818" points="513.5,757.8438,523.5,761.8438,513.5,765.8438,517.5,761.8438" style="stroke:#181818;stroke-width:1.0;"/><line style="stroke:#181818;stroke-width:1.0;" x1="62.5" x2="519.5" y1="761.8438" y2="761.8438"/><text fill="#000000" font-family="sans-serif" font-size="13" font-weight="bold" lengthAdjust="spacing" textLength="14" x="69.5" y="757.0889">21</text><text fill="#000000" font-family="sans-serif" font-size="13" lengthAdjust="spacing" textLength="75" x="87.5" y="757.0889">submits data</text><polygon fill="#181818" points="73.5,786.3672,63.5,790.3672,73.5,794.3672,69.5,790.3672" style="stroke:#181818;stroke-width:1.0;"/><line style="stroke:#181818;stroke-width:1.0;stroke-dasharray:2.0,2.0;" x1="67.5" x2="524.5" y1="790.3672" y2="790.3672"/><text fill="#000000" font-family="sans-serif" font-size="13" font-weight="bold" lengthAdjust="spacing" textLength="14" x="79.5" y="785.6123">22</text><text fill="#000000" font-family="sans-serif" font-size="13" lengthAdjust="spacing" textLength="158" x="97.5" y="785.6123">displays operation success</text><polygon fill="#181818" points="73.5,814.8906,63.5,818.8906,73.5,822.8906,69.5,818.8906" style="stroke:#181818;stroke-width:1.0;"/><line style="stroke:#181818;stroke-width:1.0;stroke-dasharray:2.0,2.0;" x1="67.5" x2="519.5" y1="818.8906" y2="818.8906"/><text fill="#000000" font-family="sans-serif" font-size="13" font-weight="bold" lengthAdjust="spacing" textLength="14" x="79.5" y="814.1357">23</text><text fill="#000000" font-family="sans-serif" font-size="13" lengthAdjust="spacing" textLength="286" x="97.5" y="814.1357">sends document operation details and conclusion</text><!--SRC=[jLLBRjim45r7fnXuPGFE1R8eK21Pju2xx6PCZYt24gcIexZQvI3jvNAIFah-A8WTG2cibKJDctdpviEqSxxXo3NLmGTJnb0BQMobIAS_3PiTRsMbNIKKnIZxRJKsI2NRi7T-InkkaXI5EeNfgaigDQtaLolU23qwtcRp-MhrkA1x-bgfHC_gdeL-x4DHSAl1j_LQ8jwDXaYpxp4q4hMZRtilSKQSwAbkgj2950YkphY6lTBiOOZMMmollG_tp2fdI45uZbzq_-N8yG6mNI8DPA9a19ENFJM7w3tivEte_ku0leUVayy7vvswR0QmaPHetWd7PTPNooLPxXPNaD0nx1Cb92vau68ROaULIqhixObXaWereE2bfsNb7R6hIGxGXEpU1hcOtzt7DD4HqFt6DDy6cLA6Go4J6dOZCVVVDSEO-pCXd6NboLorQ_eWlG-nlHEQdsG9crCJBIxJfyFpaTP75xUM-rsSgNaFqvkpNekD8THfIQCprd8u_Eb7nvZZNLuU2Oj60EZW6BFlCOoeVkIAIfGI5e2T_x6BP8AtcBRWyyyHRir9Qc37PywNl7RAQsocAcmqSyX9P0QhrjFJxoQaDif_b6divjQbkXXhQhdOseWLjOGWS04T5v_P14VmhLD-5sTokbW9sC0Wn_a-sk2o8oqXdyijdtjDbfW1PpxN10qgCR15nFCe7NlqB0y4UNtv0pAsUttvEraHvnCyOokKGKEwplIodEswTkDbDp59gDTKt66gaDvGZjIQVD5TRHBn5l62QVD8Zd1Mb5sL-aQ1IgPgKpw-eiS_]--></g></svg>