<?xml version="1.0" encoding="us-ascii" standalone="no"?><svg xmlns="http://www.w3.org/2000/svg" xmlns:xlink="http://www.w3.org/1999/xlink" contentStyleType="text/css" height="1281px" preserveAspectRatio="none" style="width:856px;height:1281px;background:#FFFFFF;" version="1.1" viewBox="0 0 856 1281" width="856px" zoomAndPan="magnify"><defs/><g><text fill="#000000" font-family="sans-serif" font-size="14" font-weight="bold" lengthAdjust="spacing" textLength="228" x="315.75" y="27.6738">System Sequence Diagram (SSD)</text><rect fill="#FFFFFF" height="1065.3672" style="stroke:#181818;stroke-width:1.0;" width="10" x="67.5" y="127.2813"/><rect fill="#FFFFFF" height="28.5234" style="stroke:#181818;stroke-width:1.0;" width="10" x="803.5" y="147.8047"/><rect fill="#FFFFFF" height="28.5234" style="stroke:#181818;stroke-width:1.0;" width="10" x="803.5" y="204.8516"/><rect fill="#FFFFFF" height="28.5234" style="stroke:#181818;stroke-width:1.0;" width="10" x="803.5" y="261.8984"/><rect fill="#FFFFFF" height="52.0469" style="stroke:#181818;stroke-width:1.0;" width="10" x="803.5" y="318.9453"/><rect fill="#FFFFFF" height="28.5234" style="stroke:#181818;stroke-width:1.0;" width="10" x="803.5" y="399.5156"/><rect fill="#FFFFFF" height="59.0469" style="stroke:#181818;stroke-width:1.0;" width="10" x="803.5" y="456.5625"/><rect fill="#FFFFFF" height="59.0469" style="stroke:#181818;stroke-width:1.0;" width="10" x="803.5" y="544.1328"/><rect fill="#FFFFFF" height="35.5234" style="stroke:#181818;stroke-width:1.0;" width="10" x="803.5" y="631.7031"/><rect fill="#FFFFFF" height="28.5234" style="stroke:#181818;stroke-width:1.0;" width="10" x="803.5" y="695.75"/><rect fill="#FFFFFF" height="52.0469" style="stroke:#181818;stroke-width:1.0;" width="10" x="803.5" y="752.7969"/><rect fill="#FFFFFF" height="59.0469" style="stroke:#181818;stroke-width:1.0;" width="10" x="803.5" y="833.3672"/><rect fill="#FFFFFF" height="35.5234" style="stroke:#181818;stroke-width:1.0;" width="10" x="803.5" y="920.9375"/><rect fill="#FFFFFF" height="28.5234" style="stroke:#181818;stroke-width:1.0;" width="10" x="803.5" y="984.9844"/><rect fill="#FFFFFF" height="52.0469" style="stroke:#181818;stroke-width:1.0;" width="10" x="803.5" y="1042.0313"/><rect fill="none" height="130.6172" style="stroke:#000000;stroke-width:1.5;" width="840.5" x="10" y="333.9453"/><rect fill="none" height="73.5703" style="stroke:#000000;stroke-width:1.5;" width="840.5" x="10" y="478.5625"/><rect fill="none" height="73.5703" style="stroke:#000000;stroke-width:1.5;" width="840.5" x="10" y="566.1328"/><rect fill="none" height="73.5703" style="stroke:#000000;stroke-width:1.5;" width="840.5" x="10" y="767.7969"/><rect fill="none" height="73.5703" style="stroke:#000000;stroke-width:1.5;" width="840.5" x="10" y="855.3672"/><rect fill="none" height="45.0469" style="stroke:#000000;stroke-width:1.5;" width="840.5" x="10" y="1057.0313"/><rect fill="none" height="16.5234" style="stroke:#000000;stroke-width:1.5;" width="121" x="30" y="1168.125"/><line style="stroke:#181818;stroke-width:0.5;stroke-dasharray:5.0,5.0;" x1="72" x2="72" y1="117.2813" y2="1201.6484"/><line style="stroke:#181818;stroke-width:0.5;stroke-dasharray:5.0,5.0;" x1="808.5" x2="808.5" y1="117.2813" y2="1201.6484"/><text fill="#000000" font-family="sans-serif" font-size="14" lengthAdjust="spacing" textLength="99" x="20" y="114.3145">Property Owner</text><ellipse cx="72.5" cy="50.1406" fill="#E3E3E3" rx="8" ry="8" style="stroke:#181818;stroke-width:0.5;"/><path d="M72.5,58.1406 L72.5,85.1406 M59.5,66.1406 L85.5,66.1406 M72.5,85.1406 L59.5,100.1406 M72.5,85.1406 L85.5,100.1406 " fill="none" style="stroke:#181818;stroke-width:0.5;"/><text fill="#000000" font-family="sans-serif" font-size="14" lengthAdjust="spacing" textLength="99" x="20" y="1213.3223">Property Owner</text><ellipse cx="72.5" cy="1224.7891" fill="#E3E3E3" rx="8" ry="8" style="stroke:#181818;stroke-width:0.5;"/><path d="M72.5,1232.7891 L72.5,1259.7891 M59.5,1240.7891 L85.5,1240.7891 M72.5,1259.7891 L59.5,1274.7891 M72.5,1259.7891 L85.5,1274.7891 " fill="none" style="stroke:#181818;stroke-width:0.5;"/><rect fill="#E3E3E3" height="29.6406" rx="2.5" ry="2.5" style="stroke:#181818;stroke-width:0.5;" width="64" x="776.5" y="86.6406"/><text fill="#000000" font-family="sans-serif" font-size="14" lengthAdjust="spacing" textLength="50" x="783.5" y="106.3145">:System</text><rect fill="#E3E3E3" height="29.6406" rx="2.5" ry="2.5" style="stroke:#181818;stroke-width:0.5;" width="64" x="776.5" y="1200.6484"/><text fill="#000000" font-family="sans-serif" font-size="14" lengthAdjust="spacing" textLength="50" x="783.5" y="1220.3223">:System</text><rect fill="#FFFFFF" height="1065.3672" style="stroke:#181818;stroke-width:1.0;" width="10" x="67.5" y="127.2813"/><rect fill="#FFFFFF" height="28.5234" style="stroke:#181818;stroke-width:1.0;" width="10" x="803.5" y="147.8047"/><rect fill="#FFFFFF" height="28.5234" style="stroke:#181818;stroke-width:1.0;" width="10" x="803.5" y="204.8516"/><rect fill="#FFFFFF" height="28.5234" style="stroke:#181818;stroke-width:1.0;" width="10" x="803.5" y="261.8984"/><rect fill="#FFFFFF" height="52.0469" style="stroke:#181818;stroke-width:1.0;" width="10" x="803.5" y="318.9453"/><rect fill="#FFFFFF" height="28.5234" style="stroke:#181818;stroke-width:1.0;" width="10" x="803.5" y="399.5156"/><rect fill="#FFFFFF" height="59.0469" style="stroke:#181818;stroke-width:1.0;" width="10" x="803.5" y="456.5625"/><rect fill="#FFFFFF" height="59.0469" style="stroke:#181818;stroke-width:1.0;" width="10" x="803.5" y="544.1328"/><rect fill="#FFFFFF" height="35.5234" style="stroke:#181818;stroke-width:1.0;" width="10" x="803.5" y="631.7031"/><rect fill="#FFFFFF" height="28.5234" style="stroke:#181818;stroke-width:1.0;" width="10" x="803.5" y="695.75"/><rect fill="#FFFFFF" height="52.0469" style="stroke:#181818;stroke-width:1.0;" width="10" x="803.5" y="752.7969"/><rect fill="#FFFFFF" height="59.0469" style="stroke:#181818;stroke-width:1.0;" width="10" x="803.5" y="833.3672"/><rect fill="#FFFFFF" height="35.5234" style="stroke:#181818;stroke-width:1.0;" width="10" x="803.5" y="920.9375"/><rect fill="#FFFFFF" height="28.5234" style="stroke:#181818;stroke-width:1.0;" width="10" x="803.5" y="984.9844"/><rect fill="#FFFFFF" height="52.0469" style="stroke:#181818;stroke-width:1.0;" width="10" x="803.5" y="1042.0313"/><polygon fill="#181818" points="791.5,143.8047,801.5,147.8047,791.5,151.8047,795.5,147.8047" style="stroke:#181818;stroke-width:1.0;"/><line style="stroke:#181818;stroke-width:1.0;" x1="77.5" x2="797.5" y1="147.8047" y2="147.8047"/><text fill="#000000" font-family="sans-serif" font-size="13" font-weight="bold" lengthAdjust="spacing" textLength="7" x="84.5" y="143.0498">1</text><text fill="#000000" font-family="sans-serif" font-size="13" lengthAdjust="spacing" textLength="172" x="95.5" y="143.0498">asks to create a new property</text><polygon fill="#181818" points="88.5,172.3281,78.5,176.3281,88.5,180.3281,84.5,176.3281" style="stroke:#181818;stroke-width:1.0;"/><line style="stroke:#181818;stroke-width:1.0;stroke-dasharray:2.0,2.0;" x1="82.5" x2="807.5" y1="176.3281" y2="176.3281"/><text fill="#000000" font-family="sans-serif" font-size="13" font-weight="bold" lengthAdjust="spacing" textLength="7" x="94.5" y="171.5732">2</text><text fill="#000000" font-family="sans-serif" font-size="13" lengthAdjust="spacing" textLength="487" x="105.5" y="171.5732">initiate process (year, month, day), shows store category list and asks to select one</text><polygon fill="#181818" points="791.5,200.8516,801.5,204.8516,791.5,208.8516,795.5,204.8516" style="stroke:#181818;stroke-width:1.0;"/><line style="stroke:#181818;stroke-width:1.0;" x1="77.5" x2="797.5" y1="204.8516" y2="204.8516"/><text fill="#000000" font-family="sans-serif" font-size="13" font-weight="bold" lengthAdjust="spacing" textLength="7" x="84.5" y="200.0967">3</text><text fill="#000000" font-family="sans-serif" font-size="13" lengthAdjust="spacing" textLength="129" x="95.5" y="200.0967">selects store category</text><polygon fill="#181818" points="88.5,229.375,78.5,233.375,88.5,237.375,84.5,233.375" style="stroke:#181818;stroke-width:1.0;"/><line style="stroke:#181818;stroke-width:1.0;stroke-dasharray:2.0,2.0;" x1="82.5" x2="807.5" y1="233.375" y2="233.375"/><text fill="#000000" font-family="sans-serif" font-size="13" font-weight="bold" lengthAdjust="spacing" textLength="7" x="94.5" y="228.6201">4</text><text fill="#000000" font-family="sans-serif" font-size="13" lengthAdjust="spacing" textLength="284" x="105.5" y="228.6201">shows agent category list and asks to select one</text><polygon fill="#181818" points="791.5,257.8984,801.5,261.8984,791.5,265.8984,795.5,261.8984" style="stroke:#181818;stroke-width:1.0;"/><line style="stroke:#181818;stroke-width:1.0;" x1="77.5" x2="797.5" y1="261.8984" y2="261.8984"/><text fill="#000000" font-family="sans-serif" font-size="13" font-weight="bold" lengthAdjust="spacing" textLength="7" x="84.5" y="257.1436">5</text><text fill="#000000" font-family="sans-serif" font-size="13" lengthAdjust="spacing" textLength="132" x="95.5" y="257.1436">selects agent category</text><polygon fill="#181818" points="88.5,286.4219,78.5,290.4219,88.5,294.4219,84.5,290.4219" style="stroke:#181818;stroke-width:1.0;"/><line style="stroke:#181818;stroke-width:1.0;stroke-dasharray:2.0,2.0;" x1="82.5" x2="807.5" y1="290.4219" y2="290.4219"/><text fill="#000000" font-family="sans-serif" font-size="13" font-weight="bold" lengthAdjust="spacing" textLength="7" x="94.5" y="285.667">6</text><text fill="#000000" font-family="sans-serif" font-size="13" lengthAdjust="spacing" textLength="498" x="105.5" y="285.667">creates reference , requests data: shows property category list and asks to select one</text><polygon fill="#181818" points="791.5,314.9453,801.5,318.9453,791.5,322.9453,795.5,318.9453" style="stroke:#181818;stroke-width:1.0;"/><line style="stroke:#181818;stroke-width:1.0;" x1="77.5" x2="797.5" y1="318.9453" y2="318.9453"/><text fill="#000000" font-family="sans-serif" font-size="13" font-weight="bold" lengthAdjust="spacing" textLength="7" x="84.5" y="314.1904">7</text><text fill="#000000" font-family="sans-serif" font-size="13" lengthAdjust="spacing" textLength="147" x="95.5" y="314.1904">selects property category</text><path d="M10,333.9453 L79,333.9453 L79,340.4688 L69,350.4688 L10,350.4688 L10,333.9453 " fill="#EEEEEE" style="stroke:#000000;stroke-width:1.5;"/><rect fill="none" height="130.6172" style="stroke:#000000;stroke-width:1.5;" width="840.5" x="10" y="333.9453"/><text fill="#000000" font-family="sans-serif" font-size="13" font-weight="bold" lengthAdjust="spacing" textLength="20" x="25" y="346.7139">opt</text><text fill="#000000" font-family="sans-serif" font-size="11" font-weight="bold" lengthAdjust="spacing" textLength="106" x="94" y="345.9033">[answer = 1 House]</text><polygon fill="#181818" points="88.5,366.9922,78.5,370.9922,88.5,374.9922,84.5,370.9922" style="stroke:#181818;stroke-width:1.0;"/><line style="stroke:#181818;stroke-width:1.0;stroke-dasharray:2.0,2.0;" x1="82.5" x2="807.5" y1="370.9922" y2="370.9922"/><text fill="#000000" font-family="sans-serif" font-size="13" font-weight="bold" lengthAdjust="spacing" textLength="7" x="94.5" y="366.2373">8</text><text fill="#000000" font-family="sans-serif" font-size="13" lengthAdjust="spacing" textLength="691" x="105.5" y="366.2373">requests data: numberBedrooms, numberBathrooms, numberParking, availableEquipment, basement, loft, sunExposure</text><polygon fill="#181818" points="791.5,395.5156,801.5,399.5156,791.5,403.5156,795.5,399.5156" style="stroke:#181818;stroke-width:1.0;"/><line style="stroke:#181818;stroke-width:1.0;" x1="77.5" x2="797.5" y1="399.5156" y2="399.5156"/><text fill="#000000" font-family="sans-serif" font-size="13" font-weight="bold" lengthAdjust="spacing" textLength="7" x="84.5" y="394.7607">9</text><text fill="#000000" font-family="sans-serif" font-size="13" lengthAdjust="spacing" textLength="669" x="95.5" y="394.7607">input data: numberBedrooms, numberBathrooms, numberParking, availableEquipment, basement, loft, sunExposure</text><polygon fill="#181818" points="88.5,424.0391,78.5,428.0391,88.5,432.0391,84.5,428.0391" style="stroke:#181818;stroke-width:1.0;"/><line style="stroke:#181818;stroke-width:1.0;stroke-dasharray:2.0,2.0;" x1="82.5" x2="807.5" y1="428.0391" y2="428.0391"/><text fill="#000000" font-family="sans-serif" font-size="13" font-weight="bold" lengthAdjust="spacing" textLength="14" x="94.5" y="423.2842">10</text><text fill="#000000" font-family="sans-serif" font-size="13" lengthAdjust="spacing" textLength="163" x="112.5" y="423.2842">requests data: sunExposure</text><polygon fill="#181818" points="791.5,452.5625,801.5,456.5625,791.5,460.5625,795.5,456.5625" style="stroke:#181818;stroke-width:1.0;"/><line style="stroke:#181818;stroke-width:1.0;" x1="77.5" x2="797.5" y1="456.5625" y2="456.5625"/><text fill="#000000" font-family="sans-serif" font-size="13" font-weight="bold" lengthAdjust="spacing" textLength="14" x="84.5" y="451.8076">11</text><text fill="#000000" font-family="sans-serif" font-size="13" lengthAdjust="spacing" textLength="141" x="102.5" y="451.8076">input data: sunExposure</text><path d="M10,478.5625 L79,478.5625 L79,485.0859 L69,495.0859 L10,495.0859 L10,478.5625 " fill="#EEEEEE" style="stroke:#000000;stroke-width:1.5;"/><rect fill="none" height="73.5703" style="stroke:#000000;stroke-width:1.5;" width="840.5" x="10" y="478.5625"/><text fill="#000000" font-family="sans-serif" font-size="13" font-weight="bold" lengthAdjust="spacing" textLength="20" x="25" y="491.3311">opt</text><text fill="#000000" font-family="sans-serif" font-size="11" font-weight="bold" lengthAdjust="spacing" textLength="130" x="94" y="490.5205">[answer = 2 Apartment]</text><polygon fill="#181818" points="88.5,511.6094,78.5,515.6094,88.5,519.6094,84.5,515.6094" style="stroke:#181818;stroke-width:1.0;"/><line style="stroke:#181818;stroke-width:1.0;stroke-dasharray:2.0,2.0;" x1="82.5" x2="807.5" y1="515.6094" y2="515.6094"/><text fill="#000000" font-family="sans-serif" font-size="13" font-weight="bold" lengthAdjust="spacing" textLength="14" x="94.5" y="510.8545">12</text><text fill="#000000" font-family="sans-serif" font-size="13" lengthAdjust="spacing" textLength="517" x="112.5" y="510.8545">requests data: numberBedrooms, numberBathrooms, numberParking, availableEquipment</text><polygon fill="#181818" points="791.5,540.1328,801.5,544.1328,791.5,548.1328,795.5,544.1328" style="stroke:#181818;stroke-width:1.0;"/><line style="stroke:#181818;stroke-width:1.0;" x1="77.5" x2="797.5" y1="544.1328" y2="544.1328"/><text fill="#000000" font-family="sans-serif" font-size="13" font-weight="bold" lengthAdjust="spacing" textLength="14" x="84.5" y="539.3779">13</text><text fill="#000000" font-family="sans-serif" font-size="13" lengthAdjust="spacing" textLength="495" x="102.5" y="539.3779">input data: numberBedrooms, numberBathrooms, numberParking, availableEquipment</text><path d="M10,566.1328 L79,566.1328 L79,572.6563 L69,582.6563 L10,582.6563 L10,566.1328 " fill="#EEEEEE" style="stroke:#000000;stroke-width:1.5;"/><rect fill="none" height="73.5703" style="stroke:#000000;stroke-width:1.5;" width="840.5" x="10" y="566.1328"/><text fill="#000000" font-family="sans-serif" font-size="13" font-weight="bold" lengthAdjust="spacing" textLength="20" x="25" y="578.9014">opt</text><text fill="#000000" font-family="sans-serif" font-size="11" font-weight="bold" lengthAdjust="spacing" textLength="98" x="94" y="578.0908">[answer = 3 Land]</text><polygon fill="#181818" points="88.5,599.1797,78.5,603.1797,88.5,607.1797,84.5,603.1797" style="stroke:#181818;stroke-width:1.0;"/><line style="stroke:#181818;stroke-width:1.0;stroke-dasharray:2.0,2.0;" x1="82.5" x2="807.5" y1="603.1797" y2="603.1797"/><text fill="#000000" font-family="sans-serif" font-size="13" font-weight="bold" lengthAdjust="spacing" textLength="14" x="94.5" y="598.4248">14</text><text fill="#000000" font-family="sans-serif" font-size="13" lengthAdjust="spacing" textLength="150" x="112.5" y="598.4248">requests data: description</text><polygon fill="#181818" points="791.5,627.7031,801.5,631.7031,791.5,635.7031,795.5,631.7031" style="stroke:#181818;stroke-width:1.0;"/><line style="stroke:#181818;stroke-width:1.0;" x1="77.5" x2="797.5" y1="631.7031" y2="631.7031"/><text fill="#000000" font-family="sans-serif" font-size="13" font-weight="bold" lengthAdjust="spacing" textLength="14" x="84.5" y="626.9482">15</text><text fill="#000000" font-family="sans-serif" font-size="13" lengthAdjust="spacing" textLength="128" x="102.5" y="626.9482">input data: description</text><polygon fill="#181818" points="88.5,663.2266,78.5,667.2266,88.5,671.2266,84.5,667.2266" style="stroke:#181818;stroke-width:1.0;"/><line style="stroke:#181818;stroke-width:1.0;stroke-dasharray:2.0,2.0;" x1="82.5" x2="807.5" y1="667.2266" y2="667.2266"/><text fill="#000000" font-family="sans-serif" font-size="13" font-weight="bold" lengthAdjust="spacing" textLength="14" x="94.5" y="662.4717">16</text><text fill="#000000" font-family="sans-serif" font-size="13" lengthAdjust="spacing" textLength="278" x="112.5" y="662.4717">request data: area, distance from the city centre</text><polygon fill="#181818" points="791.5,691.75,801.5,695.75,791.5,699.75,795.5,695.75" style="stroke:#181818;stroke-width:1.0;"/><line style="stroke:#181818;stroke-width:1.0;" x1="77.5" x2="797.5" y1="695.75" y2="695.75"/><text fill="#000000" font-family="sans-serif" font-size="13" font-weight="bold" lengthAdjust="spacing" textLength="14" x="84.5" y="690.9951">17</text><text fill="#000000" font-family="sans-serif" font-size="13" lengthAdjust="spacing" textLength="263" x="102.5" y="690.9951">input data: area, distance from the city centre</text><polygon fill="#181818" points="88.5,720.2734,78.5,724.2734,88.5,728.2734,84.5,724.2734" style="stroke:#181818;stroke-width:1.0;"/><line style="stroke:#181818;stroke-width:1.0;stroke-dasharray:2.0,2.0;" x1="82.5" x2="807.5" y1="724.2734" y2="724.2734"/><text fill="#000000" font-family="sans-serif" font-size="13" font-weight="bold" lengthAdjust="spacing" textLength="14" x="94.5" y="719.5186">18</text><text fill="#000000" font-family="sans-serif" font-size="13" lengthAdjust="spacing" textLength="180" x="112.5" y="719.5186">request data: Type of Business</text><polygon fill="#181818" points="791.5,748.7969,801.5,752.7969,791.5,756.7969,795.5,752.7969" style="stroke:#181818;stroke-width:1.0;"/><line style="stroke:#181818;stroke-width:1.0;" x1="77.5" x2="797.5" y1="752.7969" y2="752.7969"/><text fill="#000000" font-family="sans-serif" font-size="13" font-weight="bold" lengthAdjust="spacing" textLength="14" x="84.5" y="748.042">19</text><text fill="#000000" font-family="sans-serif" font-size="13" lengthAdjust="spacing" textLength="157" x="102.5" y="748.042">selects a Type of Business</text><path d="M10,767.7969 L79,767.7969 L79,774.3203 L69,784.3203 L10,784.3203 L10,767.7969 " fill="#EEEEEE" style="stroke:#000000;stroke-width:1.5;"/><rect fill="none" height="73.5703" style="stroke:#000000;stroke-width:1.5;" width="840.5" x="10" y="767.7969"/><text fill="#000000" font-family="sans-serif" font-size="13" font-weight="bold" lengthAdjust="spacing" textLength="20" x="25" y="780.5654">opt</text><text fill="#000000" font-family="sans-serif" font-size="11" font-weight="bold" lengthAdjust="spacing" textLength="94" x="94" y="779.7549">[answer = 1 Sale]</text><polygon fill="#181818" points="88.5,800.8438,78.5,804.8438,88.5,808.8438,84.5,804.8438" style="stroke:#181818;stroke-width:1.0;"/><line style="stroke:#181818;stroke-width:1.0;stroke-dasharray:2.0,2.0;" x1="82.5" x2="807.5" y1="804.8438" y2="804.8438"/><text fill="#000000" font-family="sans-serif" font-size="13" font-weight="bold" lengthAdjust="spacing" textLength="14" x="94.5" y="800.0889">20</text><text fill="#000000" font-family="sans-serif" font-size="13" lengthAdjust="spacing" textLength="147" x="112.5" y="800.0889">requests data: Sale Price</text><polygon fill="#181818" points="791.5,829.3672,801.5,833.3672,791.5,837.3672,795.5,833.3672" style="stroke:#181818;stroke-width:1.0;"/><line style="stroke:#181818;stroke-width:1.0;" x1="77.5" x2="797.5" y1="833.3672" y2="833.3672"/><text fill="#000000" font-family="sans-serif" font-size="13" font-weight="bold" lengthAdjust="spacing" textLength="14" x="84.5" y="828.6123">21</text><text fill="#000000" font-family="sans-serif" font-size="13" lengthAdjust="spacing" textLength="125" x="102.5" y="828.6123">input data: Sale Price</text><path d="M10,855.3672 L79,855.3672 L79,861.8906 L69,871.8906 L10,871.8906 L10,855.3672 " fill="#EEEEEE" style="stroke:#000000;stroke-width:1.5;"/><rect fill="none" height="73.5703" style="stroke:#000000;stroke-width:1.5;" width="840.5" x="10" y="855.3672"/><text fill="#000000" font-family="sans-serif" font-size="13" font-weight="bold" lengthAdjust="spacing" textLength="20" x="25" y="868.1357">opt</text><text fill="#000000" font-family="sans-serif" font-size="11" font-weight="bold" lengthAdjust="spacing" textLength="96" x="94" y="867.3252">[answer = 2 Rent]</text><polygon fill="#181818" points="88.5,888.4141,78.5,892.4141,88.5,896.4141,84.5,892.4141" style="stroke:#181818;stroke-width:1.0;"/><line style="stroke:#181818;stroke-width:1.0;stroke-dasharray:2.0,2.0;" x1="82.5" x2="807.5" y1="892.4141" y2="892.4141"/><text fill="#000000" font-family="sans-serif" font-size="13" font-weight="bold" lengthAdjust="spacing" textLength="14" x="94.5" y="887.6592">22</text><text fill="#000000" font-family="sans-serif" font-size="13" lengthAdjust="spacing" textLength="281" x="112.5" y="887.6592">requests data: Rental Price, Duration of Contract</text><polygon fill="#181818" points="791.5,916.9375,801.5,920.9375,791.5,924.9375,795.5,920.9375" style="stroke:#181818;stroke-width:1.0;"/><line style="stroke:#181818;stroke-width:1.0;" x1="77.5" x2="797.5" y1="920.9375" y2="920.9375"/><text fill="#000000" font-family="sans-serif" font-size="13" font-weight="bold" lengthAdjust="spacing" textLength="14" x="84.5" y="916.1826">23</text><text fill="#000000" font-family="sans-serif" font-size="13" lengthAdjust="spacing" textLength="259" x="102.5" y="916.1826">input data: Rental Price, Duration of Contract</text><polygon fill="#181818" points="88.5,952.4609,78.5,956.4609,88.5,960.4609,84.5,956.4609" style="stroke:#181818;stroke-width:1.0;"/><line style="stroke:#181818;stroke-width:1.0;stroke-dasharray:2.0,2.0;" x1="82.5" x2="807.5" y1="956.4609" y2="956.4609"/><text fill="#000000" font-family="sans-serif" font-size="13" font-weight="bold" lengthAdjust="spacing" textLength="14" x="94.5" y="951.7061">24</text><text fill="#000000" font-family="sans-serif" font-size="13" lengthAdjust="spacing" textLength="86" x="112.5" y="951.7061">request photos</text><polygon fill="#181818" points="791.5,980.9844,801.5,984.9844,791.5,988.9844,795.5,984.9844" style="stroke:#181818;stroke-width:1.0;"/><line style="stroke:#181818;stroke-width:1.0;" x1="77.5" x2="797.5" y1="984.9844" y2="984.9844"/><text fill="#000000" font-family="sans-serif" font-size="13" font-weight="bold" lengthAdjust="spacing" textLength="14" x="84.5" y="980.2295">25</text><text fill="#000000" font-family="sans-serif" font-size="13" lengthAdjust="spacing" textLength="82" x="102.5" y="980.2295">inserts photos</text><polygon fill="#181818" points="88.5,1009.5078,78.5,1013.5078,88.5,1017.5078,84.5,1013.5078" style="stroke:#181818;stroke-width:1.0;"/><line style="stroke:#181818;stroke-width:1.0;stroke-dasharray:2.0,2.0;" x1="82.5" x2="807.5" y1="1013.5078" y2="1013.5078"/><text fill="#000000" font-family="sans-serif" font-size="13" font-weight="bold" lengthAdjust="spacing" textLength="14" x="94.5" y="1008.7529">26</text><text fill="#000000" font-family="sans-serif" font-size="13" lengthAdjust="spacing" textLength="264" x="112.5" y="1008.7529">Displays property conditions ask for validation</text><polygon fill="#181818" points="791.5,1038.0313,801.5,1042.0313,791.5,1046.0313,795.5,1042.0313" style="stroke:#181818;stroke-width:1.0;"/><line style="stroke:#181818;stroke-width:1.0;" x1="77.5" x2="797.5" y1="1042.0313" y2="1042.0313"/><text fill="#000000" font-family="sans-serif" font-size="13" font-weight="bold" lengthAdjust="spacing" textLength="14" x="84.5" y="1037.2764">27</text><text fill="#000000" font-family="sans-serif" font-size="13" lengthAdjust="spacing" textLength="85" x="102.5" y="1037.2764">input validation</text><path d="M10,1057.0313 L79,1057.0313 L79,1063.5547 L69,1073.5547 L10,1073.5547 L10,1057.0313 " fill="#EEEEEE" style="stroke:#000000;stroke-width:1.5;"/><rect fill="none" height="45.0469" style="stroke:#000000;stroke-width:1.5;" width="840.5" x="10" y="1057.0313"/><text fill="#000000" font-family="sans-serif" font-size="13" font-weight="bold" lengthAdjust="spacing" textLength="20" x="25" y="1069.7998">opt</text><text fill="#000000" font-family="sans-serif" font-size="11" font-weight="bold" lengthAdjust="spacing" textLength="88" x="94" y="1068.9893">[answer = True]</text><polygon fill="#181818" points="88.5,1090.0781,78.5,1094.0781,88.5,1098.0781,84.5,1094.0781" style="stroke:#181818;stroke-width:1.0;"/><line style="stroke:#181818;stroke-width:1.0;stroke-dasharray:2.0,2.0;" x1="82.5" x2="807.5" y1="1094.0781" y2="1094.0781"/><text fill="#000000" font-family="sans-serif" font-size="13" font-weight="bold" lengthAdjust="spacing" textLength="14" x="94.5" y="1089.3232">28</text><text fill="#000000" font-family="sans-serif" font-size="13" lengthAdjust="spacing" textLength="452" x="112.5" y="1089.3232">displays operation success, sends document operation details and conclusion</text><polygon fill="#181818" points="88.5,1149.125,78.5,1153.125,88.5,1157.125,84.5,1153.125" style="stroke:#181818;stroke-width:1.0;"/><line style="stroke:#181818;stroke-width:1.0;stroke-dasharray:2.0,2.0;" x1="82.5" x2="807.5" y1="1153.125" y2="1153.125"/><text fill="#000000" font-family="sans-serif" font-size="13" font-weight="bold" lengthAdjust="spacing" textLength="14" x="94.5" y="1148.3701">29</text><text fill="#000000" font-family="sans-serif" font-size="13" lengthAdjust="spacing" textLength="183" x="112.5" y="1148.3701">displays operation non success</text><path d="M30,1168.125 L103,1168.125 L103,1174.6484 L93,1184.6484 L30,1184.6484 L30,1168.125 " fill="#EEEEEE" style="stroke:#000000;stroke-width:1.5;"/><rect fill="none" height="16.5234" style="stroke:#000000;stroke-width:1.5;" width="121" x="30" y="1168.125"/><text fill="#000000" font-family="sans-serif" font-size="13" font-weight="bold" lengthAdjust="spacing" textLength="28" x="45" y="1180.8936">loop</text><text fill="#000000" font-family="sans-serif" font-size="11" font-weight="bold" lengthAdjust="spacing" textLength="28" x="118" y="1180.083">[to 1]</text><!--SRC=[lLVBRjim43n7Nx78AG6KGzfRW1PewXGz56XGfwSYXmsrbebG9CD7NFrzbvBjEhOUjjl41u6coE7CSBbS-KUfBJgie3BQYBap5K5maJA_VcDHF699qr0h0aSYe2xLvW0_ny8if2vXXifJbWKPUEYqze4gcD9J92q89XBBDFniEfsSPnd6O7Ii7iXnMmJZuFJM6KikrF1zeScT0dhuwVazBnEaa1PrWDEh5hTvspQR-V8P0xN3WN_D8_rI3rnyNB6vuccF7e81uIZDGD2q0BjSkPcsHbl1dwJU9S05OpMOLrBB8DCmdYp8UpYh2LsUd0pp70giptFsnYmyU9P787XmQLmDIle0g8ir5q-AVGMZgI5Gq0w5NZdjrEqb3j6nvCXRpFQ-AiUNInp4iTqjp_4t8zU4KyvjZYpFk0K6NCbOxUJhAjbPfLjCwYoTYHQC3V0BjLymu0UuXAycUhfVBzGjUajWUrgkgN36L3vV_SSmVz5nYuwFPfa3FgDK-A3evYbAMx7tEJoWfxQbp8oVFkgRtzRuw6XDPi2GNcCu5yJmnZnxMOuwsONslzGFOMyZfpxIHN-Wl8DFAVab9-vtqDuWOB83dNc3sCY631rtz3ryurnmtybyrD22l73I1cdqCN6pbqD3Qmp6pw229JXo6kMhYJCYfXmwu_iUmfpl3Pbo6Rlh3i-9c-JtnTytxRzaVrTR0ZE3w-YbvXlt-8ke6-g0_3r5jP6-HmCd3OTR9yM_sRi5SsHA-T6PJVRMagQZQcdaC8aEKwmcCpzpvUEOK2Vs0UTZr8SZAVHvjPTyi7CJJ6_CdGmGvvvKC_oTF-Z4BeE9z5PXlLbs65t8fDcdgWPcN3q_ev85hjF6YDqzzcw1x7qWxlYJOQoQALOgaePsmtmKgNBcwvstWUFBY9XI_CQ8WW9V0BwftrYqK7nUDnBZhihH-F-Ilb6EuAh_yXrPNXbZKvrv2MisVm00]--></g></svg>