<?xml version="1.0" encoding="us-ascii" standalone="no"?><svg xmlns="http://www.w3.org/2000/svg" xmlns:xlink="http://www.w3.org/1999/xlink" contentStyleType="text/css" height="774px" preserveAspectRatio="none" style="width:597px;height:774px;background:#FFFFFF;" version="1.1" viewBox="0 0 597 774" width="597px" zoomAndPan="magnify"><defs/><g><text fill="#000000" font-family="sans-serif" font-size="14" font-weight="bold" lengthAdjust="spacing" textLength="351" x="122.25" y="27.6738">System Sequence Diagram (SSD) - Alternative One</text><rect fill="#FFFFFF" height="557.9922" style="stroke:#181818;stroke-width:1.0;" width="10" x="21.5" y="127.2813"/><rect fill="#FFFFFF" height="57.0469" style="stroke:#181818;stroke-width:1.0;" width="10" x="554.5" y="147.8047"/><rect fill="#FFFFFF" height="28.5234" style="stroke:#181818;stroke-width:1.0;" width="10" x="554.5" y="233.375"/><rect fill="#FFFFFF" height="28.5234" style="stroke:#181818;stroke-width:1.0;" width="10" x="554.5" y="362.5156"/><rect fill="#FFFFFF" height="28.5234" style="stroke:#181818;stroke-width:1.0;" width="10" x="554.5" y="448.0859"/><rect fill="#FFFFFF" height="28.5234" style="stroke:#181818;stroke-width:1.0;" width="10" x="554.5" y="533.6563"/><rect fill="#FFFFFF" height="94.5703" style="stroke:#181818;stroke-width:1.0;" width="10" x="554.5" y="590.7031"/><rect fill="#FFFFFF" height="57.0469" style="stroke:#181818;stroke-width:1.0;" width="10" x="559.5" y="619.2266"/><line style="stroke:#181818;stroke-width:0.5;stroke-dasharray:5.0,5.0;" x1="26" x2="26" y1="117.2813" y2="694.2734"/><line style="stroke:#181818;stroke-width:0.5;stroke-dasharray:5.0,5.0;" x1="559.5" x2="559.5" y1="117.2813" y2="694.2734"/><text fill="#000000" font-family="sans-serif" font-size="14" lengthAdjust="spacing" textLength="37" x="5" y="114.3145">Agent</text><ellipse cx="26.5" cy="50.1406" fill="#E3E3E3" rx="8" ry="8" style="stroke:#181818;stroke-width:0.5;"/><path d="M26.5,58.1406 L26.5,85.1406 M13.5,66.1406 L39.5,66.1406 M26.5,85.1406 L13.5,100.1406 M26.5,85.1406 L39.5,100.1406 " fill="none" style="stroke:#181818;stroke-width:0.5;"/><text fill="#000000" font-family="sans-serif" font-size="14" lengthAdjust="spacing" textLength="37" x="5" y="705.9473">Agent</text><ellipse cx="26.5" cy="717.4141" fill="#E3E3E3" rx="8" ry="8" style="stroke:#181818;stroke-width:0.5;"/><path d="M26.5,725.4141 L26.5,752.4141 M13.5,733.4141 L39.5,733.4141 M26.5,752.4141 L13.5,767.4141 M26.5,752.4141 L39.5,767.4141 " fill="none" style="stroke:#181818;stroke-width:0.5;"/><rect fill="#E3E3E3" height="29.6406" rx="2.5" ry="2.5" style="stroke:#181818;stroke-width:0.5;" width="64" x="527.5" y="86.6406"/><text fill="#000000" font-family="sans-serif" font-size="14" lengthAdjust="spacing" textLength="50" x="534.5" y="106.3145">:System</text><rect fill="#E3E3E3" height="29.6406" rx="2.5" ry="2.5" style="stroke:#181818;stroke-width:0.5;" width="64" x="527.5" y="693.2734"/><text fill="#000000" font-family="sans-serif" font-size="14" lengthAdjust="spacing" textLength="50" x="534.5" y="712.9473">:System</text><rect fill="#FFFFFF" height="557.9922" style="stroke:#181818;stroke-width:1.0;" width="10" x="21.5" y="127.2813"/><rect fill="#FFFFFF" height="57.0469" style="stroke:#181818;stroke-width:1.0;" width="10" x="554.5" y="147.8047"/><rect fill="#FFFFFF" height="28.5234" style="stroke:#181818;stroke-width:1.0;" width="10" x="554.5" y="233.375"/><rect fill="#FFFFFF" height="28.5234" style="stroke:#181818;stroke-width:1.0;" width="10" x="554.5" y="362.5156"/><rect fill="#FFFFFF" height="28.5234" style="stroke:#181818;stroke-width:1.0;" width="10" x="554.5" y="448.0859"/><rect fill="#FFFFFF" height="28.5234" style="stroke:#181818;stroke-width:1.0;" width="10" x="554.5" y="533.6563"/><rect fill="#FFFFFF" height="94.5703" style="stroke:#181818;stroke-width:1.0;" width="10" x="554.5" y="590.7031"/><rect fill="#FFFFFF" height="57.0469" style="stroke:#181818;stroke-width:1.0;" width="10" x="559.5" y="619.2266"/><polygon fill="#181818" points="542.5,143.8047,552.5,147.8047,542.5,151.8047,546.5,147.8047" style="stroke:#181818;stroke-width:1.0;"/><line style="stroke:#181818;stroke-width:1.0;" x1="31.5" x2="548.5" y1="147.8047" y2="147.8047"/><text fill="#000000" font-family="sans-serif" font-size="13" font-weight="bold" lengthAdjust="spacing" textLength="7" x="38.5" y="143.0498">1</text><text fill="#000000" font-family="sans-serif" font-size="13" lengthAdjust="spacing" textLength="172" x="49.5" y="143.0498">asks to create a new property</text><polygon fill="#181818" points="42.5,172.3281,32.5,176.3281,42.5,180.3281,38.5,176.3281" style="stroke:#181818;stroke-width:1.0;"/><line style="stroke:#181818;stroke-width:1.0;stroke-dasharray:2.0,2.0;" x1="36.5" x2="553.5" y1="176.3281" y2="176.3281"/><text fill="#000000" font-family="sans-serif" font-size="13" font-weight="bold" lengthAdjust="spacing" textLength="7" x="48.5" y="171.5732">2</text><text fill="#000000" font-family="sans-serif" font-size="13" lengthAdjust="spacing" textLength="488" x="59.5" y="171.5732">initiate process (year, month, day, store identification, agent identification, reference)</text><polygon fill="#181818" points="42.5,200.8516,32.5,204.8516,42.5,208.8516,38.5,204.8516" style="stroke:#181818;stroke-width:1.0;"/><line style="stroke:#181818;stroke-width:1.0;stroke-dasharray:2.0,2.0;" x1="36.5" x2="558.5" y1="204.8516" y2="204.8516"/><text fill="#000000" font-family="sans-serif" font-size="13" font-weight="bold" lengthAdjust="spacing" textLength="7" x="48.5" y="200.0967">3</text><text fill="#000000" font-family="sans-serif" font-size="13" lengthAdjust="spacing" textLength="79" x="59.5" y="200.0967">requests data</text><polygon fill="#181818" points="542.5,229.375,552.5,233.375,542.5,237.375,546.5,233.375" style="stroke:#181818;stroke-width:1.0;"/><line style="stroke:#181818;stroke-width:1.0;" x1="31.5" x2="548.5" y1="233.375" y2="233.375"/><text fill="#000000" font-family="sans-serif" font-size="13" font-weight="bold" lengthAdjust="spacing" textLength="7" x="38.5" y="228.6201">4</text><text fill="#000000" font-family="sans-serif" font-size="13" lengthAdjust="spacing" textLength="249" x="49.5" y="228.6201">types requested data (category of property)</text><polygon fill="#181818" points="42.5,257.8984,32.5,261.8984,42.5,265.8984,38.5,261.8984" style="stroke:#181818;stroke-width:1.0;"/><line style="stroke:#181818;stroke-width:1.0;stroke-dasharray:2.0,2.0;" x1="36.5" x2="558.5" y1="261.8984" y2="261.8984"/><text fill="#000000" font-family="sans-serif" font-size="13" font-weight="bold" lengthAdjust="spacing" textLength="7" x="48.5" y="257.1436">5</text><text fill="#000000" font-family="sans-serif" font-size="13" lengthAdjust="spacing" textLength="299" x="59.5" y="257.1436">shows property category list and asks to select one</text><polygon fill="#181818" points="547.5,286.4219,557.5,290.4219,547.5,294.4219,551.5,290.4219" style="stroke:#181818;stroke-width:1.0;"/><line style="stroke:#181818;stroke-width:1.0;" x1="31.5" x2="553.5" y1="290.4219" y2="290.4219"/><text fill="#000000" font-family="sans-serif" font-size="13" font-weight="bold" lengthAdjust="spacing" textLength="7" x="38.5" y="285.667">6</text><text fill="#000000" font-family="sans-serif" font-size="13" lengthAdjust="spacing" textLength="158" x="49.5" y="285.667">selects a property category</text><polygon fill="#181818" points="542.5,358.5156,552.5,362.5156,542.5,366.5156,546.5,362.5156" style="stroke:#181818;stroke-width:1.0;"/><line style="stroke:#181818;stroke-width:1.0;" x1="31.5" x2="548.5" y1="362.5156" y2="362.5156"/><text fill="#000000" font-family="sans-serif" font-size="13" font-weight="bold" lengthAdjust="spacing" textLength="7" x="38.5" y="335.9756">7</text><text fill="#000000" font-family="sans-serif" font-size="13" lengthAdjust="spacing" textLength="382" x="49.5" y="314.1904">types requested data (number of bedrooms, number of bathrooms,</text><text fill="#000000" font-family="sans-serif" font-size="13" lengthAdjust="spacing" textLength="304" x="53.5" y="328.7139">number of parking spaces, yes or no central heating,</text><text fill="#000000" font-family="sans-serif" font-size="13" lengthAdjust="spacing" textLength="421" x="49.5" y="343.2373">yes or no air conditioning, yes or no basement, yes or no inhabitable loft,</text><text fill="#000000" font-family="sans-serif" font-size="13" lengthAdjust="spacing" textLength="129" x="53.5" y="357.7607">type of Sun Exposure)</text><polygon fill="#181818" points="42.5,387.0391,32.5,391.0391,42.5,395.0391,38.5,391.0391" style="stroke:#181818;stroke-width:1.0;"/><line style="stroke:#181818;stroke-width:1.0;stroke-dasharray:2.0,2.0;" x1="36.5" x2="558.5" y1="391.0391" y2="391.0391"/><text fill="#000000" font-family="sans-serif" font-size="13" font-weight="bold" lengthAdjust="spacing" textLength="7" x="48.5" y="386.2842">8</text><text fill="#000000" font-family="sans-serif" font-size="13" lengthAdjust="spacing" textLength="334" x="59.5" y="386.2842">shows Sun Exposure category list and asks to select one</text><polygon fill="#181818" points="547.5,415.5625,557.5,419.5625,547.5,423.5625,551.5,419.5625" style="stroke:#181818;stroke-width:1.0;"/><line style="stroke:#181818;stroke-width:1.0;" x1="31.5" x2="553.5" y1="419.5625" y2="419.5625"/><text fill="#000000" font-family="sans-serif" font-size="13" font-weight="bold" lengthAdjust="spacing" textLength="7" x="38.5" y="414.8076">9</text><text fill="#000000" font-family="sans-serif" font-size="13" lengthAdjust="spacing" textLength="193" x="49.5" y="414.8076">selects a Sun Exposure category</text><polygon fill="#181818" points="542.5,444.0859,552.5,448.0859,542.5,452.0859,546.5,448.0859" style="stroke:#181818;stroke-width:1.0;"/><line style="stroke:#181818;stroke-width:1.0;" x1="31.5" x2="548.5" y1="448.0859" y2="448.0859"/><text fill="#000000" font-family="sans-serif" font-size="13" font-weight="bold" lengthAdjust="spacing" textLength="14" x="38.5" y="443.3311">10</text><text fill="#000000" font-family="sans-serif" font-size="13" lengthAdjust="spacing" textLength="233" x="56.5" y="443.3311">types requested data (address, location)</text><polygon fill="#181818" points="42.5,472.6094,32.5,476.6094,42.5,480.6094,38.5,476.6094" style="stroke:#181818;stroke-width:1.0;"/><line style="stroke:#181818;stroke-width:1.0;stroke-dasharray:2.0,2.0;" x1="36.5" x2="558.5" y1="476.6094" y2="476.6094"/><text fill="#000000" font-family="sans-serif" font-size="13" font-weight="bold" lengthAdjust="spacing" textLength="14" x="48.5" y="471.8545">11</text><text fill="#000000" font-family="sans-serif" font-size="13" lengthAdjust="spacing" textLength="297" x="66.5" y="471.8545">shows location category list and asks to select one</text><polygon fill="#181818" points="547.5,501.1328,557.5,505.1328,547.5,509.1328,551.5,505.1328" style="stroke:#181818;stroke-width:1.0;"/><line style="stroke:#181818;stroke-width:1.0;" x1="31.5" x2="553.5" y1="505.1328" y2="505.1328"/><text fill="#000000" font-family="sans-serif" font-size="13" font-weight="bold" lengthAdjust="spacing" textLength="14" x="38.5" y="500.3779">12</text><text fill="#000000" font-family="sans-serif" font-size="13" lengthAdjust="spacing" textLength="156" x="56.5" y="500.3779">selects a location category</text><polygon fill="#181818" points="542.5,529.6563,552.5,533.6563,542.5,537.6563,546.5,533.6563" style="stroke:#181818;stroke-width:1.0;"/><line style="stroke:#181818;stroke-width:1.0;" x1="31.5" x2="548.5" y1="533.6563" y2="533.6563"/><text fill="#000000" font-family="sans-serif" font-size="13" font-weight="bold" lengthAdjust="spacing" textLength="14" x="38.5" y="528.9014">13</text><text fill="#000000" font-family="sans-serif" font-size="13" lengthAdjust="spacing" textLength="368" x="56.5" y="528.9014">types requested data (area, distance from the city centre, price)</text><polygon fill="#181818" points="42.5,558.1797,32.5,562.1797,42.5,566.1797,38.5,562.1797" style="stroke:#181818;stroke-width:1.0;"/><line style="stroke:#181818;stroke-width:1.0;stroke-dasharray:2.0,2.0;" x1="36.5" x2="558.5" y1="562.1797" y2="562.1797"/><text fill="#000000" font-family="sans-serif" font-size="13" font-weight="bold" lengthAdjust="spacing" textLength="14" x="48.5" y="557.4248">14</text><text fill="#000000" font-family="sans-serif" font-size="13" lengthAdjust="spacing" textLength="291" x="66.5" y="557.4248">pre selected property condition category to &#8220;ready&#8221;</text><polygon fill="#181818" points="542.5,586.7031,552.5,590.7031,542.5,594.7031,546.5,590.7031" style="stroke:#181818;stroke-width:1.0;"/><line style="stroke:#181818;stroke-width:1.0;" x1="31.5" x2="548.5" y1="590.7031" y2="590.7031"/><text fill="#000000" font-family="sans-serif" font-size="13" font-weight="bold" lengthAdjust="spacing" textLength="14" x="38.5" y="585.9482">15</text><text fill="#000000" font-family="sans-serif" font-size="13" lengthAdjust="spacing" textLength="82" x="56.5" y="585.9482">inserts photos</text><polygon fill="#181818" points="547.5,615.2266,557.5,619.2266,547.5,623.2266,551.5,619.2266" style="stroke:#181818;stroke-width:1.0;"/><line style="stroke:#181818;stroke-width:1.0;" x1="31.5" x2="553.5" y1="619.2266" y2="619.2266"/><text fill="#000000" font-family="sans-serif" font-size="13" font-weight="bold" lengthAdjust="spacing" textLength="14" x="38.5" y="614.4717">16</text><text fill="#000000" font-family="sans-serif" font-size="13" lengthAdjust="spacing" textLength="75" x="56.5" y="614.4717">submits data</text><polygon fill="#181818" points="42.5,643.75,32.5,647.75,42.5,651.75,38.5,647.75" style="stroke:#181818;stroke-width:1.0;"/><line style="stroke:#181818;stroke-width:1.0;stroke-dasharray:2.0,2.0;" x1="36.5" x2="558.5" y1="647.75" y2="647.75"/><text fill="#000000" font-family="sans-serif" font-size="13" font-weight="bold" lengthAdjust="spacing" textLength="14" x="48.5" y="642.9951">17</text><text fill="#000000" font-family="sans-serif" font-size="13" lengthAdjust="spacing" textLength="158" x="66.5" y="642.9951">displays operation success</text><polygon fill="#181818" points="42.5,672.2734,32.5,676.2734,42.5,680.2734,38.5,676.2734" style="stroke:#181818;stroke-width:1.0;"/><line style="stroke:#181818;stroke-width:1.0;stroke-dasharray:2.0,2.0;" x1="36.5" x2="553.5" y1="676.2734" y2="676.2734"/><text fill="#000000" font-family="sans-serif" font-size="13" font-weight="bold" lengthAdjust="spacing" textLength="14" x="48.5" y="671.5186">18</text><text fill="#000000" font-family="sans-serif" font-size="13" lengthAdjust="spacing" textLength="286" x="66.5" y="671.5186">sends document operation details and conclusion</text><!--SRC=[jLH1Rjj033p7ho1oIW3v0paK292SU_2r5tgNjXQMTfKbbLItFAJzN5xIMIkM1TWku1RHILfnICvmkBeBiUFCBRKf9bVdr0fPxcMXqv-EtOwtihAX4ShYZEEscGTepJwzXRYb3JSgYuK5G-XgK9EMLlBIItH2Ju6t9VnkjNgwfoKzDYOvieLNeUyHCEujnRvTIyQxivJfzd4hqMw9bPxRhac3o08rBRZGSJIwVHYBx2F6rpqqlBB94R8WF8SlMduxjFO0s4x94hai1S4KvOswd3h9DknXKxP3-fjFy19vffmF8GOB9GnW9wfqDmZdgiXgTKMUXueKb8I21wMm2GxCKwo82yMJqomRoKMs-x7xyfmjZ4ZegwQeORoFzNBIz4K1REX43pd4xvFG7RgGRSe3fSsanlrvEVxUdDRfJQSKDELjWXfnzDC0L1euYn9yS2s54QeOtacTQtcFxYkir-9pIgrMD3jZgyV37t5s34FkYlaLYo8034WCxqQu2ZFDt50DSo42iEC_3fbSYZwKUPUVCzoQLLfWvsSXrhmEncjiLfCsLdee94e7gpxIyyykQP_bFyOqJ_FLepfRwzfniVSPkrP1a75lpfE_kR2pdxGFuA-cV5BdQhguf72Le3akz-a6bpLP3Vb2iNpncbJOWU3-pGGT9Z5sYuh7LJfuz2WF1Fbu_uLc_F3n_ljgHK9KPCQjK2TBUhdJytBswpRCBxihIKAzhk41MmLwupYqT-N6lcWIYHxraklBIivmNen3etkZG2NNz5gEB-Zn1m00]--></g></svg>