<?xml version="1.0" encoding="us-ascii" standalone="no"?><svg xmlns="http://www.w3.org/2000/svg" xmlns:xlink="http://www.w3.org/1999/xlink" contentStyleType="text/css" height="1386px" preserveAspectRatio="none" style="width:684px;height:1386px;background:#FFFFFF;" version="1.1" viewBox="0 0 684 1386" width="684px" zoomAndPan="magnify"><defs/><g><text fill="#000000" font-family="sans-serif" font-size="14" font-weight="bold" lengthAdjust="spacing" textLength="228" x="229.25" y="27.6738">System Sequence Diagram (SSD)</text><rect fill="#FFFFFF" height="1170.2813" style="stroke:#181818;stroke-width:1.0;" width="10" x="77.5" y="127.2813"/><rect fill="#FFFFFF" height="28.5234" style="stroke:#181818;stroke-width:1.0;" width="10" x="620.5" y="147.8047"/><rect fill="#FFFFFF" height="28.5234" style="stroke:#181818;stroke-width:1.0;" width="10" x="620.5" y="204.8516"/><rect fill="#FFFFFF" height="28.5234" style="stroke:#181818;stroke-width:1.0;" width="10" x="620.5" y="261.8984"/><rect fill="#FFFFFF" height="52.0469" style="stroke:#181818;stroke-width:1.0;" width="10" x="620.5" y="399.5156"/><rect fill="#FFFFFF" height="49.8125" style="stroke:#181818;stroke-width:1.0;" width="10" x="620.5" y="480.0859"/><rect fill="#FFFFFF" height="52.0469" style="stroke:#181818;stroke-width:1.0;" width="10" x="620.5" y="558.4219"/><rect fill="#FFFFFF" height="49.8125" style="stroke:#181818;stroke-width:1.0;" width="10" x="620.5" y="638.9922"/><rect fill="#FFFFFF" height="35.5234" style="stroke:#181818;stroke-width:1.0;" width="10" x="620.5" y="717.3281"/><rect fill="#FFFFFF" height="28.5234" style="stroke:#181818;stroke-width:1.0;" width="10" x="620.5" y="781.375"/><rect fill="#FFFFFF" height="52.0469" style="stroke:#181818;stroke-width:1.0;" width="10" x="620.5" y="838.4219"/><rect fill="#FFFFFF" height="42.8125" style="stroke:#181818;stroke-width:1.0;" width="10" x="620.5" y="918.9922"/><rect fill="#FFFFFF" height="35.5234" style="stroke:#181818;stroke-width:1.0;" width="10" x="620.5" y="990.3281"/><rect fill="#FFFFFF" height="75.5703" style="stroke:#181818;stroke-width:1.0;" width="10" x="620.5" y="1054.375"/><rect fill="#FFFFFF" height="42.5234" style="stroke:#181818;stroke-width:1.0;" width="10" x="620.5" y="1158.4688"/><rect fill="#FFFFFF" height="52.0469" style="stroke:#181818;stroke-width:1.0;" width="10" x="620.5" y="1229.5156"/><rect fill="none" height="391.3828" style="stroke:#000000;stroke-width:1.5;" width="667.5" x="10" y="333.9453"/><rect fill="none" height="73.5703" style="stroke:#000000;stroke-width:1.5;" width="647.5" x="20" y="414.5156"/><rect fill="none" height="73.5703" style="stroke:#000000;stroke-width:1.5;" width="647.5" x="20" y="573.4219"/><rect fill="none" height="144.9063" style="stroke:#000000;stroke-width:1.5;" width="647.5" x="20" y="853.4219"/><rect fill="none" height="104.0938" style="stroke:#000000;stroke-width:1.5;" width="667.5" x="10" y="1069.375"/><rect fill="none" height="73.5703" style="stroke:#000000;stroke-width:1.5;" width="647.5" x="20" y="1092.8984"/><rect fill="none" height="45.0469" style="stroke:#000000;stroke-width:1.5;" width="647.5" x="20" y="1244.5156"/><line style="stroke:#181818;stroke-width:0.5;stroke-dasharray:5.0,5.0;" x1="82" x2="82" y1="117.2813" y2="1306.5625"/><line style="stroke:#181818;stroke-width:0.5;stroke-dasharray:5.0,5.0;" x1="625.5" x2="625.5" y1="117.2813" y2="1306.5625"/><text fill="#000000" font-family="sans-serif" font-size="14" lengthAdjust="spacing" textLength="99" x="30" y="114.3145">Property Owner</text><ellipse cx="82.5" cy="50.1406" fill="#E3E3E3" rx="8" ry="8" style="stroke:#181818;stroke-width:0.5;"/><path d="M82.5,58.1406 L82.5,85.1406 M69.5,66.1406 L95.5,66.1406 M82.5,85.1406 L69.5,100.1406 M82.5,85.1406 L95.5,100.1406 " fill="none" style="stroke:#181818;stroke-width:0.5;"/><text fill="#000000" font-family="sans-serif" font-size="14" lengthAdjust="spacing" textLength="99" x="30" y="1318.2363">Property Owner</text><ellipse cx="82.5" cy="1329.7031" fill="#E3E3E3" rx="8" ry="8" style="stroke:#181818;stroke-width:0.5;"/><path d="M82.5,1337.7031 L82.5,1364.7031 M69.5,1345.7031 L95.5,1345.7031 M82.5,1364.7031 L69.5,1379.7031 M82.5,1364.7031 L95.5,1379.7031 " fill="none" style="stroke:#181818;stroke-width:0.5;"/><rect fill="#E3E3E3" height="29.6406" rx="2.5" ry="2.5" style="stroke:#181818;stroke-width:0.5;" width="64" x="593.5" y="86.6406"/><text fill="#000000" font-family="sans-serif" font-size="14" lengthAdjust="spacing" textLength="50" x="600.5" y="106.3145">:System</text><rect fill="#E3E3E3" height="29.6406" rx="2.5" ry="2.5" style="stroke:#181818;stroke-width:0.5;" width="64" x="593.5" y="1305.5625"/><text fill="#000000" font-family="sans-serif" font-size="14" lengthAdjust="spacing" textLength="50" x="600.5" y="1325.2363">:System</text><rect fill="#FFFFFF" height="1170.2813" style="stroke:#181818;stroke-width:1.0;" width="10" x="77.5" y="127.2813"/><rect fill="#FFFFFF" height="28.5234" style="stroke:#181818;stroke-width:1.0;" width="10" x="620.5" y="147.8047"/><rect fill="#FFFFFF" height="28.5234" style="stroke:#181818;stroke-width:1.0;" width="10" x="620.5" y="204.8516"/><rect fill="#FFFFFF" height="28.5234" style="stroke:#181818;stroke-width:1.0;" width="10" x="620.5" y="261.8984"/><rect fill="#FFFFFF" height="52.0469" style="stroke:#181818;stroke-width:1.0;" width="10" x="620.5" y="399.5156"/><rect fill="#FFFFFF" height="49.8125" style="stroke:#181818;stroke-width:1.0;" width="10" x="620.5" y="480.0859"/><rect fill="#FFFFFF" height="52.0469" style="stroke:#181818;stroke-width:1.0;" width="10" x="620.5" y="558.4219"/><rect fill="#FFFFFF" height="49.8125" style="stroke:#181818;stroke-width:1.0;" width="10" x="620.5" y="638.9922"/><rect fill="#FFFFFF" height="35.5234" style="stroke:#181818;stroke-width:1.0;" width="10" x="620.5" y="717.3281"/><rect fill="#FFFFFF" height="28.5234" style="stroke:#181818;stroke-width:1.0;" width="10" x="620.5" y="781.375"/><rect fill="#FFFFFF" height="52.0469" style="stroke:#181818;stroke-width:1.0;" width="10" x="620.5" y="838.4219"/><rect fill="#FFFFFF" height="42.8125" style="stroke:#181818;stroke-width:1.0;" width="10" x="620.5" y="918.9922"/><rect fill="#FFFFFF" height="35.5234" style="stroke:#181818;stroke-width:1.0;" width="10" x="620.5" y="990.3281"/><rect fill="#FFFFFF" height="75.5703" style="stroke:#181818;stroke-width:1.0;" width="10" x="620.5" y="1054.375"/><rect fill="#FFFFFF" height="42.5234" style="stroke:#181818;stroke-width:1.0;" width="10" x="620.5" y="1158.4688"/><rect fill="#FFFFFF" height="52.0469" style="stroke:#181818;stroke-width:1.0;" width="10" x="620.5" y="1229.5156"/><polygon fill="#181818" points="608.5,143.8047,618.5,147.8047,608.5,151.8047,612.5,147.8047" style="stroke:#181818;stroke-width:1.0;"/><line style="stroke:#181818;stroke-width:1.0;" x1="87.5" x2="614.5" y1="147.8047" y2="147.8047"/><text fill="#000000" font-family="sans-serif" font-size="13" font-weight="bold" lengthAdjust="spacing" textLength="7" x="94.5" y="143.0498">1</text><text fill="#000000" font-family="sans-serif" font-size="13" lengthAdjust="spacing" textLength="172" x="105.5" y="143.0498">asks to create a new property</text><polygon fill="#181818" points="98.5,172.3281,88.5,176.3281,98.5,180.3281,94.5,176.3281" style="stroke:#181818;stroke-width:1.0;"/><line style="stroke:#181818;stroke-width:1.0;stroke-dasharray:2.0,2.0;" x1="92.5" x2="624.5" y1="176.3281" y2="176.3281"/><text fill="#000000" font-family="sans-serif" font-size="13" font-weight="bold" lengthAdjust="spacing" textLength="7" x="104.5" y="171.5732">2</text><text fill="#000000" font-family="sans-serif" font-size="13" lengthAdjust="spacing" textLength="487" x="115.5" y="171.5732">initiate process (year, month, day), shows store category list and asks to select one</text><polygon fill="#181818" points="608.5,200.8516,618.5,204.8516,608.5,208.8516,612.5,204.8516" style="stroke:#181818;stroke-width:1.0;"/><line style="stroke:#181818;stroke-width:1.0;" x1="87.5" x2="614.5" y1="204.8516" y2="204.8516"/><text fill="#000000" font-family="sans-serif" font-size="13" font-weight="bold" lengthAdjust="spacing" textLength="7" x="94.5" y="200.0967">3</text><text fill="#000000" font-family="sans-serif" font-size="13" lengthAdjust="spacing" textLength="129" x="105.5" y="200.0967">selects store category</text><polygon fill="#181818" points="98.5,229.375,88.5,233.375,98.5,237.375,94.5,233.375" style="stroke:#181818;stroke-width:1.0;"/><line style="stroke:#181818;stroke-width:1.0;stroke-dasharray:2.0,2.0;" x1="92.5" x2="624.5" y1="233.375" y2="233.375"/><text fill="#000000" font-family="sans-serif" font-size="13" font-weight="bold" lengthAdjust="spacing" textLength="7" x="104.5" y="228.6201">4</text><text fill="#000000" font-family="sans-serif" font-size="13" lengthAdjust="spacing" textLength="284" x="115.5" y="228.6201">shows agent category list and asks to select one</text><polygon fill="#181818" points="608.5,257.8984,618.5,261.8984,608.5,265.8984,612.5,261.8984" style="stroke:#181818;stroke-width:1.0;"/><line style="stroke:#181818;stroke-width:1.0;" x1="87.5" x2="614.5" y1="261.8984" y2="261.8984"/><text fill="#000000" font-family="sans-serif" font-size="13" font-weight="bold" lengthAdjust="spacing" textLength="7" x="94.5" y="257.1436">5</text><text fill="#000000" font-family="sans-serif" font-size="13" lengthAdjust="spacing" textLength="132" x="105.5" y="257.1436">selects agent category</text><polygon fill="#181818" points="98.5,286.4219,88.5,290.4219,98.5,294.4219,94.5,290.4219" style="stroke:#181818;stroke-width:1.0;"/><line style="stroke:#181818;stroke-width:1.0;stroke-dasharray:2.0,2.0;" x1="92.5" x2="624.5" y1="290.4219" y2="290.4219"/><text fill="#000000" font-family="sans-serif" font-size="13" font-weight="bold" lengthAdjust="spacing" textLength="7" x="104.5" y="285.667">6</text><text fill="#000000" font-family="sans-serif" font-size="13" lengthAdjust="spacing" textLength="498" x="115.5" y="285.667">creates reference , requests data: shows property category list and asks to select one</text><polygon fill="#181818" points="613.5,314.9453,623.5,318.9453,613.5,322.9453,617.5,318.9453" style="stroke:#181818;stroke-width:1.0;"/><line style="stroke:#181818;stroke-width:1.0;" x1="87.5" x2="619.5" y1="318.9453" y2="318.9453"/><text fill="#000000" font-family="sans-serif" font-size="13" font-weight="bold" lengthAdjust="spacing" textLength="7" x="94.5" y="314.1904">7</text><text fill="#000000" font-family="sans-serif" font-size="13" lengthAdjust="spacing" textLength="147" x="105.5" y="314.1904">selects property category</text><path d="M10,333.9453 L71,333.9453 L71,340.4688 L61,350.4688 L10,350.4688 L10,333.9453 " fill="#EEEEEE" style="stroke:#000000;stroke-width:1.5;"/><rect fill="none" height="391.3828" style="stroke:#000000;stroke-width:1.5;" width="667.5" x="10" y="333.9453"/><text fill="#000000" font-family="sans-serif" font-size="13" font-weight="bold" lengthAdjust="spacing" textLength="16" x="25" y="346.7139">alt</text><text fill="#000000" font-family="sans-serif" font-size="11" font-weight="bold" lengthAdjust="spacing" textLength="103" x="86" y="345.9033">[property = House]</text><polygon fill="#181818" points="98.5,366.9922,88.5,370.9922,98.5,374.9922,94.5,370.9922" style="stroke:#181818;stroke-width:1.0;"/><line style="stroke:#181818;stroke-width:1.0;stroke-dasharray:2.0,2.0;" x1="92.5" x2="624.5" y1="370.9922" y2="370.9922"/><text fill="#000000" font-family="sans-serif" font-size="13" font-weight="bold" lengthAdjust="spacing" textLength="7" x="104.5" y="366.2373">8</text><text fill="#000000" font-family="sans-serif" font-size="13" lengthAdjust="spacing" textLength="374" x="115.5" y="366.2373">requests data: numberBedrooms, numberParking, basement, loft</text><polygon fill="#181818" points="608.5,395.5156,618.5,399.5156,608.5,403.5156,612.5,399.5156" style="stroke:#181818;stroke-width:1.0;"/><line style="stroke:#181818;stroke-width:1.0;" x1="87.5" x2="614.5" y1="399.5156" y2="399.5156"/><text fill="#000000" font-family="sans-serif" font-size="13" font-weight="bold" lengthAdjust="spacing" textLength="7" x="94.5" y="394.7607">9</text><text fill="#000000" font-family="sans-serif" font-size="13" lengthAdjust="spacing" textLength="352" x="105.5" y="394.7607">input data: numberBedrooms, numberParking, basement, loft</text><path d="M20,414.5156 L85,414.5156 L85,421.0391 L75,431.0391 L20,431.0391 L20,414.5156 " fill="#EEEEEE" style="stroke:#000000;stroke-width:1.5;"/><rect fill="none" height="73.5703" style="stroke:#000000;stroke-width:1.5;" width="647.5" x="20" y="414.5156"/><text fill="#000000" font-family="sans-serif" font-size="13" font-weight="bold" lengthAdjust="spacing" textLength="20" x="35" y="427.2842">opt</text><polygon fill="#181818" points="98.5,447.5625,88.5,451.5625,98.5,455.5625,94.5,451.5625" style="stroke:#181818;stroke-width:1.0;"/><line style="stroke:#181818;stroke-width:1.0;stroke-dasharray:2.0,2.0;" x1="92.5" x2="624.5" y1="451.5625" y2="451.5625"/><text fill="#000000" font-family="sans-serif" font-size="13" font-weight="bold" lengthAdjust="spacing" textLength="14" x="104.5" y="446.8076">10</text><text fill="#000000" font-family="sans-serif" font-size="13" lengthAdjust="spacing" textLength="396" x="122.5" y="446.8076">requests data: numberBathrooms, availableEquipment, sunExposure</text><polygon fill="#181818" points="608.5,476.0859,618.5,480.0859,608.5,484.0859,612.5,480.0859" style="stroke:#181818;stroke-width:1.0;"/><line style="stroke:#181818;stroke-width:1.0;" x1="87.5" x2="614.5" y1="480.0859" y2="480.0859"/><text fill="#000000" font-family="sans-serif" font-size="13" font-weight="bold" lengthAdjust="spacing" textLength="14" x="94.5" y="475.3311">11</text><text fill="#000000" font-family="sans-serif" font-size="13" lengthAdjust="spacing" textLength="374" x="112.5" y="475.3311">input data: numberBathrooms, availableEquipment, sunExposure</text><line style="stroke:#000000;stroke-width:1.0;stroke-dasharray:2.0,2.0;" x1="10" x2="677.5" y1="496.0859" y2="496.0859"/><text fill="#000000" font-family="sans-serif" font-size="11" font-weight="bold" lengthAdjust="spacing" textLength="127" x="15" y="506.0439">[property = Apartment]</text><polygon fill="#181818" points="98.5,525.8984,88.5,529.8984,98.5,533.8984,94.5,529.8984" style="stroke:#181818;stroke-width:1.0;"/><line style="stroke:#181818;stroke-width:1.0;stroke-dasharray:2.0,2.0;" x1="92.5" x2="624.5" y1="529.8984" y2="529.8984"/><text fill="#000000" font-family="sans-serif" font-size="13" font-weight="bold" lengthAdjust="spacing" textLength="14" x="104.5" y="525.1436">12</text><text fill="#000000" font-family="sans-serif" font-size="13" lengthAdjust="spacing" textLength="284" x="122.5" y="525.1436">requests data: numberBedrooms, numberParking</text><polygon fill="#181818" points="608.5,554.4219,618.5,558.4219,608.5,562.4219,612.5,558.4219" style="stroke:#181818;stroke-width:1.0;"/><line style="stroke:#181818;stroke-width:1.0;" x1="87.5" x2="614.5" y1="558.4219" y2="558.4219"/><text fill="#000000" font-family="sans-serif" font-size="13" font-weight="bold" lengthAdjust="spacing" textLength="14" x="94.5" y="553.667">13</text><text fill="#000000" font-family="sans-serif" font-size="13" lengthAdjust="spacing" textLength="262" x="112.5" y="553.667">input data: numberBedrooms, numberParking</text><path d="M20,573.4219 L85,573.4219 L85,579.9453 L75,589.9453 L20,589.9453 L20,573.4219 " fill="#EEEEEE" style="stroke:#000000;stroke-width:1.5;"/><rect fill="none" height="73.5703" style="stroke:#000000;stroke-width:1.5;" width="647.5" x="20" y="573.4219"/><text fill="#000000" font-family="sans-serif" font-size="13" font-weight="bold" lengthAdjust="spacing" textLength="20" x="35" y="586.1904">opt</text><polygon fill="#181818" points="98.5,606.4688,88.5,610.4688,98.5,614.4688,94.5,610.4688" style="stroke:#181818;stroke-width:1.0;"/><line style="stroke:#181818;stroke-width:1.0;stroke-dasharray:2.0,2.0;" x1="92.5" x2="624.5" y1="610.4688" y2="610.4688"/><text fill="#000000" font-family="sans-serif" font-size="13" font-weight="bold" lengthAdjust="spacing" textLength="14" x="104.5" y="605.7139">14</text><text fill="#000000" font-family="sans-serif" font-size="13" lengthAdjust="spacing" textLength="312" x="122.5" y="605.7139">requests data: numberBathrooms, availableEquipment</text><polygon fill="#181818" points="608.5,634.9922,618.5,638.9922,608.5,642.9922,612.5,638.9922" style="stroke:#181818;stroke-width:1.0;"/><line style="stroke:#181818;stroke-width:1.0;" x1="87.5" x2="614.5" y1="638.9922" y2="638.9922"/><text fill="#000000" font-family="sans-serif" font-size="13" font-weight="bold" lengthAdjust="spacing" textLength="14" x="94.5" y="634.2373">15</text><text fill="#000000" font-family="sans-serif" font-size="13" lengthAdjust="spacing" textLength="290" x="112.5" y="634.2373">input data: numberBathrooms, availableEquipment</text><line style="stroke:#000000;stroke-width:1.0;stroke-dasharray:2.0,2.0;" x1="10" x2="677.5" y1="654.9922" y2="654.9922"/><text fill="#000000" font-family="sans-serif" font-size="11" font-weight="bold" lengthAdjust="spacing" textLength="95" x="15" y="664.9502">[property = Land]</text><polygon fill="#181818" points="98.5,684.8047,88.5,688.8047,98.5,692.8047,94.5,688.8047" style="stroke:#181818;stroke-width:1.0;"/><line style="stroke:#181818;stroke-width:1.0;stroke-dasharray:2.0,2.0;" x1="92.5" x2="624.5" y1="688.8047" y2="688.8047"/><text fill="#000000" font-family="sans-serif" font-size="13" font-weight="bold" lengthAdjust="spacing" textLength="14" x="104.5" y="684.0498">16</text><text fill="#000000" font-family="sans-serif" font-size="13" lengthAdjust="spacing" textLength="150" x="122.5" y="684.0498">requests data: description</text><polygon fill="#181818" points="608.5,713.3281,618.5,717.3281,608.5,721.3281,612.5,717.3281" style="stroke:#181818;stroke-width:1.0;"/><line style="stroke:#181818;stroke-width:1.0;" x1="87.5" x2="614.5" y1="717.3281" y2="717.3281"/><text fill="#000000" font-family="sans-serif" font-size="13" font-weight="bold" lengthAdjust="spacing" textLength="14" x="94.5" y="712.5732">17</text><text fill="#000000" font-family="sans-serif" font-size="13" lengthAdjust="spacing" textLength="128" x="112.5" y="712.5732">input data: description</text><polygon fill="#181818" points="98.5,748.8516,88.5,752.8516,98.5,756.8516,94.5,752.8516" style="stroke:#181818;stroke-width:1.0;"/><line style="stroke:#181818;stroke-width:1.0;stroke-dasharray:2.0,2.0;" x1="92.5" x2="624.5" y1="752.8516" y2="752.8516"/><text fill="#000000" font-family="sans-serif" font-size="13" font-weight="bold" lengthAdjust="spacing" textLength="14" x="104.5" y="748.0967">18</text><text fill="#000000" font-family="sans-serif" font-size="13" lengthAdjust="spacing" textLength="278" x="122.5" y="748.0967">request data: area, distance from the city centre</text><polygon fill="#181818" points="608.5,777.375,618.5,781.375,608.5,785.375,612.5,781.375" style="stroke:#181818;stroke-width:1.0;"/><line style="stroke:#181818;stroke-width:1.0;" x1="87.5" x2="614.5" y1="781.375" y2="781.375"/><text fill="#000000" font-family="sans-serif" font-size="13" font-weight="bold" lengthAdjust="spacing" textLength="14" x="94.5" y="776.6201">19</text><text fill="#000000" font-family="sans-serif" font-size="13" lengthAdjust="spacing" textLength="263" x="112.5" y="776.6201">input data: area, distance from the city centre</text><polygon fill="#181818" points="98.5,805.8984,88.5,809.8984,98.5,813.8984,94.5,809.8984" style="stroke:#181818;stroke-width:1.0;"/><line style="stroke:#181818;stroke-width:1.0;stroke-dasharray:2.0,2.0;" x1="92.5" x2="624.5" y1="809.8984" y2="809.8984"/><text fill="#000000" font-family="sans-serif" font-size="13" font-weight="bold" lengthAdjust="spacing" textLength="14" x="104.5" y="805.1436">20</text><text fill="#000000" font-family="sans-serif" font-size="13" lengthAdjust="spacing" textLength="180" x="122.5" y="805.1436">request data: Type of Business</text><polygon fill="#181818" points="608.5,834.4219,618.5,838.4219,608.5,842.4219,612.5,838.4219" style="stroke:#181818;stroke-width:1.0;"/><line style="stroke:#181818;stroke-width:1.0;" x1="87.5" x2="614.5" y1="838.4219" y2="838.4219"/><text fill="#000000" font-family="sans-serif" font-size="13" font-weight="bold" lengthAdjust="spacing" textLength="14" x="94.5" y="833.667">21</text><text fill="#000000" font-family="sans-serif" font-size="13" lengthAdjust="spacing" textLength="157" x="112.5" y="833.667">selects a Type of Business</text><path d="M20,853.4219 L81,853.4219 L81,859.9453 L71,869.9453 L20,869.9453 L20,853.4219 " fill="#EEEEEE" style="stroke:#000000;stroke-width:1.5;"/><rect fill="none" height="144.9063" style="stroke:#000000;stroke-width:1.5;" width="647.5" x="20" y="853.4219"/><text fill="#000000" font-family="sans-serif" font-size="13" font-weight="bold" lengthAdjust="spacing" textLength="16" x="35" y="866.1904">alt</text><text fill="#000000" font-family="sans-serif" font-size="11" font-weight="bold" lengthAdjust="spacing" textLength="85" x="96" y="865.3799">[answer = Sale]</text><polygon fill="#181818" points="98.5,886.4688,88.5,890.4688,98.5,894.4688,94.5,890.4688" style="stroke:#181818;stroke-width:1.0;"/><line style="stroke:#181818;stroke-width:1.0;stroke-dasharray:2.0,2.0;" x1="92.5" x2="624.5" y1="890.4688" y2="890.4688"/><text fill="#000000" font-family="sans-serif" font-size="13" font-weight="bold" lengthAdjust="spacing" textLength="14" x="104.5" y="885.7139">22</text><text fill="#000000" font-family="sans-serif" font-size="13" lengthAdjust="spacing" textLength="147" x="122.5" y="885.7139">requests data: Sale Price</text><polygon fill="#181818" points="608.5,914.9922,618.5,918.9922,608.5,922.9922,612.5,918.9922" style="stroke:#181818;stroke-width:1.0;"/><line style="stroke:#181818;stroke-width:1.0;" x1="87.5" x2="614.5" y1="918.9922" y2="918.9922"/><text fill="#000000" font-family="sans-serif" font-size="13" font-weight="bold" lengthAdjust="spacing" textLength="14" x="94.5" y="914.2373">23</text><text fill="#000000" font-family="sans-serif" font-size="13" lengthAdjust="spacing" textLength="125" x="112.5" y="914.2373">input data: Sale Price</text><line style="stroke:#000000;stroke-width:1.0;stroke-dasharray:2.0,2.0;" x1="20" x2="667.5" y1="927.9922" y2="927.9922"/><text fill="#000000" font-family="sans-serif" font-size="11" font-weight="bold" lengthAdjust="spacing" textLength="87" x="25" y="937.9502">[answer = Rent]</text><polygon fill="#181818" points="98.5,957.8047,88.5,961.8047,98.5,965.8047,94.5,961.8047" style="stroke:#181818;stroke-width:1.0;"/><line style="stroke:#181818;stroke-width:1.0;stroke-dasharray:2.0,2.0;" x1="92.5" x2="624.5" y1="961.8047" y2="961.8047"/><text fill="#000000" font-family="sans-serif" font-size="13" font-weight="bold" lengthAdjust="spacing" textLength="14" x="104.5" y="957.0498">24</text><text fill="#000000" font-family="sans-serif" font-size="13" lengthAdjust="spacing" textLength="281" x="122.5" y="957.0498">requests data: Rental Price, Duration of Contract</text><polygon fill="#181818" points="608.5,986.3281,618.5,990.3281,608.5,994.3281,612.5,990.3281" style="stroke:#181818;stroke-width:1.0;"/><line style="stroke:#181818;stroke-width:1.0;" x1="87.5" x2="614.5" y1="990.3281" y2="990.3281"/><text fill="#000000" font-family="sans-serif" font-size="13" font-weight="bold" lengthAdjust="spacing" textLength="14" x="94.5" y="985.5732">25</text><text fill="#000000" font-family="sans-serif" font-size="13" lengthAdjust="spacing" textLength="259" x="112.5" y="985.5732">input data: Rental Price, Duration of Contract</text><polygon fill="#181818" points="98.5,1021.8516,88.5,1025.8516,98.5,1029.8516,94.5,1025.8516" style="stroke:#181818;stroke-width:1.0;"/><line style="stroke:#181818;stroke-width:1.0;stroke-dasharray:2.0,2.0;" x1="92.5" x2="624.5" y1="1025.8516" y2="1025.8516"/><text fill="#000000" font-family="sans-serif" font-size="13" font-weight="bold" lengthAdjust="spacing" textLength="14" x="104.5" y="1021.0967">26</text><text fill="#000000" font-family="sans-serif" font-size="13" lengthAdjust="spacing" textLength="79" x="122.5" y="1021.0967">request photo</text><polygon fill="#181818" points="608.5,1050.375,618.5,1054.375,608.5,1058.375,612.5,1054.375" style="stroke:#181818;stroke-width:1.0;"/><line style="stroke:#181818;stroke-width:1.0;" x1="87.5" x2="614.5" y1="1054.375" y2="1054.375"/><text fill="#000000" font-family="sans-serif" font-size="13" font-weight="bold" lengthAdjust="spacing" textLength="14" x="94.5" y="1049.6201">27</text><text fill="#000000" font-family="sans-serif" font-size="13" lengthAdjust="spacing" textLength="75" x="112.5" y="1049.6201">inserts photo</text><path d="M10,1069.375 L75,1069.375 L75,1075.8984 L65,1085.8984 L10,1085.8984 L10,1069.375 " fill="#EEEEEE" style="stroke:#000000;stroke-width:1.5;"/><rect fill="none" height="104.0938" style="stroke:#000000;stroke-width:1.5;" width="667.5" x="10" y="1069.375"/><text fill="#000000" font-family="sans-serif" font-size="13" font-weight="bold" lengthAdjust="spacing" textLength="20" x="25" y="1082.1436">opt</text><path d="M20,1092.8984 L93,1092.8984 L93,1099.4219 L83,1109.4219 L20,1109.4219 L20,1092.8984 " fill="#EEEEEE" style="stroke:#000000;stroke-width:1.5;"/><rect fill="none" height="73.5703" style="stroke:#000000;stroke-width:1.5;" width="647.5" x="20" y="1092.8984"/><text fill="#000000" font-family="sans-serif" font-size="13" font-weight="bold" lengthAdjust="spacing" textLength="28" x="35" y="1105.667">loop</text><polygon fill="#181818" points="98.5,1125.9453,88.5,1129.9453,98.5,1133.9453,94.5,1129.9453" style="stroke:#181818;stroke-width:1.0;"/><line style="stroke:#181818;stroke-width:1.0;stroke-dasharray:2.0,2.0;" x1="92.5" x2="624.5" y1="1129.9453" y2="1129.9453"/><text fill="#000000" font-family="sans-serif" font-size="13" font-weight="bold" lengthAdjust="spacing" textLength="14" x="104.5" y="1125.1904">28</text><text fill="#000000" font-family="sans-serif" font-size="13" lengthAdjust="spacing" textLength="79" x="122.5" y="1125.1904">request photo</text><polygon fill="#181818" points="608.5,1154.4688,618.5,1158.4688,608.5,1162.4688,612.5,1158.4688" style="stroke:#181818;stroke-width:1.0;"/><line style="stroke:#181818;stroke-width:1.0;" x1="87.5" x2="614.5" y1="1158.4688" y2="1158.4688"/><text fill="#000000" font-family="sans-serif" font-size="13" font-weight="bold" lengthAdjust="spacing" textLength="14" x="94.5" y="1153.7139">29</text><text fill="#000000" font-family="sans-serif" font-size="13" lengthAdjust="spacing" textLength="75" x="112.5" y="1153.7139">inserts photo</text><polygon fill="#181818" points="98.5,1196.9922,88.5,1200.9922,98.5,1204.9922,94.5,1200.9922" style="stroke:#181818;stroke-width:1.0;"/><line style="stroke:#181818;stroke-width:1.0;stroke-dasharray:2.0,2.0;" x1="92.5" x2="624.5" y1="1200.9922" y2="1200.9922"/><text fill="#000000" font-family="sans-serif" font-size="13" font-weight="bold" lengthAdjust="spacing" textLength="14" x="104.5" y="1196.2373">30</text><text fill="#000000" font-family="sans-serif" font-size="13" lengthAdjust="spacing" textLength="264" x="122.5" y="1196.2373">Displays property conditions ask for validation</text><polygon fill="#181818" points="608.5,1225.5156,618.5,1229.5156,608.5,1233.5156,612.5,1229.5156" style="stroke:#181818;stroke-width:1.0;"/><line style="stroke:#181818;stroke-width:1.0;" x1="87.5" x2="614.5" y1="1229.5156" y2="1229.5156"/><text fill="#000000" font-family="sans-serif" font-size="13" font-weight="bold" lengthAdjust="spacing" textLength="14" x="94.5" y="1224.7607">31</text><text fill="#000000" font-family="sans-serif" font-size="13" lengthAdjust="spacing" textLength="85" x="112.5" y="1224.7607">input validation</text><path d="M20,1244.5156 L89,1244.5156 L89,1251.0391 L79,1261.0391 L20,1261.0391 L20,1244.5156 " fill="#EEEEEE" style="stroke:#000000;stroke-width:1.5;"/><rect fill="none" height="45.0469" style="stroke:#000000;stroke-width:1.5;" width="647.5" x="20" y="1244.5156"/><text fill="#000000" font-family="sans-serif" font-size="13" font-weight="bold" lengthAdjust="spacing" textLength="20" x="35" y="1257.2842">opt</text><text fill="#000000" font-family="sans-serif" font-size="11" font-weight="bold" lengthAdjust="spacing" textLength="88" x="104" y="1256.4736">[answer = True]</text><polygon fill="#181818" points="98.5,1277.5625,88.5,1281.5625,98.5,1285.5625,94.5,1281.5625" style="stroke:#181818;stroke-width:1.0;"/><line style="stroke:#181818;stroke-width:1.0;stroke-dasharray:2.0,2.0;" x1="92.5" x2="624.5" y1="1281.5625" y2="1281.5625"/><text fill="#000000" font-family="sans-serif" font-size="13" font-weight="bold" lengthAdjust="spacing" textLength="14" x="104.5" y="1276.8076">32</text><text fill="#000000" font-family="sans-serif" font-size="13" lengthAdjust="spacing" textLength="452" x="122.5" y="1276.8076">displays operation success, sends document operation details and conclusion</text><!--SRC=[jLTDRvj043s7Np7AAP787uYKIaqTgOTAZUhqLFKmWJ5UPTab-n6NVzzPm0JR60DESeWmk_lclRUpiuDz4Qf0WpdaMkbaRNHEu8odoBOZ1IOlcD7IbPB0KE9GPR8xmQunrHkXCbYXj1H5JZYUkYojenoMzEf99GGBWLcOVhLSBgwZ2BtJokVFPFWvSTh0vQFH1HbNmi-D8dC9QE6tvN4EuqGY2bGEBczht6gqVgpMYpTqL4-FeFaBl-3covR9BIzviU0q98R2R0H56oYQgDMo5caBVH7UDW0tZ5LXtWebd0ZJU752ri9LIMZYuA9Rnv1YUHspBtfZmR8qWeGdPzgK88LrW2fjkLYIx2beHHM1b0ue79LJBzqFCKL7mv6tbwtzL8wx8IPnh7VBSkwjo5If5FCpPvLbt1GTRcLiT_9pbHn4YUf5ADtxs1ryrzvIYzQlR4z5VHpkAJLQvpPkVZ-YuQEMnV2Cbd9sCGQfLww57j1mL0iVNU_EYZeOCpFQ5w0BTy1ah0VerWqTV4CXyLdImwiNHSt4UlNmhz3M6pg8y45sp2Um7xuxHYgjwH0NocwsV0qrBc3FTgn__wA9rfoNBT6G3oCpvAEof1Vu0nsO77jMNlpWuZNFefHiOaJXX5RHJ1jEMZ4KeqzkAtDGGGEENFRvAkKAZg7chxWt0RVcUqw4siikc-arl4j-BFxOQsgN_LDP4EWLt7ih57S8yo_EVgXUe705eR8RXhg39KgAHgTBc0sFHYJdcRe7qylqFT5Rhh-E7PfHtCDgb7NO61RUOCZ8ODatxiSC4pYd68pIFPF2iKCosW8erjhfWLuWlAt-NGpeu3UXiTc1wWFQhTfIwoAQohB7z2dCXWpRD-wGpaBOGcBPxU6qIaNOAXjQH5ZnPyWRIf5YMzDEPCcHhDW3wOLetOG_xK5uuc-lloTKf5iLGKETPzOduJE46nCsWO-5JdouXpepKd9yIzcg6MRHYUHYqgdQ_ObJrUl_]--></g></svg>