<?xml version="1.0" encoding="us-ascii" standalone="no"?><svg xmlns="http://www.w3.org/2000/svg" xmlns:xlink="http://www.w3.org/1999/xlink" contentStyleType="text/css" height="465px" preserveAspectRatio="none" style="width:448px;height:465px;background:#FFFFFF;" version="1.1" viewBox="0 0 448 465" width="448px" zoomAndPan="magnify"><defs/><g><text fill="#000000" font-family="sans-serif" font-size="14" font-weight="bold" lengthAdjust="spacing" textLength="350" x="48" y="30.1074">System Sequence Diagram (SSD) - Alternative Two</text><rect fill="#FFFFFF" height="240.6191" style="stroke:#181818;stroke-width:1.0;" width="10" x="69" y="133.2422"/><rect fill="#FFFFFF" height="31.291" style="stroke:#181818;stroke-width:1.0;" width="10" x="405" y="156.5332"/><rect fill="#FFFFFF" height="31.291" style="stroke:#181818;stroke-width:1.0;" width="10" x="405" y="219.1152"/><rect fill="#FFFFFF" height="31.291" style="stroke:#181818;stroke-width:1.0;" width="10" x="405" y="333.5703"/><line style="stroke:#181818;stroke-width:0.5;stroke-dasharray:5.0,5.0;" x1="74" x2="74" y1="123.2422" y2="382.8613"/><line style="stroke:#181818;stroke-width:0.5;stroke-dasharray:5.0,5.0;" x1="410" x2="410" y1="123.2422" y2="382.8613"/><text fill="#000000" font-family="sans-serif" font-size="14" lengthAdjust="spacing" textLength="132" x="5" y="119.7285">System administrator</text><ellipse cx="74" cy="53.1211" fill="#E3E3E3" rx="8" ry="8" style="stroke:#181818;stroke-width:0.5;"/><path d="M74,61.1211 L74,88.1211 M61,69.1211 L87,69.1211 M74,88.1211 L61,103.1211 M74,88.1211 L87,103.1211 " fill="none" style="stroke:#181818;stroke-width:0.5;"/><text fill="#000000" font-family="sans-serif" font-size="14" lengthAdjust="spacing" textLength="132" x="5" y="396.9688">System administrator</text><ellipse cx="74" cy="408.9824" fill="#E3E3E3" rx="8" ry="8" style="stroke:#181818;stroke-width:0.5;"/><path d="M74,416.9824 L74,443.9824 M61,424.9824 L87,424.9824 M74,443.9824 L61,458.9824 M74,443.9824 L87,458.9824 " fill="none" style="stroke:#181818;stroke-width:0.5;"/><rect fill="#E3E3E3" height="32.6211" rx="2.5" ry="2.5" style="stroke:#181818;stroke-width:0.5;" width="64" x="378" y="89.6211"/><text fill="#000000" font-family="sans-serif" font-size="14" lengthAdjust="spacing" textLength="50" x="385" y="111.7285">:System</text><rect fill="#E3E3E3" height="32.6211" rx="2.5" ry="2.5" style="stroke:#181818;stroke-width:0.5;" width="64" x="378" y="381.8613"/><text fill="#000000" font-family="sans-serif" font-size="14" lengthAdjust="spacing" textLength="50" x="385" y="403.9688">:System</text><rect fill="#FFFFFF" height="240.6191" style="stroke:#181818;stroke-width:1.0;" width="10" x="69" y="133.2422"/><rect fill="#FFFFFF" height="31.291" style="stroke:#181818;stroke-width:1.0;" width="10" x="405" y="156.5332"/><rect fill="#FFFFFF" height="31.291" style="stroke:#181818;stroke-width:1.0;" width="10" x="405" y="219.1152"/><rect fill="#FFFFFF" height="31.291" style="stroke:#181818;stroke-width:1.0;" width="10" x="405" y="333.5703"/><polygon fill="#181818" points="393,152.5332,403,156.5332,393,160.5332,397,156.5332" style="stroke:#181818;stroke-width:1.0;"/><line style="stroke:#181818;stroke-width:1.0;" x1="79" x2="399" y1="156.5332" y2="156.5332"/><text fill="#000000" font-family="sans-serif" font-size="13" font-weight="bold" lengthAdjust="spacing" textLength="7" x="86" y="151.2705">1</text><text fill="#000000" font-family="sans-serif" font-size="13" lengthAdjust="spacing" textLength="188" x="97" y="151.2705">asks to register a new employee</text><polygon fill="#181818" points="90,183.8242,80,187.8242,90,191.8242,86,187.8242" style="stroke:#181818;stroke-width:1.0;"/><line style="stroke:#181818;stroke-width:1.0;stroke-dasharray:2.0,2.0;" x1="84" x2="409" y1="187.8242" y2="187.8242"/><text fill="#000000" font-family="sans-serif" font-size="13" font-weight="bold" lengthAdjust="spacing" textLength="7" x="96" y="182.5615">2</text><text fill="#000000" font-family="sans-serif" font-size="13" lengthAdjust="spacing" textLength="291" x="107" y="182.5615">shows the list of user roles and asks to select one</text><polygon fill="#181818" points="393,215.1152,403,219.1152,393,223.1152,397,219.1152" style="stroke:#181818;stroke-width:1.0;"/><line style="stroke:#181818;stroke-width:1.0;" x1="79" x2="399" y1="219.1152" y2="219.1152"/><text fill="#000000" font-family="sans-serif" font-size="13" font-weight="bold" lengthAdjust="spacing" textLength="7" x="86" y="213.8525">3</text><text fill="#000000" font-family="sans-serif" font-size="13" lengthAdjust="spacing" textLength="107" x="97" y="213.8525">selects a user role</text><polygon fill="#181818" points="90,246.4063,80,250.4063,90,254.4063,86,250.4063" style="stroke:#181818;stroke-width:1.0;"/><line style="stroke:#181818;stroke-width:1.0;stroke-dasharray:2.0,2.0;" x1="84" x2="409" y1="250.4063" y2="250.4063"/><text fill="#000000" font-family="sans-serif" font-size="13" font-weight="bold" lengthAdjust="spacing" textLength="7" x="96" y="245.1436">4</text><text fill="#000000" font-family="sans-serif" font-size="13" lengthAdjust="spacing" textLength="139" x="107" y="245.1436">requests employee data</text><polygon fill="#181818" points="393,329.5703,403,333.5703,393,337.5703,397,333.5703" style="stroke:#181818;stroke-width:1.0;"/><line style="stroke:#181818;stroke-width:1.0;" x1="79" x2="399" y1="333.5703" y2="333.5703"/><text fill="#000000" font-family="sans-serif" font-size="13" font-weight="bold" lengthAdjust="spacing" textLength="7" x="86" y="302.3711">5</text><text fill="#000000" font-family="sans-serif" font-size="13" lengthAdjust="spacing" textLength="268" x="97" y="276.4346">submits the employee information (their name,</text><text fill="#000000" font-family="sans-serif" font-size="13" lengthAdjust="spacing" textLength="258" x="97" y="293.7256">their citizen's card number, their tax number,</text><text fill="#000000" font-family="sans-serif" font-size="13" lengthAdjust="spacing" textLength="283" x="97" y="311.0166">their address, their email, their telephone number</text><text fill="#000000" font-family="sans-serif" font-size="13" lengthAdjust="spacing" textLength="274" x="101" y="328.3076">and the agency to which they will be assigned).</text><polygon fill="#181818" points="90,360.8613,80,364.8613,90,368.8613,86,364.8613" style="stroke:#181818;stroke-width:1.0;"/><line style="stroke:#181818;stroke-width:1.0;stroke-dasharray:2.0,2.0;" x1="84" x2="409" y1="364.8613" y2="364.8613"/><text fill="#000000" font-family="sans-serif" font-size="13" font-weight="bold" lengthAdjust="spacing" textLength="7" x="96" y="359.5986">6</text><text fill="#000000" font-family="sans-serif" font-size="13" lengthAdjust="spacing" textLength="149" x="107" y="359.5986">Shows operation success</text><!--SRC=[dL8najim3Epr2eoRtCsSym0NcSdCvGLAUGrCmXB69AWGq2dAwmDPbYw5cnmhajXTB9RKAyk05JFa8YNqjMG2goCrkbS635VigBKv4LGAXjAbVm7QOomJImSNJ4fDOsmERMSroj3Ihv4a4BmoTWlygMrVd-48tvDH5JH-9_WvbQR1qOgC-KpLzy5AXSDT0sDcORMAVdi0LFYHXrHceiOj60SUK0mEfnL_GwpRcnA_ez47fG5VsmcEtpQd9wTT5Qpub9rteme8GXFGnbo8kzxM0Exhhd9qmLtyvE6KoJLxWkIIK2umgWlNaaW19UuzbP9d2qNMDf4UDdfeUwMwt8VsPwpMvQNKTRPv8QBX_xiPpvbjdNbNOhcKclsnYy2JLxY2OAONU9Fr5DZu3yaNXO0rmleFNc0j6lxURpO2nbX9TODGHauxtWCPUe_opdgJMzIB8__94kObyAddq2ztCqoS4fozgCgTK7p- -fdysjjJbu7gEgUE8RZ3nm7-1G00]--></g></svg>