<?xml version="1.0" encoding="us-ascii" standalone="no"?><svg xmlns="http://www.w3.org/2000/svg" xmlns:xlink="http://www.w3.org/1999/xlink" contentStyleType="text/css" height="497px" preserveAspectRatio="none" style="width:448px;height:497px;background:#FFFFFF;" version="1.1" viewBox="0 0 448 497" width="448px" zoomAndPan="magnify"><defs/><g><text fill="#000000" font-family="sans-serif" font-size="14" font-weight="bold" lengthAdjust="spacing" textLength="351" x="47.5" y="30.1074">System Sequence Diagram (SSD) - Alternative One</text><rect fill="#FFFFFF" height="271.9102" style="stroke:#181818;stroke-width:1.0;" width="10" x="69" y="133.2422"/><rect fill="#FFFFFF" height="31.291" style="stroke:#181818;stroke-width:1.0;" width="10" x="405" y="156.5332"/><rect fill="#FFFFFF" height="31.291" style="stroke:#181818;stroke-width:1.0;" width="10" x="405" y="270.9883"/><rect fill="#FFFFFF" height="62.582" style="stroke:#181818;stroke-width:1.0;" width="10" x="405" y="333.5703"/><line style="stroke:#181818;stroke-width:0.5;stroke-dasharray:5.0,5.0;" x1="74" x2="74" y1="123.2422" y2="414.1523"/><line style="stroke:#181818;stroke-width:0.5;stroke-dasharray:5.0,5.0;" x1="410" x2="410" y1="123.2422" y2="414.1523"/><text fill="#000000" font-family="sans-serif" font-size="14" lengthAdjust="spacing" textLength="132" x="5" y="119.7285">System administrator</text><ellipse cx="74" cy="53.1211" fill="#E3E3E3" rx="8" ry="8" style="stroke:#181818;stroke-width:0.5;"/><path d="M74,61.1211 L74,88.1211 M61,69.1211 L87,69.1211 M74,88.1211 L61,103.1211 M74,88.1211 L87,103.1211 " fill="none" style="stroke:#181818;stroke-width:0.5;"/><text fill="#000000" font-family="sans-serif" font-size="14" lengthAdjust="spacing" textLength="132" x="5" y="428.2598">System administrator</text><ellipse cx="74" cy="440.2734" fill="#E3E3E3" rx="8" ry="8" style="stroke:#181818;stroke-width:0.5;"/><path d="M74,448.2734 L74,475.2734 M61,456.2734 L87,456.2734 M74,475.2734 L61,490.2734 M74,475.2734 L87,490.2734 " fill="none" style="stroke:#181818;stroke-width:0.5;"/><rect fill="#E3E3E3" height="32.6211" rx="2.5" ry="2.5" style="stroke:#181818;stroke-width:0.5;" width="64" x="378" y="89.6211"/><text fill="#000000" font-family="sans-serif" font-size="14" lengthAdjust="spacing" textLength="50" x="385" y="111.7285">:System</text><rect fill="#E3E3E3" height="32.6211" rx="2.5" ry="2.5" style="stroke:#181818;stroke-width:0.5;" width="64" x="378" y="413.1523"/><text fill="#000000" font-family="sans-serif" font-size="14" lengthAdjust="spacing" textLength="50" x="385" y="435.2598">:System</text><rect fill="#FFFFFF" height="271.9102" style="stroke:#181818;stroke-width:1.0;" width="10" x="69" y="133.2422"/><rect fill="#FFFFFF" height="31.291" style="stroke:#181818;stroke-width:1.0;" width="10" x="405" y="156.5332"/><rect fill="#FFFFFF" height="31.291" style="stroke:#181818;stroke-width:1.0;" width="10" x="405" y="270.9883"/><rect fill="#FFFFFF" height="62.582" style="stroke:#181818;stroke-width:1.0;" width="10" x="405" y="333.5703"/><polygon fill="#181818" points="393,152.5332,403,156.5332,393,160.5332,397,156.5332" style="stroke:#181818;stroke-width:1.0;"/><line style="stroke:#181818;stroke-width:1.0;" x1="79" x2="399" y1="156.5332" y2="156.5332"/><text fill="#000000" font-family="sans-serif" font-size="13" font-weight="bold" lengthAdjust="spacing" textLength="7" x="86" y="151.2705">1</text><text fill="#000000" font-family="sans-serif" font-size="13" lengthAdjust="spacing" textLength="192" x="97" y="151.2705">asks to register a new employee.</text><polygon fill="#181818" points="90,183.8242,80,187.8242,90,191.8242,86,187.8242" style="stroke:#181818;stroke-width:1.0;"/><line style="stroke:#181818;stroke-width:1.0;stroke-dasharray:2.0,2.0;" x1="84" x2="409" y1="187.8242" y2="187.8242"/><text fill="#000000" font-family="sans-serif" font-size="13" font-weight="bold" lengthAdjust="spacing" textLength="7" x="96" y="182.5615">2</text><text fill="#000000" font-family="sans-serif" font-size="13" lengthAdjust="spacing" textLength="139" x="107" y="182.5615">requests employee data</text><polygon fill="#181818" points="393,266.9883,403,270.9883,393,274.9883,397,270.9883" style="stroke:#181818;stroke-width:1.0;"/><line style="stroke:#181818;stroke-width:1.0;" x1="79" x2="399" y1="270.9883" y2="270.9883"/><text fill="#000000" font-family="sans-serif" font-size="13" font-weight="bold" lengthAdjust="spacing" textLength="7" x="86" y="239.7891">3</text><text fill="#000000" font-family="sans-serif" font-size="13" lengthAdjust="spacing" textLength="254" x="97" y="213.8525">types the employee information (their name,</text><text fill="#000000" font-family="sans-serif" font-size="13" lengthAdjust="spacing" textLength="258" x="97" y="231.1436">their citizen's card number, their tax number,</text><text fill="#000000" font-family="sans-serif" font-size="13" lengthAdjust="spacing" textLength="283" x="97" y="248.4346">their address, their email, their telephone number</text><text fill="#000000" font-family="sans-serif" font-size="13" lengthAdjust="spacing" textLength="274" x="101" y="265.7256">and the agency to which they will be assigned).</text><polygon fill="#181818" points="90,298.2793,80,302.2793,90,306.2793,86,302.2793" style="stroke:#181818;stroke-width:1.0;"/><line style="stroke:#181818;stroke-width:1.0;stroke-dasharray:2.0,2.0;" x1="84" x2="409" y1="302.2793" y2="302.2793"/><text fill="#000000" font-family="sans-serif" font-size="13" font-weight="bold" lengthAdjust="spacing" textLength="7" x="96" y="297.0166">4</text><text fill="#000000" font-family="sans-serif" font-size="13" lengthAdjust="spacing" textLength="291" x="107" y="297.0166">shows the list of user roles and asks to select one</text><polygon fill="#181818" points="393,329.5703,403,333.5703,393,337.5703,397,333.5703" style="stroke:#181818;stroke-width:1.0;"/><line style="stroke:#181818;stroke-width:1.0;" x1="79" x2="399" y1="333.5703" y2="333.5703"/><text fill="#000000" font-family="sans-serif" font-size="13" font-weight="bold" lengthAdjust="spacing" textLength="7" x="86" y="328.3076">5</text><text fill="#000000" font-family="sans-serif" font-size="13" lengthAdjust="spacing" textLength="107" x="97" y="328.3076">selects a user role</text><polygon fill="#181818" points="393,360.8613,403,364.8613,393,368.8613,397,364.8613" style="stroke:#181818;stroke-width:1.0;"/><line style="stroke:#181818;stroke-width:1.0;" x1="79" x2="399" y1="364.8613" y2="364.8613"/><text fill="#000000" font-family="sans-serif" font-size="13" font-weight="bold" lengthAdjust="spacing" textLength="7" x="86" y="359.5986">6</text><text fill="#000000" font-family="sans-serif" font-size="13" lengthAdjust="spacing" textLength="75" x="97" y="359.5986">submits data</text><polygon fill="#181818" points="90,392.1523,80,396.1523,90,400.1523,86,396.1523" style="stroke:#181818;stroke-width:1.0;"/><line style="stroke:#181818;stroke-width:1.0;stroke-dasharray:2.0,2.0;" x1="84" x2="409" y1="396.1523" y2="396.1523"/><text fill="#000000" font-family="sans-serif" font-size="13" font-weight="bold" lengthAdjust="spacing" textLength="7" x="96" y="390.8896">7</text><text fill="#000000" font-family="sans-serif" font-size="13" lengthAdjust="spacing" textLength="158" x="107" y="390.8896">displays operation success</text><!--SRC=[dLAxZjmm3Epz5SGskGDkym5R10XmgLEulOOhSsrY9SeHwNEShm_NhqsnXo1H9Oape-5GUcNfiM22b2M7hkH4O6MWIlTAZ-6ABTKsHO92mL3Q-2T0EspooDB21QDILHcRG-j9ZHBKz6CW2GIlZEqD_bJNhyzmXA_Hg0WQlnDy5wVXO5c6TARY-s2vm67Lm2Qni5f1lpq0AdnBVSmJKUKMZ0FtA0Q7quAV4SjsLk9tDBfJAl2rdU3uPNDwSjfLmR9tsVfhL011Q0HQiPzdvYwulG3hMcMEhhYhdrpB-rVJNGKQD9n93JtKUcZDffxSMqTt7PPBBia3p09FNk42WebUu4sMKs3ZNoIV50AM1fPiNs0f6lxSRpO2DaqXrGr22JdkU8hKTrbePRq9e3Ip8_yT4gPRS6F7eRlTJJ1oZ73seYgtGitpVwMdNHwNjgDF1F851lMvb1mzZTlxsyZKxGK7-4VwrsWNgilTjQk7NZzM6Cw9NM6UxDzQQbZxY9D2xgaiqzCX1C_z0-U_0G00]--></g></svg>