<?xml version="1.0" encoding="UTF-8" standalone="no"?><svg xmlns="http://www.w3.org/2000/svg" xmlns:xlink="http://www.w3.org/1999/xlink" contentStyleType="text/css" height="796px" preserveAspectRatio="none" style="width:1175px;height:796px;background:#FFFFFF;" version="1.1" viewBox="0 0 1175 796" width="1175px" zoomAndPan="magnify"><defs/><g><!--MD5=[7421f545a0d8420c5bec41e74b387d9c]
class Employee--><g id="elem_Employee"><rect codeLine="10" fill="#F1F1F1" height="114.5918" id="Employee" rx="2.5" ry="2.5" style="stroke:#181818;stroke-width:0.5;" width="102" x="340" y="7"/><text fill="#000000" font-family="sans-serif" font-size="14" lengthAdjust="spacing" textLength="62" x="360" y="25.1318">Employee</text><line style="stroke:#181818;stroke-width:0.5;" x1="341" x2="441" y1="33.0986" y2="33.0986"/><text fill="#000000" font-family="sans-serif" font-size="14" lengthAdjust="spacing" textLength="35" x="346" y="50.2305">name</text><text fill="#000000" font-family="sans-serif" font-size="14" lengthAdjust="spacing" textLength="90" x="346" y="66.3291">numberCitizen</text><text fill="#000000" font-family="sans-serif" font-size="14" lengthAdjust="spacing" textLength="15" x="346" y="82.4277">tin</text><text fill="#000000" font-family="sans-serif" font-size="14" lengthAdjust="spacing" textLength="33" x="346" y="98.5264">email</text><text fill="#000000" font-family="sans-serif" font-size="14" lengthAdjust="spacing" textLength="89" x="346" y="114.625">phoneNumber</text></g><!--MD5=[9d44916250b776386006c440668bcfbb]
class Agent--><g id="elem_Agent"><rect codeLine="18" fill="#F1F1F1" height="34.0986" id="Agent" rx="2.5" ry="2.5" style="stroke:#181818;stroke-width:0.5;" width="43" x="448.5" y="215"/><text fill="#000000" font-family="sans-serif" font-size="14" lengthAdjust="spacing" textLength="37" x="451.5" y="233.1318">Agent</text><line style="stroke:#181818;stroke-width:0.5;" x1="449.5" x2="490.5" y1="241.0986" y2="241.0986"/></g><!--MD5=[96a16f046dcf5a9f7fab5dd2542af37b]
class Advertisement--><g id="elem_Advertisement"><rect codeLine="20" fill="#F1F1F1" height="82.3945" id="Advertisement" rx="2.5" ry="2.5" style="stroke:#181818;stroke-width:0.5;" width="113" x="413.5" y="373.5"/><text fill="#000000" font-family="sans-serif" font-size="14" lengthAdjust="spacing" textLength="90" x="425" y="391.6318">Advertisement</text><line style="stroke:#181818;stroke-width:0.5;" x1="414.5" x2="525.5" y1="399.5986" y2="399.5986"/><text fill="#000000" font-family="sans-serif" font-size="14" lengthAdjust="spacing" textLength="38" x="419.5" y="416.7305">status</text><text fill="#000000" font-family="sans-serif" font-size="14" lengthAdjust="spacing" textLength="101" x="419.5" y="432.8291">idAdvertisement</text><text fill="#000000" font-family="sans-serif" font-size="14" lengthAdjust="spacing" textLength="28" x="419.5" y="448.9277">date</text></g><!--MD5=[75298ed485b4378964d3dc50b0cac303]
class AdvertisementSale--><g id="elem_AdvertisementSale"><rect codeLine="26" fill="#F1F1F1" height="50.1973" id="AdvertisementSale" rx="2.5" ry="2.5" style="stroke:#181818;stroke-width:0.5;" width="124" x="386" y="580.5"/><text fill="#000000" font-family="sans-serif" font-size="14" lengthAdjust="spacing" textLength="118" x="389" y="598.6318">AdvertisementSale</text><line style="stroke:#181818;stroke-width:0.5;" x1="387" x2="509" y1="606.5986" y2="606.5986"/><text fill="#000000" font-family="sans-serif" font-size="14" lengthAdjust="spacing" textLength="58" x="392" y="623.7305">salePrice</text></g><!--MD5=[8da61589f91a7f71d7d3cd9bac6ca407]
class AdvertisementLease--><g id="elem_AdvertisementLease"><rect codeLine="30" fill="#F1F1F1" height="66.2959" id="AdvertisementLease" rx="2.5" ry="2.5" style="stroke:#181818;stroke-width:0.5;" width="135" x="545.5" y="572.5"/><text fill="#000000" font-family="sans-serif" font-size="14" lengthAdjust="spacing" textLength="129" x="548.5" y="590.6318">AdvertisementLease</text><line style="stroke:#181818;stroke-width:0.5;" x1="546.5" x2="679.5" y1="598.5986" y2="598.5986"/><text fill="#000000" font-family="sans-serif" font-size="14" lengthAdjust="spacing" textLength="121" x="551.5" y="615.7305">durationOfContract</text><text fill="#000000" font-family="sans-serif" font-size="14" lengthAdjust="spacing" textLength="68" x="551.5" y="631.8291">rentalPrice</text></g><!--MD5=[d455866db8734b6afc0d388f69d23654]
class AdvertisementType--><g id="elem_AdvertisementType"><rect codeLine="36" fill="#F1F1F1" height="114.5918" id="AdvertisementType" rx="2.5" ry="2.5" style="stroke:#181818;stroke-width:0.5;" width="139" x="715.5" y="548"/><text fill="#000000" font-family="sans-serif" font-size="14" lengthAdjust="spacing" textLength="122" x="724" y="566.1318">AdvertisementType</text><line style="stroke:#181818;stroke-width:0.5;" x1="716.5" x2="853.5" y1="574.0986" y2="574.0986"/><text fill="#000000" font-family="sans-serif" font-size="14" lengthAdjust="spacing" textLength="73" x="721.5" y="591.2305">designation</text><text fill="#000000" font-family="sans-serif" font-size="14" lengthAdjust="spacing" textLength="4" x="721.5" y="607.3291"> </text><text fill="#000000" font-family="sans-serif" font-size="14" lengthAdjust="spacing" textLength="4" x="721.5" y="623.4277"> </text><text fill="#000000" font-family="sans-serif" font-size="14" lengthAdjust="spacing" textLength="127" x="721.5" y="639.5264">class PropertyType{</text><text fill="#000000" font-family="sans-serif" font-size="14" lengthAdjust="spacing" textLength="73" x="721.5" y="655.625">designation</text></g><!--MD5=[6b626634f3bb0842bebd5e499c80b711]
class Property--><g id="elem_Property"><rect codeLine="44" fill="#F1F1F1" height="114.5918" id="Property" rx="2.5" ry="2.5" style="stroke:#181818;stroke-width:0.5;" width="132" x="158" y="357"/><text fill="#000000" font-family="sans-serif" font-size="14" lengthAdjust="spacing" textLength="54" x="197" y="375.1318">Property</text><line style="stroke:#181818;stroke-width:0.5;" x1="159" x2="289" y1="383.0986" y2="383.0986"/><text fill="#000000" font-family="sans-serif" font-size="14" lengthAdjust="spacing" textLength="83" x="164" y="400.2305">areaProperty</text><text fill="#000000" font-family="sans-serif" font-size="14" lengthAdjust="spacing" textLength="120" x="164" y="416.3291">distanceCityCenter</text><text fill="#000000" font-family="sans-serif" font-size="14" lengthAdjust="spacing" textLength="111" x="164" y="432.4277">conditionProperty</text><text fill="#000000" font-family="sans-serif" font-size="14" lengthAdjust="spacing" textLength="43" x="164" y="448.5264">photos</text><text fill="#000000" font-family="sans-serif" font-size="14" lengthAdjust="spacing" textLength="87" x="164" y="464.625">propertyCode</text></g><!--MD5=[5005bba8c6d1dda988b0bcc8eba409f6]
class House--><g id="elem_House"><rect codeLine="52" fill="#F1F1F1" height="82.3945" id="House" rx="2.5" ry="2.5" style="stroke:#181818;stroke-width:0.5;" width="94" x="175" y="23.5"/><text fill="#000000" font-family="sans-serif" font-size="14" lengthAdjust="spacing" textLength="40" x="202" y="41.6318">House</text><line style="stroke:#181818;stroke-width:0.5;" x1="176" x2="268" y1="49.5986" y2="49.5986"/><text fill="#000000" font-family="sans-serif" font-size="14" lengthAdjust="spacing" textLength="62" x="181" y="66.7305">basement</text><text fill="#000000" font-family="sans-serif" font-size="14" lengthAdjust="spacing" textLength="19" x="181" y="82.8291">loft</text><text fill="#000000" font-family="sans-serif" font-size="14" lengthAdjust="spacing" textLength="82" x="181" y="98.9277">sunExposure</text></g><!--MD5=[8560f289a30852a9f75d64e53f926853]
class Building--><g id="elem_Building"><rect codeLine="58" fill="#F1F1F1" height="98.4932" id="Building" rx="2.5" ry="2.5" style="stroke:#181818;stroke-width:0.5;" width="135" x="154.5" y="183"/><text fill="#000000" font-family="sans-serif" font-size="14" lengthAdjust="spacing" textLength="50" x="197" y="201.1318">Building</text><line style="stroke:#181818;stroke-width:0.5;" x1="155.5" x2="288.5" y1="209.0986" y2="209.0986"/><text fill="#000000" font-family="sans-serif" font-size="14" lengthAdjust="spacing" textLength="112" x="160.5" y="226.2305">numberBedrooms</text><text fill="#000000" font-family="sans-serif" font-size="14" lengthAdjust="spacing" textLength="116" x="160.5" y="242.3291">numberBathrooms</text><text fill="#000000" font-family="sans-serif" font-size="14" lengthAdjust="spacing" textLength="96" x="160.5" y="258.4277">numberParking</text><text fill="#000000" font-family="sans-serif" font-size="14" lengthAdjust="spacing" textLength="123" x="160.5" y="274.5264">availableEquipment</text></g><!--MD5=[4f1f3706c1a355a8488e154afcaed5df]
class Location--><g id="elem_Location"><rect codeLine="65" fill="#F1F1F1" height="114.5918" id="Location" rx="2.5" ry="2.5" style="stroke:#181818;stroke-width:0.5;" width="63" x="192.5" y="548"/><text fill="#000000" font-family="sans-serif" font-size="14" lengthAdjust="spacing" textLength="54" x="197" y="566.1318">Location</text><line style="stroke:#181818;stroke-width:0.5;" x1="193.5" x2="254.5" y1="574.0986" y2="574.0986"/><text fill="#000000" font-family="sans-serif" font-size="14" lengthAdjust="spacing" textLength="36" x="198.5" y="591.2305">street</text><text fill="#000000" font-family="sans-serif" font-size="14" lengthAdjust="spacing" textLength="51" x="198.5" y="607.3291">zipCode</text><text fill="#000000" font-family="sans-serif" font-size="14" lengthAdjust="spacing" textLength="49" x="198.5" y="623.4277">stateUS</text><text fill="#000000" font-family="sans-serif" font-size="14" lengthAdjust="spacing" textLength="21" x="198.5" y="639.5264">city</text><text fill="#000000" font-family="sans-serif" font-size="14" lengthAdjust="spacing" textLength="41" x="198.5" y="655.625">district</text></g><!--MD5=[6f82515434f0f9b0e492c125596c3d44]
class Commission--><g id="elem_Commission"><rect codeLine="73" fill="#F1F1F1" height="34.0986" id="Commission" rx="2.5" ry="2.5" style="stroke:#181818;stroke-width:0.5;" width="82" x="890" y="588.5"/><text fill="#000000" font-family="sans-serif" font-size="14" lengthAdjust="spacing" textLength="76" x="893" y="606.6318">Commission</text><line style="stroke:#181818;stroke-width:0.5;" x1="891" x2="971" y1="614.5986" y2="614.5986"/></g><!--MD5=[96ca3d05689fefb4681746b013109d64]
class CommissionType--><g id="elem_CommissionType"><rect codeLine="75" fill="#F1F1F1" height="50.1973" id="CommissionType" rx="2.5" ry="2.5" style="stroke:#181818;stroke-width:0.5;" width="114" x="716" y="739"/><text fill="#000000" font-family="sans-serif" font-size="14" lengthAdjust="spacing" textLength="108" x="719" y="757.1318">CommissionType</text><line style="stroke:#181818;stroke-width:0.5;" x1="717" x2="829" y1="765.0986" y2="765.0986"/><text fill="#000000" font-family="sans-serif" font-size="14" lengthAdjust="spacing" textLength="73" x="722" y="782.2305">designation</text></g><!--MD5=[07ecbf4d589892d7e7a02ec6845b9848]
class CommissionPercent--><g id="elem_CommissionPercent"><rect codeLine="78" fill="#F1F1F1" height="50.1973" id="CommissionPercent" rx="2.5" ry="2.5" style="stroke:#181818;stroke-width:0.5;" width="131" x="865.5" y="739"/><text fill="#000000" font-family="sans-serif" font-size="14" lengthAdjust="spacing" textLength="125" x="868.5" y="757.1318">CommissionPercent</text><line style="stroke:#181818;stroke-width:0.5;" x1="866.5" x2="995.5" y1="765.0986" y2="765.0986"/><text fill="#000000" font-family="sans-serif" font-size="14" lengthAdjust="spacing" textLength="48" x="871.5" y="782.2305">percent</text></g><!--MD5=[003ad7dabcd521edfe36b35bba7b38cb]
class CommissionFixValue--><g id="elem_CommissionFixValue"><rect codeLine="81" fill="#F1F1F1" height="50.1973" id="CommissionFixValue" rx="2.5" ry="2.5" style="stroke:#181818;stroke-width:0.5;" width="136" x="1032" y="739"/><text fill="#000000" font-family="sans-serif" font-size="14" lengthAdjust="spacing" textLength="130" x="1035" y="757.1318">CommissionFixValue</text><line style="stroke:#181818;stroke-width:0.5;" x1="1033" x2="1167" y1="765.0986" y2="765.0986"/><text fill="#000000" font-family="sans-serif" font-size="14" lengthAdjust="spacing" textLength="34" x="1038" y="782.2305">value</text></g><!--MD5=[af8ed831b3fe9dbd380fec6c597723ab]
class Offer--><g id="elem_Offer"><rect fill="#F1F1F1" height="34.0986" id="Offer" rx="2.5" ry="2.5" style="stroke:#181818;stroke-width:0.5;" width="38" x="313" y="588.5"/><text fill="#000000" font-family="sans-serif" font-size="14" lengthAdjust="spacing" textLength="32" x="316" y="606.6318">Offer</text><line style="stroke:#181818;stroke-width:0.5;" x1="314" x2="350" y1="614.5986" y2="614.5986"/></g><!--MD5=[08d6a551530ab71b272f9c2c40bfb385]
class Owner--><g id="elem_Owner"><rect fill="#F1F1F1" height="34.0986" id="Owner" rx="2.5" ry="2.5" style="stroke:#181818;stroke-width:0.5;" width="47" x="75.5" y="397.5"/><text fill="#000000" font-family="sans-serif" font-size="14" lengthAdjust="spacing" textLength="41" x="78.5" y="415.6318">Owner</text><line style="stroke:#181818;stroke-width:0.5;" x1="76.5" x2="121.5" y1="423.5986" y2="423.5986"/></g><!--MD5=[b7b2a37e41fc7860b2beae32fdcac153]
class PropertyType--><g id="elem_PropertyType"><rect fill="#F1F1F1" height="34.0986" id="PropertyType" rx="2.5" ry="2.5" style="stroke:#181818;stroke-width:0.5;" width="92" x="7" y="215"/><text fill="#000000" font-family="sans-serif" font-size="14" lengthAdjust="spacing" textLength="86" x="10" y="233.1318">PropertyType</text><line style="stroke:#181818;stroke-width:0.5;" x1="8" x2="98" y1="241.0986" y2="241.0986"/></g><!--MD5=[b5f9f44daa4e51423995e17913dfaab5]
link Agent to Advertisement--><g id="link_Agent_Advertisement"><path codeLine="86" d="M470,249.02 C470,276.71 470,334.33 470,373.47 " fill="none" id="Agent-Advertisement" style="stroke:#181818;stroke-width:1.0;"/><polygon fill="#000000" points="475,324.4744,477.9389,315.4293,472.0611,315.4293,475,324.4744" style="stroke:#000000;stroke-width:1.0;"/><text fill="#000000" font-family="sans-serif" font-size="13" lengthAdjust="spacing" textLength="223" x="484" y="324.1938">publishes, validates and is in charge of</text><text fill="#000000" font-family="sans-serif" font-size="13" lengthAdjust="spacing" textLength="7" x="461.8406" y="269.3113">1</text><text fill="#000000" font-family="sans-serif" font-size="13" lengthAdjust="spacing" textLength="5" x="464.5391" y="362.8594">*</text></g><!--MD5=[77af666df318fd7d70637432e62dbc09]
link Agent to Commission--><g id="link_Agent_Commission"><path codeLine="87" d="M491.75,235.87 C536.82,242.63 642.34,262.78 716,311 C810.34,372.77 821.37,407.57 883,502 C901.58,530.47 916.97,567.27 924.99,588.14 " fill="none" id="Agent-Commission" style="stroke:#181818;stroke-width:1.0;"/><polygon fill="#000000" points="870.8794,418.1287,865.7156,410.1422,862.0074,414.7027,870.8794,418.1287" style="stroke:#000000;stroke-width:1.0;"/><text fill="#000000" font-family="sans-serif" font-size="13" lengthAdjust="spacing" textLength="54" x="876" y="419.6938">attributes</text><text fill="#000000" font-family="sans-serif" font-size="13" lengthAdjust="spacing" textLength="7" x="499.4828" y="233.2355">1</text><text fill="#000000" font-family="sans-serif" font-size="13" lengthAdjust="spacing" textLength="5" x="916.9583" y="577.807">*</text></g><!--MD5=[eebec25b03ed045c3301187fd690ce0c]
reverse link Advertisement to AdvertisementSale--><g id="link_Advertisement_AdvertisementSale"><path codeLine="88" d="M462.97,475.93 C458.84,511.35 453.86,554.14 450.81,580.33 " fill="none" id="Advertisement-backto-AdvertisementSale" style="stroke:#181818;stroke-width:1.0;"/><polygon fill="none" points="456.07,474.64,465.33,455.58,469.97,476.26,456.07,474.64" style="stroke:#181818;stroke-width:1.0;"/></g><!--MD5=[2b81e6f77eac1a9a633a7b29b7ea4a0d]
reverse link Advertisement to AdvertisementLease--><g id="link_Advertisement_AdvertisementLease"><path codeLine="89" d="M512.71,471.95 C537.52,504.74 567.87,544.85 588.65,572.31 " fill="none" id="Advertisement-backto-AdvertisementLease" style="stroke:#181818;stroke-width:1.0;"/><polygon fill="none" points="506.81,475.75,500.33,455.58,517.98,467.31,506.81,475.75" style="stroke:#181818;stroke-width:1.0;"/></g><!--MD5=[eb668a8f1824233ee9fdbb6fb9a944a5]
link Advertisement to AdvertisementType--><g id="link_Advertisement_AdvertisementType"><path codeLine="90" d="M526.68,447.4 C573.09,473.77 640.28,512.51 698,548 C703.68,551.49 709.53,555.15 715.39,558.86 " fill="none" id="Advertisement-AdvertisementType" style="stroke:#181818;stroke-width:1.0;"/><polygon fill="#000000" points="651.3051,513.0172,645.0117,505.8867,642.0225,510.9477,651.3051,513.0172" style="stroke:#000000;stroke-width:1.0;"/><text fill="#000000" font-family="sans-serif" font-size="13" lengthAdjust="spacing" textLength="49" x="656" y="515.1938">contains</text><text fill="#000000" font-family="sans-serif" font-size="13" lengthAdjust="spacing" textLength="5" x="534.6323" y="449.1114">*</text><text fill="#000000" font-family="sans-serif" font-size="13" lengthAdjust="spacing" textLength="7" x="700.3936" y="551.2612">1</text></g><!--MD5=[c3101b036a3a67b206dc61f04c70dc5a]
link Advertisement to Commission--><g id="link_Advertisement_Commission"><path codeLine="91" d="M526.63,425.86 C607.63,442.46 759.25,480.25 872,548 C889.87,558.74 906.67,575.77 917.74,588.33 " fill="none" id="Advertisement-Commission" style="stroke:#181818;stroke-width:1.0;"/><polygon fill="#000000" points="820.6174,512.3925,813.3919,506.2085,811.137,511.6366,820.6174,512.3925" style="stroke:#000000;stroke-width:1.0;"/><text fill="#000000" font-family="sans-serif" font-size="13" lengthAdjust="spacing" textLength="49" x="825" y="515.1938">contains</text><text fill="#000000" font-family="sans-serif" font-size="13" lengthAdjust="spacing" textLength="7" x="534.3342" y="424.648">1</text><text fill="#000000" font-family="sans-serif" font-size="13" lengthAdjust="spacing" textLength="7" x="904.5598" y="577.7679">1</text></g><!--MD5=[f0f08694354204630e4267aa68f6b09c]
link Advertisement to Offer--><g id="link_Advertisement_Offer"><path codeLine="92" d="M427.65,455.81 C414.15,469.76 399.69,485.94 388,502 C367.23,530.52 348.82,567.63 339.16,588.47 " fill="none" id="Advertisement-Offer" style="stroke:#181818;stroke-width:1.0;"/><polygon fill="#000000" points="390.2254,514.6339,397.6896,508.7401,392.7998,505.4784,390.2254,514.6339" style="stroke:#000000;stroke-width:1.0;"/><text fill="#000000" font-family="sans-serif" font-size="13" lengthAdjust="spacing" textLength="47" x="402" y="515.1938">receives</text><text fill="#000000" font-family="sans-serif" font-size="13" lengthAdjust="spacing" textLength="7" x="413.0561" y="476.0511">1</text><text fill="#000000" font-family="sans-serif" font-size="13" lengthAdjust="spacing" textLength="5" x="335.9366" y="577.6645">*</text></g><!--MD5=[788f42c64af1290e74560a5e791b77d1]
link Building to Property--><g id="link_Building_Property"><path codeLine="93" d="M222.54,281.37 C222.72,298.38 222.94,317.94 223.15,336.71 " fill="none" id="Building-to-Property" style="stroke:#181818;stroke-width:1.0;"/><polygon fill="none" points="230.15,336.91,223.37,356.99,216.15,337.07,230.15,336.91" style="stroke:#181818;stroke-width:1.0;"/></g><!--MD5=[d8e08c0211972d5d0583c7aa355f5f74]
reverse link Commission to CommissionFixValue--><g id="link_Commission_CommissionFixValue"><path codeLine="94" d="M963.13,636.25 C995.24,665.99 1044.02,711.16 1073.84,738.78 " fill="none" id="Commission-backto-CommissionFixValue" style="stroke:#181818;stroke-width:1.0;"/><polygon fill="none" points="958.37,641.38,948.45,622.66,967.88,631.11,958.37,641.38" style="stroke:#181818;stroke-width:1.0;"/></g><!--MD5=[ad43b4b985dd56ea815628688f672161]
reverse link Commission to CommissionPercent--><g id="link_Commission_CommissionPercent"><path codeLine="95" d="M931,643 C931,672.5 931,713.18 931,738.78 " fill="none" id="Commission-backto-CommissionPercent" style="stroke:#181818;stroke-width:1.0;"/><polygon fill="none" points="924,642.66,931,622.66,938,642.66,924,642.66" style="stroke:#181818;stroke-width:1.0;"/></g><!--MD5=[a01f04910c76a0a123b332229d66f22a]
link Commission to CommissionType--><g id="link_Commission_CommissionType"><path codeLine="96" d="M914.69,622.66 C886.85,650.23 830.05,706.49 797.45,738.78 " fill="none" id="Commission-CommissionType" style="stroke:#181818;stroke-width:1.0;"/><polygon fill="#000000" points="843.4475,704.9929,851.9421,700.7159,847.8059,696.5397,843.4475,704.9929" style="stroke:#000000;stroke-width:1.0;"/><text fill="#000000" font-family="sans-serif" font-size="13" lengthAdjust="spacing" textLength="49" x="856" y="706.1938">contains</text><text fill="#000000" font-family="sans-serif" font-size="13" lengthAdjust="spacing" textLength="5" x="903.6943" y="642.6903">*</text><text fill="#000000" font-family="sans-serif" font-size="13" lengthAdjust="spacing" textLength="7" x="796.0803" y="728.4157">1</text></g><!--MD5=[3aa699e75b1037fcafc5a2487aecd7d2]
reverse link Employee to Agent--><g id="link_Employee_Agent"><path codeLine="97" d="M426.96,140.83 C440.18,168.54 453.94,197.36 462.24,214.74 " fill="none" id="Employee-backto-Agent" style="stroke:#181818;stroke-width:1.0;"/><polygon fill="none" points="420.49,143.52,418.19,122.46,433.12,137.49,420.49,143.52" style="stroke:#181818;stroke-width:1.0;"/></g><!--MD5=[b20241f03cbe24a9ad7dd4a9390f3106]
link Employee to Location--><g id="link_Employee_Location"><path codeLine="98" d="M385.97,122.26 C377.4,202.59 356.01,352.92 308,472 C294.81,504.71 273.47,538.24 255.6,563.38 " fill="none" id="Employee-Location" style="stroke:#181818;stroke-width:1.0;"/><polygon fill="#000000" points="358.5829,324.2693,363.9649,316.4281,358.3281,314.7622,358.5829,324.2693" style="stroke:#000000;stroke-width:1.0;"/><text fill="#000000" font-family="sans-serif" font-size="13" lengthAdjust="spacing" textLength="30" x="369" y="324.1938">owns</text><text fill="#000000" font-family="sans-serif" font-size="13" lengthAdjust="spacing" textLength="7" x="378.037" y="141.6112">1</text><text fill="#000000" font-family="sans-serif" font-size="13" lengthAdjust="spacing" textLength="7" x="263.7169" y="550.3717">1</text></g><!--MD5=[b745dc23a4f6fd15bc833cea18001189]
link Owner to Location--><g id="link_Owner_Location"><path codeLine="99" d="M109.66,431.61 C127.78,459.02 165.28,515.72 192.4,556.73 " fill="none" id="Owner-Location" style="stroke:#181818;stroke-width:1.0;"/><polygon fill="#000000" points="173.7579,514.6449,171.2202,505.4792,166.3174,508.7214,173.7579,514.6449" style="stroke:#000000;stroke-width:1.0;"/><text fill="#000000" font-family="sans-serif" font-size="13" lengthAdjust="spacing" textLength="30" x="180" y="515.1938">owns</text><text fill="#000000" font-family="sans-serif" font-size="13" lengthAdjust="spacing" textLength="7" x="105.0318" y="451.9311">1</text><text fill="#000000" font-family="sans-serif" font-size="13" lengthAdjust="spacing" textLength="7" x="177.2831" y="542.1839">1</text></g><!--MD5=[92f77f4a4071b6195dbd651f1987777d]
link Owner to Advertisement--><g id="link_Owner_Advertisement"><path codeLine="100" d="M97.82,397.2 C97.48,376.51 100.53,342.61 122,326 C156.45,299.36 176.67,321.54 220,326 C287.28,332.93 305.73,333.09 369,357 C383.91,362.64 399.24,370.27 413.3,378.13 " fill="none" id="Owner-Advertisement" style="stroke:#181818;stroke-width:1.0;"/><polygon fill="#000000" points="131.9909,319.1727,122.785,316.7849,123.1396,322.652,131.9909,319.1727" style="stroke:#000000;stroke-width:1.0;"/><text fill="#000000" font-family="sans-serif" font-size="13" lengthAdjust="spacing" textLength="83" x="136" y="324.1938">asks to create</text><text fill="#000000" font-family="sans-serif" font-size="13" lengthAdjust="spacing" textLength="7" x="89.1528" y="386.8884">1</text><text fill="#000000" font-family="sans-serif" font-size="13" lengthAdjust="spacing" textLength="5" x="400.345" y="370.5332">*</text></g><!--MD5=[f2356e37204b57276695eade9dbd0f0c]
link Property to Advertisement--><g id="link_Property_Advertisement"><path codeLine="101" d="M290.25,414.5 C328.67,414.5 376.56,414.5 413.24,414.5 " fill="none" id="Property-Advertisement" style="stroke:#181818;stroke-width:1.0;"/><polygon fill="#000000" points="313.75,403.9744,322.7951,406.9133,322.7951,401.0354,313.75,403.9744" style="stroke:#000000;stroke-width:1.0;"/><text fill="#000000" font-family="sans-serif" font-size="13" lengthAdjust="spacing" textLength="61" x="327.75" y="408.6938">represents</text><text fill="#000000" font-family="sans-serif" font-size="13" lengthAdjust="spacing" textLength="7" x="297.8789" y="412.0024">1</text><text fill="#000000" font-family="sans-serif" font-size="13" lengthAdjust="spacing" textLength="7" x="398.5192" y="411.8325">1</text></g><!--MD5=[fbe01aa29307af51ddd0521639dbabee]
link Property to Location--><g id="link_Property_Location"><path codeLine="102" d="M224,472.21 C224,496.13 224,523.92 224,547.83 " fill="none" id="Property-Location" style="stroke:#181818;stroke-width:1.0;"/><polygon fill="#000000" points="229,515.4744,231.9389,506.4293,226.0611,506.4293,229,515.4744" style="stroke:#000000;stroke-width:1.0;"/><text fill="#000000" font-family="sans-serif" font-size="13" lengthAdjust="spacing" textLength="30" x="238" y="515.1938">owns</text><text fill="#000000" font-family="sans-serif" font-size="13" lengthAdjust="spacing" textLength="7" x="216.5953" y="491.9644">1</text><text fill="#000000" font-family="sans-serif" font-size="13" lengthAdjust="spacing" textLength="7" x="216.5297" y="537.425">1</text></g><!--MD5=[eb9e2b5bc7ee54246862a22b6688e405]
link PropertyType to Property--><g id="link_PropertyType_Property"><path codeLine="103" d="M47.05,249.01 C40.66,269.21 33.48,304.08 50,327 C74.65,361.2 102.16,338.4 140,357 C145.84,359.87 151.74,363.09 157.57,366.5 " fill="none" id="PropertyType-Property" style="stroke:#181818;stroke-width:1.0;"/><polygon fill="#000000" points="51.5741,315.8325,55.6309,324.4344,59.9122,320.4071,51.5741,315.8325" style="stroke:#000000;stroke-width:1.0;"/><text fill="#000000" font-family="sans-serif" font-size="13" lengthAdjust="spacing" textLength="49" x="64" y="324.1938">contains</text><text fill="#000000" font-family="sans-serif" font-size="13" lengthAdjust="spacing" textLength="7" x="36.9197" y="269.298">1</text><text fill="#000000" font-family="sans-serif" font-size="13" lengthAdjust="spacing" textLength="5" x="145.0308" y="358.7524">*</text></g><!--MD5=[b812c26fadbd05bfed9ddda9bd193db2]
link House to Building--><g id="link_House_Building"><path codeLine="104" d="M222,105.56 C222,122.73 222,143.26 222,162.7 " fill="none" id="House-to-Building" style="stroke:#181818;stroke-width:1.0;"/><polygon fill="none" points="229,162.76,222,182.76,215,162.76,229,162.76" style="stroke:#181818;stroke-width:1.0;"/></g><!--MD5=[7b1c9e7f2511895a1b289d449efeb720]
@startuml
skinparam monochrome true
skinparam packageStyle rectangle
skinparam shadowing false

skinparam classAttributeIconSize 0

hide circle
hide methods

class Employee{
    name
    numberCitizen
    tin
    email
    phoneNumber
}

class Agent

class Advertisement {
    status
    idAdvertisement
    date
}

class AdvertisementSale {
    salePrice
}

class AdvertisementLease {
    durationOfContract
    rentalPrice

}

class AdvertisementType {
    designation


class PropertyType{
    designation
}

class Property{
    areaProperty
    distanceCityCenter
    conditionProperty
    photos
    propertyCode
}

class House {
    basement
    loft
    sunExposure
}

class Building{
    numberBedrooms
    numberBathrooms
    numberParking
    availableEquipment
}

class Location {
    street
    zipCode
    stateUS
    city
    district
}

class Commission

class CommissionType{
    designation
}
class CommissionPercent{
    percent
}
class CommissionFixValue{
    value
}


Agent "1" - - "*" Advertisement: publishes, validates and is in charge of >
Agent "1" - - "*" Commission: attributes >
Advertisement <|- - AdvertisementSale
Advertisement <|- - AdvertisementLease
Advertisement "*" - - "1" AdvertisementType: contains >
Advertisement "1" - - "1" Commission: contains >
Advertisement"1" - - "*"Offer: receives >
Building - -|> Property
Commission <|- - CommissionFixValue
Commission <|- - CommissionPercent
Commission "*" - - "1" CommissionType: contains >
Employee <|- - Agent
Employee "1" - - "1" Location: owns >
Owner "1" - - "1" Location: owns >
Owner "1" - "*" Advertisement: asks to create >
Property "1" - "1" Advertisement: represents <
Property "1" - - "1" Location: owns >
PropertyType "1" - - "*" Property: contains <
House - -|> Building

@enduml

PlantUML version 1.2022.7(Mon Aug 22 18:01:30 WEST 2022)
(GPL source distribution)
Java Runtime: OpenJDK Runtime Environment
JVM: OpenJDK 64-Bit Server VM
Default Encoding: UTF-8
Language: en
Country: US
--></g></svg>