<?xml version="1.0" encoding="us-ascii" standalone="no"?><svg xmlns="http://www.w3.org/2000/svg" xmlns:xlink="http://www.w3.org/1999/xlink" contentStyleType="text/css" height="542px" preserveAspectRatio="none" style="width:471px;height:542px;background:#FFFFFF;" version="1.1" viewBox="0 0 471 542" width="471px" zoomAndPan="magnify"><defs/><g><text fill="#000000" font-family="sans-serif" font-size="14" font-weight="bold" lengthAdjust="spacing" textLength="228" x="120.5" y="30.1074">System Sequence Diagram (SSD)</text><rect fill="#FFFFFF" height="317.2012" style="stroke:#181818;stroke-width:1.0;" width="10" x="69" y="133.2422"/><rect fill="#FFFFFF" height="48.582" style="stroke:#181818;stroke-width:1.0;" width="10" x="428" y="156.5332"/><rect fill="#FFFFFF" height="48.582" style="stroke:#181818;stroke-width:1.0;" width="10" x="428" y="236.4063"/><rect fill="#FFFFFF" height="62.582" style="stroke:#181818;stroke-width:1.0;" width="10" x="428" y="316.2793"/><rect fill="#FFFFFF" height="31.291" style="stroke:#181818;stroke-width:1.0;" width="10" x="428" y="410.1523"/><line style="stroke:#181818;stroke-width:0.5;stroke-dasharray:5.0,5.0;" x1="74" x2="74" y1="123.2422" y2="459.4434"/><line style="stroke:#181818;stroke-width:0.5;stroke-dasharray:5.0,5.0;" x1="433" x2="433" y1="123.2422" y2="459.4434"/><text fill="#000000" font-family="sans-serif" font-size="14" lengthAdjust="spacing" textLength="132" x="5" y="119.7285">System administrator</text><ellipse cx="74" cy="53.1211" fill="#E3E3E3" rx="8" ry="8" style="stroke:#181818;stroke-width:0.5;"/><path d="M74,61.1211 L74,88.1211 M61,69.1211 L87,69.1211 M74,88.1211 L61,103.1211 M74,88.1211 L87,103.1211 " fill="none" style="stroke:#181818;stroke-width:0.5;"/><text fill="#000000" font-family="sans-serif" font-size="14" lengthAdjust="spacing" textLength="132" x="5" y="473.5508">System administrator</text><ellipse cx="74" cy="485.5645" fill="#E3E3E3" rx="8" ry="8" style="stroke:#181818;stroke-width:0.5;"/><path d="M74,493.5645 L74,520.5645 M61,501.5645 L87,501.5645 M74,520.5645 L61,535.5645 M74,520.5645 L87,535.5645 " fill="none" style="stroke:#181818;stroke-width:0.5;"/><rect fill="#E3E3E3" height="32.6211" rx="2.5" ry="2.5" style="stroke:#181818;stroke-width:0.5;" width="64" x="401" y="89.6211"/><text fill="#000000" font-family="sans-serif" font-size="14" lengthAdjust="spacing" textLength="50" x="408" y="111.7285">:System</text><rect fill="#E3E3E3" height="32.6211" rx="2.5" ry="2.5" style="stroke:#181818;stroke-width:0.5;" width="64" x="401" y="458.4434"/><text fill="#000000" font-family="sans-serif" font-size="14" lengthAdjust="spacing" textLength="50" x="408" y="480.5508">:System</text><rect fill="#FFFFFF" height="317.2012" style="stroke:#181818;stroke-width:1.0;" width="10" x="69" y="133.2422"/><rect fill="#FFFFFF" height="48.582" style="stroke:#181818;stroke-width:1.0;" width="10" x="428" y="156.5332"/><rect fill="#FFFFFF" height="48.582" style="stroke:#181818;stroke-width:1.0;" width="10" x="428" y="236.4063"/><rect fill="#FFFFFF" height="62.582" style="stroke:#181818;stroke-width:1.0;" width="10" x="428" y="316.2793"/><rect fill="#FFFFFF" height="31.291" style="stroke:#181818;stroke-width:1.0;" width="10" x="428" y="410.1523"/><polygon fill="#181818" points="416,152.5332,426,156.5332,416,160.5332,420,156.5332" style="stroke:#181818;stroke-width:1.0;"/><line style="stroke:#181818;stroke-width:1.0;" x1="79" x2="422" y1="156.5332" y2="156.5332"/><text fill="#000000" font-family="sans-serif" font-size="13" font-weight="bold" lengthAdjust="spacing" textLength="7" x="86" y="151.2705">1</text><text fill="#000000" font-family="sans-serif" font-size="13" lengthAdjust="spacing" textLength="192" x="97" y="151.2705">asks to register a new employee.</text><polygon fill="#181818" points="90,201.1152,80,205.1152,90,209.1152,86,205.1152" style="stroke:#181818;stroke-width:1.0;"/><line style="stroke:#181818;stroke-width:1.0;stroke-dasharray:2.0,2.0;" x1="84" x2="432" y1="205.1152" y2="205.1152"/><text fill="#000000" font-family="sans-serif" font-size="13" font-weight="bold" lengthAdjust="spacing" textLength="7" x="96" y="191.207">2</text><text fill="#000000" font-family="sans-serif" font-size="13" lengthAdjust="spacing" textLength="314" x="107" y="182.5615">requests employee data (name, citizen's card number,</text><text fill="#000000" font-family="sans-serif" font-size="13" lengthAdjust="spacing" textLength="277" x="111" y="199.8525">tax number, address, e-mail, telephone number)</text><polygon fill="#181818" points="416,232.4063,426,236.4063,416,240.4063,420,236.4063" style="stroke:#181818;stroke-width:1.0;"/><line style="stroke:#181818;stroke-width:1.0;" x1="79" x2="422" y1="236.4063" y2="236.4063"/><text fill="#000000" font-family="sans-serif" font-size="13" font-weight="bold" lengthAdjust="spacing" textLength="7" x="86" y="231.1436">3</text><text fill="#000000" font-family="sans-serif" font-size="13" lengthAdjust="spacing" textLength="181" x="97" y="231.1436">types the employee information</text><polygon fill="#181818" points="90,280.9883,80,284.9883,90,288.9883,86,284.9883" style="stroke:#181818;stroke-width:1.0;"/><line style="stroke:#181818;stroke-width:1.0;stroke-dasharray:2.0,2.0;" x1="84" x2="432" y1="284.9883" y2="284.9883"/><text fill="#000000" font-family="sans-serif" font-size="13" font-weight="bold" lengthAdjust="spacing" textLength="7" x="96" y="271.0801">4</text><text fill="#000000" font-family="sans-serif" font-size="13" lengthAdjust="spacing" textLength="223" x="107" y="262.4346">lists agencies and user roles and asks</text><text fill="#000000" font-family="sans-serif" font-size="13" lengthAdjust="spacing" textLength="125" x="111" y="279.7256">to select one for each</text><polygon fill="#181818" points="416,312.2793,426,316.2793,416,320.2793,420,316.2793" style="stroke:#181818;stroke-width:1.0;"/><line style="stroke:#181818;stroke-width:1.0;" x1="79" x2="422" y1="316.2793" y2="316.2793"/><text fill="#000000" font-family="sans-serif" font-size="13" font-weight="bold" lengthAdjust="spacing" textLength="7" x="86" y="311.0166">5</text><text fill="#000000" font-family="sans-serif" font-size="13" lengthAdjust="spacing" textLength="185" x="97" y="311.0166">selects an agency and user role</text><polygon fill="#181818" points="416,343.5703,426,347.5703,416,351.5703,420,347.5703" style="stroke:#181818;stroke-width:1.0;"/><line style="stroke:#181818;stroke-width:1.0;" x1="79" x2="422" y1="347.5703" y2="347.5703"/><text fill="#000000" font-family="sans-serif" font-size="13" font-weight="bold" lengthAdjust="spacing" textLength="7" x="86" y="342.3076">6</text><text fill="#000000" font-family="sans-serif" font-size="13" lengthAdjust="spacing" textLength="75" x="97" y="342.3076">submits data</text><polygon fill="#181818" points="90,374.8613,80,378.8613,90,382.8613,86,378.8613" style="stroke:#181818;stroke-width:1.0;"/><line style="stroke:#181818;stroke-width:1.0;stroke-dasharray:2.0,2.0;" x1="84" x2="432" y1="378.8613" y2="378.8613"/><text fill="#000000" font-family="sans-serif" font-size="13" font-weight="bold" lengthAdjust="spacing" textLength="7" x="96" y="373.5986">7</text><text fill="#000000" font-family="sans-serif" font-size="13" lengthAdjust="spacing" textLength="290" x="107" y="373.5986">displays the information and requests confirmation</text><polygon fill="#181818" points="416,406.1523,426,410.1523,416,414.1523,420,410.1523" style="stroke:#181818;stroke-width:1.0;"/><line style="stroke:#181818;stroke-width:1.0;" x1="79" x2="422" y1="410.1523" y2="410.1523"/><text fill="#000000" font-family="sans-serif" font-size="13" font-weight="bold" lengthAdjust="spacing" textLength="7" x="86" y="404.8896">8</text><text fill="#000000" font-family="sans-serif" font-size="13" lengthAdjust="spacing" textLength="103" x="97" y="404.8896">gives confirmation</text><polygon fill="#181818" points="90,437.4434,80,441.4434,90,445.4434,86,441.4434" style="stroke:#181818;stroke-width:1.0;"/><line style="stroke:#181818;stroke-width:1.0;stroke-dasharray:2.0,2.0;" x1="84" x2="432" y1="441.4434" y2="441.4434"/><text fill="#000000" font-family="sans-serif" font-size="13" font-weight="bold" lengthAdjust="spacing" textLength="7" x="96" y="436.1807">9</text><text fill="#000000" font-family="sans-serif" font-size="13" lengthAdjust="spacing" textLength="312" x="107" y="436.1807">creates the employee and displays operation success</text><!--SRC=[dP9DSjim38NtEWN6coOpTW_WHLVf2RJj1g5W2MCIL0aeYNBwG3zMt8uzdPGhKdfuU1z8FRFqM311of93Lt8Yi39GfTkV7iCPMwfjZ0I5Wg6qyLgW7JRvbQM54qQbgZ8sbzQZ6YMewVT04WYU6Dj9_b3NJuzLXODb6T8p5Ty7omLsQmKsYONL2lhN7Q32pzJ7F19Ltj0uS8zYi3ik-bcnR6SdVa6Zpv8AV5rESFXnoNNqihE2PMTglHiLG11w1Lgrt-VApV3I0TQrsXpSSNC_kfVJgkdc0WqQmeDWeZq4Ddud-QOGi3ImuEz_2HY-NKwEtnHItGCT4dBSWr6alij2g-Hnpj3GpMWtIMtioL4x-ep5SiebeN6M_-6CF47wiv30RetImA0-mfBZUfocEv5bKCyV32O0xmcUk_iomU8nEIzDnpzRtaUuxJOy9tQtwMx-0TgmzX77PNfNGvlxRxSTifpuUfntsEucQlc5RjXyyLP28HV_TTDJq8qYzrIM_3g4uC_iNjeF]--></g></svg>