<?xml version="1.0" encoding="us-ascii" standalone="no"?><svg xmlns="http://www.w3.org/2000/svg" xmlns:xlink="http://www.w3.org/1999/xlink" contentStyleType="text/css" height="645px" preserveAspectRatio="none" style="width:661px;height:645px;background:#FFFFFF;" version="1.1" viewBox="0 0 661 645" width="661.2px" zoomAndPan="magnify"><defs/><g><!--class PropertyType--><g id="elem_PropertyType"><rect codeLine="12" fill="#F1F1F1" height="33.1453" id="PropertyType" rx="1.5" ry="1.5" style="stroke:#181818;stroke-width:0.3;" width="55.2" x="499.8" y="408"/><text fill="#000000" font-family="sans-serif" font-size="8.4" lengthAdjust="spacing" textLength="51.6" x="501.6" y="420.0645">PropertyType</text><line style="stroke:#181818;stroke-width:0.3;" x1="500.4" x2="554.4" y1="425.1727" y2="425.1727"/><text fill="#000000" font-family="sans-serif" font-size="8.4" lengthAdjust="spacing" textLength="43.8" x="503.4" y="436.6371">designation</text></g><!--class Property--><g id="elem_Property"><rect codeLine="16" fill="#F1F1F1" height="89.0086" id="Property" rx="1.5" ry="1.5" style="stroke:#181818;stroke-width:0.3;" width="79.2" x="487.8" y="255"/><text fill="#000000" font-family="sans-serif" font-size="8.4" lengthAdjust="spacing" textLength="32.4" x="511.2" y="267.0645">Property</text><line style="stroke:#181818;stroke-width:0.3;" x1="488.4" x2="566.4" y1="272.1727" y2="272.1727"/><text fill="#000000" font-family="sans-serif" font-size="8.4" lengthAdjust="spacing" textLength="51" x="491.4" y="283.6371">propertyType</text><text fill="#000000" font-family="sans-serif" font-size="8.4" lengthAdjust="spacing" textLength="49.8" x="491.4" y="294.8098">areaProperty</text><text fill="#000000" font-family="sans-serif" font-size="8.4" lengthAdjust="spacing" textLength="72" x="491.4" y="305.9824">distanceCityCenter</text><text fill="#000000" font-family="sans-serif" font-size="8.4" lengthAdjust="spacing" textLength="66.6" x="491.4" y="317.1551">conditionProperty</text><text fill="#000000" font-family="sans-serif" font-size="8.4" lengthAdjust="spacing" textLength="25.8" x="491.4" y="328.3277">photos</text><text fill="#000000" font-family="sans-serif" font-size="8.4" lengthAdjust="spacing" textLength="52.2" x="491.4" y="339.5004">propertyCode</text></g><!--class UnregisteredUser--><g id="elem_UnregisteredUser"><rect codeLine="25" fill="#F1F1F1" height="21.9727" id="UnregisteredUser" rx="1.5" ry="1.5" style="stroke:#181818;stroke-width:0.3;" width="69.6" x="397.2" y="288.3"/><text fill="#000000" font-family="sans-serif" font-size="8.4" lengthAdjust="spacing" textLength="66" x="399" y="300.3645">UnregisteredUser</text><line style="stroke:#181818;stroke-width:0.3;" x1="397.8" x2="466.2" y1="305.4727" y2="305.4727"/></g><!--class Owner--><g id="elem_Owner"><rect codeLine="27" fill="#F1F1F1" height="77.8359" id="Owner" rx="1.5" ry="1.5" style="stroke:#181818;stroke-width:0.3;" width="61.2" x="424.2" y="129.6"/><text fill="#000000" font-family="sans-serif" font-size="8.4" lengthAdjust="spacing" textLength="24.6" x="442.5" y="141.6645">Owner</text><line style="stroke:#181818;stroke-width:0.3;" x1="424.8" x2="484.8" y1="146.7727" y2="146.7727"/><text fill="#000000" font-family="sans-serif" font-size="8.4" lengthAdjust="spacing" textLength="19.8" x="427.8" y="158.2371">email</text><text fill="#000000" font-family="sans-serif" font-size="8.4" lengthAdjust="spacing" textLength="21" x="427.8" y="169.4098">name</text><text fill="#000000" font-family="sans-serif" font-size="8.4" lengthAdjust="spacing" textLength="54" x="427.8" y="180.5824">numberCitizen</text><text fill="#000000" font-family="sans-serif" font-size="8.4" lengthAdjust="spacing" textLength="9" x="427.8" y="191.7551">tin</text><text fill="#000000" font-family="sans-serif" font-size="8.4" lengthAdjust="spacing" textLength="53.4" x="427.8" y="202.9277">phoneNumber</text></g><!--class House--><g id="elem_House"><rect codeLine="36" fill="#F1F1F1" height="55.4906" id="House" rx="1.5" ry="1.5" style="stroke:#181818;stroke-width:0.3;" width="56.4" x="588.6" y="505.2"/><text fill="#000000" font-family="sans-serif" font-size="8.4" lengthAdjust="spacing" textLength="24" x="604.8" y="517.2645">House</text><line style="stroke:#181818;stroke-width:0.3;" x1="589.2" x2="644.4" y1="522.3727" y2="522.3727"/><text fill="#000000" font-family="sans-serif" font-size="8.4" lengthAdjust="spacing" textLength="37.2" x="592.2" y="533.8371">basement</text><text fill="#000000" font-family="sans-serif" font-size="8.4" lengthAdjust="spacing" textLength="11.4" x="592.2" y="545.0098">loft</text><text fill="#000000" font-family="sans-serif" font-size="8.4" lengthAdjust="spacing" textLength="49.2" x="592.2" y="556.1824">sunExposure</text></g><!--class Building--><g id="elem_Building"><rect codeLine="42" fill="#F1F1F1" height="66.6633" id="Building" rx="1.5" ry="1.5" style="stroke:#181818;stroke-width:0.3;" width="81" x="576.3" y="391.2"/><text fill="#000000" font-family="sans-serif" font-size="8.4" lengthAdjust="spacing" textLength="30" x="601.8" y="403.2645">Building</text><line style="stroke:#181818;stroke-width:0.3;" x1="576.9" x2="656.7" y1="408.3727" y2="408.3727"/><text fill="#000000" font-family="sans-serif" font-size="8.4" lengthAdjust="spacing" textLength="67.2" x="579.9" y="419.8371">numberBedrooms</text><text fill="#000000" font-family="sans-serif" font-size="8.4" lengthAdjust="spacing" textLength="69.6" x="579.9" y="431.0098">numberBathrooms</text><text fill="#000000" font-family="sans-serif" font-size="8.4" lengthAdjust="spacing" textLength="57.6" x="579.9" y="442.1824">numberParking</text><text fill="#000000" font-family="sans-serif" font-size="8.4" lengthAdjust="spacing" textLength="73.8" x="579.9" y="453.3551">availableEquipment</text></g><!--class Advertisement--><g id="elem_Advertisement"><rect codeLine="49" fill="#F1F1F1" height="55.4906" id="Advertisement" rx="1.5" ry="1.5" style="stroke:#181818;stroke-width:0.3;" width="67.8" x="284.1" y="396.9"/><text fill="#000000" font-family="sans-serif" font-size="8.4" lengthAdjust="spacing" textLength="54" x="291" y="408.9645">Advertisement</text><line style="stroke:#181818;stroke-width:0.3;" x1="284.7" x2="351.3" y1="414.0727" y2="414.0727"/><text fill="#000000" font-family="sans-serif" font-size="8.4" lengthAdjust="spacing" textLength="22.8" x="287.7" y="425.5371">status</text><text fill="#000000" font-family="sans-serif" font-size="8.4" lengthAdjust="spacing" textLength="60.6" x="287.7" y="436.7098">idAdvertisement</text><text fill="#000000" font-family="sans-serif" font-size="8.4" lengthAdjust="spacing" textLength="16.8" x="287.7" y="447.8824">date</text></g><!--class Location--><g id="elem_Location"><rect codeLine="55" fill="#F1F1F1" height="77.8359" id="Location" rx="1.5" ry="1.5" style="stroke:#181818;stroke-width:0.3;" width="37.8" x="472.5" y="4.2"/><text fill="#000000" font-family="sans-serif" font-size="8.4" lengthAdjust="spacing" textLength="32.4" x="475.2" y="16.2645">Location</text><line style="stroke:#181818;stroke-width:0.3;" x1="473.1" x2="509.7" y1="21.3727" y2="21.3727"/><text fill="#000000" font-family="sans-serif" font-size="8.4" lengthAdjust="spacing" textLength="21.6" x="476.1" y="32.8371">street</text><text fill="#000000" font-family="sans-serif" font-size="8.4" lengthAdjust="spacing" textLength="30.6" x="476.1" y="44.0098">zipCode</text><text fill="#000000" font-family="sans-serif" font-size="8.4" lengthAdjust="spacing" textLength="29.4" x="476.1" y="55.1824">stateUS</text><text fill="#000000" font-family="sans-serif" font-size="8.4" lengthAdjust="spacing" textLength="12.6" x="476.1" y="66.3551">city</text><text fill="#000000" font-family="sans-serif" font-size="8.4" lengthAdjust="spacing" textLength="24.6" x="476.1" y="77.5277">district</text></g><!--class AdvertisementSale--><g id="elem_AdvertisementSale"><rect codeLine="63" fill="#F1F1F1" height="33.1453" id="AdvertisementSale" rx="1.5" ry="1.5" style="stroke:#181818;stroke-width:0.3;" width="74.4" x="282" y="516.3"/><text fill="#000000" font-family="sans-serif" font-size="8.4" lengthAdjust="spacing" textLength="70.8" x="283.8" y="528.3645">AdvertisementSale</text><line style="stroke:#181818;stroke-width:0.3;" x1="282.6" x2="355.8" y1="533.4727" y2="533.4727"/><text fill="#000000" font-family="sans-serif" font-size="8.4" lengthAdjust="spacing" textLength="34.8" x="285.6" y="544.9371">salePrice</text></g><!--class AdvertisementLease--><g id="elem_AdvertisementLease"><rect codeLine="67" fill="#F1F1F1" height="44.318" id="AdvertisementLease" rx="1.5" ry="1.5" style="stroke:#181818;stroke-width:0.3;" width="81" x="377.7" y="510.6"/><text fill="#000000" font-family="sans-serif" font-size="8.4" lengthAdjust="spacing" textLength="77.4" x="379.5" y="522.6645">AdvertisementLease</text><line style="stroke:#181818;stroke-width:0.3;" x1="378.3" x2="458.1" y1="527.7727" y2="527.7727"/><text fill="#000000" font-family="sans-serif" font-size="8.4" lengthAdjust="spacing" textLength="72.6" x="381.3" y="539.2371">durationOfContract</text><text fill="#000000" font-family="sans-serif" font-size="8.4" lengthAdjust="spacing" textLength="40.8" x="381.3" y="550.4098">rentalPrice</text></g><!--class AdvertisementType--><g id="elem_AdvertisementType"><rect codeLine="73" fill="#F1F1F1" height="33.1453" id="AdvertisementType" rx="1.5" ry="1.5" style="stroke:#181818;stroke-width:0.3;" width="76.8" x="184.2" y="516.3"/><text fill="#000000" font-family="sans-serif" font-size="8.4" lengthAdjust="spacing" textLength="73.2" x="186" y="528.3645">AdvertisementType</text><line style="stroke:#181818;stroke-width:0.3;" x1="184.8" x2="260.4" y1="533.4727" y2="533.4727"/><text fill="#000000" font-family="sans-serif" font-size="8.4" lengthAdjust="spacing" textLength="43.8" x="187.8" y="544.9371">designation</text></g><!--class Commission--><g id="elem_Commission"><rect codeLine="77" fill="#F1F1F1" height="21.9727" id="Commission" rx="1.5" ry="1.5" style="stroke:#181818;stroke-width:0.3;" width="49.2" x="108.6" y="521.7"/><text fill="#000000" font-family="sans-serif" font-size="8.4" lengthAdjust="spacing" textLength="45.6" x="110.4" y="533.7645">Commission</text><line style="stroke:#181818;stroke-width:0.3;" x1="109.2" x2="157.2" y1="538.8727" y2="538.8727"/></g><!--class CommissionType--><g id="elem_CommissionType"><rect codeLine="80" fill="#F1F1F1" height="33.1453" id="CommissionType" rx="1.5" ry="1.5" style="stroke:#181818;stroke-width:0.3;" width="68.4" x="4.2" y="607.8"/><text fill="#000000" font-family="sans-serif" font-size="8.4" lengthAdjust="spacing" textLength="64.8" x="6" y="619.8645">CommissionType</text><line style="stroke:#181818;stroke-width:0.3;" x1="4.8" x2="72" y1="624.9727" y2="624.9727"/><text fill="#000000" font-family="sans-serif" font-size="8.4" lengthAdjust="spacing" textLength="43.8" x="7.8" y="636.4371">designation</text></g><!--class CommissionPercent--><g id="elem_CommissionPercent"><rect codeLine="83" fill="#F1F1F1" height="33.1453" id="CommissionPercent" rx="1.5" ry="1.5" style="stroke:#181818;stroke-width:0.3;" width="78.6" x="93.9" y="607.8"/><text fill="#000000" font-family="sans-serif" font-size="8.4" lengthAdjust="spacing" textLength="75" x="95.7" y="619.8645">CommissionPercent</text><line style="stroke:#181818;stroke-width:0.3;" x1="94.5" x2="171.9" y1="624.9727" y2="624.9727"/><text fill="#000000" font-family="sans-serif" font-size="8.4" lengthAdjust="spacing" textLength="28.8" x="97.5" y="636.4371">percent</text></g><!--class CommissionFixValue--><g id="elem_CommissionFixValue"><rect codeLine="86" fill="#F1F1F1" height="33.1453" id="CommissionFixValue" rx="1.5" ry="1.5" style="stroke:#181818;stroke-width:0.3;" width="81.6" x="193.8" y="607.8"/><text fill="#000000" font-family="sans-serif" font-size="8.4" lengthAdjust="spacing" textLength="78" x="195.6" y="619.8645">CommissionFixValue</text><line style="stroke:#181818;stroke-width:0.3;" x1="194.4" x2="274.8" y1="624.9727" y2="624.9727"/><text fill="#000000" font-family="sans-serif" font-size="8.4" lengthAdjust="spacing" textLength="20.4" x="197.4" y="636.4371">value</text></g><!--class Employee--><g id="elem_Employee"><rect codeLine="90" fill="#F1F1F1" height="77.8359" id="Employee" rx="1.5" ry="1.5" style="stroke:#181818;stroke-width:0.3;" width="61.2" x="112.8" y="129.6"/><text fill="#000000" font-family="sans-serif" font-size="8.4" lengthAdjust="spacing" textLength="37.2" x="124.8" y="141.6645">Employee</text><line style="stroke:#181818;stroke-width:0.3;" x1="113.4" x2="173.4" y1="146.7727" y2="146.7727"/><text fill="#000000" font-family="sans-serif" font-size="8.4" lengthAdjust="spacing" textLength="21" x="116.4" y="158.2371">name</text><text fill="#000000" font-family="sans-serif" font-size="8.4" lengthAdjust="spacing" textLength="54" x="116.4" y="169.4098">numberCitizen</text><text fill="#000000" font-family="sans-serif" font-size="8.4" lengthAdjust="spacing" textLength="9" x="116.4" y="180.5824">tin</text><text fill="#000000" font-family="sans-serif" font-size="8.4" lengthAdjust="spacing" textLength="19.8" x="116.4" y="191.7551">email</text><text fill="#000000" font-family="sans-serif" font-size="8.4" lengthAdjust="spacing" textLength="53.4" x="116.4" y="202.9277">phoneNumber</text></g><!--class Agent--><g id="elem_Agent"><rect fill="#F1F1F1" height="21.9727" id="Agent" rx="1.5" ry="1.5" style="stroke:#181818;stroke-width:0.3;" width="25.8" x="130.5" y="288.3"/><text fill="#000000" font-family="sans-serif" font-size="8.4" lengthAdjust="spacing" textLength="22.2" x="132.3" y="300.3645">Agent</text><line style="stroke:#181818;stroke-width:0.3;" x1="131.1" x2="155.7" y1="305.4727" y2="305.4727"/></g><!--link UnregisteredUser to Advertisement--><g id="link_UnregisteredUser_Advertisement"><path codeLine="99" d="M422.28,310.566 C404.886,329.466 367.938,369.624 343.026,396.696 " fill="none" id="UnregisteredUser-Advertisement" style="stroke:#181818;stroke-width:0.6;"/><polygon fill="#000000" points="375.9686,369.7949,380.941,366.9953,378.3458,364.6073,375.9686,369.7949" style="stroke:#000000;stroke-width:0.6;"/><text fill="#000000" font-family="sans-serif" font-size="7.8" lengthAdjust="spacing" textLength="31.8" x="383.4" y="370.817">searches</text><text fill="#000000" font-family="sans-serif" font-size="7.8" lengthAdjust="spacing" textLength="3" x="416.2646" y="323.4085">*</text><text fill="#000000" font-family="sans-serif" font-size="7.8" lengthAdjust="spacing" textLength="3" x="343.4814" y="390.0717">*</text></g><!--link Owner to Property--><g id="link_Owner_Property"><path codeLine="100" d="M470.316,207.642 C474.654,217.398 479.616,227.73 484.8,237 C488.106,242.916 491.832,248.976 495.66,254.88 " fill="none" id="Owner-Property" style="stroke:#181818;stroke-width:0.6;"/><polygon fill="#000000" points="489.2183,234.0309,488.2064,228.415,485.0987,230.0823,489.2183,234.0309" style="stroke:#000000;stroke-width:0.6;"/><text fill="#000000" font-family="sans-serif" font-size="7.8" lengthAdjust="spacing" textLength="18" x="493.2" y="234.617">owns</text><text fill="#000000" font-family="sans-serif" font-size="7.8" lengthAdjust="spacing" textLength="4.2" x="467.4995" y="220.6286">1</text><text fill="#000000" font-family="sans-serif" font-size="7.8" lengthAdjust="spacing" textLength="12" x="479.945" y="248.2109">1..*</text></g><!--reverse link Property to Building--><g id="link_Property_Building"><path codeLine="101" d="M566.13,353.676 C575.298,366.378 584.808,379.56 593.076,391.02 " fill="none" id="Property-backto-Building" style="stroke:#181818;stroke-width:0.6;"/><polygon fill="none" points="562.662,356.046,559.044,343.854,569.472,351.132,562.662,356.046" style="stroke:#181818;stroke-width:0.6;"/></g><!--link Property to PropertyType--><g id="link_Property_PropertyType"><path codeLine="102" d="M527.4,343.854 C527.4,366.132 527.4,391.83 527.4,407.97 " fill="none" id="Property-PropertyType" style="stroke:#181818;stroke-width:0.6;"/><polygon fill="#000000" points="530.4,370.5873,532.1634,365.1603,528.6366,365.1603,530.4,370.5873" style="stroke:#000000;stroke-width:0.6;"/><text fill="#000000" font-family="sans-serif" font-size="7.8" lengthAdjust="spacing" textLength="29.4" x="535.8" y="370.817">contains</text><text fill="#000000" font-family="sans-serif" font-size="7.8" lengthAdjust="spacing" textLength="3" x="524.2453" y="357.3795">*</text><text fill="#000000" font-family="sans-serif" font-size="7.8" lengthAdjust="spacing" textLength="4.2" x="522.7144" y="401.1884">1</text></g><!--reverse link Building to House--><g id="link_Building_House"><path codeLine="103" d="M616.8,469.944 C616.8,481.884 616.8,494.418 616.8,505.086 " fill="none" id="Building-backto-House" style="stroke:#181818;stroke-width:0.6;"/><polygon fill="none" points="612.6,469.818,616.8,457.818,621,469.818,612.6,469.818" style="stroke:#181818;stroke-width:0.6;"/></g><!--link Property to Advertisement--><g id="link_Property_Advertisement"><path codeLine="104" d="M487.638,336.018 C484.116,338.754 480.546,341.388 477,343.8 C436.512,371.382 385.206,395.514 352.002,409.896 " fill="none" id="Property-Advertisement" style="stroke:#181818;stroke-width:0.6;"/><polygon fill="#000000" points="454.4345,366.1523,448.8251,367.1997,450.5121,370.2968,454.4345,366.1523" style="stroke:#000000;stroke-width:0.6;"/><text fill="#000000" font-family="sans-serif" font-size="7.8" lengthAdjust="spacing" textLength="36.6" x="457.2" y="370.817">represents</text><text fill="#000000" font-family="sans-serif" font-size="7.8" lengthAdjust="spacing" textLength="4.2" x="478.8593" y="337.6804">1</text><text fill="#000000" font-family="sans-serif" font-size="7.8" lengthAdjust="spacing" textLength="4.2" x="356.6276" y="405.581">1</text></g><!--link Location to Property--><g id="link_Location_Property"><path codeLine="105" d="M502.488,82.302 C503.958,88.26 505.326,94.374 506.4,100.2 C516.144,152.964 521.784,214.506 524.718,254.934 " fill="none" id="Location-Property" style="stroke:#181818;stroke-width:0.6;"/><polygon fill="#000000" points="523.4169,165.7119,522.3611,171.3197,525.8589,170.8693,523.4169,165.7119" style="stroke:#000000;stroke-width:0.6;"/><text fill="#000000" font-family="sans-serif" font-size="7.8" lengthAdjust="spacing" textLength="18" x="529.2" y="171.917">owns</text><text fill="#000000" font-family="sans-serif" font-size="7.8" lengthAdjust="spacing" textLength="4.2" x="499.2149" y="95.2948">1</text><text fill="#000000" font-family="sans-serif" font-size="7.8" lengthAdjust="spacing" textLength="4.2" x="520.0473" y="248.2702">1</text></g><!--link Location to Owner--><g id="link_Location_Owner"><path codeLine="106" d="M480.072,82.248 C475.638,97.278 470.568,114.486 466.14,129.522 " fill="none" id="Location-Owner" style="stroke:#181818;stroke-width:0.6;"/><polygon fill="#000000" points="478.4481,103.1097,475.2225,107.8169,478.6053,108.8138,478.4481,103.1097" style="stroke:#000000;stroke-width:0.6;"/><text fill="#000000" font-family="sans-serif" font-size="7.8" lengthAdjust="spacing" textLength="18" x="483" y="109.217">owns</text><text fill="#000000" font-family="sans-serif" font-size="7.8" lengthAdjust="spacing" textLength="4.2" x="474.4872" y="95.2352">1</text><text fill="#000000" font-family="sans-serif" font-size="7.8" lengthAdjust="spacing" textLength="4.2" x="462.9506" y="122.9255">1</text></g><!--link Owner to Advertisement--><g id="link_Owner_Advertisement"><path codeLine="107" d="M424.008,180.474 C393.648,193.398 348.798,217.722 327.6,255 C302.298,299.49 306.996,361.662 312.57,396.84 " fill="none" id="Owner-Advertisement" style="stroke:#181818;stroke-width:0.6;"/><polygon fill="#000000" points="329.2264,302.1543,333.2789,298.137,330.1437,296.5222,329.2264,302.1543" style="stroke:#000000;stroke-width:0.6;"/><text fill="#000000" font-family="sans-serif" font-size="7.8" lengthAdjust="spacing" textLength="49.8" x="336" y="302.717">asks to create</text><text fill="#000000" font-family="sans-serif" font-size="7.8" lengthAdjust="spacing" textLength="4.2" x="415.1826" y="179.6674">1</text><text fill="#000000" font-family="sans-serif" font-size="7.8" lengthAdjust="spacing" textLength="3" x="308.5522" y="390.2368">*</text></g><!--reverse link Advertisement to AdvertisementSale--><g id="link_Advertisement_AdvertisementSale"><path codeLine="108" d="M318.438,464.346 C318.642,482.274 318.87,502.5 319.02,516.174 " fill="none" id="Advertisement-backto-AdvertisementSale" style="stroke:#181818;stroke-width:0.6;"/><polygon fill="none" points="314.238,464.172,318.3,452.124,322.638,464.076,314.238,464.172" style="stroke:#181818;stroke-width:0.6;"/></g><!--reverse link Advertisement to AdvertisementLease--><g id="link_Advertisement_AdvertisementLease"><path codeLine="109" d="M351.546,460.956 C366.93,477.402 384.666,496.356 397.968,510.576 " fill="none" id="Advertisement-backto-AdvertisementLease" style="stroke:#181818;stroke-width:0.6;"/><polygon fill="none" points="348.414,463.758,343.284,452.124,354.552,458.022,348.414,463.758" style="stroke:#181818;stroke-width:0.6;"/></g><!--link Advertisement to AdvertisementType--><g id="link_Advertisement_AdvertisementType"><path codeLine="110" d="M293.928,452.124 C275.934,472.326 251.934,499.266 236.874,516.174 " fill="none" id="Advertisement-AdvertisementType" style="stroke:#181818;stroke-width:0.6;"/><polygon fill="#000000" points="271.6046,483.8274,276.5311,480.9479,273.8976,478.6021,271.6046,483.8274" style="stroke:#000000;stroke-width:0.6;"/><text fill="#000000" font-family="sans-serif" font-size="7.8" lengthAdjust="spacing" textLength="29.4" x="279" y="484.817">contains</text><text fill="#000000" font-family="sans-serif" font-size="7.8" lengthAdjust="spacing" textLength="3" x="287.0123" y="465.543">*</text><text fill="#000000" font-family="sans-serif" font-size="7.8" lengthAdjust="spacing" textLength="4.2" x="235.3371" y="509.6416">1</text></g><!--reverse link Commission to CommissionFixValue--><g id="link_Commission_CommissionFixValue"><path codeLine="111" d="M154.092,552.006 C172.56,568.452 199.212,592.188 216.714,607.77 " fill="none" id="Commission-backto-CommissionFixValue" style="stroke:#181818;stroke-width:0.6;"/><polygon fill="none" points="151.2,555.054,145.032,543.936,156.786,548.778,151.2,555.054" style="stroke:#181818;stroke-width:0.6;"/></g><!--reverse link Commission to CommissionPercent--><g id="link_Commission_CommissionPercent"><path codeLine="112" d="M133.2,556.002 C133.2,572.124 133.2,593.406 133.2,607.77 " fill="none" id="Commission-backto-CommissionPercent" style="stroke:#181818;stroke-width:0.6;"/><polygon fill="none" points="129,555.936,133.2,543.936,137.4,555.936,129,555.936" style="stroke:#181818;stroke-width:0.6;"/></g><!--link Commission to CommissionType--><g id="link_Commission_CommissionType"><path codeLine="113" d="M122.142,543.936 C105.63,559.662 74.424,589.386 55.122,607.77 " fill="none" id="Commission-CommissionType" style="stroke:#181818;stroke-width:0.6;"/><polygon fill="#000000" points="86.6277,586.2564,91.7736,583.7903,89.3413,581.2365,86.6277,586.2564" style="stroke:#000000;stroke-width:0.6;"/><text fill="#000000" font-family="sans-serif" font-size="7.8" lengthAdjust="spacing" textLength="29.4" x="94.2" y="587.417">contains</text><text fill="#000000" font-family="sans-serif" font-size="7.8" lengthAdjust="spacing" textLength="3" x="115.6101" y="556.9759">*</text><text fill="#000000" font-family="sans-serif" font-size="7.8" lengthAdjust="spacing" textLength="4.2" x="54.3033" y="600.9884">1</text></g><!--link Advertisement to Commission--><g id="link_Advertisement_Commission"><path codeLine="114" d="M283.95,442.272 C265.314,451.848 241.908,464.154 221.4,475.8 C199.644,488.154 194.454,491.688 173.4,505.2 C165.12,510.51 156.012,516.606 148.56,521.664 " fill="none" id="Advertisement-Commission" style="stroke:#181818;stroke-width:0.6;"/><polygon fill="#000000" points="221.8121,483.1048,227.3856,481.8807,225.6017,478.8385,221.8121,483.1048" style="stroke:#000000;stroke-width:0.6;"/><text fill="#000000" font-family="sans-serif" font-size="7.8" lengthAdjust="spacing" textLength="29.4" x="229.8" y="484.817">contains</text><text fill="#000000" font-family="sans-serif" font-size="7.8" lengthAdjust="spacing" textLength="4.2" x="275.1183" y="442.1052">1</text><text fill="#000000" font-family="sans-serif" font-size="7.8" lengthAdjust="spacing" textLength="4.2" x="148.4209" y="514.9703">1</text></g><!--link Agent to Commission--><g id="link_Agent_Commission"><path codeLine="115" d="M142.938,310.578 C141.234,349.26 135.372,482.772 133.668,521.556 " fill="none" id="Agent-Commission" style="stroke:#181818;stroke-width:0.6;"/><polygon fill="#000000" points="142.6683,427.5844,144.6682,422.24,141.1449,422.0852,142.6683,427.5844" style="stroke:#000000;stroke-width:0.6;"/><text fill="#000000" font-family="sans-serif" font-size="7.8" lengthAdjust="spacing" textLength="32.4" x="148.2" y="427.817">attributes</text><text fill="#000000" font-family="sans-serif" font-size="7.8" lengthAdjust="spacing" textLength="4.2" x="143.3782" y="323.4237">1</text><text fill="#000000" font-family="sans-serif" font-size="7.8" lengthAdjust="spacing" textLength="3" x="130.3649" y="515.031">*</text></g><!--link Agent to Advertisement--><g id="link_Agent_Advertisement"><path codeLine="116" d="M142.566,310.68 C141.948,326.394 143.208,355.77 159,373.2 C191.046,408.576 247.698,419.418 284.01,422.652 " fill="none" id="Agent-Advertisement" style="stroke:#181818;stroke-width:0.6;"/><polygon fill="#000000" points="164.3522,369.4494,161.1915,364.6983,159.0026,367.4634,164.3522,369.4494" style="stroke:#000000;stroke-width:0.6;"/><text fill="#000000" font-family="sans-serif" font-size="7.8" lengthAdjust="spacing" textLength="133.8" x="167.4" y="370.817">publishes, validates and is in charge of</text><text fill="#000000" font-family="sans-serif" font-size="7.8" lengthAdjust="spacing" textLength="4.2" x="137.5775" y="323.5531">1</text><text fill="#000000" font-family="sans-serif" font-size="7.8" lengthAdjust="spacing" textLength="3" x="276.241" y="419.9276">*</text></g><!--reverse link Employee to Agent--><g id="link_Employee_Agent"><path codeLine="117" d="M143.4,219.762 C143.4,244.908 143.4,273.054 143.4,288.042 " fill="none" id="Employee-backto-Agent" style="stroke:#181818;stroke-width:0.6;"/><polygon fill="none" points="139.2,219.732,143.4,207.732,147.6,219.732,139.2,219.732" style="stroke:#181818;stroke-width:0.6;"/></g><!--SRC=[ZLN1Rjim3BtxAuHS1XHBiLoBOa0RTDY0OWsGTNT6OcoYikHHSjkqsxzFbkn4TfDkkKIc7n-Vg4VPFP1fWA4MjJLMLcnh59vRBDp-JGFo0KfS-vr6mIWzc5Bd05U1iazaIh45xR0eFcZSUk6jO2ehBnHrMMHDaIL93SvTUS-qQJr-azQiwGN5fwAeIA6Gn38KYUiQVMMLAugO8rPi6sI_-x5hyBKGuQVGKMaWblWpXIL8aoN5033204aavCBE92x9xvPeF78C1s6AEkOHkAcijsx4lBGA3zNl3MCP695HtRl0rSVldWooI9gm1j9nPQ1EganRRv23XD0B4oEUp53HuFVukglIqtsrhSEURWCEwo0yFcYxJGlNcfldnhgMCtNNBMaL3kmrAtgDYgsjNHu2NqrZA-1mXcNguMFO06mqtlnggOcrzoMkr6Fe2YL9lSBGODycCb8ZG3e1y9d6MolZYGwfZ9XWBzJ4NW-CUBzE9qNPIJB9KsBMe8UMkR1S1IYUWDuYxDkhMevwxhPBQpo3J6eum40daXCidUV4EqvTshecv-9UGtGQFENpAMw5B4Ertk_fuGZi2pt_1Dtsb8_TyY3bfcwqtM7_yZziUV3mrA3J2H2pivcOp-FVg3qNmY6mhD29pqMQZzbYDf_F5kVd0JlCtOMmJwQ3305n-JlG3LO-X8SwYzdeghZeHja3HOuXAt74ASe85dk2YL36Xj65fHENnM3G73yHUnmKzxX7x7TyeZdW7bntbyfmONaCsiUJ5JVmnj__14LdJr1PuzxuTzIzWvaIyrjplGFfRPeZii9Zsu-gJiGkZkICyMMEEnlZOFZo74LEZg1fDvfSCEZ7RbwekwUS0AC4EK56o0guH66tWMeOeBxb7N7n5m00]--></g></svg>