<?xml version="1.0" encoding="us-ascii" standalone="no"?><svg xmlns="http://www.w3.org/2000/svg" xmlns:xlink="http://www.w3.org/1999/xlink" contentStyleType="text/css" height="352px" preserveAspectRatio="none" style="width:639px;height:352px;background:#FFFFFF;" version="1.1" viewBox="0 0 639 352" width="639px" zoomAndPan="magnify"><defs/><g><!--class Employee--><g id="elem_Employee"><rect codeLine="10" fill="#F1F1F1" height="129.7266" id="Employee" rx="2.5" ry="2.5" style="stroke:#181818;stroke-width:0.5;" width="102" x="253.5" y="7"/><text fill="#000000" font-family="sans-serif" font-size="14" lengthAdjust="spacing" textLength="62" x="273.5" y="27.1074">Employee</text><line style="stroke:#181818;stroke-width:0.5;" x1="254.5" x2="354.5" y1="35.6211" y2="35.6211"/><text fill="#000000" font-family="sans-serif" font-size="14" lengthAdjust="spacing" textLength="35" x="259.5" y="54.7285">name</text><text fill="#000000" font-family="sans-serif" font-size="14" lengthAdjust="spacing" textLength="90" x="259.5" y="73.3496">numberCitizen</text><text fill="#000000" font-family="sans-serif" font-size="14" lengthAdjust="spacing" textLength="15" x="259.5" y="91.9707">tin</text><text fill="#000000" font-family="sans-serif" font-size="14" lengthAdjust="spacing" textLength="33" x="259.5" y="110.5918">email</text><text fill="#000000" font-family="sans-serif" font-size="14" lengthAdjust="spacing" textLength="89" x="259.5" y="129.2129">phoneNumber</text></g><!--class Location--><g id="elem_Location"><rect codeLine="18" fill="#F1F1F1" height="129.7266" id="Location" rx="2.5" ry="2.5" style="stroke:#181818;stroke-width:0.5;" width="63" x="7" y="216"/><text fill="#000000" font-family="sans-serif" font-size="14" lengthAdjust="spacing" textLength="54" x="11.5" y="236.1074">Location</text><line style="stroke:#181818;stroke-width:0.5;" x1="8" x2="69" y1="244.6211" y2="244.6211"/><text fill="#000000" font-family="sans-serif" font-size="14" lengthAdjust="spacing" textLength="36" x="13" y="263.7285">street</text><text fill="#000000" font-family="sans-serif" font-size="14" lengthAdjust="spacing" textLength="51" x="13" y="282.3496">zipCode</text><text fill="#000000" font-family="sans-serif" font-size="14" lengthAdjust="spacing" textLength="49" x="13" y="300.9707">stateUS</text><text fill="#000000" font-family="sans-serif" font-size="14" lengthAdjust="spacing" textLength="21" x="13" y="319.5918">city</text><text fill="#000000" font-family="sans-serif" font-size="14" lengthAdjust="spacing" textLength="41" x="13" y="338.2129">district</text></g><!--class StoreManager--><g id="elem_StoreManager"><rect codeLine="26" fill="#F1F1F1" height="36.6211" id="StoreManager" rx="2.5" ry="2.5" style="stroke:#181818;stroke-width:0.5;" width="96" x="105.5" y="262.5"/><text fill="#000000" font-family="sans-serif" font-size="14" lengthAdjust="spacing" textLength="90" x="108.5" y="282.6074">StoreManager</text><line style="stroke:#181818;stroke-width:0.5;" x1="106.5" x2="200.5" y1="291.1211" y2="291.1211"/></g><!--class SystemAdministrator--><g id="elem_SystemAdministrator"><rect codeLine="28" fill="#F1F1F1" height="36.6211" id="SystemAdministrator" rx="2.5" ry="2.5" style="stroke:#181818;stroke-width:0.5;" width="135" x="237" y="262.5"/><text fill="#000000" font-family="sans-serif" font-size="14" lengthAdjust="spacing" textLength="129" x="240" y="282.6074">SystemAdministrator</text><line style="stroke:#181818;stroke-width:0.5;" x1="238" x2="371" y1="291.1211" y2="291.1211"/></g><!--class StoreNetworkManager--><g id="elem_StoreNetworkManager"><rect codeLine="30" fill="#F1F1F1" height="36.6211" id="StoreNetworkManager" rx="2.5" ry="2.5" style="stroke:#181818;stroke-width:0.5;" width="146" x="407.5" y="262.5"/><text fill="#000000" font-family="sans-serif" font-size="14" lengthAdjust="spacing" textLength="140" x="410.5" y="282.6074">StoreNetworkManager</text><line style="stroke:#181818;stroke-width:0.5;" x1="408.5" x2="552.5" y1="291.1211" y2="291.1211"/></g><!--class Agent--><g id="elem_Agent"><rect codeLine="32" fill="#F1F1F1" height="36.6211" id="Agent" rx="2.5" ry="2.5" style="stroke:#181818;stroke-width:0.5;" width="43" x="589" y="262.5"/><text fill="#000000" font-family="sans-serif" font-size="14" lengthAdjust="spacing" textLength="37" x="592" y="282.6074">Agent</text><line style="stroke:#181818;stroke-width:0.5;" x1="590" x2="631" y1="291.1211" y2="291.1211"/></g><!--reverse link Employee to Agent--><g id="link_Employee_Agent"><path codeLine="34" d="M374.4,98.35 C432.34,122 514.18,161.78 571.5,216 C585.4,229.14 596.19,248.3 602.87,262.22 " fill="none" id="Employee-backto-Agent" style="stroke:#181818;stroke-width:1.0;"/><polygon fill="none" points="371.75,104.83,355.74,90.95,376.91,91.82,371.75,104.83" style="stroke:#181818;stroke-width:1.0;"/></g><!--reverse link Employee to StoreManager--><g id="link_Employee_StoreManager"><path codeLine="35" d="M245.94,153.28 C216.74,193.31 183.98,238.22 166.36,262.36 " fill="none" id="Employee-backto-StoreManager" style="stroke:#181818;stroke-width:1.0;"/><polygon fill="none" points="240.31,149.11,257.76,137.08,251.63,157.36,240.31,149.11" style="stroke:#181818;stroke-width:1.0;"/></g><!--reverse link Employee to StoreNetworkManager--><g id="link_Employee_StoreNetworkManager"><path codeLine="36" d="M368.7,148.51 C403.6,189.55 443.89,236.94 465.29,262.11 " fill="none" id="Employee-backto-StoreNetworkManager" style="stroke:#181818;stroke-width:1.0;"/><polygon fill="none" points="363.27,152.92,355.64,133.15,373.93,143.85,363.27,152.92" style="stroke:#181818;stroke-width:1.0;"/></g><!--reverse link Employee to SystemAdministrator--><g id="link_Employee_SystemAdministrator"><path codeLine="37" d="M297.44,157.41 C297.18,167.05 297.16,176.74 297.5,186 C298.49,212.66 301.06,243.48 302.79,262.35 " fill="none" id="Employee-backto-SystemAdministrator" style="stroke:#181818;stroke-width:1.0;"/><polygon fill="none" points="290.45,156.89,298.31,137.21,304.44,157.5,290.45,156.89" style="stroke:#181818;stroke-width:1.0;"/></g><!--link SystemAdministrator to Employee--><g id="link_SystemAdministrator_Employee"><path codeLine="38" d="M304.5,262.36 C304.5,234.9 304.5,180.54 304.5,137.08 " fill="none" id="SystemAdministrator-Employee" style="stroke:#181818;stroke-width:1.0;"/><polygon fill="#000000" points="309.5,171.6455,306.5611,180.6906,312.4389,180.6906,309.5,171.6455" style="stroke:#000000;stroke-width:1.0;"/><text fill="#000000" font-family="sans-serif" font-size="13" lengthAdjust="spacing" textLength="43" x="318.5" y="182.0283">creates</text><text fill="#000000" font-family="sans-serif" font-size="13" lengthAdjust="spacing" textLength="7" x="296.4281" y="251.1793">1</text><text fill="#000000" font-family="sans-serif" font-size="13" lengthAdjust="spacing" textLength="5" x="299.2422" y="158.7254">*</text></g><!--link Employee to Location--><g id="link_Employee_Location"><path codeLine="39" d="M253.27,100.2 C206.98,126.24 138.5,168.48 87.5,216 C81.46,221.63 75.6,228.06 70.16,234.63 " fill="none" id="Employee-Location" style="stroke:#181818;stroke-width:1.0;"/><polygon fill="#000000" points="144.4695,179.6045,153.4999,176.6207,150.0215,171.8826,144.4695,179.6045" style="stroke:#000000;stroke-width:1.0;"/><text fill="#000000" font-family="sans-serif" font-size="13" lengthAdjust="spacing" textLength="30" x="157.5" y="182.0283">owns</text><text fill="#000000" font-family="sans-serif" font-size="13" lengthAdjust="spacing" textLength="7" x="238.5736" y="100.0383">1</text><text fill="#000000" font-family="sans-serif" font-size="13" lengthAdjust="spacing" textLength="7" x="77.8513" y="219.7172">1</text></g><!--SRC=[RP31QiCm38RlVWgHuw2mNSiObBB3OEibx05KHqj4OodOAYNTzkvptQPTIttHpwzFlssb3Sk04GC45VLTr41WSKikdJi3-WssLDlO4qJoXjBs_u7KOQCxbXQ-i4_a_hLyZoajp2AljqPlNgNcFS6ZSnqt19wZpr551x9Ec-HScO7NCFGw4dqxo4Smq55imvhYaYt7I76CZvK2Sb_KqAdGge3kTyfxLu_6AiUyP978YjppiDI6JZOQVTP5UxQnY8OppTukMRLff0-Kl9LuziPa51PDO3dmc94hV4MsqxYvcLgq9ERSz5bu_fdDJkQrTtNbdTPD_0rnvsrtFAYUAiXuzL2Trpy77oal9S7B9NJYSfdMEWVToG5oVm00]--></g></svg>