<?xml version="1.0" encoding="us-ascii" standalone="no"?><svg xmlns="http://www.w3.org/2000/svg" xmlns:xlink="http://www.w3.org/1999/xlink" contentStyleType="text/css" height="863px" preserveAspectRatio="none" style="width:575px;height:863px;background:#FFFFFF;" version="1.1" viewBox="0 0 575 863" width="575px" zoomAndPan="magnify"><defs/><g><!--class Property--><g id="elem_Property"><rect codeLine="13" fill="#F1F1F1" height="185.5898" id="Property" rx="2.5" ry="2.5" style="stroke:#181818;stroke-width:0.5;" width="132" x="281" y="425"/><text fill="#000000" font-family="sans-serif" font-size="14" lengthAdjust="spacing" textLength="54" x="320" y="445.1074">Property</text><line style="stroke:#181818;stroke-width:0.5;" x1="282" x2="412" y1="453.6211" y2="453.6211"/><text fill="#000000" font-family="sans-serif" font-size="14" lengthAdjust="spacing" textLength="52" x="287" y="472.7285">idOwner</text><text fill="#000000" font-family="sans-serif" font-size="14" lengthAdjust="spacing" textLength="85" x="287" y="491.3496">propertyType</text><text fill="#000000" font-family="sans-serif" font-size="14" lengthAdjust="spacing" textLength="83" x="287" y="509.9707">areaProperty</text><text fill="#000000" font-family="sans-serif" font-size="14" lengthAdjust="spacing" textLength="120" x="287" y="528.5918">distanceCityCenter</text><text fill="#000000" font-family="sans-serif" font-size="14" lengthAdjust="spacing" textLength="49" x="287" y="547.2129">location</text><text fill="#000000" font-family="sans-serif" font-size="14" lengthAdjust="spacing" textLength="111" x="287" y="565.834">conditionProperty</text><text fill="#000000" font-family="sans-serif" font-size="14" lengthAdjust="spacing" textLength="43" x="287" y="584.4551">photos</text><text fill="#000000" font-family="sans-serif" font-size="14" lengthAdjust="spacing" textLength="87" x="287" y="603.0762">propertyCode</text></g><!--class UnregisteredUser--><g id="elem_UnregisteredUser"><rect codeLine="24" fill="#F1F1F1" height="36.6211" id="UnregisteredUser" rx="2.5" ry="2.5" style="stroke:#181818;stroke-width:0.5;" width="116" x="7" y="499.5"/><text fill="#000000" font-family="sans-serif" font-size="14" lengthAdjust="spacing" textLength="110" x="10" y="519.6074">UnregisteredUser</text><line style="stroke:#181818;stroke-width:0.5;" x1="8" x2="122" y1="528.1211" y2="528.1211"/></g><!--class Owner--><g id="elem_Owner"><rect codeLine="26" fill="#F1F1F1" height="129.7266" id="Owner" rx="2.5" ry="2.5" style="stroke:#181818;stroke-width:0.5;" width="102" x="380" y="216"/><text fill="#000000" font-family="sans-serif" font-size="14" lengthAdjust="spacing" textLength="41" x="410.5" y="236.1074">Owner</text><line style="stroke:#181818;stroke-width:0.5;" x1="381" x2="481" y1="244.6211" y2="244.6211"/><text fill="#000000" font-family="sans-serif" font-size="14" lengthAdjust="spacing" textLength="33" x="386" y="263.7285">email</text><text fill="#000000" font-family="sans-serif" font-size="14" lengthAdjust="spacing" textLength="35" x="386" y="282.3496">name</text><text fill="#000000" font-family="sans-serif" font-size="14" lengthAdjust="spacing" textLength="90" x="386" y="300.9707">numberCitizen</text><text fill="#000000" font-family="sans-serif" font-size="14" lengthAdjust="spacing" textLength="15" x="386" y="319.5918">tin</text><text fill="#000000" font-family="sans-serif" font-size="14" lengthAdjust="spacing" textLength="89" x="386" y="338.2129">phoneNumber</text></g><!--class House--><g id="elem_House"><rect codeLine="35" fill="#F1F1F1" height="166.9688" id="House" rx="2.5" ry="2.5" style="stroke:#181818;stroke-width:0.5;" width="135" x="189.5" y="690"/><text fill="#000000" font-family="sans-serif" font-size="14" lengthAdjust="spacing" textLength="40" x="237" y="710.1074">House</text><line style="stroke:#181818;stroke-width:0.5;" x1="190.5" x2="323.5" y1="718.6211" y2="718.6211"/><text fill="#000000" font-family="sans-serif" font-size="14" lengthAdjust="spacing" textLength="112" x="195.5" y="737.7285">numberBedrooms</text><text fill="#000000" font-family="sans-serif" font-size="14" lengthAdjust="spacing" textLength="116" x="195.5" y="756.3496">numberBathrooms</text><text fill="#000000" font-family="sans-serif" font-size="14" lengthAdjust="spacing" textLength="96" x="195.5" y="774.9707">numberParking</text><text fill="#000000" font-family="sans-serif" font-size="14" lengthAdjust="spacing" textLength="123" x="195.5" y="793.5918">availableEquipment</text><text fill="#000000" font-family="sans-serif" font-size="14" lengthAdjust="spacing" textLength="62" x="195.5" y="812.2129">basement</text><text fill="#000000" font-family="sans-serif" font-size="14" lengthAdjust="spacing" textLength="19" x="195.5" y="830.834">loft</text><text fill="#000000" font-family="sans-serif" font-size="14" lengthAdjust="spacing" textLength="82" x="195.5" y="849.4551">sunExposure</text></g><!--class Apartment--><g id="elem_Apartment"><rect codeLine="45" fill="#F1F1F1" height="111.1055" id="Apartment" rx="2.5" ry="2.5" style="stroke:#181818;stroke-width:0.5;" width="135" x="359.5" y="718"/><text fill="#000000" font-family="sans-serif" font-size="14" lengthAdjust="spacing" textLength="65" x="394.5" y="738.1074">Apartment</text><line style="stroke:#181818;stroke-width:0.5;" x1="360.5" x2="493.5" y1="746.6211" y2="746.6211"/><text fill="#000000" font-family="sans-serif" font-size="14" lengthAdjust="spacing" textLength="112" x="365.5" y="765.7285">numberBedrooms</text><text fill="#000000" font-family="sans-serif" font-size="14" lengthAdjust="spacing" textLength="116" x="365.5" y="784.3496">numberBathrooms</text><text fill="#000000" font-family="sans-serif" font-size="14" lengthAdjust="spacing" textLength="96" x="365.5" y="802.9707">numberParking</text><text fill="#000000" font-family="sans-serif" font-size="14" lengthAdjust="spacing" textLength="123" x="365.5" y="821.5918">availableEquipment</text></g><!--class Land--><g id="elem_Land"><rect codeLine="52" fill="#F1F1F1" height="36.6211" id="Land" rx="2.5" ry="2.5" style="stroke:#181818;stroke-width:0.5;" width="38" x="530" y="755"/><text fill="#000000" font-family="sans-serif" font-size="14" lengthAdjust="spacing" textLength="32" x="533" y="775.1074">Land</text><line style="stroke:#181818;stroke-width:0.5;" x1="531" x2="567" y1="783.6211" y2="783.6211"/></g><!--class Advertisement--><g id="elem_Advertisement"><rect codeLine="54" fill="#F1F1F1" height="55.2422" id="Advertisement" rx="2.5" ry="2.5" style="stroke:#181818;stroke-width:0.5;" width="113" x="30.5" y="746"/><text fill="#000000" font-family="sans-serif" font-size="14" lengthAdjust="spacing" textLength="90" x="42" y="766.1074">Advertisement</text><line style="stroke:#181818;stroke-width:0.5;" x1="31.5" x2="142.5" y1="774.6211" y2="774.6211"/><text fill="#000000" font-family="sans-serif" font-size="14" lengthAdjust="spacing" textLength="101" x="36.5" y="793.7285">idAdvertisement</text></g><!--class Location--><g id="elem_Location"><rect codeLine="58" fill="#F1F1F1" height="129.7266" id="Location" rx="2.5" ry="2.5" style="stroke:#181818;stroke-width:0.5;" width="63" x="297.5" y="7"/><text fill="#000000" font-family="sans-serif" font-size="14" lengthAdjust="spacing" textLength="54" x="302" y="27.1074">Location</text><line style="stroke:#181818;stroke-width:0.5;" x1="298.5" x2="359.5" y1="35.6211" y2="35.6211"/><text fill="#000000" font-family="sans-serif" font-size="14" lengthAdjust="spacing" textLength="36" x="303.5" y="54.7285">street</text><text fill="#000000" font-family="sans-serif" font-size="14" lengthAdjust="spacing" textLength="51" x="303.5" y="73.3496">zipCode</text><text fill="#000000" font-family="sans-serif" font-size="14" lengthAdjust="spacing" textLength="49" x="303.5" y="91.9707">stateUS</text><text fill="#000000" font-family="sans-serif" font-size="14" lengthAdjust="spacing" textLength="21" x="303.5" y="110.5918">city</text><text fill="#000000" font-family="sans-serif" font-size="14" lengthAdjust="spacing" textLength="41" x="303.5" y="129.2129">district</text></g><!--link UnregisteredUser to Advertisement--><g id="link_UnregisteredUser_Advertisement"><path codeLine="68" d="M63.13,536.87 C60.67,563.7 57.16,615.95 62,660 C65.27,689.83 73.29,723.33 79.38,745.95 " fill="none" id="UnregisteredUser-Advertisement" style="stroke:#181818;stroke-width:1.0;"/><polygon fill="#000000" points="67.3874,655.6305,69.6166,646.3849,63.7565,646.8403,67.3874,655.6305" style="stroke:#000000;stroke-width:1.0;"/><text fill="#000000" font-family="sans-serif" font-size="13" lengthAdjust="spacing" textLength="49" x="76" y="656.0283">consults</text><text fill="#000000" font-family="sans-serif" font-size="13" lengthAdjust="spacing" textLength="5" x="57.0102" y="557.9977">*</text><text fill="#000000" font-family="sans-serif" font-size="13" lengthAdjust="spacing" textLength="5" x="72.0398" y="734.6474">*</text></g><!--link Owner to Property--><g id="link_Owner_Property"><path codeLine="69" d="M408.05,346.21 C399.4,370.4 389.39,398.42 380,424.67 " fill="none" id="Owner-Property" style="stroke:#181818;stroke-width:1.0;"/><polygon fill="#000000" points="399.3168,390.3537,405.1291,382.8259,399.5943,380.8472,399.3168,390.3537" style="stroke:#000000;stroke-width:1.0;"/><text fill="#000000" font-family="sans-serif" font-size="13" lengthAdjust="spacing" textLength="30" x="410" y="391.0283">owns</text><text fill="#000000" font-family="sans-serif" font-size="13" lengthAdjust="spacing" textLength="7" x="398.3223" y="367.8688">1</text><text fill="#000000" font-family="sans-serif" font-size="13" lengthAdjust="spacing" textLength="20" x="361.8328" y="413.6117">1..*</text></g><!--reverse link Property to Land--><g id="link_Property_Land"><path codeLine="70" d="M427.79,591.44 C456.79,620.19 488.18,654.77 512,690 C525.98,710.68 536.87,737.49 543.11,754.85 " fill="none" id="Property-backto-Land" style="stroke:#181818;stroke-width:1.0;"/><polygon fill="none" points="422.8,596.36,413.34,577.4,432.56,586.32,422.8,596.36" style="stroke:#181818;stroke-width:1.0;"/></g><!--reverse link Property to Apartment--><g id="link_Property_Apartment"><path codeLine="71" d="M382.16,630.42 C391.74,660.77 401.7,692.32 409.78,717.95 " fill="none" id="Property-backto-Apartment" style="stroke:#181818;stroke-width:1.0;"/><polygon fill="none" points="375.45,632.42,376.11,611.24,388.8,628.2,375.45,632.42" style="stroke:#181818;stroke-width:1.0;"/></g><!--reverse link Property to House--><g id="link_Property_House"><path codeLine="72" d="M307.5,630.25 C300.38,650.32 293.06,670.92 286.29,689.99 " fill="none" id="Property-backto-House" style="stroke:#181818;stroke-width:1.0;"/><polygon fill="none" points="300.97,627.74,314.25,611.24,314.16,632.43,300.97,627.74" style="stroke:#181818;stroke-width:1.0;"/></g><!--link Property to Advertisement--><g id="link_Property_Advertisement"><path codeLine="73" d="M280.82,579.55 C259.9,598.98 236.81,620.72 216,641 C179.35,676.71 138.12,719.15 112.36,745.96 " fill="none" id="Property-Advertisement" style="stroke:#181818;stroke-width:1.0;"/><polygon fill="#000000" points="224.5571,647.1317,216.0569,651.3974,220.1876,655.5791,224.5571,647.1317" style="stroke:#000000;stroke-width:1.0;"/><text fill="#000000" font-family="sans-serif" font-size="13" lengthAdjust="spacing" textLength="61" x="230" y="656.0283">represents</text><text fill="#000000" font-family="sans-serif" font-size="13" lengthAdjust="spacing" textLength="7" x="266.1988" y="582.419">1</text><text fill="#000000" font-family="sans-serif" font-size="13" lengthAdjust="spacing" textLength="7" x="110.4151" y="734.6597">1</text></g><!--link Location to Property--><g id="link_Location_Property"><path codeLine="74" d="M323.02,137.01 C321,161.67 318.99,190.12 318,216 C315.78,273.74 313.15,288.43 318,346 C320.16,371.65 324.11,399.25 328.42,424.62 " fill="none" id="Location-Property" style="stroke:#181818;stroke-width:1.0;"/><polygon fill="#000000" points="322.9061,276.1464,320.1375,285.245,326.0143,285.1347,322.9061,276.1464" style="stroke:#000000;stroke-width:1.0;"/><text fill="#000000" font-family="sans-serif" font-size="13" lengthAdjust="spacing" textLength="30" x="332" y="286.5283">owns</text><text fill="#000000" font-family="sans-serif" font-size="13" lengthAdjust="spacing" textLength="7" x="315.0424" y="158.6481">1</text><text fill="#000000" font-family="sans-serif" font-size="13" lengthAdjust="spacing" textLength="7" x="319.7295" y="413.875">1</text></g><!--link Location to Owner--><g id="link_Location_Owner"><path codeLine="75" d="M360.57,137.08 C372.92,162.13 387.05,190.81 399.4,215.87 " fill="none" id="Location-Owner" style="stroke:#181818;stroke-width:1.0;"/><polygon fill="#000000" points="385.7897,172.1606,387.152,181.5731,392.4243,178.9747,385.7897,172.1606" style="stroke:#000000;stroke-width:1.0;"/><text fill="#000000" font-family="sans-serif" font-size="13" lengthAdjust="spacing" textLength="30" x="397" y="182.0283">owns</text><text fill="#000000" font-family="sans-serif" font-size="13" lengthAdjust="spacing" textLength="7" x="356.4647" y="158.7254">1</text><text fill="#000000" font-family="sans-serif" font-size="13" lengthAdjust="spacing" textLength="7" x="388.5609" y="204.8759">1</text></g><!--SRC=[hLB1Rjim3BthAuXS1Wn8iLoBOa0N5DY0OIkGvGCKYR69of96qStIRVy-MR8z9zrnlfXwUkHx99MUo4VDkeCk-61Q3Xs2S8ygpJTHcoVTu4xE3e7HYFQDMn9IgsquaM_Wg5r2fTuuF0f80AQc5R0qP57mQf5ad4xfNeJfq0j-Ci7lw0NXdL8jMGH3RB98YJkKDjYab2f9yCWX8ilvfuByaVrwyiWbZkFDjtF40cX6FT4BO2bb_mQt9ESjUXaJNJ2wE1mEsOkbuNIH6TiW8Lt8R8D5zNkojVUCJIwFZ7QVSk4HB_QWciLEaokHrrsrwFlkW9pzvFQhlf2V53r-ATU3obZkO-WJZkLgxWUq74ANbf2MzXfxr9odtzIvF6SV-k3muNjFiSk3AF119vmFBXnha7h_y2E6rFEYs_kyHXcu_z_9hF5PUplhsUSySgh-O5hz1Rf87DTPQKaOiRRoGh4ihS9QSB-hAwV5-s0ofPPIrok5rTiLhDVbTo5zEpoQr3j9y5xLXQysg_LwjRcvoTpf8Tr2EFc1CW40TxzolTBeZ1LedkyLNjR_5yignT3cbI76o9XocE1EJGDPygzC_PjKUfaPVm00]--></g></svg>