<?xml version="1.0" encoding="us-ascii" standalone="no"?><svg xmlns="http://www.w3.org/2000/svg" xmlns:xlink="http://www.w3.org/1999/xlink" contentStyleType="text/css" height="1075px" preserveAspectRatio="none" style="width:798px;height:1075px;background:#FFFFFF;" version="1.1" viewBox="0 0 798 1075" width="798px" zoomAndPan="magnify"><defs/><g><!--class PropertyType--><g id="elem_PropertyType"><rect codeLine="12" fill="#F1F1F1" height="55.2422" id="PropertyType" rx="2.5" ry="2.5" style="stroke:#181818;stroke-width:0.5;" width="92" x="418.5" y="680"/><text fill="#000000" font-family="sans-serif" font-size="14" lengthAdjust="spacing" textLength="86" x="421.5" y="700.1074">PropertyType</text><line style="stroke:#181818;stroke-width:0.5;" x1="419.5" x2="509.5" y1="708.6211" y2="708.6211"/><text fill="#000000" font-family="sans-serif" font-size="14" lengthAdjust="spacing" textLength="73" x="424.5" y="727.7285">designation</text></g><!--class Property--><g id="elem_Property"><rect codeLine="16" fill="#F1F1F1" height="148.3477" id="Property" rx="2.5" ry="2.5" style="stroke:#181818;stroke-width:0.5;" width="132" x="383.5" y="425"/><text fill="#000000" font-family="sans-serif" font-size="14" lengthAdjust="spacing" textLength="54" x="422.5" y="445.1074">Property</text><line style="stroke:#181818;stroke-width:0.5;" x1="384.5" x2="514.5" y1="453.6211" y2="453.6211"/><text fill="#000000" font-family="sans-serif" font-size="14" lengthAdjust="spacing" textLength="85" x="389.5" y="472.7285">propertyType</text><text fill="#000000" font-family="sans-serif" font-size="14" lengthAdjust="spacing" textLength="83" x="389.5" y="491.3496">areaProperty</text><text fill="#000000" font-family="sans-serif" font-size="14" lengthAdjust="spacing" textLength="120" x="389.5" y="509.9707">distanceCityCenter</text><text fill="#000000" font-family="sans-serif" font-size="14" lengthAdjust="spacing" textLength="111" x="389.5" y="528.5918">conditionProperty</text><text fill="#000000" font-family="sans-serif" font-size="14" lengthAdjust="spacing" textLength="43" x="389.5" y="547.2129">photos</text><text fill="#000000" font-family="sans-serif" font-size="14" lengthAdjust="spacing" textLength="87" x="389.5" y="565.834">propertyCode</text></g><!--class UnregisteredUser--><g id="elem_UnregisteredUser"><rect codeLine="25" fill="#F1F1F1" height="36.6211" id="UnregisteredUser" rx="2.5" ry="2.5" style="stroke:#181818;stroke-width:0.5;" width="116" x="200.5" y="480.5"/><text fill="#000000" font-family="sans-serif" font-size="14" lengthAdjust="spacing" textLength="110" x="203.5" y="500.6074">UnregisteredUser</text><line style="stroke:#181818;stroke-width:0.5;" x1="201.5" x2="315.5" y1="509.1211" y2="509.1211"/></g><!--class Owner--><g id="elem_Owner"><rect codeLine="27" fill="#F1F1F1" height="129.7266" id="Owner" rx="2.5" ry="2.5" style="stroke:#181818;stroke-width:0.5;" width="102" x="277.5" y="216"/><text fill="#000000" font-family="sans-serif" font-size="14" lengthAdjust="spacing" textLength="41" x="308" y="236.1074">Owner</text><line style="stroke:#181818;stroke-width:0.5;" x1="278.5" x2="378.5" y1="244.6211" y2="244.6211"/><text fill="#000000" font-family="sans-serif" font-size="14" lengthAdjust="spacing" textLength="33" x="283.5" y="263.7285">email</text><text fill="#000000" font-family="sans-serif" font-size="14" lengthAdjust="spacing" textLength="35" x="283.5" y="282.3496">name</text><text fill="#000000" font-family="sans-serif" font-size="14" lengthAdjust="spacing" textLength="90" x="283.5" y="300.9707">numberCitizen</text><text fill="#000000" font-family="sans-serif" font-size="14" lengthAdjust="spacing" textLength="15" x="283.5" y="319.5918">tin</text><text fill="#000000" font-family="sans-serif" font-size="14" lengthAdjust="spacing" textLength="89" x="283.5" y="338.2129">phoneNumber</text></g><!--class House--><g id="elem_House"><rect codeLine="36" fill="#F1F1F1" height="92.4844" id="House" rx="2.5" ry="2.5" style="stroke:#181818;stroke-width:0.5;" width="94" x="644.5" y="842"/><text fill="#000000" font-family="sans-serif" font-size="14" lengthAdjust="spacing" textLength="40" x="671.5" y="862.1074">House</text><line style="stroke:#181818;stroke-width:0.5;" x1="645.5" x2="737.5" y1="870.6211" y2="870.6211"/><text fill="#000000" font-family="sans-serif" font-size="14" lengthAdjust="spacing" textLength="62" x="650.5" y="889.7285">basement</text><text fill="#000000" font-family="sans-serif" font-size="14" lengthAdjust="spacing" textLength="19" x="650.5" y="908.3496">loft</text><text fill="#000000" font-family="sans-serif" font-size="14" lengthAdjust="spacing" textLength="82" x="650.5" y="926.9707">sunExposure</text></g><!--class Building--><g id="elem_Building"><rect codeLine="42" fill="#F1F1F1" height="111.1055" id="Building" rx="2.5" ry="2.5" style="stroke:#181818;stroke-width:0.5;" width="135" x="624" y="652"/><text fill="#000000" font-family="sans-serif" font-size="14" lengthAdjust="spacing" textLength="50" x="666.5" y="672.1074">Building</text><line style="stroke:#181818;stroke-width:0.5;" x1="625" x2="758" y1="680.6211" y2="680.6211"/><text fill="#000000" font-family="sans-serif" font-size="14" lengthAdjust="spacing" textLength="112" x="630" y="699.7285">numberBedrooms</text><text fill="#000000" font-family="sans-serif" font-size="14" lengthAdjust="spacing" textLength="116" x="630" y="718.3496">numberBathrooms</text><text fill="#000000" font-family="sans-serif" font-size="14" lengthAdjust="spacing" textLength="96" x="630" y="736.9707">numberParking</text><text fill="#000000" font-family="sans-serif" font-size="14" lengthAdjust="spacing" textLength="123" x="630" y="755.5918">availableEquipment</text></g><!--class Advertisement--><g id="elem_Advertisement"><rect codeLine="49" fill="#F1F1F1" height="92.4844" id="Advertisement" rx="2.5" ry="2.5" style="stroke:#181818;stroke-width:0.5;" width="113" x="185" y="661.5"/><text fill="#000000" font-family="sans-serif" font-size="14" lengthAdjust="spacing" textLength="90" x="196.5" y="681.6074">Advertisement</text><line style="stroke:#181818;stroke-width:0.5;" x1="186" x2="297" y1="690.1211" y2="690.1211"/><text fill="#000000" font-family="sans-serif" font-size="14" lengthAdjust="spacing" textLength="38" x="191" y="709.2285">status</text><text fill="#000000" font-family="sans-serif" font-size="14" lengthAdjust="spacing" textLength="101" x="191" y="727.8496">idAdvertisement</text><text fill="#000000" font-family="sans-serif" font-size="14" lengthAdjust="spacing" textLength="28" x="191" y="746.4707">date</text></g><!--class Location--><g id="elem_Location"><rect codeLine="55" fill="#F1F1F1" height="129.7266" id="Location" rx="2.5" ry="2.5" style="stroke:#181818;stroke-width:0.5;" width="63" x="358" y="7"/><text fill="#000000" font-family="sans-serif" font-size="14" lengthAdjust="spacing" textLength="54" x="362.5" y="27.1074">Location</text><line style="stroke:#181818;stroke-width:0.5;" x1="359" x2="420" y1="35.6211" y2="35.6211"/><text fill="#000000" font-family="sans-serif" font-size="14" lengthAdjust="spacing" textLength="36" x="364" y="54.7285">street</text><text fill="#000000" font-family="sans-serif" font-size="14" lengthAdjust="spacing" textLength="51" x="364" y="73.3496">zipCode</text><text fill="#000000" font-family="sans-serif" font-size="14" lengthAdjust="spacing" textLength="49" x="364" y="91.9707">stateUS</text><text fill="#000000" font-family="sans-serif" font-size="14" lengthAdjust="spacing" textLength="21" x="364" y="110.5918">city</text><text fill="#000000" font-family="sans-serif" font-size="14" lengthAdjust="spacing" textLength="41" x="364" y="129.2129">district</text></g><!--class AdvertisementSale--><g id="elem_AdvertisementSale"><rect codeLine="63" fill="#F1F1F1" height="55.2422" id="AdvertisementSale" rx="2.5" ry="2.5" style="stroke:#181818;stroke-width:0.5;" width="124" x="340.5" y="860.5"/><text fill="#000000" font-family="sans-serif" font-size="14" lengthAdjust="spacing" textLength="118" x="343.5" y="880.6074">AdvertisementSale</text><line style="stroke:#181818;stroke-width:0.5;" x1="341.5" x2="463.5" y1="889.1211" y2="889.1211"/><text fill="#000000" font-family="sans-serif" font-size="14" lengthAdjust="spacing" textLength="58" x="346.5" y="908.2285">salePrice</text></g><!--class AdvertisementLease--><g id="elem_AdvertisementLease"><rect codeLine="67" fill="#F1F1F1" height="73.8633" id="AdvertisementLease" rx="2.5" ry="2.5" style="stroke:#181818;stroke-width:0.5;" width="135" x="7" y="851"/><text fill="#000000" font-family="sans-serif" font-size="14" lengthAdjust="spacing" textLength="129" x="10" y="871.1074">AdvertisementLease</text><line style="stroke:#181818;stroke-width:0.5;" x1="8" x2="141" y1="879.6211" y2="879.6211"/><text fill="#000000" font-family="sans-serif" font-size="14" lengthAdjust="spacing" textLength="121" x="13" y="898.7285">durationOfContract</text><text fill="#000000" font-family="sans-serif" font-size="14" lengthAdjust="spacing" textLength="68" x="13" y="917.3496">rentalPrice</text></g><!--class AdvertisementType--><g id="elem_AdvertisementType"><rect codeLine="73" fill="#F1F1F1" height="55.2422" id="AdvertisementType" rx="2.5" ry="2.5" style="stroke:#181818;stroke-width:0.5;" width="128" x="177.5" y="860.5"/><text fill="#000000" font-family="sans-serif" font-size="14" lengthAdjust="spacing" textLength="122" x="180.5" y="880.6074">AdvertisementType</text><line style="stroke:#181818;stroke-width:0.5;" x1="178.5" x2="304.5" y1="889.1211" y2="889.1211"/><text fill="#000000" font-family="sans-serif" font-size="14" lengthAdjust="spacing" textLength="73" x="183.5" y="908.2285">designation</text></g><!--class Commission--><g id="elem_Commission"><rect codeLine="77" fill="#F1F1F1" height="36.6211" id="Commission" rx="2.5" ry="2.5" style="stroke:#181818;stroke-width:0.5;" width="82" x="513.5" y="869.5"/><text fill="#000000" font-family="sans-serif" font-size="14" lengthAdjust="spacing" textLength="76" x="516.5" y="889.6074">Commission</text><line style="stroke:#181818;stroke-width:0.5;" x1="514.5" x2="594.5" y1="898.1211" y2="898.1211"/></g><!--class CommissionType--><g id="elem_CommissionType"><rect codeLine="80" fill="#F1F1F1" height="55.2422" id="CommissionType" rx="2.5" ry="2.5" style="stroke:#181818;stroke-width:0.5;" width="114" x="339.5" y="1013"/><text fill="#000000" font-family="sans-serif" font-size="14" lengthAdjust="spacing" textLength="108" x="342.5" y="1033.1074">CommissionType</text><line style="stroke:#181818;stroke-width:0.5;" x1="340.5" x2="452.5" y1="1041.6211" y2="1041.6211"/><text fill="#000000" font-family="sans-serif" font-size="14" lengthAdjust="spacing" textLength="73" x="345.5" y="1060.7285">designation</text></g><!--class CommissionPercent--><g id="elem_CommissionPercent"><rect codeLine="83" fill="#F1F1F1" height="55.2422" id="CommissionPercent" rx="2.5" ry="2.5" style="stroke:#181818;stroke-width:0.5;" width="131" x="489" y="1013"/><text fill="#000000" font-family="sans-serif" font-size="14" lengthAdjust="spacing" textLength="125" x="492" y="1033.1074">CommissionPercent</text><line style="stroke:#181818;stroke-width:0.5;" x1="490" x2="619" y1="1041.6211" y2="1041.6211"/><text fill="#000000" font-family="sans-serif" font-size="14" lengthAdjust="spacing" textLength="48" x="495" y="1060.7285">percent</text></g><!--class CommissionFixValue--><g id="elem_CommissionFixValue"><rect codeLine="86" fill="#F1F1F1" height="55.2422" id="CommissionFixValue" rx="2.5" ry="2.5" style="stroke:#181818;stroke-width:0.5;" width="136" x="655.5" y="1013"/><text fill="#000000" font-family="sans-serif" font-size="14" lengthAdjust="spacing" textLength="130" x="658.5" y="1033.1074">CommissionFixValue</text><line style="stroke:#181818;stroke-width:0.5;" x1="656.5" x2="790.5" y1="1041.6211" y2="1041.6211"/><text fill="#000000" font-family="sans-serif" font-size="14" lengthAdjust="spacing" textLength="34" x="661.5" y="1060.7285">value</text></g><!--class Agent--><g id="elem_Agent"><rect fill="#F1F1F1" height="36.6211" id="Agent" rx="2.5" ry="2.5" style="stroke:#181818;stroke-width:0.5;" width="43" x="546" y="689"/><text fill="#000000" font-family="sans-serif" font-size="14" lengthAdjust="spacing" textLength="37" x="549" y="709.1074">Agent</text><line style="stroke:#181818;stroke-width:0.5;" x1="547" x2="588" y1="717.6211" y2="717.6211"/></g><!--link UnregisteredUser to Advertisement--><g id="link_UnregisteredUser_Advertisement"><path codeLine="92" d="M253.99,517.71 C249.04,538.11 241.41,572.72 238.5,603 C237.69,611.41 238.35,613.56 238.5,622 C238.73,634.77 239.15,648.62 239.6,661.34 " fill="none" id="UnregisteredUser-Advertisement" style="stroke:#181818;stroke-width:1.0;"/><polygon fill="#000000" points="243.0016,617.6206,246.8275,608.9136,240.979,608.3276,243.0016,617.6206" style="stroke:#000000;stroke-width:1.0;"/><text fill="#000000" font-family="sans-serif" font-size="13" lengthAdjust="spacing" textLength="53" x="252.5" y="618.0283">searches</text><text fill="#000000" font-family="sans-serif" font-size="13" lengthAdjust="spacing" textLength="5" x="247.1061" y="539.141">*</text><text fill="#000000" font-family="sans-serif" font-size="13" lengthAdjust="spacing" textLength="5" x="233.9537" y="650.3259">*</text></g><!--link Owner to Property--><g id="link_Owner_Property"><path codeLine="93" d="M354.36,346.07 C361.59,362.33 369.86,379.55 378.5,395 C384.01,404.86 390.22,414.96 396.6,424.8 " fill="none" id="Owner-Property" style="stroke:#181818;stroke-width:1.0;"/><polygon fill="#000000" points="385.8639,390.0514,384.1773,380.6916,378.9979,383.4705,385.8639,390.0514" style="stroke:#000000;stroke-width:1.0;"/><text fill="#000000" font-family="sans-serif" font-size="13" lengthAdjust="spacing" textLength="30" x="392.5" y="391.0283">owns</text><text fill="#000000" font-family="sans-serif" font-size="13" lengthAdjust="spacing" textLength="7" x="349.6659" y="367.7143">1</text><text fill="#000000" font-family="sans-serif" font-size="13" lengthAdjust="spacing" textLength="20" x="370.4083" y="413.6848">1..*</text></g><!--reverse link Property to Building--><g id="link_Property_Building"><path codeLine="94" d="M531.17,569.69 C562.61,596.51 598.01,626.73 627.54,651.92 " fill="none" id="Property-backto-Building" style="stroke:#181818;stroke-width:1.0;"/><polygon fill="none" points="526.3,574.73,515.63,556.43,535.39,564.08,526.3,574.73" style="stroke:#181818;stroke-width:1.0;"/></g><!--link Property to PropertyType--><g id="link_Property_PropertyType"><path codeLine="95" d="M454.81,573.09 C457.51,610.22 460.62,653.05 462.57,679.95 " fill="none" id="Property-PropertyType" style="stroke:#181818;stroke-width:1.0;"/><polygon fill="#000000" points="462.8621,617.6324,465.1382,608.3982,459.2758,608.8239,462.8621,617.6324" style="stroke:#000000;stroke-width:1.0;"/><text fill="#000000" font-family="sans-serif" font-size="13" lengthAdjust="spacing" textLength="49" x="471.5" y="618.0283">contains</text><text fill="#000000" font-family="sans-serif" font-size="13" lengthAdjust="spacing" textLength="5" x="450.0998" y="595.6325">*</text><text fill="#000000" font-family="sans-serif" font-size="13" lengthAdjust="spacing" textLength="7" x="454.3143" y="668.6474">1</text></g><!--reverse link Building to House--><g id="link_Building_House"><path codeLine="96" d="M691.5,783.24 C691.5,803.14 691.5,824.03 691.5,841.81 " fill="none" id="Building-backto-House" style="stroke:#181818;stroke-width:1.0;"/><polygon fill="none" points="684.5,783.03,691.5,763.03,698.5,783.03,684.5,783.03" style="stroke:#181818;stroke-width:1.0;"/></g><!--link Property to Advertisement--><g id="link_Property_Advertisement"><path codeLine="97" d="M383.4,565.62 C352,596.8 315.25,633.28 287.02,661.31 " fill="none" id="Property-Advertisement" style="stroke:#181818;stroke-width:1.0;"/><polygon fill="#000000" points="354.0482,609.1227,345.5588,613.4099,349.7001,617.5811,354.0482,609.1227" style="stroke:#000000;stroke-width:1.0;"/><text fill="#000000" font-family="sans-serif" font-size="13" lengthAdjust="spacing" textLength="61" x="359.5" y="618.0283">represents</text><text fill="#000000" font-family="sans-serif" font-size="13" lengthAdjust="spacing" textLength="7" x="368.3525" y="569.3652">1</text><text fill="#000000" font-family="sans-serif" font-size="13" lengthAdjust="spacing" textLength="7" x="286.1917" y="650.2915">1</text></g><!--link Location to Property--><g id="link_Location_Property"><path codeLine="98" d="M407.98,137.17 C410.43,147.1 412.71,157.29 414.5,167 C430.74,254.94 440.14,357.51 445.03,424.89 " fill="none" id="Location-Property" style="stroke:#181818;stroke-width:1.0;"/><polygon fill="#000000" points="442.8614,276.1865,441.1018,285.5328,446.9315,284.7821,442.8614,276.1865" style="stroke:#000000;stroke-width:1.0;"/><text fill="#000000" font-family="sans-serif" font-size="13" lengthAdjust="spacing" textLength="30" x="452.5" y="286.5283">owns</text><text fill="#000000" font-family="sans-serif" font-size="13" lengthAdjust="spacing" textLength="7" x="402.5248" y="158.8246">1</text><text fill="#000000" font-family="sans-serif" font-size="13" lengthAdjust="spacing" textLength="7" x="437.2455" y="413.7836">1</text></g><!--link Location to Owner--><g id="link_Location_Owner"><path codeLine="99" d="M370.62,137.08 C363.23,162.13 354.78,190.81 347.4,215.87 " fill="none" id="Location-Owner" style="stroke:#181818;stroke-width:1.0;"/><polygon fill="#000000" points="367.9134,171.8494,362.5375,179.6948,368.1756,181.3564,367.9134,171.8494" style="stroke:#000000;stroke-width:1.0;"/><text fill="#000000" font-family="sans-serif" font-size="13" lengthAdjust="spacing" textLength="30" x="375.5" y="182.0283">owns</text><text fill="#000000" font-family="sans-serif" font-size="13" lengthAdjust="spacing" textLength="7" x="361.3121" y="158.7254">1</text><text fill="#000000" font-family="sans-serif" font-size="13" lengthAdjust="spacing" textLength="7" x="342.0844" y="204.8759">1</text></g><!--link Owner to Advertisement--><g id="link_Owner_Advertisement"><path codeLine="100" d="M277.41,295.38 C218.88,313.74 125.76,353 84.5,425 C51.8,482.07 56.9,513.29 84.5,573 C105.14,617.65 148.91,652.85 184.99,675.87 " fill="none" id="Owner-Advertisement" style="stroke:#181818;stroke-width:1.0;"/><polygon fill="#000000" points="88.3198,504.0042,93.3107,495.9084,87.5989,494.521,88.3198,504.0042" style="stroke:#000000;stroke-width:1.0;"/><text fill="#000000" font-family="sans-serif" font-size="13" lengthAdjust="spacing" textLength="83" x="98.5" y="504.5283">asks to create</text><text fill="#000000" font-family="sans-serif" font-size="13" lengthAdjust="spacing" textLength="7" x="262.3921" y="293.3134">1</text><text fill="#000000" font-family="sans-serif" font-size="13" lengthAdjust="spacing" textLength="5" x="172.0605" y="667.4929">*</text></g><!--reverse link Advertisement to AdvertisementSale--><g id="link_Advertisement_AdvertisementSale"><path codeLine="101" d="M295.85,768.76 C323.89,799.84 356.67,836.18 378.41,860.29 " fill="none" id="Advertisement-backto-AdvertisementSale" style="stroke:#181818;stroke-width:1.0;"/><polygon fill="none" points="290.32,773.08,282.13,753.54,300.72,763.71,290.32,773.08" style="stroke:#181818;stroke-width:1.0;"/></g><!--reverse link Advertisement to AdvertisementLease--><g id="link_Advertisement_AdvertisementLease"><path codeLine="102" d="M185.59,768.26 C159.95,795.67 130.39,827.26 108.22,850.96 " fill="none" id="Advertisement-backto-AdvertisementLease" style="stroke:#181818;stroke-width:1.0;"/><polygon fill="none" points="180.58,763.37,199.36,753.54,190.81,772.93,180.58,763.37" style="stroke:#181818;stroke-width:1.0;"/></g><!--link Advertisement to AdvertisementType--><g id="link_Advertisement_AdvertisementType"><path codeLine="103" d="M241.5,753.54 C241.5,787.21 241.5,832.11 241.5,860.29 " fill="none" id="Advertisement-AdvertisementType" style="stroke:#181818;stroke-width:1.0;"/><polygon fill="#000000" points="246.5,807.6455,249.4389,798.6004,243.5611,798.6004,246.5,807.6455" style="stroke:#000000;stroke-width:1.0;"/><text fill="#000000" font-family="sans-serif" font-size="13" lengthAdjust="spacing" textLength="49" x="255.5" y="808.0283">contains</text><text fill="#000000" font-family="sans-serif" font-size="13" lengthAdjust="spacing" textLength="5" x="236.1172" y="775.905">*</text><text fill="#000000" font-family="sans-serif" font-size="13" lengthAdjust="spacing" textLength="7" x="233.7344" y="849.4027">1</text></g><!--reverse link Commission to CommissionFixValue--><g id="link_Commission_CommissionFixValue"><path codeLine="104" d="M589.32,920.01 C620.1,947.42 664.52,986.98 693.69,1012.95 " fill="none" id="Commission-backto-CommissionFixValue" style="stroke:#181818;stroke-width:1.0;"/><polygon fill="none" points="584.5,925.09,574.22,906.56,593.81,914.63,584.5,925.09" style="stroke:#181818;stroke-width:1.0;"/></g><!--reverse link Commission to CommissionPercent--><g id="link_Commission_CommissionPercent"><path codeLine="105" d="M554.5,926.67 C554.5,953.54 554.5,989.01 554.5,1012.95 " fill="none" id="Commission-backto-CommissionPercent" style="stroke:#181818;stroke-width:1.0;"/><polygon fill="none" points="547.5,926.56,554.5,906.56,561.5,926.56,547.5,926.56" style="stroke:#181818;stroke-width:1.0;"/></g><!--link Commission to CommissionType--><g id="link_Commission_CommissionType"><path codeLine="106" d="M536.07,906.56 C508.55,932.77 456.54,982.31 424.37,1012.95 " fill="none" id="Commission-CommissionType" style="stroke:#181818;stroke-width:1.0;"/><polygon fill="#000000" points="476.8795,977.0939,485.456,972.9838,481.4021,968.7276,476.8795,977.0939" style="stroke:#000000;stroke-width:1.0;"/><text fill="#000000" font-family="sans-serif" font-size="13" lengthAdjust="spacing" textLength="49" x="489.5" y="979.0283">contains</text><text fill="#000000" font-family="sans-serif" font-size="13" lengthAdjust="spacing" textLength="5" x="525.1834" y="928.2932">*</text><text fill="#000000" font-family="sans-serif" font-size="13" lengthAdjust="spacing" textLength="7" x="423.0056" y="1001.6474">1</text></g><!--link Advertisement to Commission--><g id="link_Advertisement_Commission"><path codeLine="107" d="M298.46,738.96 C347.6,765.49 420.27,805.35 482.5,842 C497.36,850.75 513.68,860.9 527.01,869.35 " fill="none" id="Advertisement-Commission" style="stroke:#181818;stroke-width:1.0;"/><polygon fill="#000000" points="439.8429,805.1232,433.4428,798.0883,430.5301,803.1937,439.8429,805.1232" style="stroke:#000000;stroke-width:1.0;"/><text fill="#000000" font-family="sans-serif" font-size="13" lengthAdjust="spacing" textLength="49" x="444.5" y="808.0283">contains</text><text fill="#000000" font-family="sans-serif" font-size="13" lengthAdjust="spacing" textLength="7" x="305.8286" y="738.7748">1</text><text fill="#000000" font-family="sans-serif" font-size="13" lengthAdjust="spacing" textLength="7" x="510.5193" y="858.1662">1</text></g><!--link Agent to Commission--><g id="link_Agent_Commission"><path codeLine="108" d="M566.21,726.27 C563.71,760.48 558.28,835.15 555.79,869.3 " fill="none" id="Agent-Commission" style="stroke:#181818;stroke-width:1.0;"/><polygon fill="#000000" points="565.1367,807.6323,568.7251,798.8247,562.8628,798.3976,565.1367,807.6323" style="stroke:#000000;stroke-width:1.0;"/><text fill="#000000" font-family="sans-serif" font-size="13" lengthAdjust="spacing" textLength="54" x="574.5" y="808.0283">attributes</text><text fill="#000000" font-family="sans-serif" font-size="13" lengthAdjust="spacing" textLength="7" x="557.9227" y="747.7172">1</text><text fill="#000000" font-family="sans-serif" font-size="13" lengthAdjust="spacing" textLength="5" x="550.4194" y="858.1009">*</text></g><!--SRC=[XLLHRzem47xFhx1ucLI9QhoYQbABEcrIjIAnxlsmZyGYiRCx1qgx_VSvTW9EW8uNdEExxxwx-nnugqqD19MehB6o85kXSDHWniTVQf1Ro77b3YKAGkd0v6KAu0AKtMkJYmsKZ5dsgSID4yuAqddXXD9jbhOcIv9a2Sptpf5UDmw_IsjM-Wt5vomhj48XDKbV99mhT8LLd6KXHop9raZkyFDGutic_4SXwzn0AF5t38kGEaaA0I247X99DFlE92wqEopGEAGGziAKRfa7uBgmplA0UM4Ldgg_6CBSCoAXUc7FrSMVzmP9H4rOWIx3oK0LLPccMYDv2NuM9aISDdr5Wp_2pssLZkwRRHWxkZKmLbvuU2Zj9XwuCO-ljUM64dKFZIwLNzXxKlG15LbRSHe2LunZIo2_mppESESRW7M9ZxyRNOVQnnBtQkUdegEaJg4Vi6iYcLO3GDm0k4JZavLXetqg8KROcwx3h7j6V5d5JUbaawJbDJ4hAFkHiJykFHIlG9yGZkDL3GKzpvk5DOv0HZNaOL16aYiihUV41qvTsAhIpA5N7nq7h_byZ5iYIL-jytjyk03xgbz_GTbqbBls60oLZIqh9ZSJCPs6hq4_Sy4890jayIMBXfxC9jFfP7Pxwx7zHPaBkpSjf0-8kp-UhlVUATpNcKq6TtlUtZq7Ed3qMP4Zs3uXc1q9Ha89QqBsHnPtMU-e53yIUnaKUZmYZXrV6GxmbjkNd_Hl68TU-_0gX0RE3FbVKB3Y29KCxinmW-cTjX-Ppztm0QJpLOf82WzzEgWw4Zkxa3F4vodkPeY3_g-YHVu3]--></g></svg>