<?xml version="1.0" encoding="us-ascii" standalone="no"?><svg xmlns="http://www.w3.org/2000/svg" xmlns:xlink="http://www.w3.org/1999/xlink" contentStyleType="text/css" height="569px" preserveAspectRatio="none" style="width:549px;height:569px;background:#FFFFFF;" version="1.1" viewBox="0 0 549 569" width="549px" zoomAndPan="magnify"><defs/><g><g id="elem_UC1"><ellipse cx="370.7711" cy="524.9542" fill="#F1F1F1" rx="95.2711" ry="21.4542" style="stroke:#181818;stroke-width:0.5;"/><text fill="#000000" font-family="sans-serif" font-size="14" lengthAdjust="spacing" textLength="147" x="294.6672" y="529.6405">UC1 - List of Properties</text></g><!--entity Unregistered User--><g id="elem_Unregistered User"><ellipse cx="72.5" cy="494" fill="#F1F1F1" rx="8" ry="8" style="stroke:#181818;stroke-width:0.5;"/><path d="M72.5,502 L72.5,529 M59.5,510 L85.5,510 M72.5,529 L59.5,544 M72.5,529 L85.5,544 " fill="none" style="stroke:#181818;stroke-width:0.5;"/><text fill="#000000" font-family="sans-serif" font-size="14" lengthAdjust="spacing" textLength="114" x="15.5" y="560.6074">Unregistered User</text></g><g id="elem_UC2"><ellipse cx="371.1018" cy="411.2204" fill="#F1F1F1" rx="126.6018" ry="27.7204" style="stroke:#181818;stroke-width:0.5;"/><text fill="#000000" font-family="sans-serif" font-size="14" lengthAdjust="spacing" textLength="217" x="262.6018" y="415.0172">UC2 - Publish Sale Announcement</text></g><!--entity Agent--><g id="elem_Agent"><ellipse cx="72.5" cy="380" fill="#F1F1F1" rx="8" ry="8" style="stroke:#181818;stroke-width:0.5;"/><path d="M72.5,388 L72.5,415 M59.5,396 L85.5,396 M72.5,415 L59.5,430 M72.5,415 L85.5,430 " fill="none" style="stroke:#181818;stroke-width:0.5;"/><text fill="#000000" font-family="sans-serif" font-size="14" lengthAdjust="spacing" textLength="37" x="54" y="446.6074">Agent</text></g><g id="elem_UC3"><ellipse cx="370.8743" cy="138.9749" fill="#F1F1F1" rx="100.3743" ry="22.4749" style="stroke:#181818;stroke-width:0.5;"/><text fill="#000000" font-family="sans-serif" font-size="14" lengthAdjust="spacing" textLength="159" x="290.3782" y="143.1376">UC3 - Register Employee</text></g><!--entity System Administrator--><g id="elem_System Administrator"><ellipse cx="72.5" cy="187" fill="#F1F1F1" rx="8" ry="8" style="stroke:#181818;stroke-width:0.5;"/><path d="M72.5,195 L72.5,222 M59.5,203 L85.5,203 M72.5,222 L59.5,237 M72.5,222 L85.5,237 " fill="none" style="stroke:#181818;stroke-width:0.5;"/><text fill="#000000" font-family="sans-serif" font-size="14" lengthAdjust="spacing" textLength="133" x="6" y="253.6074">System Administrator</text></g><g id="elem_UC4"><ellipse cx="371.0561" cy="45.2112" fill="#F1F1F1" rx="171.5561" ry="36.7112" style="stroke:#181818;stroke-width:0.5;"/><text fill="#000000" font-family="sans-serif" font-size="14" lengthAdjust="spacing" textLength="312" x="215.0561" y="49.0081">UC4 - Request for Listing a Property Sale or Rent</text></g><!--entity Owner--><g id="elem_Owner"><ellipse cx="72.5" cy="14" fill="#F1F1F1" rx="8" ry="8" style="stroke:#181818;stroke-width:0.5;"/><path d="M72.5,22 L72.5,49 M59.5,30 L85.5,30 M72.5,49 L59.5,64 M72.5,49 L85.5,64 " fill="none" style="stroke:#181818;stroke-width:0.5;"/><text fill="#000000" font-family="sans-serif" font-size="14" lengthAdjust="spacing" textLength="41" x="52" y="80.6074">Owner</text></g><g id="elem_UC5"><ellipse cx="371.1171" cy="218.1234" fill="#F1F1F1" rx="93.6171" ry="21.1234" style="stroke:#181818;stroke-width:0.5;"/><text fill="#000000" font-family="sans-serif" font-size="14" lengthAdjust="spacing" textLength="143" x="296.6171" y="222.9271">UC5 - Register a Store</text></g><g id="elem_UC6"><ellipse cx="371.0367" cy="310.8073" fill="#F1F1F1" rx="172.0367" ry="36.8073" style="stroke:#181818;stroke-width:0.5;"/><text fill="#000000" font-family="sans-serif" font-size="14" lengthAdjust="spacing" textLength="313" x="214.5367" y="314.6042">UC6 - Specify district, municipalities, and parishes</text></g><!--link Unregistered User to UC1--><g id="link_Unregistered User_UC1"><path d="M129.62,525 C169.22,525 223.36,525 270.24,525 " fill="none" id="Unregistered User-to-UC1" style="stroke:#181818;stroke-width:1.0;"/><polygon fill="#181818" points="275.33,525,266.33,521,270.33,525,266.33,529,275.33,525" style="stroke:#181818;stroke-width:1.0;"/></g><!--link Agent to UC2--><g id="link_Agent_UC2"><path d="M91.16,411 C120.45,411 181.56,411 239.12,411 " fill="none" id="Agent-to-UC2" style="stroke:#181818;stroke-width:1.0;"/><polygon fill="#181818" points="244.32,411,235.32,407,239.32,411,235.32,415,244.32,411" style="stroke:#181818;stroke-width:1.0;"/></g><!--link System Administrator to UC3--><g id="link_System Administrator_UC3"><path d="M139.03,196.67 C158.27,190.67 179.41,184.33 199,179 C229.59,170.68 263.55,162.52 293.08,155.76 " fill="none" id="System Administrator-to-UC3" style="stroke:#181818;stroke-width:1.0;"/><polygon fill="#181818" points="298.16,154.6,288.4947,152.7075,293.2859,155.7149,290.2785,160.5061,298.16,154.6" style="stroke:#181818;stroke-width:1.0;"/></g><!--link Owner to UC4--><g id="link_Owner_UC4"><path d="M93.41,45 C115.41,45 153.13,45 193.75,45 " fill="none" id="Owner-to-UC4" style="stroke:#181818;stroke-width:1.0;"/><polygon fill="#181818" points="199.24,45,190.24,41,194.24,45,190.24,49,199.24,45" style="stroke:#181818;stroke-width:1.0;"/></g><!--link System Administrator to UC5--><g id="link_System Administrator_UC5"><path d="M139.3,218 C178.4,218 228.72,218 272.38,218 " fill="none" id="System Administrator-to-UC5" style="stroke:#181818;stroke-width:1.0;"/><polygon fill="#181818" points="277.39,218,268.39,214,272.39,218,268.39,222,277.39,218" style="stroke:#181818;stroke-width:1.0;"/></g><!--link System Administrator to UC6--><g id="link_System Administrator_UC6"><path d="M139.3,238.64 C177.09,250.49 225.35,265.63 267.95,278.99 " fill="none" id="System Administrator-to-UC6" style="stroke:#181818;stroke-width:1.0;"/><polygon fill="#181818" points="272.85,280.53,265.4461,274.0352,268.0761,279.0435,263.0677,281.6735,272.85,280.53" style="stroke:#181818;stroke-width:1.0;"/></g><!--SRC=[VPAxRiCm34LtVGNX9KioDA-nG9fcAz0WHZw0bMcRY1wk92CrYlvxgJGFJ_LWsBYyXvUK9l74hiE05gntNhV1Mu8KUb8FfKDzmeRAD1Y2G3gXQmofoQCYjbZvCxi6QZIHrCXyh_zM8C-B3nM5hJS-m436-BFwKMgIE0dx60csAAzNnYQRTrzeEscb3DK9aeV0JPkWuanbxvJg8-diA8xR9vZ16yS4lePzy1s5n1GBm0WYgkBe0ZMYKw0gjme5p6RF5sr4cGjbttyOZYsKAA4spldUQRBaqXKsLvj6_gxs-TY-4FlXsWPs4juFH5VRGXNb88A5JMNPIKt0vEyn5cFEyiBvx4dcgMLNUR2yNxoDDlob4-dm2BPKxsT7GNZvUuHRZMCXbDBsbchrVwhL6BCMJDcHvdgGGv1ArcaAjdUikKF3UU5JG5V9dGcomVlwr_ytMQjV]--></g></svg>