<?xml version="1.0" encoding="UTF-8" standalone="no"?><svg xmlns="http://www.w3.org/2000/svg" xmlns:xlink="http://www.w3.org/1999/xlink" contentStyleType="text/css" height="1159px" preserveAspectRatio="none" style="width:588px;height:1159px;background:#FFFFFF;" version="1.1" viewBox="0 0 588 1159" width="588px" zoomAndPan="magnify"><defs/><g><rect fill="none" height="26.0986" id="_title" style="stroke:none;stroke-width:1.0;" width="238" x="176.75" y="10"/><text fill="#000000" font-family="sans-serif" font-size="14" font-weight="bold" lengthAdjust="spacing" textLength="228" x="181.75" y="28.1318">System Sequence Diagram (SSD)</text><rect fill="#FFFFFF" height="941.9058" style="stroke:#181818;stroke-width:1.0;" width="10" x="56.5" y="128.1973"/><rect fill="#FFFFFF" height="43.8975" style="stroke:#181818;stroke-width:1.0;" width="10" x="515.5" y="149.146"/><rect fill="#FFFFFF" height="43.8975" style="stroke:#181818;stroke-width:1.0;" width="10" x="515.5" y="221.9922"/><rect fill="#FFFFFF" height="28.9487" style="stroke:#181818;stroke-width:1.0;" width="10" x="515.5" y="294.8384"/><rect fill="#FFFFFF" height="111.4951" style="stroke:#181818;stroke-width:1.0;" width="10" x="515.5" y="352.7358"/><rect fill="#FFFFFF" height="43.8975" style="stroke:#181818;stroke-width:1.0;" width="10" x="515.5" y="485.1797"/><rect fill="#FFFFFF" height="67.8462" style="stroke:#181818;stroke-width:1.0;" width="10" x="515.5" y="558.0259"/><rect fill="#FFFFFF" height="52.8975" style="stroke:#181818;stroke-width:1.0;" width="10" x="515.5" y="654.8208"/><rect fill="#FFFFFF" height="98.7949" style="stroke:#181818;stroke-width:1.0;" width="10" x="515.5" y="736.667"/><rect fill="#FFFFFF" height="73.8975" style="stroke:#181818;stroke-width:1.0;" width="10" x="515.5" y="864.4106"/><rect fill="#FFFFFF" height="35.9487" style="stroke:#181818;stroke-width:1.0;" width="10" x="515.5" y="967.2568"/><rect fill="#FFFFFF" height="28.9487" style="stroke:#181818;stroke-width:1.0;" width="10" x="515.5" y="1032.1543"/><rect fill="none" height="89.4951" style="stroke:#000000;stroke-width:1.5;" width="532.5" x="30" y="367.7358"/><rect fill="none" height="313.3848" style="stroke:#000000;stroke-width:1.5;" width="572.5" x="10" y="573.0259"/><rect fill="none" height="74.8462" style="stroke:#000000;stroke-width:1.5;" width="532.5" x="30" y="669.8208"/><rect fill="none" height="120.7437" style="stroke:#000000;stroke-width:1.5;" width="552.5" x="20" y="758.667"/><rect fill="none" height="89.7949" style="stroke:#000000;stroke-width:1.5;" width="532.5" x="30" y="782.6157"/><rect fill="none" height="74.8462" style="stroke:#000000;stroke-width:1.5;" width="532.5" x="30" y="900.4106"/><line style="stroke:#181818;stroke-width:0.5;stroke-dasharray:5.0,5.0;" x1="61" x2="61" y1="118.1973" y2="1079.103"/><line style="stroke:#181818;stroke-width:0.5;stroke-dasharray:5.0,5.0;" x1="520.5" x2="520.5" y1="118.1973" y2="1079.103"/><text fill="#000000" font-family="sans-serif" font-size="14" lengthAdjust="spacing" textLength="37" x="40" y="115.2305">Agent</text><ellipse cx="61.5" cy="50.5986" fill="#E3E3E3" rx="8" ry="8" style="stroke:#181818;stroke-width:0.5;"/><path d="M61.5,58.5986 L61.5,85.5986 M48.5,66.5986 L74.5,66.5986 M61.5,85.5986 L48.5,100.5986 M61.5,85.5986 L74.5,100.5986 " fill="none" style="stroke:#181818;stroke-width:0.5;"/><text fill="#000000" font-family="sans-serif" font-size="14" lengthAdjust="spacing" textLength="37" x="40" y="1091.2349">Agent</text><ellipse cx="61.5" cy="1102.7017" fill="#E3E3E3" rx="8" ry="8" style="stroke:#181818;stroke-width:0.5;"/><path d="M61.5,1110.7017 L61.5,1137.7017 M48.5,1118.7017 L74.5,1118.7017 M61.5,1137.7017 L48.5,1152.7017 M61.5,1137.7017 L74.5,1152.7017 " fill="none" style="stroke:#181818;stroke-width:0.5;"/><rect fill="#E3E3E3" height="30.0986" rx="2.5" ry="2.5" style="stroke:#181818;stroke-width:0.5;" width="64" x="488.5" y="87.0986"/><text fill="#000000" font-family="sans-serif" font-size="14" lengthAdjust="spacing" textLength="50" x="495.5" y="107.2305">:System</text><rect fill="#E3E3E3" height="30.0986" rx="2.5" ry="2.5" style="stroke:#181818;stroke-width:0.5;" width="64" x="488.5" y="1078.103"/><text fill="#000000" font-family="sans-serif" font-size="14" lengthAdjust="spacing" textLength="50" x="495.5" y="1098.2349">:System</text><rect fill="#FFFFFF" height="941.9058" style="stroke:#181818;stroke-width:1.0;" width="10" x="56.5" y="128.1973"/><rect fill="#FFFFFF" height="43.8975" style="stroke:#181818;stroke-width:1.0;" width="10" x="515.5" y="149.146"/><rect fill="#FFFFFF" height="43.8975" style="stroke:#181818;stroke-width:1.0;" width="10" x="515.5" y="221.9922"/><rect fill="#FFFFFF" height="28.9487" style="stroke:#181818;stroke-width:1.0;" width="10" x="515.5" y="294.8384"/><rect fill="#FFFFFF" height="111.4951" style="stroke:#181818;stroke-width:1.0;" width="10" x="515.5" y="352.7358"/><rect fill="#FFFFFF" height="43.8975" style="stroke:#181818;stroke-width:1.0;" width="10" x="515.5" y="485.1797"/><rect fill="#FFFFFF" height="67.8462" style="stroke:#181818;stroke-width:1.0;" width="10" x="515.5" y="558.0259"/><rect fill="#FFFFFF" height="52.8975" style="stroke:#181818;stroke-width:1.0;" width="10" x="515.5" y="654.8208"/><rect fill="#FFFFFF" height="98.7949" style="stroke:#181818;stroke-width:1.0;" width="10" x="515.5" y="736.667"/><rect fill="#FFFFFF" height="73.8975" style="stroke:#181818;stroke-width:1.0;" width="10" x="515.5" y="864.4106"/><rect fill="#FFFFFF" height="35.9487" style="stroke:#181818;stroke-width:1.0;" width="10" x="515.5" y="967.2568"/><rect fill="#FFFFFF" height="28.9487" style="stroke:#181818;stroke-width:1.0;" width="10" x="515.5" y="1032.1543"/><polygon fill="#181818" points="503.5,145.146,513.5,149.146,503.5,153.146,507.5,149.146" style="stroke:#181818;stroke-width:1.0;"/><line style="stroke:#181818;stroke-width:1.0;" x1="66.5" x2="509.5" y1="149.146" y2="149.146"/><text fill="#000000" font-family="sans-serif" font-size="13" font-weight="bold" lengthAdjust="spacing" textLength="7" x="73.5" y="144.3911">1</text><text fill="#000000" font-family="sans-serif" font-size="13" lengthAdjust="spacing" textLength="205" x="84.5" y="144.3911">asks to publish sale announcement</text><polygon fill="#181818" points="77.5,189.0435,67.5,193.0435,77.5,197.0435,73.5,193.0435" style="stroke:#181818;stroke-width:1.0;"/><line style="stroke:#181818;stroke-width:1.0;stroke-dasharray:2.0,2.0;" x1="71.5" x2="519.5" y1="193.0435" y2="193.0435"/><text fill="#000000" font-family="sans-serif" font-size="13" font-weight="bold" lengthAdjust="spacing" textLength="7" x="83.5" y="180.8142">2</text><text fill="#000000" font-family="sans-serif" font-size="13" lengthAdjust="spacing" textLength="313" x="94.5" y="173.3398">requests whether the agent wants to create a new one</text><text fill="#000000" font-family="sans-serif" font-size="13" lengthAdjust="spacing" textLength="346" x="94.5" y="188.2886">or approve one that a user submitted through the application</text><polygon fill="#181818" points="503.5,217.9922,513.5,221.9922,503.5,225.9922,507.5,221.9922" style="stroke:#181818;stroke-width:1.0;"/><line style="stroke:#181818;stroke-width:1.0;" x1="66.5" x2="509.5" y1="221.9922" y2="221.9922"/><text fill="#000000" font-family="sans-serif" font-size="13" font-weight="bold" lengthAdjust="spacing" textLength="7" x="73.5" y="217.2373">3</text><text fill="#000000" font-family="sans-serif" font-size="13" lengthAdjust="spacing" textLength="224" x="84.5" y="217.2373">selects to create a new property listing</text><polygon fill="#181818" points="77.5,261.8896,67.5,265.8896,77.5,269.8896,73.5,265.8896" style="stroke:#181818;stroke-width:1.0;"/><line style="stroke:#181818;stroke-width:1.0;stroke-dasharray:2.0,2.0;" x1="71.5" x2="519.5" y1="265.8896" y2="265.8896"/><text fill="#000000" font-family="sans-serif" font-size="13" font-weight="bold" lengthAdjust="spacing" textLength="7" x="83.5" y="253.6604">4</text><text fill="#000000" font-family="sans-serif" font-size="13" lengthAdjust="spacing" textLength="161" x="94.5" y="246.186">request property information</text><text fill="#000000" font-family="sans-serif" font-size="13" lengthAdjust="spacing" textLength="237" x="94.5" y="261.1348">(area, location, distance from city center)</text><polygon fill="#181818" points="503.5,290.8384,513.5,294.8384,503.5,298.8384,507.5,294.8384" style="stroke:#181818;stroke-width:1.0;"/><line style="stroke:#181818;stroke-width:1.0;" x1="66.5" x2="509.5" y1="294.8384" y2="294.8384"/><text fill="#000000" font-family="sans-serif" font-size="13" font-weight="bold" lengthAdjust="spacing" textLength="7" x="73.5" y="290.0835">5</text><text fill="#000000" font-family="sans-serif" font-size="13" lengthAdjust="spacing" textLength="136" x="84.5" y="290.0835">submits requested data</text><polygon fill="#181818" points="77.5,319.7871,67.5,323.7871,77.5,327.7871,73.5,323.7871" style="stroke:#181818;stroke-width:1.0;"/><line style="stroke:#181818;stroke-width:1.0;stroke-dasharray:2.0,2.0;" x1="71.5" x2="519.5" y1="323.7871" y2="323.7871"/><text fill="#000000" font-family="sans-serif" font-size="13" font-weight="bold" lengthAdjust="spacing" textLength="7" x="83.5" y="319.0322">6</text><text fill="#000000" font-family="sans-serif" font-size="13" lengthAdjust="spacing" textLength="204" x="94.5" y="319.0322">lists agreement type (sale or lease)</text><polygon fill="#181818" points="503.5,348.7358,513.5,352.7358,503.5,356.7358,507.5,352.7358" style="stroke:#181818;stroke-width:1.0;"/><line style="stroke:#181818;stroke-width:1.0;" x1="66.5" x2="509.5" y1="352.7358" y2="352.7358"/><text fill="#000000" font-family="sans-serif" font-size="13" font-weight="bold" lengthAdjust="spacing" textLength="7" x="73.5" y="347.981">7</text><text fill="#000000" font-family="sans-serif" font-size="13" lengthAdjust="spacing" textLength="136" x="84.5" y="347.981">submits requested data</text><path d="M30,367.7358 L91,367.7358 L91,374.6846 L81,384.6846 L30,384.6846 L30,367.7358 " fill="#EEEEEE" style="stroke:#000000;stroke-width:1.5;"/><rect fill="none" height="89.4951" style="stroke:#000000;stroke-width:1.5;" width="532.5" x="30" y="367.7358"/><text fill="#000000" font-family="sans-serif" font-size="13" font-weight="bold" lengthAdjust="spacing" textLength="16" x="45" y="380.9297">alt</text><text fill="#000000" font-family="sans-serif" font-size="11" font-weight="bold" lengthAdjust="spacing" textLength="104" x="106" y="380.0537">[agreement = sale]</text><polygon fill="#181818" points="77.5,401.6333,67.5,405.6333,77.5,409.6333,73.5,405.6333" style="stroke:#181818;stroke-width:1.0;"/><line style="stroke:#181818;stroke-width:1.0;stroke-dasharray:2.0,2.0;" x1="71.5" x2="514.5" y1="405.6333" y2="405.6333"/><text fill="#000000" font-family="sans-serif" font-size="13" font-weight="bold" lengthAdjust="spacing" textLength="7" x="83.5" y="400.8784">8</text><text fill="#000000" font-family="sans-serif" font-size="13" lengthAdjust="spacing" textLength="82" x="94.5" y="400.8784">requests price</text><line style="stroke:#000000;stroke-width:1.0;stroke-dasharray:2.0,2.0;" x1="30" x2="562.5" y1="414.6333" y2="414.6333"/><text fill="#000000" font-family="sans-serif" font-size="11" font-weight="bold" lengthAdjust="spacing" textLength="111" x="35" y="424.9512">[agreement = lease]</text><polygon fill="#181818" points="77.5,445.231,67.5,449.231,77.5,453.231,73.5,449.231" style="stroke:#181818;stroke-width:1.0;"/><line style="stroke:#181818;stroke-width:1.0;stroke-dasharray:2.0,2.0;" x1="71.5" x2="514.5" y1="449.231" y2="449.231"/><text fill="#000000" font-family="sans-serif" font-size="13" font-weight="bold" lengthAdjust="spacing" textLength="7" x="83.5" y="444.4761">9</text><text fill="#000000" font-family="sans-serif" font-size="13" lengthAdjust="spacing" textLength="186" x="94.5" y="444.4761">requests rent and lease duration</text><polygon fill="#181818" points="503.5,481.1797,513.5,485.1797,503.5,489.1797,507.5,485.1797" style="stroke:#181818;stroke-width:1.0;"/><line style="stroke:#181818;stroke-width:1.0;" x1="66.5" x2="509.5" y1="485.1797" y2="485.1797"/><text fill="#000000" font-family="sans-serif" font-size="13" font-weight="bold" lengthAdjust="spacing" textLength="14" x="73.5" y="480.4248">10</text><text fill="#000000" font-family="sans-serif" font-size="13" lengthAdjust="spacing" textLength="136" x="91.5" y="480.4248">submits requested data</text><polygon fill="#181818" points="77.5,525.0771,67.5,529.0771,77.5,533.0771,73.5,529.0771" style="stroke:#181818;stroke-width:1.0;"/><line style="stroke:#181818;stroke-width:1.0;stroke-dasharray:2.0,2.0;" x1="71.5" x2="519.5" y1="529.0771" y2="529.0771"/><text fill="#000000" font-family="sans-serif" font-size="13" font-weight="bold" lengthAdjust="spacing" textLength="14" x="83.5" y="516.8479">11</text><text fill="#000000" font-family="sans-serif" font-size="13" lengthAdjust="spacing" textLength="177" x="101.5" y="509.3735">lists possible types of property</text><text fill="#000000" font-family="sans-serif" font-size="13" lengthAdjust="spacing" textLength="186" x="101.5" y="524.3223">and request that one is selected</text><polygon fill="#181818" points="503.5,554.0259,513.5,558.0259,503.5,562.0259,507.5,558.0259" style="stroke:#181818;stroke-width:1.0;"/><line style="stroke:#181818;stroke-width:1.0;" x1="66.5" x2="509.5" y1="558.0259" y2="558.0259"/><text fill="#000000" font-family="sans-serif" font-size="13" font-weight="bold" lengthAdjust="spacing" textLength="14" x="73.5" y="553.271">12</text><text fill="#000000" font-family="sans-serif" font-size="13" lengthAdjust="spacing" textLength="347" x="91.5" y="553.271">selects one of the available options (house, apartment, land)</text><path d="M10,573.0259 L71,573.0259 L71,579.9746 L61,589.9746 L10,589.9746 L10,573.0259 " fill="#EEEEEE" style="stroke:#000000;stroke-width:1.5;"/><rect fill="none" height="313.3848" style="stroke:#000000;stroke-width:1.5;" width="572.5" x="10" y="573.0259"/><text fill="#000000" font-family="sans-serif" font-size="13" font-weight="bold" lengthAdjust="spacing" textLength="16" x="25" y="586.2197">alt</text><text fill="#000000" font-family="sans-serif" font-size="11" font-weight="bold" lengthAdjust="spacing" textLength="178" x="86" y="585.3438">[property = house or apartment]</text><polygon fill="#181818" points="77.5,621.8721,67.5,625.8721,77.5,629.8721,73.5,625.8721" style="stroke:#181818;stroke-width:1.0;"/><line style="stroke:#181818;stroke-width:1.0;stroke-dasharray:2.0,2.0;" x1="71.5" x2="519.5" y1="625.8721" y2="625.8721"/><text fill="#000000" font-family="sans-serif" font-size="13" font-weight="bold" lengthAdjust="spacing" textLength="14" x="83.5" y="613.6428">13</text><text fill="#000000" font-family="sans-serif" font-size="13" lengthAdjust="spacing" textLength="241" x="101.5" y="606.1685">requests specific data related to selection</text><text fill="#000000" font-family="sans-serif" font-size="13" lengthAdjust="spacing" textLength="283" x="101.5" y="621.1172">(number of bedrooms, number of parking spaces)</text><polygon fill="#181818" points="503.5,650.8208,513.5,654.8208,503.5,658.8208,507.5,654.8208" style="stroke:#181818;stroke-width:1.0;"/><line style="stroke:#181818;stroke-width:1.0;" x1="66.5" x2="509.5" y1="654.8208" y2="654.8208"/><text fill="#000000" font-family="sans-serif" font-size="13" font-weight="bold" lengthAdjust="spacing" textLength="14" x="73.5" y="650.0659">14</text><text fill="#000000" font-family="sans-serif" font-size="13" lengthAdjust="spacing" textLength="136" x="91.5" y="650.0659">submits requested data</text><path d="M30,669.8208 L95,669.8208 L95,676.7695 L85,686.7695 L30,686.7695 L30,669.8208 " fill="#EEEEEE" style="stroke:#000000;stroke-width:1.5;"/><rect fill="none" height="74.8462" style="stroke:#000000;stroke-width:1.5;" width="532.5" x="30" y="669.8208"/><text fill="#000000" font-family="sans-serif" font-size="13" font-weight="bold" lengthAdjust="spacing" textLength="20" x="45" y="683.0146">opt</text><polygon fill="#181818" points="77.5,703.7183,67.5,707.7183,77.5,711.7183,73.5,707.7183" style="stroke:#181818;stroke-width:1.0;"/><line style="stroke:#181818;stroke-width:1.0;stroke-dasharray:2.0,2.0;" x1="71.5" x2="519.5" y1="707.7183" y2="707.7183"/><text fill="#000000" font-family="sans-serif" font-size="13" font-weight="bold" lengthAdjust="spacing" textLength="14" x="83.5" y="702.9634">15</text><text fill="#000000" font-family="sans-serif" font-size="13" lengthAdjust="spacing" textLength="407" x="101.5" y="702.9634">request optional information (number of bathroom, available equipment)</text><polygon fill="#181818" points="503.5,732.667,513.5,736.667,503.5,740.667,507.5,736.667" style="stroke:#181818;stroke-width:1.0;"/><line style="stroke:#181818;stroke-width:1.0;" x1="66.5" x2="509.5" y1="736.667" y2="736.667"/><text fill="#000000" font-family="sans-serif" font-size="13" font-weight="bold" lengthAdjust="spacing" textLength="14" x="73.5" y="731.9121">16</text><text fill="#000000" font-family="sans-serif" font-size="13" lengthAdjust="spacing" textLength="125" x="91.5" y="731.9121">sends requested data</text><path d="M20,758.667 L81,758.667 L81,765.6157 L71,775.6157 L20,775.6157 L20,758.667 " fill="#EEEEEE" style="stroke:#000000;stroke-width:1.5;"/><rect fill="none" height="120.7437" style="stroke:#000000;stroke-width:1.5;" width="552.5" x="20" y="758.667"/><text fill="#000000" font-family="sans-serif" font-size="13" font-weight="bold" lengthAdjust="spacing" textLength="16" x="35" y="771.8608">alt</text><text fill="#000000" font-family="sans-serif" font-size="11" font-weight="bold" lengthAdjust="spacing" textLength="103" x="96" y="770.9849">[property = house]</text><path d="M30,782.6157 L95,782.6157 L95,789.5645 L85,799.5645 L30,799.5645 L30,782.6157 " fill="#EEEEEE" style="stroke:#000000;stroke-width:1.5;"/><rect fill="none" height="89.7949" style="stroke:#000000;stroke-width:1.5;" width="532.5" x="30" y="782.6157"/><text fill="#000000" font-family="sans-serif" font-size="13" font-weight="bold" lengthAdjust="spacing" textLength="20" x="45" y="795.8096">opt</text><polygon fill="#181818" points="77.5,831.4619,67.5,835.4619,77.5,839.4619,73.5,835.4619" style="stroke:#181818;stroke-width:1.0;"/><line style="stroke:#181818;stroke-width:1.0;stroke-dasharray:2.0,2.0;" x1="71.5" x2="519.5" y1="835.4619" y2="835.4619"/><text fill="#000000" font-family="sans-serif" font-size="13" font-weight="bold" lengthAdjust="spacing" textLength="14" x="83.5" y="823.2327">17</text><text fill="#000000" font-family="sans-serif" font-size="13" lengthAdjust="spacing" textLength="191" x="101.5" y="815.7583">request additional characteristics</text><text fill="#000000" font-family="sans-serif" font-size="13" lengthAdjust="spacing" textLength="291" x="101.5" y="830.707">(existing basement, inhabitable loft, sun exposure)</text><polygon fill="#181818" points="503.5,860.4106,513.5,864.4106,503.5,868.4106,507.5,864.4106" style="stroke:#181818;stroke-width:1.0;"/><line style="stroke:#181818;stroke-width:1.0;" x1="66.5" x2="509.5" y1="864.4106" y2="864.4106"/><text fill="#000000" font-family="sans-serif" font-size="13" font-weight="bold" lengthAdjust="spacing" textLength="14" x="73.5" y="859.6558">18</text><text fill="#000000" font-family="sans-serif" font-size="13" lengthAdjust="spacing" textLength="136" x="91.5" y="859.6558">submits requested data</text><path d="M30,900.4106 L103,900.4106 L103,907.3594 L93,917.3594 L30,917.3594 L30,900.4106 " fill="#EEEEEE" style="stroke:#000000;stroke-width:1.5;"/><rect fill="none" height="74.8462" style="stroke:#000000;stroke-width:1.5;" width="532.5" x="30" y="900.4106"/><text fill="#000000" font-family="sans-serif" font-size="13" font-weight="bold" lengthAdjust="spacing" textLength="28" x="45" y="913.6045">loop</text><a href="for" target="_top" title="for" xlink:actuate="onRequest" xlink:href="for" xlink:show="new" xlink:title="for" xlink:type="simple"><text fill="#1D1D1D" font-family="sans-serif" font-size="11" font-weight="bold" lengthAdjust="spacing" text-decoration="underline" textLength="116" x="118" y="912.7285">at least 1 photograph</text></a><polygon fill="#181818" points="77.5,934.3081,67.5,938.3081,77.5,942.3081,73.5,938.3081" style="stroke:#181818;stroke-width:1.0;"/><line style="stroke:#181818;stroke-width:1.0;stroke-dasharray:2.0,2.0;" x1="71.5" x2="519.5" y1="938.3081" y2="938.3081"/><text fill="#000000" font-family="sans-serif" font-size="13" font-weight="bold" lengthAdjust="spacing" textLength="14" x="83.5" y="933.5532">19</text><text fill="#000000" font-family="sans-serif" font-size="13" lengthAdjust="spacing" textLength="186" x="101.5" y="933.5532">requests photographs to append</text><polygon fill="#181818" points="503.5,963.2568,513.5,967.2568,503.5,971.2568,507.5,967.2568" style="stroke:#181818;stroke-width:1.0;"/><line style="stroke:#181818;stroke-width:1.0;" x1="66.5" x2="509.5" y1="967.2568" y2="967.2568"/><text fill="#000000" font-family="sans-serif" font-size="13" font-weight="bold" lengthAdjust="spacing" textLength="14" x="73.5" y="962.502">20</text><text fill="#000000" font-family="sans-serif" font-size="13" lengthAdjust="spacing" textLength="174" x="91.5" y="962.502">submits requested information</text><polygon fill="#181818" points="77.5,999.2056,67.5,1003.2056,77.5,1007.2056,73.5,1003.2056" style="stroke:#181818;stroke-width:1.0;"/><line style="stroke:#181818;stroke-width:1.0;stroke-dasharray:2.0,2.0;" x1="71.5" x2="519.5" y1="1003.2056" y2="1003.2056"/><text fill="#000000" font-family="sans-serif" font-size="13" font-weight="bold" lengthAdjust="spacing" textLength="14" x="83.5" y="998.4507">21</text><text fill="#000000" font-family="sans-serif" font-size="13" lengthAdjust="spacing" textLength="180" x="101.5" y="998.4507">requests comission information</text><polygon fill="#181818" points="503.5,1028.1543,513.5,1032.1543,503.5,1036.1543,507.5,1032.1543" style="stroke:#181818;stroke-width:1.0;"/><line style="stroke:#181818;stroke-width:1.0;" x1="66.5" x2="509.5" y1="1032.1543" y2="1032.1543"/><text fill="#000000" font-family="sans-serif" font-size="13" font-weight="bold" lengthAdjust="spacing" textLength="14" x="73.5" y="1027.3994">22</text><text fill="#000000" font-family="sans-serif" font-size="13" lengthAdjust="spacing" textLength="174" x="91.5" y="1027.3994">submits requested information</text><polygon fill="#181818" points="77.5,1057.103,67.5,1061.103,77.5,1065.103,73.5,1061.103" style="stroke:#181818;stroke-width:1.0;"/><line style="stroke:#181818;stroke-width:1.0;stroke-dasharray:2.0,2.0;" x1="71.5" x2="519.5" y1="1061.103" y2="1061.103"/><text fill="#000000" font-family="sans-serif" font-size="13" font-weight="bold" lengthAdjust="spacing" textLength="14" x="83.5" y="1056.3481">23</text><text fill="#000000" font-family="sans-serif" font-size="13" lengthAdjust="spacing" textLength="151" x="101.5" y="1056.3481">display operation success</text><!--MD5=[940ab9214d6f1522e2c7a667b742b90c]
@startuml
skinparam monochrome true
skinparam packageStyle rectangle
skinparam shadowing false

title System Sequence Diagram (SSD)

autonumber

actor "Agent" as Agent
participant ":System" as System

activate Agent

    Agent -> System : asks to publish sale announcement
    activate System 
        System - -> Agent : requests whether the agent wants to create a new one\nor approve one that a user submitted through the application
    deactivate System

    Agent -> System : selects to create a new property listing
    activate System 
        System - -> Agent : request property information\n(area, location, distance from city center)
    deactivate System
    
    Agent -> System : submits requested data
    activate System
        System - -> Agent : lists agreement type (sale or lease)
    deactivate System

    Agent -> System : submits requested data
    activate System 
        alt agreement = sale
            System - -> Agent : requests price
        else agreement = lease
            System - -> Agent : requests rent and lease duration
        end
    deactivate System

    Agent -> System : submits requested data
    activate System 
        System - -> Agent : lists possible types of property\nand request that one is selected
    deactivate System
    
    Agent -> System : selects one of the available options (house, apartment, land)
    alt property = house or apartment
        activate System 
            System - -> Agent : requests specific data related to selection\n(number of bedrooms, number of parking spaces)
        deactivate System

        Agent -> System : submits requested data
        activate System 
        opt
                System - -> Agent : request optional information (number of bathroom, available equipment)
            deactivate System

            Agent -> System : sends requested data
            activate System 
        end
        alt property = house
            opt
                    System - -> Agent : request additional characteristics\n(existing basement, inhabitable loft, sun exposure)
                deactivate System
                Agent -> System : submits requested data
                activate System 
            end
        end
    end

    loop [for at least 1 photograph]
            System - -> Agent : requests photographs to append
        deactivate System
        Agent -> System : submits requested information
        activate System 
    end
        System - -> Agent : requests comission information
    deactivate System

    Agent -> System : submits requested information
    activate System 
        System - -> Agent : display operation success
    deactivate System

@enduml

PlantUML version 1.2022.7(Mon Aug 22 18:01:30 WEST 2022)
(GPL source distribution)
Java Runtime: OpenJDK Runtime Environment
JVM: OpenJDK 64-Bit Server VM
Default Encoding: UTF-8
Language: en
Country: US
--></g></svg>