<?xml version="1.0" encoding="UTF-8" standalone="no"?><svg xmlns="http://www.w3.org/2000/svg" xmlns:xlink="http://www.w3.org/1999/xlink" contentStyleType="text/css" height="349px" preserveAspectRatio="none" style="width:379px;height:349px;background:#FFFFFF;" version="1.1" viewBox="0 0 379 349" width="379px" zoomAndPan="magnify"><defs/><g><rect fill="none" height="26.0986" id="_title" style="stroke:none;stroke-width:1.0;" width="361" x="5" y="10"/><text fill="#000000" font-family="sans-serif" font-size="14" font-weight="bold" lengthAdjust="spacing" textLength="351" x="10" y="28.1318">System Sequence Diagram (SSD) - Alternative One</text><rect fill="#FFFFFF" height="131.7437" style="stroke:#181818;stroke-width:1.0;" width="10" x="23.75" y="128.1973"/><rect fill="#FFFFFF" height="101.7949" style="stroke:#181818;stroke-width:1.0;" width="10" x="327.75" y="149.146"/><line style="stroke:#181818;stroke-width:0.5;stroke-dasharray:5.0,5.0;" x1="28.25" x2="28.25" y1="118.1973" y2="268.9409"/><line style="stroke:#181818;stroke-width:0.5;stroke-dasharray:5.0,5.0;" x1="332.75" x2="332.75" y1="118.1973" y2="268.9409"/><text fill="#000000" font-family="sans-serif" font-size="14" lengthAdjust="spacing" textLength="37" x="7.25" y="115.2305">Agent</text><ellipse cx="28.75" cy="50.5986" fill="#E3E3E3" rx="8" ry="8" style="stroke:#181818;stroke-width:0.5;"/><path d="M28.75,58.5986 L28.75,85.5986 M15.75,66.5986 L41.75,66.5986 M28.75,85.5986 L15.75,100.5986 M28.75,85.5986 L41.75,100.5986 " fill="none" style="stroke:#181818;stroke-width:0.5;"/><text fill="#000000" font-family="sans-serif" font-size="14" lengthAdjust="spacing" textLength="37" x="7.25" y="281.0728">Agent</text><ellipse cx="28.75" cy="292.5396" fill="#E3E3E3" rx="8" ry="8" style="stroke:#181818;stroke-width:0.5;"/><path d="M28.75,300.5396 L28.75,327.5396 M15.75,308.5396 L41.75,308.5396 M28.75,327.5396 L15.75,342.5396 M28.75,327.5396 L41.75,342.5396 " fill="none" style="stroke:#181818;stroke-width:0.5;"/><rect fill="#E3E3E3" height="30.0986" rx="2.5" ry="2.5" style="stroke:#181818;stroke-width:0.5;" width="64" x="300.75" y="87.0986"/><text fill="#000000" font-family="sans-serif" font-size="14" lengthAdjust="spacing" textLength="50" x="307.75" y="107.2305">:System</text><rect fill="#E3E3E3" height="30.0986" rx="2.5" ry="2.5" style="stroke:#181818;stroke-width:0.5;" width="64" x="300.75" y="267.9409"/><text fill="#000000" font-family="sans-serif" font-size="14" lengthAdjust="spacing" textLength="50" x="307.75" y="288.0728">:System</text><rect fill="#FFFFFF" height="131.7437" style="stroke:#181818;stroke-width:1.0;" width="10" x="23.75" y="128.1973"/><rect fill="#FFFFFF" height="101.7949" style="stroke:#181818;stroke-width:1.0;" width="10" x="327.75" y="149.146"/><polygon fill="#181818" points="315.75,145.146,325.75,149.146,315.75,153.146,319.75,149.146" style="stroke:#181818;stroke-width:1.0;"/><line style="stroke:#181818;stroke-width:1.0;" x1="33.75" x2="321.75" y1="149.146" y2="149.146"/><text fill="#000000" font-family="sans-serif" font-size="13" font-weight="bold" lengthAdjust="spacing" textLength="7" x="40.75" y="144.3911">1</text><text fill="#000000" font-family="sans-serif" font-size="13" lengthAdjust="spacing" textLength="205" x="51.75" y="144.3911">asks to publish sale announcement</text><polygon fill="#181818" points="44.75,174.0947,34.75,178.0947,44.75,182.0947,40.75,178.0947" style="stroke:#181818;stroke-width:1.0;"/><line style="stroke:#181818;stroke-width:1.0;stroke-dasharray:2.0,2.0;" x1="38.75" x2="326.75" y1="178.0947" y2="178.0947"/><text fill="#000000" font-family="sans-serif" font-size="13" font-weight="bold" lengthAdjust="spacing" textLength="7" x="50.75" y="173.3398">2</text><text fill="#000000" font-family="sans-serif" font-size="13" lengthAdjust="spacing" textLength="102" x="61.75" y="173.3398">requests sale info</text><polygon fill="#181818" points="315.75,217.9922,325.75,221.9922,315.75,225.9922,319.75,221.9922" style="stroke:#181818;stroke-width:1.0;"/><line style="stroke:#181818;stroke-width:1.0;" x1="33.75" x2="321.75" y1="221.9922" y2="221.9922"/><text fill="#000000" font-family="sans-serif" font-size="13" font-weight="bold" lengthAdjust="spacing" textLength="7" x="40.75" y="209.7629">3</text><text fill="#000000" font-family="sans-serif" font-size="13" lengthAdjust="spacing" textLength="259" x="51.75" y="202.2886">types requested data (property characteristic</text><text fill="#000000" font-family="sans-serif" font-size="13" lengthAdjust="spacing" textLength="134" x="51.75" y="217.2373">and agency comission)</text><polygon fill="#181818" points="44.75,246.9409,34.75,250.9409,44.75,254.9409,40.75,250.9409" style="stroke:#181818;stroke-width:1.0;"/><line style="stroke:#181818;stroke-width:1.0;stroke-dasharray:2.0,2.0;" x1="38.75" x2="331.75" y1="250.9409" y2="250.9409"/><text fill="#000000" font-family="sans-serif" font-size="13" font-weight="bold" lengthAdjust="spacing" textLength="7" x="50.75" y="246.186">4</text><text fill="#000000" font-family="sans-serif" font-size="13" lengthAdjust="spacing" textLength="158" x="61.75" y="246.186">displays operation success</text><!--MD5=[7976ed0e842f1652bf5c27f1a1f2e281]
@startuml
skinparam monochrome true
skinparam packageStyle rectangle
skinparam shadowing false

title System Sequence Diagram (SSD) - Alternative One

autonumber

actor "Agent" as Agent
participant ":System" as System

activate Agent

    Agent -> System : asks to publish sale announcement
    activate System 

        System - -> Agent : requests sale info

        Agent -> System : types requested data (property characteristic\nand agency comission)

        System - -> Agent : displays operation success
    deactivate System

@enduml

PlantUML version 1.2022.7(Mon Aug 22 17:01:30 UTC 2022)
(GPL source distribution)
Java Runtime: OpenJDK Runtime Environment
JVM: OpenJDK 64-Bit Server VM
Default Encoding: UTF-8
Language: en
Country: US
--></g></svg>