<?xml version="1.0" encoding="UTF-8" standalone="no"?><svg xmlns="http://www.w3.org/2000/svg" xmlns:xlink="http://www.w3.org/1999/xlink" contentStyleType="text/css" height="407px" preserveAspectRatio="none" style="width:378px;height:407px;background:#FFFFFF;" version="1.1" viewBox="0 0 378 407" width="378px" zoomAndPan="magnify"><defs/><g><rect fill="none" height="26.0986" id="_title" style="stroke:none;stroke-width:1.0;" width="360" x="5" y="10"/><text fill="#000000" font-family="sans-serif" font-size="14" font-weight="bold" lengthAdjust="spacing" textLength="350" x="10" y="28.1318">System Sequence Diagram (SSD) - Alternative Two</text><rect fill="#FFFFFF" height="189.6411" style="stroke:#181818;stroke-width:1.0;" width="10" x="52.75" y="128.1973"/><rect fill="#FFFFFF" height="159.6924" style="stroke:#181818;stroke-width:1.0;" width="10" x="297.75" y="149.146"/><line style="stroke:#181818;stroke-width:0.5;stroke-dasharray:5.0,5.0;" x1="57.25" x2="57.25" y1="118.1973" y2="326.8384"/><line style="stroke:#181818;stroke-width:0.5;stroke-dasharray:5.0,5.0;" x1="302.75" x2="302.75" y1="118.1973" y2="326.8384"/><text fill="#000000" font-family="sans-serif" font-size="14" lengthAdjust="spacing" textLength="37" x="36.25" y="115.2305">Agent</text><ellipse cx="57.75" cy="50.5986" fill="#E3E3E3" rx="8" ry="8" style="stroke:#181818;stroke-width:0.5;"/><path d="M57.75,58.5986 L57.75,85.5986 M44.75,66.5986 L70.75,66.5986 M57.75,85.5986 L44.75,100.5986 M57.75,85.5986 L70.75,100.5986 " fill="none" style="stroke:#181818;stroke-width:0.5;"/><text fill="#000000" font-family="sans-serif" font-size="14" lengthAdjust="spacing" textLength="37" x="36.25" y="338.9702">Agent</text><ellipse cx="57.75" cy="350.437" fill="#E3E3E3" rx="8" ry="8" style="stroke:#181818;stroke-width:0.5;"/><path d="M57.75,358.437 L57.75,385.437 M44.75,366.437 L70.75,366.437 M57.75,385.437 L44.75,400.437 M57.75,385.437 L70.75,400.437 " fill="none" style="stroke:#181818;stroke-width:0.5;"/><rect fill="#E3E3E3" height="30.0986" rx="2.5" ry="2.5" style="stroke:#181818;stroke-width:0.5;" width="64" x="270.75" y="87.0986"/><text fill="#000000" font-family="sans-serif" font-size="14" lengthAdjust="spacing" textLength="50" x="277.75" y="107.2305">:System</text><rect fill="#E3E3E3" height="30.0986" rx="2.5" ry="2.5" style="stroke:#181818;stroke-width:0.5;" width="64" x="270.75" y="325.8384"/><text fill="#000000" font-family="sans-serif" font-size="14" lengthAdjust="spacing" textLength="50" x="277.75" y="345.9702">:System</text><rect fill="#FFFFFF" height="189.6411" style="stroke:#181818;stroke-width:1.0;" width="10" x="52.75" y="128.1973"/><rect fill="#FFFFFF" height="159.6924" style="stroke:#181818;stroke-width:1.0;" width="10" x="297.75" y="149.146"/><polygon fill="#181818" points="285.75,145.146,295.75,149.146,285.75,153.146,289.75,149.146" style="stroke:#181818;stroke-width:1.0;"/><line style="stroke:#181818;stroke-width:1.0;" x1="62.75" x2="291.75" y1="149.146" y2="149.146"/><text fill="#000000" font-family="sans-serif" font-size="13" font-weight="bold" lengthAdjust="spacing" textLength="7" x="69.75" y="144.3911">1</text><text fill="#000000" font-family="sans-serif" font-size="13" lengthAdjust="spacing" textLength="205" x="80.75" y="144.3911">asks to publish sale announcement</text><polygon fill="#181818" points="73.75,174.0947,63.75,178.0947,73.75,182.0947,69.75,178.0947" style="stroke:#181818;stroke-width:1.0;"/><line style="stroke:#181818;stroke-width:1.0;stroke-dasharray:2.0,2.0;" x1="67.75" x2="296.75" y1="178.0947" y2="178.0947"/><text fill="#000000" font-family="sans-serif" font-size="13" font-weight="bold" lengthAdjust="spacing" textLength="7" x="79.75" y="173.3398">2</text><text fill="#000000" font-family="sans-serif" font-size="13" lengthAdjust="spacing" textLength="191" x="90.75" y="173.3398">requests advertisement reference</text><polygon fill="#181818" points="285.75,203.0435,295.75,207.0435,285.75,211.0435,289.75,207.0435" style="stroke:#181818;stroke-width:1.0;"/><line style="stroke:#181818;stroke-width:1.0;" x1="62.75" x2="291.75" y1="207.0435" y2="207.0435"/><text fill="#000000" font-family="sans-serif" font-size="13" font-weight="bold" lengthAdjust="spacing" textLength="7" x="69.75" y="202.2886">3</text><text fill="#000000" font-family="sans-serif" font-size="13" lengthAdjust="spacing" textLength="150" x="80.75" y="202.2886">types requested reference</text><polygon fill="#181818" points="73.75,231.9922,63.75,235.9922,73.75,239.9922,69.75,235.9922" style="stroke:#181818;stroke-width:1.0;"/><line style="stroke:#181818;stroke-width:1.0;stroke-dasharray:2.0,2.0;" x1="67.75" x2="296.75" y1="235.9922" y2="235.9922"/><text fill="#000000" font-family="sans-serif" font-size="13" font-weight="bold" lengthAdjust="spacing" textLength="7" x="79.75" y="231.2373">4</text><text fill="#000000" font-family="sans-serif" font-size="13" lengthAdjust="spacing" textLength="198" x="90.75" y="231.2373">requests comission info to append</text><polygon fill="#181818" points="285.75,275.8896,295.75,279.8896,285.75,283.8896,289.75,279.8896" style="stroke:#181818;stroke-width:1.0;"/><line style="stroke:#181818;stroke-width:1.0;" x1="62.75" x2="291.75" y1="279.8896" y2="279.8896"/><text fill="#000000" font-family="sans-serif" font-size="13" font-weight="bold" lengthAdjust="spacing" textLength="7" x="69.75" y="267.6604">5</text><text fill="#000000" font-family="sans-serif" font-size="13" lengthAdjust="spacing" textLength="119" x="80.75" y="260.186">types comission info</text><text fill="#000000" font-family="sans-serif" font-size="13" lengthAdjust="spacing" textLength="176" x="80.75" y="275.1348">(fixed ammount or percentage)</text><polygon fill="#181818" points="73.75,304.8384,63.75,308.8384,73.75,312.8384,69.75,308.8384" style="stroke:#181818;stroke-width:1.0;"/><line style="stroke:#181818;stroke-width:1.0;stroke-dasharray:2.0,2.0;" x1="67.75" x2="301.75" y1="308.8384" y2="308.8384"/><text fill="#000000" font-family="sans-serif" font-size="13" font-weight="bold" lengthAdjust="spacing" textLength="7" x="79.75" y="304.0835">6</text><text fill="#000000" font-family="sans-serif" font-size="13" lengthAdjust="spacing" textLength="158" x="90.75" y="304.0835">displays operation success</text><!--MD5=[11900186fcdd495dc7e90dc756b6ff26]
@startuml
skinparam monochrome true
skinparam packageStyle rectangle
skinparam shadowing false

title System Sequence Diagram (SSD) - Alternative Two

autonumber

actor "Agent" as Agent
participant ":System" as System

activate Agent

    Agent -> System : asks to publish sale announcement
    activate System 

        System - -> Agent : requests advertisement reference

        Agent -> System : types requested reference

        System - -> Agent : requests comission info to append

        Agent -> System : types comission info\n(fixed ammount or percentage)

        System - -> Agent : displays operation success
    deactivate System

@enduml

PlantUML version 1.2022.7(Mon Aug 22 17:01:30 UTC 2022)
(GPL source distribution)
Java Runtime: OpenJDK Runtime Environment
JVM: OpenJDK 64-Bit Server VM
Default Encoding: UTF-8
Language: en
Country: US
--></g></svg>