<?xml version="1.0" encoding="UTF-8" standalone="no"?><svg xmlns="http://www.w3.org/2000/svg" xmlns:xlink="http://www.w3.org/1999/xlink" contentStyleType="text/css" height="824px" preserveAspectRatio="none" style="width:481px;height:824px;background:#FFFFFF;" version="1.1" viewBox="0 0 481 824" width="481px" zoomAndPan="magnify"><defs/><g><rect fill="none" height="27.6094" id="_title" style="stroke:none;stroke-width:1.0;" width="360" x="61.75" y="10"/><text fill="#000000" font-family="sans-serif" font-size="14" font-weight="bold" lengthAdjust="spacing" textLength="350" x="66.75" y="29.5332">System Sequence Diagram (SSD) - Alternative Two</text><rect fill="#FFFFFF" height="602.5703" style="stroke:#181818;stroke-width:1.0;" width="10" x="36.5" y="131.2188"/><rect fill="#FFFFFF" height="46.7031" style="stroke:#181818;stroke-width:1.0;" width="10" x="427.5" y="153.5703"/><rect fill="#FFFFFF" height="46.7031" style="stroke:#181818;stroke-width:1.0;" width="10" x="427.5" y="230.625"/><rect fill="#FFFFFF" height="46.7031" style="stroke:#181818;stroke-width:1.0;" width="10" x="427.5" y="307.6797"/><rect fill="#FFFFFF" height="150.9453" style="stroke:#181818;stroke-width:1.0;" width="10" x="427.5" y="384.7344"/><rect fill="#FFFFFF" height="37.3516" style="stroke:#181818;stroke-width:1.0;" width="10" x="427.5" y="566.0313"/><rect fill="#FFFFFF" height="30.3516" style="stroke:#181818;stroke-width:1.0;" width="10" x="427.5" y="633.7344"/><rect fill="#FFFFFF" height="30.3516" style="stroke:#181818;stroke-width:1.0;" width="10" x="427.5" y="694.4375"/><rect fill="none" height="174.2969" style="stroke:#000000;stroke-width:1.5;" width="464.5" x="10" y="399.7344"/><line style="stroke:#181818;stroke-width:0.5;stroke-dasharray:5.0,5.0;" x1="41" x2="41" y1="121.2188" y2="742.7891"/><line style="stroke:#181818;stroke-width:0.5;stroke-dasharray:5.0,5.0;" x1="432.5" x2="432.5" y1="121.2188" y2="742.7891"/><text fill="#000000" font-family="sans-serif" font-size="14" lengthAdjust="spacing" textLength="37" x="20" y="118.1426">Agent</text><ellipse cx="41.5" cy="52.1094" fill="#E3E3E3" rx="8" ry="8" style="stroke:#181818;stroke-width:0.5;"/><path d="M41.5,60.1094 L41.5,87.1094 M28.5,68.1094 L54.5,68.1094 M41.5,87.1094 L28.5,102.1094 M41.5,87.1094 L54.5,102.1094 " fill="none" style="stroke:#181818;stroke-width:0.5;"/><text fill="#000000" font-family="sans-serif" font-size="14" lengthAdjust="spacing" textLength="37" x="20" y="756.3223">Agent</text><ellipse cx="41.5" cy="767.8984" fill="#E3E3E3" rx="8" ry="8" style="stroke:#181818;stroke-width:0.5;"/><path d="M41.5,775.8984 L41.5,802.8984 M28.5,783.8984 L54.5,783.8984 M41.5,802.8984 L28.5,817.8984 M41.5,802.8984 L54.5,817.8984 " fill="none" style="stroke:#181818;stroke-width:0.5;"/><rect fill="#E3E3E3" height="31.6094" rx="2.5" ry="2.5" style="stroke:#181818;stroke-width:0.5;" width="64" x="400.5" y="88.6094"/><text fill="#000000" font-family="sans-serif" font-size="14" lengthAdjust="spacing" textLength="50" x="407.5" y="110.1426">:System</text><rect fill="#E3E3E3" height="31.6094" rx="2.5" ry="2.5" style="stroke:#181818;stroke-width:0.5;" width="64" x="400.5" y="741.7891"/><text fill="#000000" font-family="sans-serif" font-size="14" lengthAdjust="spacing" textLength="50" x="407.5" y="763.3223">:System</text><rect fill="#FFFFFF" height="602.5703" style="stroke:#181818;stroke-width:1.0;" width="10" x="36.5" y="131.2188"/><rect fill="#FFFFFF" height="46.7031" style="stroke:#181818;stroke-width:1.0;" width="10" x="427.5" y="153.5703"/><rect fill="#FFFFFF" height="46.7031" style="stroke:#181818;stroke-width:1.0;" width="10" x="427.5" y="230.625"/><rect fill="#FFFFFF" height="46.7031" style="stroke:#181818;stroke-width:1.0;" width="10" x="427.5" y="307.6797"/><rect fill="#FFFFFF" height="150.9453" style="stroke:#181818;stroke-width:1.0;" width="10" x="427.5" y="384.7344"/><rect fill="#FFFFFF" height="37.3516" style="stroke:#181818;stroke-width:1.0;" width="10" x="427.5" y="566.0313"/><rect fill="#FFFFFF" height="30.3516" style="stroke:#181818;stroke-width:1.0;" width="10" x="427.5" y="633.7344"/><rect fill="#FFFFFF" height="30.3516" style="stroke:#181818;stroke-width:1.0;" width="10" x="427.5" y="694.4375"/><polygon fill="#181818" points="415.5,149.5703,425.5,153.5703,415.5,157.5703,419.5,153.5703" style="stroke:#181818;stroke-width:1.0;"/><line style="stroke:#181818;stroke-width:1.0;" x1="46.5" x2="421.5" y1="153.5703" y2="153.5703"/><text fill="#000000" font-family="sans-serif" font-size="13" font-weight="bold" lengthAdjust="spacing" textLength="7" x="53.5" y="148.7139">1</text><text fill="#000000" font-family="sans-serif" font-size="13" lengthAdjust="spacing" textLength="205" x="64.5" y="148.7139">asks to publish sale announcement</text><polygon fill="#181818" points="57.5,196.2734,47.5,200.2734,57.5,204.2734,53.5,200.2734" style="stroke:#181818;stroke-width:1.0;"/><line style="stroke:#181818;stroke-width:1.0;stroke-dasharray:2.0,2.0;" x1="51.5" x2="431.5" y1="200.2734" y2="200.2734"/><text fill="#000000" font-family="sans-serif" font-size="13" font-weight="bold" lengthAdjust="spacing" textLength="7" x="63.5" y="187.2412">2</text><text fill="#000000" font-family="sans-serif" font-size="13" lengthAdjust="spacing" textLength="313" x="74.5" y="179.0654">requests whether the agent wants to create a new one</text><text fill="#000000" font-family="sans-serif" font-size="13" lengthAdjust="spacing" textLength="346" x="74.5" y="195.417">or approve one that a user submitted through the application</text><polygon fill="#181818" points="415.5,226.625,425.5,230.625,415.5,234.625,419.5,230.625" style="stroke:#181818;stroke-width:1.0;"/><line style="stroke:#181818;stroke-width:1.0;" x1="46.5" x2="421.5" y1="230.625" y2="230.625"/><text fill="#000000" font-family="sans-serif" font-size="13" font-weight="bold" lengthAdjust="spacing" textLength="7" x="53.5" y="225.7686">3</text><text fill="#000000" font-family="sans-serif" font-size="13" lengthAdjust="spacing" textLength="224" x="64.5" y="225.7686">selects to create a new property listing</text><polygon fill="#181818" points="57.5,273.3281,47.5,277.3281,57.5,281.3281,53.5,277.3281" style="stroke:#181818;stroke-width:1.0;"/><line style="stroke:#181818;stroke-width:1.0;stroke-dasharray:2.0,2.0;" x1="51.5" x2="431.5" y1="277.3281" y2="277.3281"/><text fill="#000000" font-family="sans-serif" font-size="13" font-weight="bold" lengthAdjust="spacing" textLength="7" x="63.5" y="264.2959">4</text><text fill="#000000" font-family="sans-serif" font-size="13" lengthAdjust="spacing" textLength="161" x="74.5" y="256.1201">request property information</text><text fill="#000000" font-family="sans-serif" font-size="13" lengthAdjust="spacing" textLength="273" x="74.5" y="272.4717">(area, location, distance from city center, price)</text><polygon fill="#181818" points="415.5,303.6797,425.5,307.6797,415.5,311.6797,419.5,307.6797" style="stroke:#181818;stroke-width:1.0;"/><line style="stroke:#181818;stroke-width:1.0;" x1="46.5" x2="421.5" y1="307.6797" y2="307.6797"/><text fill="#000000" font-family="sans-serif" font-size="13" font-weight="bold" lengthAdjust="spacing" textLength="7" x="53.5" y="302.8232">5</text><text fill="#000000" font-family="sans-serif" font-size="13" lengthAdjust="spacing" textLength="136" x="64.5" y="302.8232">submits requested data</text><polygon fill="#181818" points="57.5,350.3828,47.5,354.3828,57.5,358.3828,53.5,354.3828" style="stroke:#181818;stroke-width:1.0;"/><line style="stroke:#181818;stroke-width:1.0;stroke-dasharray:2.0,2.0;" x1="51.5" x2="431.5" y1="354.3828" y2="354.3828"/><text fill="#000000" font-family="sans-serif" font-size="13" font-weight="bold" lengthAdjust="spacing" textLength="7" x="63.5" y="341.3506">6</text><text fill="#000000" font-family="sans-serif" font-size="13" lengthAdjust="spacing" textLength="177" x="74.5" y="333.1748">lists possible types of property</text><text fill="#000000" font-family="sans-serif" font-size="13" lengthAdjust="spacing" textLength="186" x="74.5" y="349.5264">and request that one is selected</text><polygon fill="#181818" points="415.5,380.7344,425.5,384.7344,415.5,388.7344,419.5,384.7344" style="stroke:#181818;stroke-width:1.0;"/><line style="stroke:#181818;stroke-width:1.0;" x1="46.5" x2="421.5" y1="384.7344" y2="384.7344"/><text fill="#000000" font-family="sans-serif" font-size="13" font-weight="bold" lengthAdjust="spacing" textLength="7" x="53.5" y="379.8779">7</text><text fill="#000000" font-family="sans-serif" font-size="13" lengthAdjust="spacing" textLength="347" x="64.5" y="379.8779">selects one of the available options (house, apartment, land)</text><path d="M10,399.7344 L71,399.7344 L71,408.0859 L61,418.0859 L10,418.0859 L10,399.7344 " fill="#EEEEEE" style="stroke:#000000;stroke-width:1.5;"/><rect fill="none" height="174.2969" style="stroke:#000000;stroke-width:1.5;" width="464.5" x="10" y="399.7344"/><text fill="#000000" font-family="sans-serif" font-size="13" font-weight="bold" lengthAdjust="spacing" textLength="16" x="25" y="414.2295">alt</text><text fill="#000000" font-family="sans-serif" font-size="11" font-weight="bold" lengthAdjust="spacing" textLength="178" x="86" y="413.1533">[property = house or apartment]</text><polygon fill="#181818" points="57.5,469.1406,47.5,473.1406,57.5,477.1406,53.5,473.1406" style="stroke:#181818;stroke-width:1.0;"/><line style="stroke:#181818;stroke-width:1.0;stroke-dasharray:2.0,2.0;" x1="51.5" x2="426.5" y1="473.1406" y2="473.1406"/><text fill="#000000" font-family="sans-serif" font-size="13" font-weight="bold" lengthAdjust="spacing" textLength="7" x="63.5" y="451.9326">8</text><text fill="#000000" font-family="sans-serif" font-size="13" lengthAdjust="spacing" textLength="241" x="74.5" y="435.5811">requests specific data related to selection</text><text fill="#000000" font-family="sans-serif" font-size="13" lengthAdjust="spacing" textLength="256" x="74.5" y="451.9326">(number of bedrooms, number of bathrooms,</text><text fill="#000000" font-family="sans-serif" font-size="13" lengthAdjust="spacing" textLength="271" x="74.5" y="468.2842">number of parking spaces, availabe equipment)</text><line style="stroke:#000000;stroke-width:1.0;stroke-dasharray:2.0,2.0;" x1="10" x2="474.5" y1="482.1406" y2="482.1406"/><text fill="#000000" font-family="sans-serif" font-size="11" font-weight="bold" lengthAdjust="spacing" textLength="103" x="15" y="493.5596">[property = house]</text><polygon fill="#181818" points="57.5,531.6797,47.5,535.6797,57.5,539.6797,53.5,535.6797" style="stroke:#181818;stroke-width:1.0;"/><line style="stroke:#181818;stroke-width:1.0;stroke-dasharray:2.0,2.0;" x1="51.5" x2="431.5" y1="535.6797" y2="535.6797"/><text fill="#000000" font-family="sans-serif" font-size="13" font-weight="bold" lengthAdjust="spacing" textLength="7" x="63.5" y="522.6475">9</text><text fill="#000000" font-family="sans-serif" font-size="13" lengthAdjust="spacing" textLength="191" x="74.5" y="514.4717">request additional characteristics</text><text fill="#000000" font-family="sans-serif" font-size="13" lengthAdjust="spacing" textLength="291" x="74.5" y="530.8232">(existing basement, inhabitable loft, sun exposure)</text><polygon fill="#181818" points="415.5,562.0313,425.5,566.0313,415.5,570.0313,419.5,566.0313" style="stroke:#181818;stroke-width:1.0;"/><line style="stroke:#181818;stroke-width:1.0;" x1="46.5" x2="421.5" y1="566.0313" y2="566.0313"/><text fill="#000000" font-family="sans-serif" font-size="13" font-weight="bold" lengthAdjust="spacing" textLength="14" x="53.5" y="561.1748">10</text><text fill="#000000" font-family="sans-serif" font-size="13" lengthAdjust="spacing" textLength="136" x="71.5" y="561.1748">submits requested data</text><polygon fill="#181818" points="57.5,599.3828,47.5,603.3828,57.5,607.3828,53.5,603.3828" style="stroke:#181818;stroke-width:1.0;"/><line style="stroke:#181818;stroke-width:1.0;stroke-dasharray:2.0,2.0;" x1="51.5" x2="431.5" y1="603.3828" y2="603.3828"/><text fill="#000000" font-family="sans-serif" font-size="13" font-weight="bold" lengthAdjust="spacing" textLength="14" x="63.5" y="598.5264">11</text><text fill="#000000" font-family="sans-serif" font-size="13" lengthAdjust="spacing" textLength="186" x="81.5" y="598.5264">requests photographs to append</text><polygon fill="#181818" points="415.5,629.7344,425.5,633.7344,415.5,637.7344,419.5,633.7344" style="stroke:#181818;stroke-width:1.0;"/><line style="stroke:#181818;stroke-width:1.0;" x1="46.5" x2="421.5" y1="633.7344" y2="633.7344"/><text fill="#000000" font-family="sans-serif" font-size="13" font-weight="bold" lengthAdjust="spacing" textLength="14" x="53.5" y="628.8779">12</text><text fill="#000000" font-family="sans-serif" font-size="13" lengthAdjust="spacing" textLength="174" x="71.5" y="628.8779">submits requested information</text><polygon fill="#181818" points="57.5,660.0859,47.5,664.0859,57.5,668.0859,53.5,664.0859" style="stroke:#181818;stroke-width:1.0;"/><line style="stroke:#181818;stroke-width:1.0;stroke-dasharray:2.0,2.0;" x1="51.5" x2="431.5" y1="664.0859" y2="664.0859"/><text fill="#000000" font-family="sans-serif" font-size="13" font-weight="bold" lengthAdjust="spacing" textLength="14" x="63.5" y="659.2295">13</text><text fill="#000000" font-family="sans-serif" font-size="13" lengthAdjust="spacing" textLength="180" x="81.5" y="659.2295">requests comission information</text><polygon fill="#181818" points="415.5,690.4375,425.5,694.4375,415.5,698.4375,419.5,694.4375" style="stroke:#181818;stroke-width:1.0;"/><line style="stroke:#181818;stroke-width:1.0;" x1="46.5" x2="421.5" y1="694.4375" y2="694.4375"/><text fill="#000000" font-family="sans-serif" font-size="13" font-weight="bold" lengthAdjust="spacing" textLength="14" x="53.5" y="689.5811">14</text><text fill="#000000" font-family="sans-serif" font-size="13" lengthAdjust="spacing" textLength="174" x="71.5" y="689.5811">submits requested information</text><polygon fill="#181818" points="57.5,720.7891,47.5,724.7891,57.5,728.7891,53.5,724.7891" style="stroke:#181818;stroke-width:1.0;"/><line style="stroke:#181818;stroke-width:1.0;stroke-dasharray:2.0,2.0;" x1="51.5" x2="431.5" y1="724.7891" y2="724.7891"/><text fill="#000000" font-family="sans-serif" font-size="13" font-weight="bold" lengthAdjust="spacing" textLength="14" x="63.5" y="719.9326">15</text><text fill="#000000" font-family="sans-serif" font-size="13" lengthAdjust="spacing" textLength="151" x="81.5" y="719.9326">display operation success</text><!--MD5=[322a4899ac865970b474eb4379cea125]
@startuml
skinparam monochrome true
skinparam packageStyle rectangle
skinparam shadowing false

title System Sequence Diagram (SSD) - Alternative Two

autonumber

actor "Agent" as Agent
participant ":System" as System

activate Agent

    Agent -> System : asks to publish sale announcement
    activate System 
        System - -> Agent : requests whether the agent wants to create a new one\nor approve one that a user submitted through the application
    deactivate System

    Agent -> System : selects to create a new property listing
    activate System 
        System - -> Agent : request property information\n(area, location, distance from city center, price)
    deactivate System
    
    Agent -> System : submits requested data
    activate System 
        System - -> Agent : lists possible types of property\nand request that one is selected
    deactivate System
    
    Agent -> System : selects one of the available options (house, apartment, land)
    alt property = house or apartment
    activate System 
        System - -> Agent : requests specific data related to selection\n(number of bedrooms, number of bathrooms,\nnumber of parking spaces, availabe equipment)
    else property = house
        System - -> Agent : request additional characteristics\n(existing basement, inhabitable loft, sun exposure)
    deactivate System

    Agent -> System : submits requested data
    activate System 
    end
        System - -> Agent : requests photographs to append
    deactivate System

    Agent -> System : submits requested information
    activate System 
        System - -> Agent : requests comission information
    deactivate System

    Agent -> System : submits requested information
    activate System 
        System - -> Agent : display operation success
    deactivate System

@enduml

PlantUML version 1.2022.7(Mon Aug 22 18:01:30 BST 2022)
(GPL source distribution)
Java Runtime: Java(TM) SE Runtime Environment
JVM: Java HotSpot(TM) 64-Bit Server VM
Default Encoding: Cp1252
Language: en
Country: GB
--></g></svg>