<?xml version="1.0" encoding="us-ascii" standalone="no"?><svg xmlns="http://www.w3.org/2000/svg" xmlns:xlink="http://www.w3.org/1999/xlink" contentStyleType="text/css" height="1228px" preserveAspectRatio="none" style="width:1282px;height:1228px;background:#FFFFFF;" version="1.1" viewBox="0 0 1282 1228" width="1282px" zoomAndPan="magnify"><defs/><g><!--class Employee--><g id="elem_Employee"><rect codeLine="9" fill="#F1F1F1" height="129.7266" id="Employee" rx="2.5" ry="2.5" style="stroke:#181818;stroke-width:0.5;" width="102" x="682.8777" y="141"/><text fill="#000000" font-family="sans-serif" font-size="14" lengthAdjust="spacing" textLength="62" x="702.8777" y="161.1074">Employee</text><line style="stroke:#181818;stroke-width:0.5;" x1="683.8777" x2="783.8777" y1="169.6211" y2="169.6211"/><text fill="#000000" font-family="sans-serif" font-size="14" lengthAdjust="spacing" textLength="35" x="688.8777" y="188.7285">name</text><text fill="#000000" font-family="sans-serif" font-size="14" lengthAdjust="spacing" textLength="90" x="688.8777" y="207.3496">numberCitizen</text><text fill="#000000" font-family="sans-serif" font-size="14" lengthAdjust="spacing" textLength="15" x="688.8777" y="225.9707">tin</text><text fill="#000000" font-family="sans-serif" font-size="14" lengthAdjust="spacing" textLength="33" x="688.8777" y="244.5918">email</text><text fill="#000000" font-family="sans-serif" font-size="14" lengthAdjust="spacing" textLength="89" x="688.8777" y="263.2129">phoneNumber</text></g><!--class Client--><g id="elem_Client"><rect codeLine="17" fill="#F1F1F1" height="129.7266" id="Client" rx="2.5" ry="2.5" style="stroke:#181818;stroke-width:0.5;" width="102" x="472.8777" y="730"/><text fill="#000000" font-family="sans-serif" font-size="14" lengthAdjust="spacing" textLength="36" x="505.8777" y="750.1074">Client</text><line style="stroke:#181818;stroke-width:0.5;" x1="473.8777" x2="573.8777" y1="758.6211" y2="758.6211"/><text fill="#000000" font-family="sans-serif" font-size="14" lengthAdjust="spacing" textLength="35" x="478.8777" y="777.7285">name</text><text fill="#000000" font-family="sans-serif" font-size="14" lengthAdjust="spacing" textLength="89" x="478.8777" y="796.3496">phoneNumber</text><text fill="#000000" font-family="sans-serif" font-size="14" lengthAdjust="spacing" textLength="90" x="478.8777" y="814.9707">numberCitizen</text><text fill="#000000" font-family="sans-serif" font-size="14" lengthAdjust="spacing" textLength="15" x="478.8777" y="833.5918">tin</text><text fill="#000000" font-family="sans-serif" font-size="14" lengthAdjust="spacing" textLength="33" x="478.8777" y="852.2129">email</text></g><!--class Owner--><g id="elem_Owner"><rect codeLine="25" fill="#F1F1F1" height="129.7266" id="Owner" rx="2.5" ry="2.5" style="stroke:#181818;stroke-width:0.5;" width="102" x="264.8777" y="521"/><text fill="#000000" font-family="sans-serif" font-size="14" lengthAdjust="spacing" textLength="41" x="295.3777" y="541.1074">Owner</text><line style="stroke:#181818;stroke-width:0.5;" x1="265.8777" x2="365.8777" y1="549.6211" y2="549.6211"/><text fill="#000000" font-family="sans-serif" font-size="14" lengthAdjust="spacing" textLength="33" x="270.8777" y="568.7285">email</text><text fill="#000000" font-family="sans-serif" font-size="14" lengthAdjust="spacing" textLength="35" x="270.8777" y="587.3496">name</text><text fill="#000000" font-family="sans-serif" font-size="14" lengthAdjust="spacing" textLength="90" x="270.8777" y="605.9707">numberCitizen</text><text fill="#000000" font-family="sans-serif" font-size="14" lengthAdjust="spacing" textLength="15" x="270.8777" y="624.5918">tin</text><text fill="#000000" font-family="sans-serif" font-size="14" lengthAdjust="spacing" textLength="89" x="270.8777" y="643.2129">phoneNumber</text></g><!--class Agent--><g id="elem_Agent"><rect codeLine="33" fill="#F1F1F1" height="36.6211" id="Agent" rx="2.5" ry="2.5" style="stroke:#181818;stroke-width:0.5;" width="43" x="778.3777" y="776.5"/><text fill="#000000" font-family="sans-serif" font-size="14" lengthAdjust="spacing" textLength="37" x="781.3777" y="796.6074">Agent</text><line style="stroke:#181818;stroke-width:0.5;" x1="779.3777" x2="820.3777" y1="805.1211" y2="805.1211"/></g><!--class Advertisement--><g id="elem_Advertisement"><rect codeLine="35" fill="#F1F1F1" height="111.1055" id="Advertisement" rx="2.5" ry="2.5" style="stroke:#181818;stroke-width:0.5;" width="113" x="845.3777" y="948.5"/><text fill="#000000" font-family="sans-serif" font-size="14" lengthAdjust="spacing" textLength="90" x="856.8777" y="968.6074">Advertisement</text><line style="stroke:#181818;stroke-width:0.5;" x1="846.3777" x2="957.3777" y1="977.1211" y2="977.1211"/><text fill="#000000" font-family="sans-serif" font-size="14" lengthAdjust="spacing" textLength="38" x="851.3777" y="996.2285">status</text><text fill="#000000" font-family="sans-serif" font-size="14" lengthAdjust="spacing" textLength="101" x="851.3777" y="1014.8496">idAdvertisement</text><text fill="#000000" font-family="sans-serif" font-size="14" lengthAdjust="spacing" textLength="73" x="851.3777" y="1033.4707">commission</text><text fill="#000000" font-family="sans-serif" font-size="14" lengthAdjust="spacing" textLength="28" x="851.3777" y="1052.0918">date</text></g><!--class AdvertisementSale--><g id="elem_AdvertisementSale"><rect codeLine="42" fill="#F1F1F1" height="55.2422" id="AdvertisementSale" rx="2.5" ry="2.5" style="stroke:#181818;stroke-width:0.5;" width="124" x="853.8777" y="1157.5"/><text fill="#000000" font-family="sans-serif" font-size="14" lengthAdjust="spacing" textLength="118" x="856.8777" y="1177.6074">AdvertisementSale</text><line style="stroke:#181818;stroke-width:0.5;" x1="854.8777" x2="976.8777" y1="1186.1211" y2="1186.1211"/><text fill="#000000" font-family="sans-serif" font-size="14" lengthAdjust="spacing" textLength="58" x="859.8777" y="1205.2285">salePrice</text></g><!--class AdvertisementLease--><g id="elem_AdvertisementLease"><rect codeLine="46" fill="#F1F1F1" height="73.8633" id="AdvertisementLease" rx="2.5" ry="2.5" style="stroke:#181818;stroke-width:0.5;" width="135" x="1013.3777" y="1148"/><text fill="#000000" font-family="sans-serif" font-size="14" lengthAdjust="spacing" textLength="129" x="1016.3777" y="1168.1074">AdvertisementLease</text><line style="stroke:#181818;stroke-width:0.5;" x1="1014.3777" x2="1147.3777" y1="1176.6211" y2="1176.6211"/><text fill="#000000" font-family="sans-serif" font-size="14" lengthAdjust="spacing" textLength="121" x="1019.3777" y="1195.7285">durationOfContract</text><text fill="#000000" font-family="sans-serif" font-size="14" lengthAdjust="spacing" textLength="68" x="1019.3777" y="1214.3496">rentalPrice</text></g><!--class AdvertisementType--><g id="elem_AdvertisementType"><rect codeLine="52" fill="#F1F1F1" height="55.2422" id="AdvertisementType" rx="2.5" ry="2.5" style="stroke:#181818;stroke-width:0.5;" width="128" x="690.8777" y="1157.5"/><text fill="#000000" font-family="sans-serif" font-size="14" lengthAdjust="spacing" textLength="122" x="693.8777" y="1177.6074">AdvertisementType</text><line style="stroke:#181818;stroke-width:0.5;" x1="691.8777" x2="817.8777" y1="1186.1211" y2="1186.1211"/><text fill="#000000" font-family="sans-serif" font-size="14" lengthAdjust="spacing" textLength="73" x="696.8777" y="1205.2285">designation</text></g><!--class PropertyType--><g id="elem_PropertyType"><rect codeLine="56" fill="#F1F1F1" height="55.2422" id="PropertyType" rx="2.5" ry="2.5" style="stroke:#181818;stroke-width:0.5;" width="92" x="401.8777" y="558.5"/><text fill="#000000" font-family="sans-serif" font-size="14" lengthAdjust="spacing" textLength="86" x="404.8777" y="578.6074">PropertyType</text><line style="stroke:#181818;stroke-width:0.5;" x1="402.8777" x2="492.8777" y1="587.1211" y2="587.1211"/><text fill="#000000" font-family="sans-serif" font-size="14" lengthAdjust="spacing" textLength="73" x="407.8777" y="606.2285">designation</text></g><!--class Property--><g id="elem_Property"><rect codeLine="60" fill="#F1F1F1" height="129.7266" id="Property" rx="2.5" ry="2.5" style="stroke:#181818;stroke-width:0.5;" width="132" x="190.8777" y="730"/><text fill="#000000" font-family="sans-serif" font-size="14" lengthAdjust="spacing" textLength="54" x="229.8777" y="750.1074">Property</text><line style="stroke:#181818;stroke-width:0.5;" x1="191.8777" x2="321.8777" y1="758.6211" y2="758.6211"/><text fill="#000000" font-family="sans-serif" font-size="14" lengthAdjust="spacing" textLength="83" x="196.8777" y="777.7285">areaProperty</text><text fill="#000000" font-family="sans-serif" font-size="14" lengthAdjust="spacing" textLength="120" x="196.8777" y="796.3496">distanceCityCenter</text><text fill="#000000" font-family="sans-serif" font-size="14" lengthAdjust="spacing" textLength="111" x="196.8777" y="814.9707">conditionProperty</text><text fill="#000000" font-family="sans-serif" font-size="14" lengthAdjust="spacing" textLength="43" x="196.8777" y="833.5918">photos</text><text fill="#000000" font-family="sans-serif" font-size="14" lengthAdjust="spacing" textLength="87" x="196.8777" y="852.2129">propertyCode</text></g><!--class House--><g id="elem_House"><rect codeLine="68" fill="#F1F1F1" height="92.4844" id="House" rx="2.5" ry="2.5" style="stroke:#181818;stroke-width:0.5;" width="94" x="114.8777" y="350"/><text fill="#000000" font-family="sans-serif" font-size="14" lengthAdjust="spacing" textLength="40" x="141.8777" y="370.1074">House</text><line style="stroke:#181818;stroke-width:0.5;" x1="115.8777" x2="207.8777" y1="378.6211" y2="378.6211"/><text fill="#000000" font-family="sans-serif" font-size="14" lengthAdjust="spacing" textLength="62" x="120.8777" y="397.7285">basement</text><text fill="#000000" font-family="sans-serif" font-size="14" lengthAdjust="spacing" textLength="19" x="120.8777" y="416.3496">loft</text><text fill="#000000" font-family="sans-serif" font-size="14" lengthAdjust="spacing" textLength="82" x="120.8777" y="434.9707">sunExposure</text></g><!--class Building--><g id="elem_Building"><rect codeLine="74" fill="#F1F1F1" height="111.1055" id="Building" rx="2.5" ry="2.5" style="stroke:#181818;stroke-width:0.5;" width="135" x="94.3777" y="530.5"/><text fill="#000000" font-family="sans-serif" font-size="14" lengthAdjust="spacing" textLength="50" x="136.8777" y="550.6074">Building</text><line style="stroke:#181818;stroke-width:0.5;" x1="95.3777" x2="228.3777" y1="559.1211" y2="559.1211"/><text fill="#000000" font-family="sans-serif" font-size="14" lengthAdjust="spacing" textLength="112" x="100.3777" y="578.2285">numberBedrooms</text><text fill="#000000" font-family="sans-serif" font-size="14" lengthAdjust="spacing" textLength="116" x="100.3777" y="596.8496">numberBathrooms</text><text fill="#000000" font-family="sans-serif" font-size="14" lengthAdjust="spacing" textLength="96" x="100.3777" y="615.4707">numberParking</text><text fill="#000000" font-family="sans-serif" font-size="14" lengthAdjust="spacing" textLength="123" x="100.3777" y="634.0918">availableEquipment</text></g><!--class Store--><g id="elem_Store"><rect codeLine="82" fill="#F1F1F1" height="111.1055" id="Store" rx="2.5" ry="2.5" style="stroke:#181818;stroke-width:0.5;" width="92" x="774.8777" y="530.5"/><text fill="#000000" font-family="sans-serif" font-size="14" lengthAdjust="spacing" textLength="34" x="803.8777" y="550.6074">Store</text><line style="stroke:#181818;stroke-width:0.5;" x1="775.8777" x2="865.8777" y1="559.1211" y2="559.1211"/><text fill="#000000" font-family="sans-serif" font-size="14" lengthAdjust="spacing" textLength="71" x="780.8777" y="578.2285">idCodStore</text><text fill="#000000" font-family="sans-serif" font-size="14" lengthAdjust="spacing" textLength="69" x="780.8777" y="596.8496">nameStore</text><text fill="#000000" font-family="sans-serif" font-size="14" lengthAdjust="spacing" textLength="67" x="780.8777" y="615.4707">emailStore</text><text fill="#000000" font-family="sans-serif" font-size="14" lengthAdjust="spacing" textLength="80" x="780.8777" y="634.0918">contactStore</text></g><!--class Visit--><g id="elem_Visit"><rect codeLine="89" fill="#F1F1F1" height="73.8633" id="Visit" rx="2.5" ry="2.5" style="stroke:#181818;stroke-width:0.5;" width="50" x="473.8777" y="1148"/><text fill="#000000" font-family="sans-serif" font-size="14" lengthAdjust="spacing" textLength="26" x="485.8777" y="1168.1074">Visit</text><line style="stroke:#181818;stroke-width:0.5;" x1="474.8777" x2="522.8777" y1="1176.6211" y2="1176.6211"/><text fill="#000000" font-family="sans-serif" font-size="14" lengthAdjust="spacing" textLength="37" x="479.8777" y="1195.7285">idVisit</text><text fill="#000000" font-family="sans-serif" font-size="14" lengthAdjust="spacing" textLength="38" x="479.8777" y="1214.3496">report</text></g><!--class Location--><g id="elem_Location"><rect codeLine="94" fill="#F1F1F1" height="129.7266" id="Location" rx="2.5" ry="2.5" style="stroke:#181818;stroke-width:0.5;" width="63" x="139.3777" y="939"/><text fill="#000000" font-family="sans-serif" font-size="14" lengthAdjust="spacing" textLength="54" x="143.8777" y="959.1074">Location</text><line style="stroke:#181818;stroke-width:0.5;" x1="140.3777" x2="201.3777" y1="967.6211" y2="967.6211"/><text fill="#000000" font-family="sans-serif" font-size="14" lengthAdjust="spacing" textLength="36" x="145.3777" y="986.7285">street</text><text fill="#000000" font-family="sans-serif" font-size="14" lengthAdjust="spacing" textLength="51" x="145.3777" y="1005.3496">zipCode</text><text fill="#000000" font-family="sans-serif" font-size="14" lengthAdjust="spacing" textLength="49" x="145.3777" y="1023.9707">stateUS</text><text fill="#000000" font-family="sans-serif" font-size="14" lengthAdjust="spacing" textLength="21" x="145.3777" y="1042.5918">city</text><text fill="#000000" font-family="sans-serif" font-size="14" lengthAdjust="spacing" textLength="41" x="145.3777" y="1061.2129">district</text></g><!--class StoreManager--><g id="elem_StoreManager"><rect codeLine="102" fill="#F1F1F1" height="36.6211" id="StoreManager" rx="2.5" ry="2.5" style="stroke:#181818;stroke-width:0.5;" width="96" x="621.8777" y="377.5"/><text fill="#000000" font-family="sans-serif" font-size="14" lengthAdjust="spacing" textLength="90" x="624.8777" y="397.6074">StoreManager</text><line style="stroke:#181818;stroke-width:0.5;" x1="622.8777" x2="716.8777" y1="406.1211" y2="406.1211"/></g><!--class StoreNetworkManager--><g id="elem_StoreNetworkManager"><rect codeLine="105" fill="#F1F1F1" height="36.6211" id="StoreNetworkManager" rx="2.5" ry="2.5" style="stroke:#181818;stroke-width:0.5;" width="146" x="923.8777" y="377.5"/><text fill="#000000" font-family="sans-serif" font-size="14" lengthAdjust="spacing" textLength="140" x="926.8777" y="397.6074">StoreNetworkManager</text><line style="stroke:#181818;stroke-width:0.5;" x1="924.8777" x2="1068.8777" y1="406.1211" y2="406.1211"/></g><!--class Offer--><g id="elem_Offer"><rect codeLine="108" fill="#F1F1F1" height="73.8633" id="Offer" rx="2.5" ry="2.5" style="stroke:#181818;stroke-width:0.5;" width="55" x="578.3777" y="1148"/><text fill="#000000" font-family="sans-serif" font-size="14" lengthAdjust="spacing" textLength="32" x="589.8777" y="1168.1074">Offer</text><line style="stroke:#181818;stroke-width:0.5;" x1="579.3777" x2="632.3777" y1="1176.6211" y2="1176.6211"/><text fill="#000000" font-family="sans-serif" font-size="14" lengthAdjust="spacing" textLength="43" x="584.3777" y="1195.7285">idOffer</text><text fill="#000000" font-family="sans-serif" font-size="14" lengthAdjust="spacing" textLength="29" x="584.3777" y="1214.3496">offer</text></g><!--class SystemAdministrator--><g id="elem_SystemAdministrator"><rect codeLine="113" fill="#F1F1F1" height="36.6211" id="SystemAdministrator" rx="2.5" ry="2.5" style="stroke:#181818;stroke-width:0.5;" width="135" x="753.3777" y="377.5"/><text fill="#000000" font-family="sans-serif" font-size="14" lengthAdjust="spacing" textLength="129" x="756.3777" y="397.6074">SystemAdministrator</text><line style="stroke:#181818;stroke-width:0.5;" x1="754.3777" x2="887.3777" y1="406.1211" y2="406.1211"/></g><!--class UnregisteredUser--><g id="elem_UnregisteredUser"><rect codeLine="116" fill="#F1F1F1" height="36.6211" id="UnregisteredUser" rx="2.5" ry="2.5" style="stroke:#181818;stroke-width:0.5;" width="116" x="1159.8777" y="776.5"/><text fill="#000000" font-family="sans-serif" font-size="14" lengthAdjust="spacing" textLength="110" x="1162.8777" y="796.6074">UnregisteredUser</text><line style="stroke:#181818;stroke-width:0.5;" x1="1160.8777" x2="1274.8777" y1="805.1211" y2="805.1211"/></g><!--class Company--><g id="elem_Company"><rect codeLine="118" fill="#F1F1F1" height="55.2422" id="Company" rx="2.5" ry="2.5" style="stroke:#181818;stroke-width:0.5;" width="85" x="854.3777" y="7"/><text fill="#000000" font-family="sans-serif" font-size="14" lengthAdjust="spacing" textLength="60" x="866.8777" y="27.1074">Company</text><line style="stroke:#181818;stroke-width:0.5;" x1="855.3777" x2="938.3777" y1="35.6211" y2="35.6211"/><text fill="#000000" font-family="sans-serif" font-size="14" lengthAdjust="spacing" textLength="73" x="860.3777" y="54.7285">designation</text></g><!--link Owner to Property--><g id="link_Owner_Property"><path codeLine="123" d="M297.6177,651.08 C290.4777,676.13 282.2977,704.81 275.1577,729.87 " fill="none" id="Owner-Property" style="stroke:#181818;stroke-width:1.0;"/><polygon fill="#000000" points="291.507,695.454,296.8129,687.5611,291.1603,685.9497,291.507,695.454" style="stroke:#000000;stroke-width:1.0;"/><text fill="#000000" font-family="sans-serif" font-size="13" lengthAdjust="spacing" textLength="30" x="301.8777" y="696.0283">owns</text><text fill="#000000" font-family="sans-serif" font-size="13" lengthAdjust="spacing" textLength="7" x="288.3737" y="672.7254">1</text><text fill="#000000" font-family="sans-serif" font-size="13" lengthAdjust="spacing" textLength="20" x="256.0633" y="718.8759">1..*</text></g><!--link Agent to Advertisement--><g id="link_Agent_Advertisement"><path codeLine="124" d="M794.8677,813.76 C789.3377,836.83 782.9477,877.82 796.8777,909 C802.4977,921.56 823.4477,941.24 845.1777,959.35 " fill="none" id="Agent-Advertisement" style="stroke:#181818;stroke-width:1.0;"/><polygon fill="#000000" points="803.5107,904.3713,803.3343,894.8624,797.7788,896.7821,803.5107,904.3713" style="stroke:#000000;stroke-width:1.0;"/><text fill="#000000" font-family="sans-serif" font-size="13" lengthAdjust="spacing" textLength="223" x="810.8777" y="905.0283">publishes, validates and is in charge of</text><text fill="#000000" font-family="sans-serif" font-size="13" lengthAdjust="spacing" textLength="7" x="785.5806" y="835.2045">1</text><text fill="#000000" font-family="sans-serif" font-size="13" lengthAdjust="spacing" textLength="5" x="832.6439" y="944.1088">*</text></g><!--link House to Building--><g id="link_House_Building"><path codeLine="125" d="M161.8777,442.03 C161.8777,462.43 161.8777,487.09 161.8777,510.15 " fill="none" id="House-to-Building" style="stroke:#181818;stroke-width:1.0;"/><polygon fill="none" points="168.8777,510.28,161.8777,530.28,154.8777,510.28,168.8777,510.28" style="stroke:#181818;stroke-width:1.0;"/></g><!--link Building to Property--><g id="link_Building_Property"><path codeLine="127" d="M186.9577,641.66 C196.7677,663.02 208.2177,687.98 218.9877,711.44 " fill="none" id="Building-to-Property" style="stroke:#181818;stroke-width:1.0;"/><polygon fill="none" points="225.4477,708.74,227.4277,729.84,212.7277,714.58,225.4477,708.74" style="stroke:#181818;stroke-width:1.0;"/></g><!--link Store to Agent--><g id="link_Store_Agent"><path codeLine="128" d="M815.3377,641.66 C810.8077,686.22 804.6977,746.45 801.6977,776.05 " fill="none" id="Store-Agent" style="stroke:#181818;stroke-width:1.0;"/><polygon fill="#000000" points="816.3826,685.6711,812.5453,694.3732,818.3931,694.9667,816.3826,685.6711" style="stroke:#000000;stroke-width:1.0;"/><text fill="#000000" font-family="sans-serif" font-size="13" lengthAdjust="spacing" textLength="34" x="824.8777" y="696.0283">works</text><text fill="#000000" font-family="sans-serif" font-size="13" lengthAdjust="spacing" textLength="7" x="807.2359" y="663.5191">1</text><text fill="#000000" font-family="sans-serif" font-size="13" lengthAdjust="spacing" textLength="5" x="796.4979" y="765.1133">*</text></g><!--link StoreManager to Store--><g id="link_StoreManager_Store"><path codeLine="129" d="M684.0877,414.69 C705.1577,440.92 745.5877,491.26 777.0477,530.43 " fill="none" id="StoreManager-Store" style="stroke:#181818;stroke-width:1.0;"/><polygon fill="#000000" points="753.0087,485.5438,749.636,476.6514,745.0533,480.3321,753.0087,485.5438" style="stroke:#000000;stroke-width:1.0;"/><text fill="#000000" font-family="sans-serif" font-size="13" lengthAdjust="spacing" textLength="50" x="758.8777" y="487.0283">monitors</text><text fill="#000000" font-family="sans-serif" font-size="13" lengthAdjust="spacing" textLength="7" x="679.966" y="436.1157">1</text><text fill="#000000" font-family="sans-serif" font-size="13" lengthAdjust="spacing" textLength="7" x="763.9835" y="519.2612">1</text></g><!--link Property to Location--><g id="link_Property_Location"><path codeLine="130" d="M190.7677,852.76 C181.4277,864.08 173.1977,876.64 167.8777,890 C161.8177,905.22 160.0277,922.54 160.3677,938.96 " fill="none" id="Property-Location" style="stroke:#181818;stroke-width:1.0;"/><polygon fill="#000000" points="171.2147,904.3609,176.9946,896.8082,171.4514,894.8532,171.2147,904.3609" style="stroke:#000000;stroke-width:1.0;"/><text fill="#000000" font-family="sans-serif" font-size="13" lengthAdjust="spacing" textLength="30" x="181.8777" y="905.0283">owns</text><text fill="#000000" font-family="sans-serif" font-size="13" lengthAdjust="spacing" textLength="7" x="175.719" y="855.5166">1</text><text fill="#000000" font-family="sans-serif" font-size="13" lengthAdjust="spacing" textLength="7" x="151.7478" y="927.5179">1</text></g><!--link StoreNetworkManager to Store--><g id="link_StoreNetworkManager_Store"><path codeLine="131" d="M980.3177,414.69 C954.6477,442.11 904.3177,495.87 867.0477,535.69 " fill="none" id="StoreNetworkManager-Store" style="stroke:#181818;stroke-width:1.0;"/><polygon fill="#000000" points="925.4607,485.2957,933.7876,480.7009,929.4966,476.684,925.4607,485.2957" style="stroke:#000000;stroke-width:1.0;"/><text fill="#000000" font-family="sans-serif" font-size="13" lengthAdjust="spacing" textLength="52" x="937.8777" y="487.0283">analyzes</text><text fill="#000000" font-family="sans-serif" font-size="13" lengthAdjust="spacing" textLength="7" x="967.9265" y="436.1157">1</text><text fill="#000000" font-family="sans-serif" font-size="13" lengthAdjust="spacing" textLength="5" x="874.8045" y="523.3603">*</text></g><!--reverse link Employee to Agent--><g id="link_Employee_Agent"><path codeLine="132" d="M667.7677,260.93 C643.0877,285.25 617.9077,316.11 604.8777,350 C590.2077,388.17 594.4077,402.47 604.8777,442 C642.5777,584.39 700.2877,599.64 768.8777,730 C777.0377,745.51 785.6877,763.51 791.7677,776.46 " fill="none" id="Employee-backto-Agent" style="stroke:#181818;stroke-width:1.0;"/><polygon fill="none" points="663.1877,255.64,682.5577,247.04,672.7777,265.84,663.1877,255.64" style="stroke:#181818;stroke-width:1.0;"/></g><!--reverse link Employee to StoreManager--><g id="link_Employee_StoreManager"><path codeLine="133" d="M698.8077,289.84 C697.4377,293.6 696.1177,297.33 694.8777,301 C685.9877,327.23 678.2277,358.43 673.7977,377.47 " fill="none" id="Employee-backto-StoreManager" style="stroke:#181818;stroke-width:1.0;"/><polygon fill="none" points="692.3077,287.23,705.9777,271.04,705.3877,292.22,692.3077,287.23" style="stroke:#181818;stroke-width:1.0;"/></g><!--reverse link Employee to StoreNetworkManager--><g id="link_Employee_StoreNetworkManager"><path codeLine="134" d="M801.5177,255.35 C857.3677,295.28 933.5277,349.71 972.1877,377.35 " fill="none" id="Employee-backto-StoreNetworkManager" style="stroke:#181818;stroke-width:1.0;"/><polygon fill="none" points="797.0977,260.8,784.8977,243.47,805.2377,249.41,797.0977,260.8" style="stroke:#181818;stroke-width:1.0;"/></g><!--link Advertisement to Offer--><g id="link_Advertisement_Offer"><path codeLine="135" d="M845.0377,1051.62 C836.2077,1057.88 826.9877,1063.89 817.8777,1069 C785.8477,1086.97 773.6777,1082.47 740.8777,1099 C702.0477,1118.57 660.0677,1146.1 633.4077,1164.47 " fill="none" id="Advertisement-Offer" style="stroke:#181818;stroke-width:1.0;"/><polygon fill="#000000" points="741.4657,1110.9981,750.8298,1109.3355,748.0642,1104.1489,741.4657,1110.9981" style="stroke:#000000;stroke-width:1.0;"/><text fill="#000000" font-family="sans-serif" font-size="13" lengthAdjust="spacing" textLength="47" x="754.8777" y="1114.0283">receives</text><text fill="#000000" font-family="sans-serif" font-size="13" lengthAdjust="spacing" textLength="7" x="830.3066" y="1072.8506">1</text><text fill="#000000" font-family="sans-serif" font-size="13" lengthAdjust="spacing" textLength="5" x="641.4782" y="1153.754">*</text></g><!--link Client to Offer--><g id="link_Client_Offer"><path codeLine="136" d="M523.1477,860.09 C524.0577,916.2 529.1777,999.39 548.8777,1069 C556.7377,1096.77 571.2277,1125.87 583.6377,1147.85 " fill="none" id="Client-Offer" style="stroke:#181818;stroke-width:1.0;"/><polygon fill="#000000" points="554.9062,1009.0386,555.9216,999.5824,550.1695,1000.7915,554.9062,1009.0386" style="stroke:#000000;stroke-width:1.0;"/><text fill="#000000" font-family="sans-serif" font-size="13" lengthAdjust="spacing" textLength="39" x="562.8777" y="1009.5283">makes</text><text fill="#000000" font-family="sans-serif" font-size="13" lengthAdjust="spacing" textLength="7" x="515.7115" y="881.7364">1</text><text fill="#000000" font-family="sans-serif" font-size="13" lengthAdjust="spacing" textLength="5" x="574.2309" y="1136.785">*</text></g><!--link Store to Location--><g id="link_Store_Location"><path codeLine="137" d="M774.5777,592.12 C692.4577,603.39 519.7077,637.17 410.8777,730 C360.9477,772.59 390.3077,816.84 340.8777,860 C312.2777,884.98 291.5977,867.67 260.8777,890 C238.0577,906.59 217.9077,930.42 202.4977,951.92 " fill="none" id="Store-Location" style="stroke:#181818;stroke-width:1.0;"/><polygon fill="#000000" points="411.6452,797.8075,420.8665,795.4797,417.7372,790.5041,411.6452,797.8075" style="stroke:#000000;stroke-width:1.0;"/><text fill="#000000" font-family="sans-serif" font-size="13" lengthAdjust="spacing" textLength="30" x="424.8777" y="800.5283">owns</text><text fill="#000000" font-family="sans-serif" font-size="13" lengthAdjust="spacing" textLength="7" x="759.952" y="588.7981">1</text><text fill="#000000" font-family="sans-serif" font-size="13" lengthAdjust="spacing" textLength="7" x="210.1802" y="935.7582">1</text></g><!--link Advertisement to Visit--><g id="link_Advertisement_Visit"><path codeLine="138" d="M844.9177,1053.9 C836.2477,1059.67 827.1077,1064.94 817.8777,1069 C748.8477,1099.36 722.0177,1073.98 650.8777,1099 C607.9177,1114.11 600.5777,1125.67 560.8777,1148 C548.7277,1154.83 535.3377,1162.58 524.1277,1169.13 " fill="none" id="Advertisement-Visit" style="stroke:#181818;stroke-width:1.0;"/><polygon fill="#000000" points="651.172,1110.3358,660.6781,1110.0439,658.6911,1104.5121,651.172,1110.3358" style="stroke:#000000;stroke-width:1.0;"/><text fill="#000000" font-family="sans-serif" font-size="13" lengthAdjust="spacing" textLength="32" x="664.8777" y="1114.0283">hosts</text><text fill="#000000" font-family="sans-serif" font-size="13" lengthAdjust="spacing" textLength="7" x="830.5491" y="1055.9853">1</text><text fill="#000000" font-family="sans-serif" font-size="13" lengthAdjust="spacing" textLength="5" x="531.9324" y="1159.3644">*</text></g><!--link Client to Visit--><g id="link_Client_Visit"><path codeLine="139" d="M493.7177,860.22 C484.0177,877.17 472.2577,894.71 458.8777,909 C442.4477,926.55 425.2177,917.81 413.8777,939 C386.6177,989.94 395.7977,1014.12 413.8777,1069 C425.6077,1104.61 453.0777,1138.22 473.6277,1159.8 " fill="none" id="Client-Visit" style="stroke:#181818;stroke-width:1.0;"/><polygon fill="#000000" points="418.5431,1009.1343,422.0807,1000.3061,416.216,999.9128,418.5431,1009.1343" style="stroke:#000000;stroke-width:1.0;"/><text fill="#000000" font-family="sans-serif" font-size="13" lengthAdjust="spacing" textLength="50" x="427.8777" y="1009.5283">requests</text><text fill="#000000" font-family="sans-serif" font-size="13" lengthAdjust="spacing" textLength="7" x="483.2465" y="881.8798">1</text><text fill="#000000" font-family="sans-serif" font-size="13" lengthAdjust="spacing" textLength="5" x="460.823" y="1147.4103">*</text></g><!--link Agent to Visit--><g id="link_Agent_Visit"><path codeLine="140" d="M790.9077,813.74 C782.5477,828.42 768.6977,848.65 750.8777,860 C698.6777,893.26 654.7177,842.63 614.8777,890 C602.0677,905.24 614.6177,1050.66 606.8777,1069 C589.4177,1110.38 549.9977,1145.94 523.9277,1166.15 " fill="none" id="Agent-Visit" style="stroke:#181818;stroke-width:1.0;"/><polygon fill="#000000" points="610.8584,1008.131,618.6629,1002.6959,613.9778,999.1465,610.8584,1008.131" style="stroke:#000000;stroke-width:1.0;"/><text fill="#000000" font-family="sans-serif" font-size="13" lengthAdjust="spacing" textLength="149" x="622.8777" y="1009.5283">schedules and carries out</text><text fill="#000000" font-family="sans-serif" font-size="13" lengthAdjust="spacing" textLength="7" x="789.4376" y="835.1791">1</text><text fill="#000000" font-family="sans-serif" font-size="13" lengthAdjust="spacing" textLength="5" x="532.0205" y="1177.2008">*</text></g><!--link Property to Advertisement--><g id="link_Property_Advertisement"><path codeLine="141" d="M323.0777,845.48 C331.8377,850.84 340.8977,855.85 349.8777,860 C425.9177,895.14 449.5177,893.69 531.8777,909 C657.5377,932.35 699.0777,891.86 817.8777,939 C827.2477,942.72 836.4777,947.79 845.1777,953.47 " fill="none" id="Property-Advertisement" style="stroke:#181818;stroke-width:1.0;"/><polygon fill="#000000" points="531.9813,898.6328,540.2436,903.3428,541.4342,897.5868,531.9813,898.6328" style="stroke:#000000;stroke-width:1.0;"/><text fill="#000000" font-family="sans-serif" font-size="13" lengthAdjust="spacing" textLength="61" x="545.8777" y="905.0283">represents</text><text fill="#000000" font-family="sans-serif" font-size="13" lengthAdjust="spacing" textLength="7" x="330.7011" y="847.1308">1</text><text fill="#000000" font-family="sans-serif" font-size="13" lengthAdjust="spacing" textLength="7" x="830.4645" y="942.947">1</text></g><!--link Client to Location--><g id="link_Client_Location"><path codeLine="142" d="M472.5677,843.85 C464.0977,850.01 455.0677,855.66 445.8777,860 C383.6077,889.39 355.2977,858.88 293.8777,890 C258.1777,908.09 225.2277,939.51 202.4277,964.64 " fill="none" id="Client-Location" style="stroke:#181818;stroke-width:1.0;"/><polygon fill="#000000" points="294.3132,901.6865,303.7701,900.6773,301.3708,895.3114,294.3132,901.6865" style="stroke:#000000;stroke-width:1.0;"/><text fill="#000000" font-family="sans-serif" font-size="13" lengthAdjust="spacing" textLength="30" x="307.8777" y="905.0283">owns</text><text fill="#000000" font-family="sans-serif" font-size="13" lengthAdjust="spacing" textLength="7" x="457.86" y="846.5922">1</text><text fill="#000000" font-family="sans-serif" font-size="13" lengthAdjust="spacing" textLength="7" x="210.533" y="971.5972">1</text></g><!--link Employee to Location--><g id="link_Employee_Location"><path codeLine="143" d="M682.6777,209.33 C518.1877,218.18 13.8777,256.6 13.8777,395 C13.8777,395 13.8777,395 13.8777,796 C13.8777,878.09 93.2277,948.08 139.1077,981.69 " fill="none" id="Employee-Location" style="stroke:#181818;stroke-width:1.0;"/><polygon fill="#000000" points="16,590.2344,23.6091,584.529,18.8024,581.1461,16,590.2344" style="stroke:#000000;stroke-width:1.0;"/><text fill="#000000" font-family="sans-serif" font-size="13" lengthAdjust="spacing" textLength="30" x="27.8777" y="591.5283">owns</text><text fill="#000000" font-family="sans-serif" font-size="13" lengthAdjust="spacing" textLength="7" x="667.9855" y="205.671">1</text><text fill="#000000" font-family="sans-serif" font-size="13" lengthAdjust="spacing" textLength="7" x="124.3924" y="972.0404">1</text></g><!--link Owner to Location--><g id="link_Owner_Location"><path codeLine="144" d="M264.6677,636.13 C258.7777,641.29 252.7777,646.34 246.8777,651 C197.3677,690.14 158.6077,674.33 128.8777,730 C94.0377,795.25 116.4277,880.98 139.7377,938.82 " fill="none" id="Owner-Location" style="stroke:#181818;stroke-width:1.0;"/><polygon fill="#000000" points="131.9701,799.7673,138.1376,792.5276,132.7043,790.2851,131.9701,799.7673" style="stroke:#000000;stroke-width:1.0;"/><text fill="#000000" font-family="sans-serif" font-size="13" lengthAdjust="spacing" textLength="30" x="142.8777" y="800.5283">owns</text><text fill="#000000" font-family="sans-serif" font-size="13" lengthAdjust="spacing" textLength="7" x="249.9741" y="639.0522">1</text><text fill="#000000" font-family="sans-serif" font-size="13" lengthAdjust="spacing" textLength="7" x="128.9489" y="927.8204">1</text></g><!--link Store to Advertisement--><g id="link_Store_Advertisement"><path codeLine="145" d="M867.1777,631.59 C920.5377,686.52 1005.1777,785.45 1038.8777,890 C1053.2577,934.6 1002.2577,966.08 958.4577,984.29 " fill="none" id="Store-Advertisement" style="stroke:#181818;stroke-width:1.0;"/><polygon fill="#000000" points="1033.1304,799.986,1033.7094,790.4931,1028.019,791.9658,1033.1304,799.986" style="stroke:#000000;stroke-width:1.0;"/><text fill="#000000" font-family="sans-serif" font-size="13" lengthAdjust="spacing" textLength="49" x="1040.8777" y="800.5283">contains</text><text fill="#000000" font-family="sans-serif" font-size="13" lengthAdjust="spacing" textLength="7" x="874.8033" y="634.3119">1</text><text fill="#000000" font-family="sans-serif" font-size="13" lengthAdjust="spacing" textLength="5" x="966.3965" y="996.8244">*</text></g><!--link UnregisteredUser to Advertisement--><g id="link_UnregisteredUser_Advertisement"><path codeLine="146" d="M1200.3577,813.58 C1176.2277,837.18 1130.7777,879.55 1086.8777,909 C1046.0377,936.4 996.1577,961.3 958.4777,978.58 " fill="none" id="UnregisteredUser-Advertisement" style="stroke:#181818;stroke-width:1.0;"/><polygon fill="#000000" points="1110.7472,902.4631,1119.8755,899.7938,1116.5631,894.9382,1110.7472,902.4631" style="stroke:#000000;stroke-width:1.0;"/><text fill="#000000" font-family="sans-serif" font-size="13" lengthAdjust="spacing" textLength="53" x="1123.8777" y="905.0283">searches</text><text fill="#000000" font-family="sans-serif" font-size="13" lengthAdjust="spacing" textLength="7" x="1187.4458" y="835.3188">1</text><text fill="#000000" font-family="sans-serif" font-size="13" lengthAdjust="spacing" textLength="5" x="966.4192" y="971.0628">*</text></g><!--link SystemAdministrator to Store--><g id="link_SystemAdministrator_Store"><path codeLine="147" d="M820.8777,414.69 C820.8777,440.92 820.8777,491.26 820.8777,530.43 " fill="none" id="SystemAdministrator-Store" style="stroke:#181818;stroke-width:1.0;"/><polygon fill="#000000" points="825.8777,486.6455,828.8166,477.6004,822.9387,477.6004,825.8777,486.6455" style="stroke:#000000;stroke-width:1.0;"/><text fill="#000000" font-family="sans-serif" font-size="13" lengthAdjust="spacing" textLength="43" x="834.8777" y="487.0283">creates</text><text fill="#000000" font-family="sans-serif" font-size="13" lengthAdjust="spacing" textLength="7" x="812.937" y="436.1157">1</text><text fill="#000000" font-family="sans-serif" font-size="13" lengthAdjust="spacing" textLength="5" x="815.5574" y="519.2612">*</text></g><!--link SystemAdministrator to Employee--><g id="link_SystemAdministrator_Employee"><path codeLine="148" d="M787.3677,377.24 C766.9177,364.36 742.5277,344.87 730.8777,320 C723.8877,305.07 721.8077,287.77 722.1677,271.27 " fill="none" id="SystemAdministrator-Employee" style="stroke:#181818;stroke-width:1.0;"/><polygon fill="#000000" points="733.2575,306.387,735.4943,315.6308,740.5005,312.5506,733.2575,306.387" style="stroke:#000000;stroke-width:1.0;"/><text fill="#000000" font-family="sans-serif" font-size="13" lengthAdjust="spacing" textLength="43" x="744.8777" y="316.0283">creates</text><text fill="#000000" font-family="sans-serif" font-size="13" lengthAdjust="spacing" textLength="7" x="769.496" y="366.3591">1</text><text fill="#000000" font-family="sans-serif" font-size="13" lengthAdjust="spacing" textLength="5" x="715.7023" y="292.935">*</text></g><!--reverse link Employee to SystemAdministrator--><g id="link_Employee_SystemAdministrator"><path codeLine="150" d="M787.0077,288.85 C789.0877,292.91 791.0577,296.97 792.8777,301 C804.3877,326.44 812.6477,357.86 817.0877,377.16 " fill="none" id="Employee-backto-SystemAdministrator" style="stroke:#181818;stroke-width:1.0;"/><polygon fill="none" points="780.8177,292.12,777.3477,271.22,793.0977,285.39,780.8177,292.12" style="stroke:#181818;stroke-width:1.0;"/></g><!--link Client to Advertisement--><g id="link_Client_Advertisement"><path codeLine="149" d="M574.9577,854.66 C595.6277,874.89 620.9577,895.77 647.8777,909 C716.7277,942.84 747.5977,908.22 817.8777,939 C827.1177,943.05 836.2577,948.31 844.9277,954.08 " fill="none" id="Client-Advertisement" style="stroke:#181818;stroke-width:1.0;"/><polygon fill="#000000" points="657.5696,901.3734,650.0974,895.4898,648.0662,901.0055,657.5696,901.3734" style="stroke:#000000;stroke-width:1.0;"/><text fill="#000000" font-family="sans-serif" font-size="13" lengthAdjust="spacing" textLength="53" x="661.8777" y="905.0283">searches</text><text fill="#000000" font-family="sans-serif" font-size="13" lengthAdjust="spacing" textLength="5" x="582.8272" y="859.2439">*</text><text fill="#000000" font-family="sans-serif" font-size="13" lengthAdjust="spacing" textLength="5" x="832.3106" y="962.8133">*</text></g><!--link Owner to Advertisement--><g id="link_Owner_Advertisement"><path codeLine="151" d="M366.8977,638.18 C372.7177,642.83 378.7677,647.21 384.8777,651 C468.8977,703.14 518.5277,664.8 592.8777,730 C642.2177,773.27 616.2577,813.82 662.8777,860 C683.2177,880.15 695.0377,875.77 719.8777,890 C762.4777,914.4 809.5377,943.68 845.1277,966.32 " fill="none" id="Owner-Advertisement" style="stroke:#181818;stroke-width:1.0;"/><polygon fill="#000000" points="672.0005,797.9744,666.205,790.4336,662.8795,795.2802,672.0005,797.9744" style="stroke:#000000;stroke-width:1.0;"/><text fill="#000000" font-family="sans-serif" font-size="13" lengthAdjust="spacing" textLength="83" x="676.8777" y="800.5283">asks to create</text><text fill="#000000" font-family="sans-serif" font-size="13" lengthAdjust="spacing" textLength="7" x="374.9053" y="641.6653">1</text><text fill="#000000" font-family="sans-serif" font-size="13" lengthAdjust="spacing" textLength="5" x="832.5363" y="976.6215">*</text></g><!--link PropertyType to Property--><g id="link_PropertyType_Property"><path codeLine="152" d="M423.2977,613.64 C396.3977,642.79 352.2977,690.59 316.2477,729.66 " fill="none" id="PropertyType-Property" style="stroke:#181818;stroke-width:1.0;"/><polygon fill="#000000" points="366.2683,686.9708,357.9746,691.6255,362.2946,695.6114,366.2683,686.9708" style="stroke:#000000;stroke-width:1.0;"/><text fill="#000000" font-family="sans-serif" font-size="13" lengthAdjust="spacing" textLength="49" x="371.8777" y="696.0283">contains</text><text fill="#000000" font-family="sans-serif" font-size="13" lengthAdjust="spacing" textLength="7" x="410.1552" y="635.5793">1</text><text fill="#000000" font-family="sans-serif" font-size="13" lengthAdjust="spacing" textLength="5" x="317.4678" y="718.6429">*</text></g><!--reverse link Advertisement to AdvertisementSale--><g id="link_Advertisement_AdvertisementSale"><path codeLine="153" d="M907.7177,1079.66 C909.8677,1107.13 912.1677,1136.52 913.7777,1157.09 " fill="none" id="Advertisement-backto-AdvertisementSale" style="stroke:#181818;stroke-width:1.0;"/><polygon fill="none" points="900.7377,1080.16,906.1577,1059.68,914.6877,1079.07,900.7377,1080.16" style="stroke:#181818;stroke-width:1.0;"/></g><!--reverse link Advertisement to AdvertisementLease--><g id="link_Advertisement_AdvertisementLease"><path codeLine="154" d="M971.0177,1074.14 C996.1177,1099.24 1023.4777,1126.6 1044.6177,1147.74 " fill="none" id="Advertisement-backto-AdvertisementLease" style="stroke:#181818;stroke-width:1.0;"/><polygon fill="none" points="965.7477,1078.77,956.5577,1059.68,975.6477,1068.87,965.7477,1078.77" style="stroke:#181818;stroke-width:1.0;"/></g><!--link Advertisement to AdvertisementType--><g id="link_Advertisement_AdvertisementType"><path codeLine="155" d="M856.9777,1059.68 C830.4577,1091.96 798.0677,1131.41 776.9777,1157.09 " fill="none" id="Advertisement-AdvertisementType" style="stroke:#181818;stroke-width:1.0;"/><polygon fill="#000000" points="825.7043,1112.5094,833.7161,1107.3848,829.1738,1103.6543,825.7043,1112.5094" style="stroke:#000000;stroke-width:1.0;"/><text fill="#000000" font-family="sans-serif" font-size="13" lengthAdjust="spacing" textLength="49" x="837.8777" y="1114.0283">contains</text><text fill="#000000" font-family="sans-serif" font-size="13" lengthAdjust="spacing" textLength="5" x="846.2008" y="1081.5416">*</text><text fill="#000000" font-family="sans-serif" font-size="13" lengthAdjust="spacing" textLength="7" x="774.0464" y="1146.159">1</text></g><!--link Company to Store--><g id="link_Company_Store"><path codeLine="156" d="M927.3377,62.05 C999.4677,128.24 1168.8077,305.06 1087.8777,442 C1040.3277,522.47 930.0877,560.13 867.1377,575.64 " fill="none" id="Company-Store" style="stroke:#181818;stroke-width:1.0;"/><polygon fill="#000000" points="1107.2956,315.6115,1111.2675,306.9701,1105.4296,306.2858,1107.2956,315.6115" style="stroke:#000000;stroke-width:1.0;"/><text fill="#000000" font-family="sans-serif" font-size="13" lengthAdjust="spacing" textLength="30" x="1116.8777" y="316.0283">owns</text><text fill="#000000" font-family="sans-serif" font-size="13" lengthAdjust="spacing" textLength="7" x="926.5722" y="84.4205">1</text><text fill="#000000" font-family="sans-serif" font-size="13" lengthAdjust="spacing" textLength="5" x="874.9088" y="569.6773">*</text></g><!--link Company to Employee--><g id="link_Company_Employee"><path codeLine="157" d="M854.2677,57.08 C838.2777,66.44 820.6677,78.39 806.8777,92 C792.4177,106.27 779.3577,123.9 768.4077,140.94 " fill="none" id="Company-Employee" style="stroke:#181818;stroke-width:1.0;"/><polygon fill="#000000" points="808.3007,105.1391,816.825,100.9216,812.718,96.7166,808.3007,105.1391" style="stroke:#000000;stroke-width:1.0;"/><text fill="#000000" font-family="sans-serif" font-size="13" lengthAdjust="spacing" textLength="49" x="820.8777" y="107.0283">employs</text><text fill="#000000" font-family="sans-serif" font-size="13" lengthAdjust="spacing" textLength="7" x="839.3425" y="56.5325">1</text><text fill="#000000" font-family="sans-serif" font-size="13" lengthAdjust="spacing" textLength="5" x="766.911" y="129.9536">*</text></g><!--link Company to SystemAdministrator--><g id="link_Company_SystemAdministrator"><path codeLine="158" d="M891.2277,62.23 C876.4677,132.04 837.0577,318.49 824.6577,377.1 " fill="none" id="Company-SystemAdministrator" style="stroke:#181818;stroke-width:1.0;"/><polygon fill="#000000" points="878.9119,201.2536,874.1656,209.4952,879.9163,210.711,878.9119,201.2536" style="stroke:#000000;stroke-width:1.0;"/><text fill="#000000" font-family="sans-serif" font-size="13" lengthAdjust="spacing" textLength="46" x="886.8777" y="211.5283">manage</text><text fill="#000000" font-family="sans-serif" font-size="13" lengthAdjust="spacing" textLength="7" x="882.2261" y="84.189">1</text><text fill="#000000" font-family="sans-serif" font-size="13" lengthAdjust="spacing" textLength="7" x="817.7399" y="366.178">1</text></g><!--SRC=[ZLLDJzmy4BxdLrXSAg4kgDSLgjIkaDv3Mv0elG_9R3B27wdjG9Us_xqJEt6SRE1T3knuydW-dnc_QxnltVRoifMWVQVaHMdKPId1kKr5K5jGXNiatG9BGXbjoiOQXSBR3hClBPIFKEETFqWK5aiFkfOvm3LGcMVIjTY3T5WqLA4eoPPoa1NwnbIkA8hWNLohLfe3ukz2y9y6XL7er0FQ7NbwGHqqdk8lAY0PfBOn6hy5OF5tjBUJXDgBXRaSUehvPExcMQCTh4sUJmXpDRXFDSUM3jKJMayErHImy-0x5qIgPe2WuwOfSevCz561nynu3hy3Rj1WayLRI-Lhq2y8RiHMdGNFvc_sEwEzXJBwjGm36OsyOkNxeKr6q56jWvq9V6jDo-X3Zpi15Y5W4KPDl4DS8LqYL_omOwz3EqkZA-eDpS3S0czYCTj1lpDLLeR_J9SoVu2ipjBie-0wVVshDQwpsRNF7ScAAVuxey1dhAmnokKgyCrITmkMHwMEoJqndU11ulNFZjhW-syQYpjlx50dgZZgS4xScqw1azEH2-6vQL6H0lv1ZlneB1o6hhR6-WdsnPIX6ucB5Z4YNwWDbHifYlTtqHrbVM5sPCP225z1yxRevsUk_uR-sTZ7bSyt-ptQCTHm2B89qcJau3ogJvKYtJi6jfdPkDSMQzQZnUhUyRrnDHZLWZwiig-8WtxsuKniDlnpSN5-biYu5UPPE_6n2FERG8oOZS1MjDs39DUWUo-UG58_dqw0hWGvGLgK3TWQEHas5RctsVpvcFXK5ACKzOdCeMOpjtLmrzVGYQjYLkkKmbcizLRq-vnOx3CORUQmiUyfpRKUPTv7i_n57bwmlp5kSN7rXq5npSrrUOnhd-RkYbbX9z-14Tl-vK5w2fxZlZz2A7Z4bCgKwr6gyoMS9Hd6P2iQu_paPWLWyMU74NF4ZW7YoWQhJWvKAC5QOjbq_gWVuV-2Kpob5XsBVQSNOQmrBzNsBT22xQznu0sgXqr30RgSjpTkEGJBrGWEZcTuXMGblm3-5FoOTdvbhDRv2U4iA7diBA_PcYrmF8lU3EwpreQNCOjqsYgfXbSB7iOfMhxd_miAB_cIqkUfnqVlzQoBmtPSwS70Y1N0L7GCqXgitqF7rTogCEYS-Jy0]--></g></svg>