<?xml version="1.0" encoding="us-ascii" standalone="no"?><svg xmlns="http://www.w3.org/2000/svg" xmlns:xlink="http://www.w3.org/1999/xlink" contentStyleType="text/css" height="1149px" preserveAspectRatio="none" style="width:1359px;height:1149px;background:#FFFFFF;" version="1.1" viewBox="0 0 1359 1149" width="1359px" zoomAndPan="magnify"><defs/><g><!--class Employee--><g id="elem_Employee"><rect codeLine="9" fill="#F1F1F1" height="129.7266" id="Employee" rx="2.5" ry="2.5" style="stroke:#181818;stroke-width:0.5;" width="102" x="668.49" y="7"/><text fill="#000000" font-family="sans-serif" font-size="14" lengthAdjust="spacing" textLength="62" x="688.49" y="27.1074">Employee</text><line style="stroke:#181818;stroke-width:0.5;" x1="669.49" x2="769.49" y1="35.6211" y2="35.6211"/><text fill="#000000" font-family="sans-serif" font-size="14" lengthAdjust="spacing" textLength="35" x="674.49" y="54.7285">name</text><text fill="#000000" font-family="sans-serif" font-size="14" lengthAdjust="spacing" textLength="90" x="674.49" y="73.3496">numberCitizen</text><text fill="#000000" font-family="sans-serif" font-size="14" lengthAdjust="spacing" textLength="15" x="674.49" y="91.9707">tin</text><text fill="#000000" font-family="sans-serif" font-size="14" lengthAdjust="spacing" textLength="33" x="674.49" y="110.5918">email</text><text fill="#000000" font-family="sans-serif" font-size="14" lengthAdjust="spacing" textLength="89" x="674.49" y="129.2129">phoneNumber</text></g><!--class Client--><g id="elem_Client"><rect codeLine="17" fill="#F1F1F1" height="129.7266" id="Client" rx="2.5" ry="2.5" style="stroke:#181818;stroke-width:0.5;" width="102" x="1144.49" y="558.5"/><text fill="#000000" font-family="sans-serif" font-size="14" lengthAdjust="spacing" textLength="36" x="1177.49" y="578.6074">Client</text><line style="stroke:#181818;stroke-width:0.5;" x1="1145.49" x2="1245.49" y1="587.1211" y2="587.1211"/><text fill="#000000" font-family="sans-serif" font-size="14" lengthAdjust="spacing" textLength="35" x="1150.49" y="606.2285">name</text><text fill="#000000" font-family="sans-serif" font-size="14" lengthAdjust="spacing" textLength="89" x="1150.49" y="624.8496">phoneNumber</text><text fill="#000000" font-family="sans-serif" font-size="14" lengthAdjust="spacing" textLength="90" x="1150.49" y="643.4707">numberCitizen</text><text fill="#000000" font-family="sans-serif" font-size="14" lengthAdjust="spacing" textLength="15" x="1150.49" y="662.0918">tin</text><text fill="#000000" font-family="sans-serif" font-size="14" lengthAdjust="spacing" textLength="33" x="1150.49" y="680.7129">email</text></g><!--class Owner--><g id="elem_Owner"><rect codeLine="25" fill="#F1F1F1" height="129.7266" id="Owner" rx="2.5" ry="2.5" style="stroke:#181818;stroke-width:0.5;" width="102" x="137.49" y="558.5"/><text fill="#000000" font-family="sans-serif" font-size="14" lengthAdjust="spacing" textLength="41" x="167.99" y="578.6074">Owner</text><line style="stroke:#181818;stroke-width:0.5;" x1="138.49" x2="238.49" y1="587.1211" y2="587.1211"/><text fill="#000000" font-family="sans-serif" font-size="14" lengthAdjust="spacing" textLength="33" x="143.49" y="606.2285">email</text><text fill="#000000" font-family="sans-serif" font-size="14" lengthAdjust="spacing" textLength="35" x="143.49" y="624.8496">name</text><text fill="#000000" font-family="sans-serif" font-size="14" lengthAdjust="spacing" textLength="90" x="143.49" y="643.4707">numberCitizen</text><text fill="#000000" font-family="sans-serif" font-size="14" lengthAdjust="spacing" textLength="15" x="143.49" y="662.0918">tin</text><text fill="#000000" font-family="sans-serif" font-size="14" lengthAdjust="spacing" textLength="89" x="143.49" y="680.7129">phoneNumber</text></g><!--class Agent--><g id="elem_Agent"><rect codeLine="33" fill="#F1F1F1" height="55.2422" id="Agent" rx="2.5" ry="2.5" style="stroke:#181818;stroke-width:0.5;" width="85" x="688.99" y="596"/><text fill="#000000" font-family="sans-serif" font-size="14" lengthAdjust="spacing" textLength="37" x="712.99" y="616.1074">Agent</text><line style="stroke:#181818;stroke-width:0.5;" x1="689.99" x2="772.99" y1="624.6211" y2="624.6211"/><text fill="#000000" font-family="sans-serif" font-size="14" lengthAdjust="spacing" textLength="73" x="694.99" y="643.7285">commission</text></g><!--class Advertisement--><g id="elem_Advertisement"><rect codeLine="37" fill="#F1F1F1" height="111.1055" id="Advertisement" rx="2.5" ry="2.5" style="stroke:#181818;stroke-width:0.5;" width="133" x="867.99" y="804.5"/><text fill="#000000" font-family="sans-serif" font-size="14" lengthAdjust="spacing" textLength="90" x="889.49" y="824.6074">Advertisement</text><line style="stroke:#181818;stroke-width:0.5;" x1="868.99" x2="999.99" y1="833.1211" y2="833.1211"/><text fill="#000000" font-family="sans-serif" font-size="14" lengthAdjust="spacing" textLength="101" x="873.99" y="852.2285">idAdvertisement</text><text fill="#000000" font-family="sans-serif" font-size="14" lengthAdjust="spacing" textLength="58" x="873.99" y="870.8496">salePrice</text><text fill="#000000" font-family="sans-serif" font-size="14" lengthAdjust="spacing" textLength="121" x="873.99" y="889.4707">durationOfContract</text><text fill="#000000" font-family="sans-serif" font-size="14" lengthAdjust="spacing" textLength="68" x="873.99" y="908.0918">rentalPrice</text></g><!--class Property--><g id="elem_Property"><rect codeLine="44" fill="#F1F1F1" height="148.3477" id="Property" rx="2.5" ry="2.5" style="stroke:#181818;stroke-width:0.5;" width="132" x="354.49" y="786"/><text fill="#000000" font-family="sans-serif" font-size="14" lengthAdjust="spacing" textLength="54" x="393.49" y="806.1074">Property</text><line style="stroke:#181818;stroke-width:0.5;" x1="355.49" x2="485.49" y1="814.6211" y2="814.6211"/><text fill="#000000" font-family="sans-serif" font-size="14" lengthAdjust="spacing" textLength="85" x="360.49" y="833.7285">propertyType</text><text fill="#000000" font-family="sans-serif" font-size="14" lengthAdjust="spacing" textLength="83" x="360.49" y="852.3496">areaProperty</text><text fill="#000000" font-family="sans-serif" font-size="14" lengthAdjust="spacing" textLength="120" x="360.49" y="870.9707">distanceCityCenter</text><text fill="#000000" font-family="sans-serif" font-size="14" lengthAdjust="spacing" textLength="111" x="360.49" y="889.5918">conditionProperty</text><text fill="#000000" font-family="sans-serif" font-size="14" lengthAdjust="spacing" textLength="43" x="360.49" y="908.2129">photos</text><text fill="#000000" font-family="sans-serif" font-size="14" lengthAdjust="spacing" textLength="87" x="360.49" y="926.834">propertyCode</text></g><!--class House--><g id="elem_House"><rect codeLine="53" fill="#F1F1F1" height="166.9688" id="House" rx="2.5" ry="2.5" style="stroke:#181818;stroke-width:0.5;" width="135" x="274.99" y="540"/><text fill="#000000" font-family="sans-serif" font-size="14" lengthAdjust="spacing" textLength="40" x="322.49" y="560.1074">House</text><line style="stroke:#181818;stroke-width:0.5;" x1="275.99" x2="408.99" y1="568.6211" y2="568.6211"/><text fill="#000000" font-family="sans-serif" font-size="14" lengthAdjust="spacing" textLength="112" x="280.99" y="587.7285">numberBedrooms</text><text fill="#000000" font-family="sans-serif" font-size="14" lengthAdjust="spacing" textLength="116" x="280.99" y="606.3496">numberBathrooms</text><text fill="#000000" font-family="sans-serif" font-size="14" lengthAdjust="spacing" textLength="96" x="280.99" y="624.9707">numberParking</text><text fill="#000000" font-family="sans-serif" font-size="14" lengthAdjust="spacing" textLength="123" x="280.99" y="643.5918">availableEquipment</text><text fill="#000000" font-family="sans-serif" font-size="14" lengthAdjust="spacing" textLength="62" x="280.99" y="662.2129">basement</text><text fill="#000000" font-family="sans-serif" font-size="14" lengthAdjust="spacing" textLength="19" x="280.99" y="680.834">loft</text><text fill="#000000" font-family="sans-serif" font-size="14" lengthAdjust="spacing" textLength="82" x="280.99" y="699.4551">sunExposure</text></g><!--class Apartment--><g id="elem_Apartment"><rect codeLine="63" fill="#F1F1F1" height="111.1055" id="Apartment" rx="2.5" ry="2.5" style="stroke:#181818;stroke-width:0.5;" width="135" x="444.99" y="568"/><text fill="#000000" font-family="sans-serif" font-size="14" lengthAdjust="spacing" textLength="65" x="479.99" y="588.1074">Apartment</text><line style="stroke:#181818;stroke-width:0.5;" x1="445.99" x2="578.99" y1="596.6211" y2="596.6211"/><text fill="#000000" font-family="sans-serif" font-size="14" lengthAdjust="spacing" textLength="112" x="450.99" y="615.7285">numberBedrooms</text><text fill="#000000" font-family="sans-serif" font-size="14" lengthAdjust="spacing" textLength="116" x="450.99" y="634.3496">numberBathrooms</text><text fill="#000000" font-family="sans-serif" font-size="14" lengthAdjust="spacing" textLength="96" x="450.99" y="652.9707">numberParking</text><text fill="#000000" font-family="sans-serif" font-size="14" lengthAdjust="spacing" textLength="123" x="450.99" y="671.5918">availableEquipment</text></g><!--class Land--><g id="elem_Land"><rect codeLine="70" fill="#F1F1F1" height="36.6211" id="Land" rx="2.5" ry="2.5" style="stroke:#181818;stroke-width:0.5;" width="38" x="615.49" y="605"/><text fill="#000000" font-family="sans-serif" font-size="14" lengthAdjust="spacing" textLength="32" x="618.49" y="625.1074">Land</text><line style="stroke:#181818;stroke-width:0.5;" x1="616.49" x2="652.49" y1="633.6211" y2="633.6211"/></g><!--class Store--><g id="elem_Store"><rect codeLine="72" fill="#F1F1F1" height="111.1055" id="Store" rx="2.5" ry="2.5" style="stroke:#181818;stroke-width:0.5;" width="92" x="685.49" y="350"/><text fill="#000000" font-family="sans-serif" font-size="14" lengthAdjust="spacing" textLength="34" x="714.49" y="370.1074">Store</text><line style="stroke:#181818;stroke-width:0.5;" x1="686.49" x2="776.49" y1="378.6211" y2="378.6211"/><text fill="#000000" font-family="sans-serif" font-size="14" lengthAdjust="spacing" textLength="71" x="691.49" y="397.7285">idCodStore</text><text fill="#000000" font-family="sans-serif" font-size="14" lengthAdjust="spacing" textLength="69" x="691.49" y="416.3496">nameStore</text><text fill="#000000" font-family="sans-serif" font-size="14" lengthAdjust="spacing" textLength="67" x="691.49" y="434.9707">emailStore</text><text fill="#000000" font-family="sans-serif" font-size="14" lengthAdjust="spacing" textLength="80" x="691.49" y="453.5918">contactStore</text></g><!--class Visit--><g id="elem_Visit"><rect codeLine="79" fill="#F1F1F1" height="73.8633" id="Visit" rx="2.5" ry="2.5" style="stroke:#181818;stroke-width:0.5;" width="50" x="909.49" y="1041"/><text fill="#000000" font-family="sans-serif" font-size="14" lengthAdjust="spacing" textLength="26" x="921.49" y="1061.1074">Visit</text><line style="stroke:#181818;stroke-width:0.5;" x1="910.49" x2="958.49" y1="1069.6211" y2="1069.6211"/><text fill="#000000" font-family="sans-serif" font-size="14" lengthAdjust="spacing" textLength="37" x="915.49" y="1088.7285">idVisit</text><text fill="#000000" font-family="sans-serif" font-size="14" lengthAdjust="spacing" textLength="38" x="915.49" y="1107.3496">report</text></g><!--class Location--><g id="elem_Location"><rect codeLine="84" fill="#F1F1F1" height="129.7266" id="Location" rx="2.5" ry="2.5" style="stroke:#181818;stroke-width:0.5;" width="63" x="156.99" y="1013"/><text fill="#000000" font-family="sans-serif" font-size="14" lengthAdjust="spacing" textLength="54" x="161.49" y="1033.1074">Location</text><line style="stroke:#181818;stroke-width:0.5;" x1="157.99" x2="218.99" y1="1041.6211" y2="1041.6211"/><text fill="#000000" font-family="sans-serif" font-size="14" lengthAdjust="spacing" textLength="36" x="162.99" y="1060.7285">street</text><text fill="#000000" font-family="sans-serif" font-size="14" lengthAdjust="spacing" textLength="51" x="162.99" y="1079.3496">zipCode</text><text fill="#000000" font-family="sans-serif" font-size="14" lengthAdjust="spacing" textLength="49" x="162.99" y="1097.9707">stateUS</text><text fill="#000000" font-family="sans-serif" font-size="14" lengthAdjust="spacing" textLength="21" x="162.99" y="1116.5918">city</text><text fill="#000000" font-family="sans-serif" font-size="14" lengthAdjust="spacing" textLength="41" x="162.99" y="1135.2129">district</text></g><!--class StoreManager--><g id="elem_StoreManager"><rect codeLine="92" fill="#F1F1F1" height="36.6211" id="StoreManager" rx="2.5" ry="2.5" style="stroke:#181818;stroke-width:0.5;" width="96" x="834.49" y="225"/><text fill="#000000" font-family="sans-serif" font-size="14" lengthAdjust="spacing" textLength="90" x="837.49" y="245.1074">StoreManager</text><line style="stroke:#181818;stroke-width:0.5;" x1="835.49" x2="929.49" y1="253.6211" y2="253.6211"/></g><!--class StoreNetworkManager--><g id="elem_StoreNetworkManager"><rect codeLine="95" fill="#F1F1F1" height="36.6211" id="StoreNetworkManager" rx="2.5" ry="2.5" style="stroke:#181818;stroke-width:0.5;" width="146" x="482.49" y="225"/><text fill="#000000" font-family="sans-serif" font-size="14" lengthAdjust="spacing" textLength="140" x="485.49" y="245.1074">StoreNetworkManager</text><line style="stroke:#181818;stroke-width:0.5;" x1="483.49" x2="627.49" y1="253.6211" y2="253.6211"/></g><!--class Request--><g id="elem_Request"><rect codeLine="98" fill="#F1F1F1" height="73.8633" id="Request" rx="2.5" ry="2.5" style="stroke:#181818;stroke-width:0.5;" width="76" x="1202.49" y="1041"/><text fill="#000000" font-family="sans-serif" font-size="14" lengthAdjust="spacing" textLength="53" x="1213.99" y="1061.1074">Request</text><line style="stroke:#181818;stroke-width:0.5;" x1="1203.49" x2="1277.49" y1="1069.6211" y2="1069.6211"/><text fill="#000000" font-family="sans-serif" font-size="14" lengthAdjust="spacing" textLength="64" x="1208.49" y="1088.7285">idRequest</text><text fill="#000000" font-family="sans-serif" font-size="14" lengthAdjust="spacing" textLength="29" x="1208.49" y="1107.3496">offer</text></g><!--class SystemAdministrator--><g id="elem_SystemAdministrator"><rect codeLine="103" fill="#F1F1F1" height="55.2422" id="SystemAdministrator" rx="2.5" ry="2.5" style="stroke:#181818;stroke-width:0.5;" width="135" x="663.99" y="216"/><text fill="#000000" font-family="sans-serif" font-size="14" lengthAdjust="spacing" textLength="129" x="666.99" y="236.1074">SystemAdministrator</text><line style="stroke:#181818;stroke-width:0.5;" x1="664.99" x2="797.99" y1="244.6211" y2="244.6211"/><text fill="#000000" font-family="sans-serif" font-size="14" lengthAdjust="spacing" textLength="50" x="669.99" y="263.7285">idAdmin</text></g><!--class UnregisteredUser--><g id="elem_UnregisteredUser"><rect codeLine="107" fill="#F1F1F1" height="36.6211" id="UnregisteredUser" rx="2.5" ry="2.5" style="stroke:#181818;stroke-width:0.5;" width="116" x="839.49" y="605"/><text fill="#000000" font-family="sans-serif" font-size="14" lengthAdjust="spacing" textLength="110" x="842.49" y="625.1074">UnregisteredUser</text><line style="stroke:#181818;stroke-width:0.5;" x1="840.49" x2="954.49" y1="633.6211" y2="633.6211"/></g><!--link Owner to Property--><g id="link_Owner_Property"><path codeLine="109" d="M239.68,687.38 C245.57,694.11 251.58,700.76 257.49,707 C288.09,739.3 324.1,773.26 354.47,800.86 " fill="none" id="Owner-Property" style="stroke:#181818;stroke-width:1.0;"/><polygon fill="#000000" points="314.0458,750.1607,309.6795,741.7116,305.5472,745.8917,314.0458,750.1607" style="stroke:#000000;stroke-width:1.0;"/><text fill="#000000" font-family="sans-serif" font-size="13" lengthAdjust="spacing" textLength="30" x="319.49" y="752.0283">owns</text><text fill="#000000" font-family="sans-serif" font-size="13" lengthAdjust="spacing" textLength="7" x="247.3708" y="692.2358">1</text><text fill="#000000" font-family="sans-serif" font-size="13" lengthAdjust="spacing" textLength="20" x="326.6304" y="790.91">1..*</text></g><!--link Agent to Advertisement--><g id="link_Agent_Advertisement"><path codeLine="110" d="M721.79,651.09 C713.13,679.9 704.95,725.79 727.49,756 C755.49,793.53 786.24,765.8 828.49,786 C841.8,792.36 855.29,800.29 867.98,808.56 " fill="none" id="Agent-Advertisement" style="stroke:#181818;stroke-width:1.0;"/><polygon fill="#000000" points="735.8919,750.3098,731.8917,741.6814,727.584,745.6806,735.8919,750.3098" style="stroke:#000000;stroke-width:1.0;"/><text fill="#000000" font-family="sans-serif" font-size="13" lengthAdjust="spacing" textLength="165" x="741.49" y="752.0283">publishes and is in charge of</text><text fill="#000000" font-family="sans-serif" font-size="13" lengthAdjust="spacing" textLength="7" x="720.3562" y="673.4698">1</text><text fill="#000000" font-family="sans-serif" font-size="13" lengthAdjust="spacing" textLength="5" x="855.0007" y="817.6341">*</text></g><!--link House to Property--><g id="link_House_Property"><path codeLine="111" d="M359.38,707.28 C363.45,723.6 368.17,740.47 373.49,756 C374.74,759.66 376.08,763.37 377.48,767.09 " fill="none" id="House-to-Property" style="stroke:#181818;stroke-width:1.0;"/><polygon fill="none" points="384.01,764.56,384.94,785.73,371.01,769.76,384.01,764.56" style="stroke:#181818;stroke-width:1.0;"/></g><!--link Apartment to Property--><g id="link_Apartment_Property"><path codeLine="112" d="M456.23,679.08 C442.18,696.17 428.99,716.07 421.49,737 C418.22,746.12 416.09,755.87 414.79,765.74 " fill="none" id="Apartment-to-Property" style="stroke:#181818;stroke-width:1.0;"/><polygon fill="none" points="421.75,766.6,413.2,785.99,407.79,765.5,421.75,766.6" style="stroke:#181818;stroke-width:1.0;"/></g><!--link Land to Property--><g id="link_Land_Property"><path codeLine="113" d="M631.4,642.16 C627.13,661.09 617.57,690.63 597.49,707 C549.85,745.84 508.33,696.06 462.49,737 C453.23,745.27 446.01,755.68 440.38,766.92 " fill="none" id="Land-to-Property" style="stroke:#181818;stroke-width:1.0;"/><polygon fill="none" points="446.7,769.94,432.55,785.71,433.78,764.56,446.7,769.94" style="stroke:#181818;stroke-width:1.0;"/></g><!--link Store to Agent--><g id="link_Store_Agent"><path codeLine="114" d="M731.49,461.01 C731.49,504.12 731.49,562.46 731.49,595.93 " fill="none" id="Store-Agent" style="stroke:#181818;stroke-width:1.0;"/><polygon fill="#000000" points="736.49,495.6455,733.5511,504.6906,739.4289,504.6906,736.49,495.6455" style="stroke:#000000;stroke-width:1.0;"/><text fill="#000000" font-family="sans-serif" font-size="13" lengthAdjust="spacing" textLength="34" x="745.49" y="506.0283">works</text><text fill="#000000" font-family="sans-serif" font-size="13" lengthAdjust="spacing" textLength="7" x="724.0416" y="483.2515">1</text><text fill="#000000" font-family="sans-serif" font-size="13" lengthAdjust="spacing" textLength="5" x="725.9119" y="584.6228">*</text></g><!--link StoreManager to Store--><g id="link_StoreManager_Store"><path codeLine="115" d="M865.75,262.23 C844.64,284.61 807.47,323.99 777.59,355.65 " fill="none" id="StoreManager-Store" style="stroke:#181818;stroke-width:1.0;"/><polygon fill="#000000" points="826.0583,314.2819,834.4037,309.7207,830.1288,305.6865,826.0583,314.2819" style="stroke:#000000;stroke-width:1.0;"/><text fill="#000000" font-family="sans-serif" font-size="13" lengthAdjust="spacing" textLength="50" x="838.49" y="316.0283">monitors</text><text fill="#000000" font-family="sans-serif" font-size="13" lengthAdjust="spacing" textLength="7" x="853.3105" y="283.6664">1</text><text fill="#000000" font-family="sans-serif" font-size="13" lengthAdjust="spacing" textLength="7" x="785.495" y="343.3936">1</text></g><!--link Property to Location--><g id="link_Property_Location"><path codeLine="116" d="M354.32,922.61 C310.26,963.63 254.35,1015.68 220.01,1047.65 " fill="none" id="Property-Location" style="stroke:#181818;stroke-width:1.0;"/><polygon fill="#000000" points="305.8304,977.0525,314.4532,973.0402,310.4481,968.7382,305.8304,977.0525" style="stroke:#000000;stroke-width:1.0;"/><text fill="#000000" font-family="sans-serif" font-size="13" lengthAdjust="spacing" textLength="30" x="318.49" y="979.0283">owns</text><text fill="#000000" font-family="sans-serif" font-size="13" lengthAdjust="spacing" textLength="7" x="339.6998" y="925.5535">1</text><text fill="#000000" font-family="sans-serif" font-size="13" lengthAdjust="spacing" textLength="7" x="228.1084" y="1035.7595">1</text></g><!--link StoreNetworkManager to Store--><g id="link_StoreNetworkManager_Store"><path codeLine="117" d="M575,262.23 C601.4,286.24 649.33,329.81 685.21,362.43 " fill="none" id="StoreNetworkManager-Store" style="stroke:#181818;stroke-width:1.0;"/><polygon fill="#000000" points="646.1895,314.009,641.474,305.7498,637.52,310.0989,646.1895,314.009" style="stroke:#000000;stroke-width:1.0;"/><text fill="#000000" font-family="sans-serif" font-size="13" lengthAdjust="spacing" textLength="52" x="651.49" y="316.0283">analyzes</text><text fill="#000000" font-family="sans-serif" font-size="13" lengthAdjust="spacing" textLength="7" x="572.3027" y="283.6664">1</text><text fill="#000000" font-family="sans-serif" font-size="13" lengthAdjust="spacing" textLength="5" x="672.4357" y="351.2541">*</text></g><!--reverse link Employee to Agent--><g id="link_Employee_Agent"><path codeLine="118" d="M789.23,95.41 C843.41,116.93 914.81,155.26 948.49,216 C989.37,289.72 815.87,517.56 753.26,595.8 " fill="none" id="Employee-backto-Agent" style="stroke:#181818;stroke-width:1.0;"/><polygon fill="none" points="786.76,101.96,770.51,88.36,791.69,88.86,786.76,101.96" style="stroke:#181818;stroke-width:1.0;"/></g><!--reverse link Employee to StoreManager--><g id="link_Employee_StoreManager"><path codeLine="119" d="M784.7,140.81 C814.01,171.29 846.25,204.81 865.41,224.74 " fill="none" id="Employee-backto-StoreManager" style="stroke:#181818;stroke-width:1.0;"/><polygon fill="none" points="779.43,145.43,770.62,126.17,789.53,135.73,779.43,145.43" style="stroke:#181818;stroke-width:1.0;"/></g><!--reverse link Employee to StoreNetworkManager--><g id="link_Employee_StoreNetworkManager"><path codeLine="120" d="M653.88,140.81 C624.39,171.29 591.95,204.81 572.68,224.74 " fill="none" id="Employee-backto-StoreNetworkManager" style="stroke:#181818;stroke-width:1.0;"/><polygon fill="none" points="649.11,135.67,668.05,126.17,659.17,145.41,649.11,135.67" style="stroke:#181818;stroke-width:1.0;"/></g><!--link Advertisement to Request--><g id="link_Advertisement_Request"><path codeLine="121" d="M1001.26,908.14 C1062.81,951.58 1152,1014.54 1202.28,1050.03 " fill="none" id="Advertisement-Request" style="stroke:#181818;stroke-width:1.0;"/><polygon fill="#000000" points="1114.5749,976.5288,1108.88,968.9118,1105.4905,973.7139,1114.5749,976.5288" style="stroke:#000000;stroke-width:1.0;"/><text fill="#000000" font-family="sans-serif" font-size="13" lengthAdjust="spacing" textLength="47" x="1119.49" y="979.0283">receives</text><text fill="#000000" font-family="sans-serif" font-size="13" lengthAdjust="spacing" textLength="7" x="1008.9458" y="909.5141">1</text><text fill="#000000" font-family="sans-serif" font-size="13" lengthAdjust="spacing" textLength="5" x="1189.5197" y="1040.147">*</text></g><!--link Client to Request--><g id="link_Client_Request"><path codeLine="122" d="M1242.76,688.62 C1260.83,716.96 1279.3,751.62 1288.49,786 C1305.48,849.55 1299.09,869.08 1288.49,934 C1282.37,971.48 1267.78,1012.37 1256.28,1040.8 " fill="none" id="Client-Request" style="stroke:#181818;stroke-width:1.0;"/><polygon fill="#000000" points="1303.6818,865.1418,1306.2716,855.9907,1300.3981,856.2161,1303.6818,865.1418" style="stroke:#000000;stroke-width:1.0;"/><text fill="#000000" font-family="sans-serif" font-size="13" lengthAdjust="spacing" textLength="39" x="1312.49" y="865.5283">makes</text><text fill="#000000" font-family="sans-serif" font-size="13" lengthAdjust="spacing" textLength="7" x="1240.2738" y="710.2695">1</text><text fill="#000000" font-family="sans-serif" font-size="13" lengthAdjust="spacing" textLength="5" x="1253.6473" y="1029.7261">*</text></g><!--link Store to Location--><g id="link_Store_Location"><path codeLine="123" d="M685.32,409.33 C555.31,418.36 190.94,451.28 119.49,540 C6,680.92 102.2,913.55 156.91,1020.28 " fill="none" id="Store-Location" style="stroke:#181818;stroke-width:1.0;"/><polygon fill="#000000" points="71.2192,750.4273,79.359,745.5086,74.9133,741.6635,71.2192,750.4273" style="stroke:#000000;stroke-width:1.0;"/><text fill="#000000" font-family="sans-serif" font-size="13" lengthAdjust="spacing" textLength="30" x="83.49" y="752.0283">owns</text><text fill="#000000" font-family="sans-serif" font-size="13" lengthAdjust="spacing" textLength="7" x="670.4038" y="405.6288">1</text><text fill="#000000" font-family="sans-serif" font-size="13" lengthAdjust="spacing" textLength="7" x="141.7978" y="1002.0602">1</text></g><!--link Advertisement to Visit--><g id="link_Advertisement_Visit"><path codeLine="124" d="M934.49,915.51 C934.49,954.75 934.49,1006.6 934.49,1040.83 " fill="none" id="Advertisement-Visit" style="stroke:#181818;stroke-width:1.0;"/><polygon fill="#000000" points="939.49,978.6455,942.4289,969.6004,936.5511,969.6004,939.49,978.6455" style="stroke:#000000;stroke-width:1.0;"/><text fill="#000000" font-family="sans-serif" font-size="13" lengthAdjust="spacing" textLength="32" x="948.49" y="979.0283">hosts</text><text fill="#000000" font-family="sans-serif" font-size="13" lengthAdjust="spacing" textLength="7" x="927.0416" y="937.7515">1</text><text fill="#000000" font-family="sans-serif" font-size="13" lengthAdjust="spacing" textLength="5" x="929.0447" y="1029.7614">*</text></g><!--link Client to Visit--><g id="link_Client_Visit"><path codeLine="125" d="M1200.1,688.62 C1205.24,779.02 1208.95,937.97 1175.49,983 C1123.13,1053.48 1010.19,1071.13 959.73,1075.54 " fill="none" id="Client-Visit" style="stroke:#181818;stroke-width:1.0;"/><polygon fill="#000000" points="1204.8515,864.3927,1212.121,858.2604,1207.1282,855.1586,1204.8515,864.3927" style="stroke:#000000;stroke-width:1.0;"/><text fill="#000000" font-family="sans-serif" font-size="13" lengthAdjust="spacing" textLength="50" x="1216.49" y="865.5283">requests</text><text fill="#000000" font-family="sans-serif" font-size="13" lengthAdjust="spacing" textLength="7" x="1193.2145" y="710.2695">1</text><text fill="#000000" font-family="sans-serif" font-size="13" lengthAdjust="spacing" textLength="5" x="967.5319" y="1069.546">*</text></g><!--link Agent to Visit--><g id="link_Agent_Visit"><path codeLine="126" d="M717.11,651.05 C688.76,707.35 632.85,841.14 686.49,934 C735.59,1018.99 856.54,1057.96 909.25,1071.33 " fill="none" id="Agent-Visit" style="stroke:#181818;stroke-width:1.0;"/><polygon fill="#000000" points="693.5689,864.6928,692.481,855.2447,687.1353,857.6886,693.5689,864.6928" style="stroke:#000000;stroke-width:1.0;"/><text fill="#000000" font-family="sans-serif" font-size="13" lengthAdjust="spacing" textLength="149" x="700.49" y="865.5283">schedules and carries out</text><text fill="#000000" font-family="sans-serif" font-size="13" lengthAdjust="spacing" textLength="7" x="714.594" y="673.4205">1</text><text fill="#000000" font-family="sans-serif" font-size="13" lengthAdjust="spacing" textLength="5" x="896.4481" y="1064.1519">*</text></g><!--link Property to Advertisement--><g id="link_Property_Advertisement"><path codeLine="127" d="M486.73,795.46 C507.71,779.04 532.09,763.61 557.49,755 C623.05,732.77 800.92,774.87 828.49,786 C841.91,791.42 855.3,798.8 867.82,806.82 " fill="none" id="Property-Advertisement" style="stroke:#181818;stroke-width:1.0;"/><polygon fill="#000000" points="557.4922,746.4965,566.4457,749.7037,566.6209,743.8284,557.4922,746.4965" style="stroke:#000000;stroke-width:1.0;"/><text fill="#000000" font-family="sans-serif" font-size="13" lengthAdjust="spacing" textLength="61" x="571.49" y="752.0283">represents</text><text fill="#000000" font-family="sans-serif" font-size="13" lengthAdjust="spacing" textLength="7" x="494.3578" y="784.4965">1</text><text fill="#000000" font-family="sans-serif" font-size="13" lengthAdjust="spacing" textLength="7" x="853.1452" y="797.1122">1</text></g><!--link Client to Location--><g id="link_Client_Location"><path codeLine="128" d="M1171.58,688.51 C1162.68,710.34 1151.94,734.62 1140.49,756 C1083.3,862.82 1092.77,919.63 989.49,983 C922.73,1023.96 360.77,1065.13 220.24,1074.85 " fill="none" id="Client-Location" style="stroke:#181818;stroke-width:1.0;"/><polygon fill="#000000" points="1124.8574,862.0268,1134.3436,861.3465,1132.132,855.9006,1124.8574,862.0268" style="stroke:#000000;stroke-width:1.0;"/><text fill="#000000" font-family="sans-serif" font-size="13" lengthAdjust="spacing" textLength="30" x="1138.49" y="865.5283">owns</text><text fill="#000000" font-family="sans-serif" font-size="13" lengthAdjust="spacing" textLength="7" x="1161.7533" y="710.1481">1</text><text fill="#000000" font-family="sans-serif" font-size="13" lengthAdjust="spacing" textLength="7" x="227.9509" y="1069.3916">1</text></g><!--link Employee to Location--><g id="link_Employee_Location"><path codeLine="129" d="M668.43,74.31 C506.26,79.83 13.49,107.7 13.49,242.5 C13.49,242.5 13.49,242.5 13.49,861 C13.49,951.01 106.37,1024.51 156.8,1057.79 " fill="none" id="Employee-Location" style="stroke:#181818;stroke-width:1.0;"/><polygon fill="#000000" points="16.1825,505.0812,22.9641,498.4133,17.7496,495.7006,16.1825,505.0812" style="stroke:#000000;stroke-width:1.0;"/><text fill="#000000" font-family="sans-serif" font-size="13" lengthAdjust="spacing" textLength="30" x="27.49" y="506.0283">owns</text><text fill="#000000" font-family="sans-serif" font-size="13" lengthAdjust="spacing" textLength="7" x="653.4165" y="70.4706">1</text><text fill="#000000" font-family="sans-serif" font-size="13" lengthAdjust="spacing" textLength="7" x="142.1022" y="1048.5997">1</text></g><!--link Owner to Location--><g id="link_Owner_Location"><path codeLine="130" d="M188.49,688.85 C188.49,774.98 188.49,926.85 188.49,1012.87 " fill="none" id="Owner-Location" style="stroke:#181818;stroke-width:1.0;"/><polygon fill="#000000" points="193.49,865.1455,196.4289,856.1004,190.5511,856.1004,193.49,865.1455" style="stroke:#000000;stroke-width:1.0;"/><text fill="#000000" font-family="sans-serif" font-size="13" lengthAdjust="spacing" textLength="30" x="202.49" y="865.5283">owns</text><text fill="#000000" font-family="sans-serif" font-size="13" lengthAdjust="spacing" textLength="7" x="181.1455" y="710.1757">1</text><text fill="#000000" font-family="sans-serif" font-size="13" lengthAdjust="spacing" textLength="7" x="181.1072" y="1001.8759">1</text></g><!--link Agent to Property--><g id="link_Agent_Property"><path codeLine="131" d="M719.1,651.12 C708.98,669.81 692.86,693.74 671.49,707 C604.07,748.84 561.24,692.57 495.49,737 C477.46,749.18 463,767.29 451.77,785.84 " fill="none" id="Agent-Property" style="stroke:#181818;stroke-width:1.0;"/><polygon fill="#000000" points="496.0249,748.8957,505.4249,747.4496,502.7797,742.2006,496.0249,748.8957" style="stroke:#000000;stroke-width:1.0;"/><text fill="#000000" font-family="sans-serif" font-size="13" lengthAdjust="spacing" textLength="39" x="509.49" y="752.0283">verifies</text><text fill="#000000" font-family="sans-serif" font-size="13" lengthAdjust="spacing" textLength="7" x="708.6241" y="673.0549">1</text><text fill="#000000" font-family="sans-serif" font-size="13" lengthAdjust="spacing" textLength="7" x="447.5046" y="774.7287">1</text></g><!--link Store to Advertisement--><g id="link_Store_Advertisement"><path codeLine="132" d="M777.86,417.95 C834.39,434.55 927.99,471.14 973.49,540 C1026.64,620.44 1018.28,662.83 993.49,756 C989.06,772.63 981.25,789.37 972.73,804.38 " fill="none" id="Store-Advertisement" style="stroke:#181818;stroke-width:1.0;"/><polygon fill="#000000" points="1019.7414,628.11,1018.2928,618.7104,1013.0445,621.357,1019.7414,628.11" style="stroke:#000000;stroke-width:1.0;"/><text fill="#000000" font-family="sans-serif" font-size="13" lengthAdjust="spacing" textLength="49" x="1026.49" y="629.0283">contains</text><text fill="#000000" font-family="sans-serif" font-size="13" lengthAdjust="spacing" textLength="7" x="785.4963" y="415.5974">1</text><text fill="#000000" font-family="sans-serif" font-size="13" lengthAdjust="spacing" textLength="5" x="972.3092" y="793.2048">*</text></g><!--link UnregisteredUser to Advertisement--><g id="link_UnregisteredUser_Advertisement"><path codeLine="133" d="M900.27,642.13 C905.63,676.1 917.6,751.93 925.85,804.27 " fill="none" id="UnregisteredUser-Advertisement" style="stroke:#181818;stroke-width:1.0;"/><polygon fill="#000000" points="923.2692,751.5844,924.7626,742.1918,918.9566,743.1078,923.2692,751.5844" style="stroke:#000000;stroke-width:1.0;"/><text fill="#000000" font-family="sans-serif" font-size="13" lengthAdjust="spacing" textLength="53" x="931.49" y="752.0283">searches</text><text fill="#000000" font-family="sans-serif" font-size="13" lengthAdjust="spacing" textLength="7" x="893.0765" y="663.5395">1</text><text fill="#000000" font-family="sans-serif" font-size="13" lengthAdjust="spacing" textLength="5" x="919.4227" y="793.0807">*</text></g><!--link SystemAdministrator to Store--><g id="link_SystemAdministrator_Store"><path codeLine="134" d="M731.49,271.28 C731.49,292.63 731.49,323.24 731.49,349.73 " fill="none" id="SystemAdministrator-Store" style="stroke:#181818;stroke-width:1.0;"/><polygon fill="#000000" points="736.49,315.6455,739.4289,306.6004,733.5511,306.6004,736.49,315.6455" style="stroke:#000000;stroke-width:1.0;"/><text fill="#000000" font-family="sans-serif" font-size="13" lengthAdjust="spacing" textLength="43" x="745.49" y="316.0283">creates</text><text fill="#000000" font-family="sans-serif" font-size="13" lengthAdjust="spacing" textLength="7" x="723.7244" y="293.2499">1</text><text fill="#000000" font-family="sans-serif" font-size="13" lengthAdjust="spacing" textLength="5" x="726.1853" y="338.9367">*</text></g><!--link SystemAdministrator to Employee--><g id="link_SystemAdministrator_Employee"><path codeLine="135" d="M729.61,216 C728.12,194.89 725.96,164.46 724.03,137.08 " fill="none" id="SystemAdministrator-Employee" style="stroke:#181818;stroke-width:1.0;"/><polygon fill="#000000" points="731.1374,171.658,728.8437,180.8878,734.7069,180.4732,731.1374,171.658" style="stroke:#000000;stroke-width:1.0;"/><text fill="#000000" font-family="sans-serif" font-size="13" lengthAdjust="spacing" textLength="43" x="740.49" y="182.0283">creates</text><text fill="#000000" font-family="sans-serif" font-size="13" lengthAdjust="spacing" textLength="7" x="721.3659" y="204.709">1</text><text fill="#000000" font-family="sans-serif" font-size="13" lengthAdjust="spacing" textLength="5" x="719.2404" y="158.7254">*</text></g><!--reverse link Employee to SystemAdministrator--><g id="link_Employee_SystemAdministrator"><path codeLine="137" d="M715.42,157.39 C715.72,167.06 716.36,176.76 717.49,186 C718.69,195.83 721.02,206.41 723.45,215.73 " fill="none" id="Employee-backto-SystemAdministrator" style="stroke:#181818;stroke-width:1.0;"/><polygon fill="none" points="708.42,157.16,715.26,137.1,722.42,157.05,708.42,157.16" style="stroke:#181818;stroke-width:1.0;"/></g><!--link Client to Advertisement--><g id="link_Client_Advertisement"><path codeLine="136" d="M1144.24,670.55 C1101.48,708.96 1040.46,763.79 995.25,804.41 " fill="none" id="Client-Advertisement" style="stroke:#181818;stroke-width:1.0;"/><polygon fill="#000000" points="1065.7707,749.9871,1074.4632,746.1282,1070.5348,741.7559,1065.7707,749.9871" style="stroke:#000000;stroke-width:1.0;"/><text fill="#000000" font-family="sans-serif" font-size="13" lengthAdjust="spacing" textLength="53" x="1078.49" y="752.0283">searches</text><text fill="#000000" font-family="sans-serif" font-size="13" lengthAdjust="spacing" textLength="5" x="1131.3455" y="673.2818">*</text><text fill="#000000" font-family="sans-serif" font-size="13" lengthAdjust="spacing" textLength="5" x="997.7146" y="793.2387">*</text></g><!--SRC=[hLN9Rjim4BthAmXV2WHmWboD841g1CYXJOAwwPscnjB0N1IIYkiq_VUEI2sKB0G-r0UB73wzDolrfVI-SgkhgqfoxMibBuLHLq9ovvOvyi9obRazwehJYYcZZIYjKS2yhI4vgRZOym8s_YY1MH2UwqAc05Vot1nG5sp7fOEin1oOG2jakrRWIvExBCk2EhjNbJH7W3yPev_c2kAYLbkmQ_Ju3ZfOFCOdA8uohAhIQ7WCmEnlnxUM2Dgp2LqAFOU-ftiwQB0jsw1yXfkppjqLWszK08NEeT79UVu6rgC3DU0m7rc3pN49pnP5T2AlBVV4yxHR6-qj5n5a2SrbXFKApzPKH7QCt5Mx-tci8XMtm3j8v4P7DHP08HxNHDZcJnYTOwCv0bFCthWHyzhaYVg3gHrqjGcv-GgvDKQvrCHzERKzSqijLaGVtwWCV2lX_hN6gi_9bYS9acRNPghMzxyhusgRk757lUeRxF_tfDVundNUhJVUMEYgIHa9-xwHXbrei65BIVPKp6ZeYN-XGz-HXKrRxShOLD-8q1Hjjfst017vZbMeIZHp3o-RA8T9pQbh4hBWmdUkQVIROHZR7y4VZDtF7F-0rnfSxsox3JkpswM3iJaw3-ekLwWRSKwyG_UJSK2-Q0i5OS12_kA88uiZkhXUiEMI7fUN5uk-pLVC7BHZjrcSl0v4YD5GhLXLRoMw4XoZkZ5q33KJ9RS5aAlqVkpSvVBZjkVE-ZQQs9lIHzDW2vaQwHT1jycSOpVPACDzB8kOuHLhhcIaPHDAnvd2kchtySvL9b7lQEb47j-XUQExYDdD1u62UnDRwkFSqLWk6sLuq6wxODLyFW3VWdQyj6SmYk-X3sU8zoJSySMP11e6PCLAu_mWD0EmKN6sLLg84oNajMnRH71haTQczYSr2V-J1gFvjE1esLHxuiPS0VlyVWQQjFuCOXpCTJePv1xkS4Zl9zCHRY8CXDFv- -Gj1zoACWgSplTCEmhw-lXpy5roqbUwd5wSuSwaUK_5idy0]--></g></svg>