<?xml version="1.0" encoding="us-ascii" standalone="no"?><svg xmlns="http://www.w3.org/2000/svg" xmlns:xlink="http://www.w3.org/1999/xlink" contentStyleType="text/css" height="1206.4px" preserveAspectRatio="none" style="width:920px;height:1206px;background:#FFFFFF;" version="1.1" viewBox="0 0 920 1206" width="920px" zoomAndPan="magnify"><defs/><g><!--class Employee--><g id="elem_Employee"><rect codeLine="10" fill="#F1F1F1" height="133.575" id="Employee" rx="2" ry="2" style="stroke:#181818;stroke-width:0.4000000000000001;" width="81.6" x="583.2" y="128"/><text fill="#000000" font-family="sans-serif" font-size="11.2" lengthAdjust="spacing" textLength="49.6" x="599.2" y="144.0859">Employee</text><line style="stroke:#181818;stroke-width:0.4000000000000001;" x1="584" x2="664" y1="150.8969" y2="150.8969"/><text fill="#000000" font-family="sans-serif" font-size="11.2" lengthAdjust="spacing" textLength="58.4" x="588" y="166.1828">idEmployee</text><text fill="#000000" font-family="sans-serif" font-size="11.2" lengthAdjust="spacing" textLength="28" x="588" y="181.0797">name</text><text fill="#000000" font-family="sans-serif" font-size="11.2" lengthAdjust="spacing" textLength="72" x="588" y="195.9766">numberCitizen</text><text fill="#000000" font-family="sans-serif" font-size="11.2" lengthAdjust="spacing" textLength="56.8" x="588" y="210.8734">numberTax</text><text fill="#000000" font-family="sans-serif" font-size="11.2" lengthAdjust="spacing" textLength="39.2" x="588" y="225.7703">location</text><text fill="#000000" font-family="sans-serif" font-size="11.2" lengthAdjust="spacing" textLength="26.4" x="588" y="240.6672">email</text><text fill="#000000" font-family="sans-serif" font-size="11.2" lengthAdjust="spacing" textLength="71.2" x="588" y="255.5641">phoneNumber</text></g><!--class Client--><g id="elem_Client"><rect codeLine="20" fill="#F1F1F1" height="133.575" id="Client" rx="2" ry="2" style="stroke:#181818;stroke-width:0.4000000000000001;" width="81.6" x="828" y="848.4"/><text fill="#000000" font-family="sans-serif" font-size="11.2" lengthAdjust="spacing" textLength="28.8" x="854.4" y="864.4859">Client</text><line style="stroke:#181818;stroke-width:0.4000000000000001;" x1="828.8" x2="908.8" y1="871.2969" y2="871.2969"/><text fill="#000000" font-family="sans-serif" font-size="11.2" lengthAdjust="spacing" textLength="37.6" x="832.8" y="886.5828">idClient</text><text fill="#000000" font-family="sans-serif" font-size="11.2" lengthAdjust="spacing" textLength="28" x="832.8" y="901.4797">name</text><text fill="#000000" font-family="sans-serif" font-size="11.2" lengthAdjust="spacing" textLength="71.2" x="832.8" y="916.3766">phoneNumber</text><text fill="#000000" font-family="sans-serif" font-size="11.2" lengthAdjust="spacing" textLength="72" x="832.8" y="931.2734">numberCitizen</text><text fill="#000000" font-family="sans-serif" font-size="11.2" lengthAdjust="spacing" textLength="56.8" x="832.8" y="946.1703">numberTax</text><text fill="#000000" font-family="sans-serif" font-size="11.2" lengthAdjust="spacing" textLength="26.4" x="832.8" y="961.0672">email</text><text fill="#000000" font-family="sans-serif" font-size="11.2" lengthAdjust="spacing" textLength="39.2" x="832.8" y="975.9641">location</text></g><!--class Owner--><g id="elem_Owner"><rect codeLine="30" fill="#F1F1F1" height="133.575" id="Owner" rx="2" ry="2" style="stroke:#181818;stroke-width:0.4000000000000001;" width="81.6" x="5.6" y="644"/><text fill="#000000" font-family="sans-serif" font-size="11.2" lengthAdjust="spacing" textLength="32.8" x="30" y="660.0859">Owner</text><line style="stroke:#181818;stroke-width:0.4000000000000001;" x1="6.4" x2="86.4" y1="666.8969" y2="666.8969"/><text fill="#000000" font-family="sans-serif" font-size="11.2" lengthAdjust="spacing" textLength="41.6" x="10.4" y="682.1828">idOwner</text><text fill="#000000" font-family="sans-serif" font-size="11.2" lengthAdjust="spacing" textLength="26.4" x="10.4" y="697.0797">email</text><text fill="#000000" font-family="sans-serif" font-size="11.2" lengthAdjust="spacing" textLength="28" x="10.4" y="711.9766">name</text><text fill="#000000" font-family="sans-serif" font-size="11.2" lengthAdjust="spacing" textLength="72" x="10.4" y="726.8734">numberCitizen</text><text fill="#000000" font-family="sans-serif" font-size="11.2" lengthAdjust="spacing" textLength="56.8" x="10.4" y="741.7703">numberTax</text><text fill="#000000" font-family="sans-serif" font-size="11.2" lengthAdjust="spacing" textLength="39.2" x="10.4" y="756.6672">location</text><text fill="#000000" font-family="sans-serif" font-size="11.2" lengthAdjust="spacing" textLength="71.2" x="10.4" y="771.5641">phoneNumber</text></g><!--class Agent--><g id="elem_Agent"><rect codeLine="40" fill="#F1F1F1" height="59.0906" id="Agent" rx="2" ry="2" style="stroke:#181818;stroke-width:0.4000000000000001;" width="68.8" x="625.6" y="681.2"/><text fill="#000000" font-family="sans-serif" font-size="11.2" lengthAdjust="spacing" textLength="29.6" x="645.2" y="697.2859">Agent</text><line style="stroke:#181818;stroke-width:0.4000000000000001;" x1="626.4" x2="693.6" y1="704.0969" y2="704.0969"/><text fill="#000000" font-family="sans-serif" font-size="11.2" lengthAdjust="spacing" textLength="59.2" x="630.4" y="719.3828">idCodAgent</text><text fill="#000000" font-family="sans-serif" font-size="11.2" lengthAdjust="spacing" textLength="56.8" x="630.4" y="734.2797">idCodStore</text></g><!--class Advertisement--><g id="elem_Advertisement"><rect codeLine="45" fill="#F1F1F1" height="73.9875" id="Advertisement" rx="2" ry="2" style="stroke:#181818;stroke-width:0.4000000000000001;" width="90.4" x="709.2" y="878.4"/><text fill="#000000" font-family="sans-serif" font-size="11.2" lengthAdjust="spacing" textLength="72" x="718.4" y="894.4859">Advertisement</text><line style="stroke:#181818;stroke-width:0.4000000000000001;" x1="710" x2="798.8" y1="901.2969" y2="901.2969"/><text fill="#000000" font-family="sans-serif" font-size="11.2" lengthAdjust="spacing" textLength="80.8" x="714" y="916.5828">idAdvertisement</text><text fill="#000000" font-family="sans-serif" font-size="11.2" lengthAdjust="spacing" textLength="59.2" x="714" y="931.4797">idCodAgent</text><text fill="#000000" font-family="sans-serif" font-size="11.2" lengthAdjust="spacing" textLength="69.6" x="714" y="946.3766">propertyCode</text></g><!--class Property--><g id="elem_Property"><rect codeLine="51" fill="#F1F1F1" height="148.4719" id="Property" rx="2" ry="2" style="stroke:#181818;stroke-width:0.4000000000000001;" width="105.6" x="318.4" y="840.8"/><text fill="#000000" font-family="sans-serif" font-size="11.2" lengthAdjust="spacing" textLength="43.2" x="349.6" y="856.8859">Property</text><line style="stroke:#181818;stroke-width:0.4000000000000001;" x1="319.2" x2="423.2" y1="863.6969" y2="863.6969"/><text fill="#000000" font-family="sans-serif" font-size="11.2" lengthAdjust="spacing" textLength="41.6" x="323.2" y="878.9828">idOwner</text><text fill="#000000" font-family="sans-serif" font-size="11.2" lengthAdjust="spacing" textLength="68" x="323.2" y="893.8797">propertyType</text><text fill="#000000" font-family="sans-serif" font-size="11.2" lengthAdjust="spacing" textLength="66.4" x="323.2" y="908.7766">areaProperty</text><text fill="#000000" font-family="sans-serif" font-size="11.2" lengthAdjust="spacing" textLength="96" x="323.2" y="923.6734">distanceCityCenter</text><text fill="#000000" font-family="sans-serif" font-size="11.2" lengthAdjust="spacing" textLength="39.2" x="323.2" y="938.5703">location</text><text fill="#000000" font-family="sans-serif" font-size="11.2" lengthAdjust="spacing" textLength="88.8" x="323.2" y="953.4672">conditionProperty</text><text fill="#000000" font-family="sans-serif" font-size="11.2" lengthAdjust="spacing" textLength="34.4" x="323.2" y="968.3641">photos</text><text fill="#000000" font-family="sans-serif" font-size="11.2" lengthAdjust="spacing" textLength="69.6" x="323.2" y="983.2609">propertyCode</text></g><!--class House--><g id="elem_House"><rect codeLine="62" fill="#F1F1F1" height="133.575" id="House" rx="2" ry="2" style="stroke:#181818;stroke-width:0.4000000000000001;" width="108" x="172.4" y="644"/><text fill="#000000" font-family="sans-serif" font-size="11.2" lengthAdjust="spacing" textLength="32" x="210.4" y="660.0859">House</text><line style="stroke:#181818;stroke-width:0.4000000000000001;" x1="173.2" x2="279.6" y1="666.8969" y2="666.8969"/><text fill="#000000" font-family="sans-serif" font-size="11.2" lengthAdjust="spacing" textLength="89.6" x="177.2" y="682.1828">numberBedrooms</text><text fill="#000000" font-family="sans-serif" font-size="11.2" lengthAdjust="spacing" textLength="92.8" x="177.2" y="697.0797">numberBathrooms</text><text fill="#000000" font-family="sans-serif" font-size="11.2" lengthAdjust="spacing" textLength="76.8" x="177.2" y="711.9766">numberParking</text><text fill="#000000" font-family="sans-serif" font-size="11.2" lengthAdjust="spacing" textLength="98.4" x="177.2" y="726.8734">availableEquipment</text><text fill="#000000" font-family="sans-serif" font-size="11.2" lengthAdjust="spacing" textLength="49.6" x="177.2" y="741.7703">basement</text><text fill="#000000" font-family="sans-serif" font-size="11.2" lengthAdjust="spacing" textLength="15.2" x="177.2" y="756.6672">loft</text><text fill="#000000" font-family="sans-serif" font-size="11.2" lengthAdjust="spacing" textLength="65.6" x="177.2" y="771.5641">sunExposure</text></g><!--class Apartment--><g id="elem_Apartment"><rect codeLine="72" fill="#F1F1F1" height="88.8844" id="Apartment" rx="2" ry="2" style="stroke:#181818;stroke-width:0.4000000000000001;" width="108" x="308.4" y="666.4"/><text fill="#000000" font-family="sans-serif" font-size="11.2" lengthAdjust="spacing" textLength="52" x="336.4" y="682.4859">Apartment</text><line style="stroke:#181818;stroke-width:0.4000000000000001;" x1="309.2" x2="415.6" y1="689.2969" y2="689.2969"/><text fill="#000000" font-family="sans-serif" font-size="11.2" lengthAdjust="spacing" textLength="89.6" x="313.2" y="704.5828">numberBedrooms</text><text fill="#000000" font-family="sans-serif" font-size="11.2" lengthAdjust="spacing" textLength="92.8" x="313.2" y="719.4797">numberBathrooms</text><text fill="#000000" font-family="sans-serif" font-size="11.2" lengthAdjust="spacing" textLength="76.8" x="313.2" y="734.3766">numberParking</text><text fill="#000000" font-family="sans-serif" font-size="11.2" lengthAdjust="spacing" textLength="98.4" x="313.2" y="749.2734">availableEquipment</text></g><!--class Land--><g id="elem_Land"><rect codeLine="79" fill="#F1F1F1" height="44.1938" id="Land" rx="2" ry="2" style="stroke:#181818;stroke-width:0.4000000000000001;" width="64.8" x="444.4" y="688.8"/><text fill="#000000" font-family="sans-serif" font-size="11.2" lengthAdjust="spacing" textLength="25.6" x="464" y="704.8859">Land</text><line style="stroke:#181818;stroke-width:0.4000000000000001;" x1="445.2" x2="508.4" y1="711.6969" y2="711.6969"/><text fill="#000000" font-family="sans-serif" font-size="11.2" lengthAdjust="spacing" textLength="55.2" x="449.2" y="726.9828">description</text></g><!--class Store--><g id="elem_Store"><rect codeLine="83" fill="#F1F1F1" height="133.575" id="Store" rx="2" ry="2" style="stroke:#181818;stroke-width:0.4000000000000001;" width="130.4" x="594.8" y="447.2"/><text fill="#000000" font-family="sans-serif" font-size="11.2" lengthAdjust="spacing" textLength="27.2" x="646.4" y="463.2859">Store</text><line style="stroke:#181818;stroke-width:0.4000000000000001;" x1="595.6" x2="724.4" y1="470.0969" y2="470.0969"/><text fill="#000000" font-family="sans-serif" font-size="11.2" lengthAdjust="spacing" textLength="56.8" x="599.6" y="485.3828">idCodStore</text><text fill="#000000" font-family="sans-serif" font-size="11.2" lengthAdjust="spacing" textLength="120.8" x="599.6" y="500.2797">idStoreNetworkManager</text><text fill="#000000" font-family="sans-serif" font-size="11.2" lengthAdjust="spacing" textLength="55.2" x="599.6" y="515.1766">nameStore</text><text fill="#000000" font-family="sans-serif" font-size="11.2" lengthAdjust="spacing" textLength="39.2" x="599.6" y="530.0734">location</text><text fill="#000000" font-family="sans-serif" font-size="11.2" lengthAdjust="spacing" textLength="80.8" x="599.6" y="544.9703">idStoreManager</text><text fill="#000000" font-family="sans-serif" font-size="11.2" lengthAdjust="spacing" textLength="53.6" x="599.6" y="559.8672">emailStore</text><text fill="#000000" font-family="sans-serif" font-size="11.2" lengthAdjust="spacing" textLength="64" x="599.6" y="574.7641">contactStore</text></g><!--class Visit--><g id="elem_Visit"><rect codeLine="93" fill="#F1F1F1" height="88.8844" id="Visit" rx="2" ry="2" style="stroke:#181818;stroke-width:0.4000000000000001;" width="90.4" x="587.6" y="1082.8"/><text fill="#000000" font-family="sans-serif" font-size="11.2" lengthAdjust="spacing" textLength="20.8" x="622.4" y="1098.8859">Visit</text><line style="stroke:#181818;stroke-width:0.4000000000000001;" x1="588.4" x2="677.2" y1="1105.6969" y2="1105.6969"/><text fill="#000000" font-family="sans-serif" font-size="11.2" lengthAdjust="spacing" textLength="80.8" x="592.4" y="1120.9828">idAdvertisement</text><text fill="#000000" font-family="sans-serif" font-size="11.2" lengthAdjust="spacing" textLength="58.4" x="592.4" y="1135.8797">idCodClient</text><text fill="#000000" font-family="sans-serif" font-size="11.2" lengthAdjust="spacing" textLength="29.6" x="592.4" y="1150.7766">idVisit</text><text fill="#000000" font-family="sans-serif" font-size="11.2" lengthAdjust="spacing" textLength="30.4" x="592.4" y="1165.6734">report</text></g><!--class Location--><g id="elem_Location"><rect codeLine="100" fill="#F1F1F1" height="148.4719" id="Location" rx="2" ry="2" style="stroke:#181818;stroke-width:0.4000000000000001;" width="72" x="335.2" y="1052.8"/><text fill="#000000" font-family="sans-serif" font-size="11.2" lengthAdjust="spacing" textLength="43.2" x="349.6" y="1068.8859">Location</text><line style="stroke:#181818;stroke-width:0.4000000000000001;" x1="336" x2="406.4" y1="1075.6969" y2="1075.6969"/><text fill="#000000" font-family="sans-serif" font-size="11.2" lengthAdjust="spacing" textLength="40.8" x="340" y="1090.9828">address</text><text fill="#000000" font-family="sans-serif" font-size="11.2" lengthAdjust="spacing" textLength="62.4" x="340" y="1105.8797">doorNumber</text><text fill="#000000" font-family="sans-serif" font-size="11.2" lengthAdjust="spacing" textLength="22.4" x="340" y="1120.7766">floor</text><text fill="#000000" font-family="sans-serif" font-size="11.2" lengthAdjust="spacing" textLength="20.8" x="340" y="1135.6734">side</text><text fill="#000000" font-family="sans-serif" font-size="11.2" lengthAdjust="spacing" textLength="40.8" x="340" y="1150.5703">zipCode</text><text fill="#000000" font-family="sans-serif" font-size="11.2" lengthAdjust="spacing" textLength="39.2" x="340" y="1165.4672">stateUS</text><text fill="#000000" font-family="sans-serif" font-size="11.2" lengthAdjust="spacing" textLength="33.6" x="340" y="1180.3641">county</text><text fill="#000000" font-family="sans-serif" font-size="11.2" lengthAdjust="spacing" textLength="16.8" x="340" y="1195.2609">city</text></g><!--class StoreManager--><g id="elem_StoreManager"><rect codeLine="111" fill="#F1F1F1" height="59.0906" id="StoreManager" rx="2" ry="2" style="stroke:#181818;stroke-width:0.4000000000000001;" width="90.4" x="492.4" y="324.8"/><text fill="#000000" font-family="sans-serif" font-size="11.2" lengthAdjust="spacing" textLength="72" x="501.6" y="340.8859">StoreManager</text><line style="stroke:#181818;stroke-width:0.4000000000000001;" x1="493.2" x2="582" y1="347.6969" y2="347.6969"/><text fill="#000000" font-family="sans-serif" font-size="11.2" lengthAdjust="spacing" textLength="80.8" x="497.2" y="362.9828">idStoreManager</text><text fill="#000000" font-family="sans-serif" font-size="11.2" lengthAdjust="spacing" textLength="56.8" x="497.2" y="377.8797">idCodStore</text></g><!--class StoreNetworkManager--><g id="elem_StoreNetworkManager"><rect codeLine="116" fill="#F1F1F1" height="44.1938" id="StoreNetworkManager" rx="2" ry="2" style="stroke:#181818;stroke-width:0.4000000000000001;" width="130.4" x="610.8" y="332.4"/><text fill="#000000" font-family="sans-serif" font-size="11.2" lengthAdjust="spacing" textLength="112" x="620" y="348.4859">StoreNetworkManager</text><line style="stroke:#181818;stroke-width:0.4000000000000001;" x1="611.6" x2="740.4" y1="355.2969" y2="355.2969"/><text fill="#000000" font-family="sans-serif" font-size="11.2" lengthAdjust="spacing" textLength="120.8" x="615.6" y="370.5828">idStoreNetworkManager</text></g><!--class Request--><g id="elem_Request"><rect codeLine="120" fill="#F1F1F1" height="88.8844" id="Request" rx="2" ry="2" style="stroke:#181818;stroke-width:0.4000000000000001;" width="90.4" x="784.4" y="1082.8"/><text fill="#000000" font-family="sans-serif" font-size="11.2" lengthAdjust="spacing" textLength="42.4" x="808.4" y="1098.8859">Request</text><line style="stroke:#181818;stroke-width:0.4000000000000001;" x1="785.2" x2="874" y1="1105.6969" y2="1105.6969"/><text fill="#000000" font-family="sans-serif" font-size="11.2" lengthAdjust="spacing" textLength="51.2" x="789.2" y="1120.9828">idRequest</text><text fill="#000000" font-family="sans-serif" font-size="11.2" lengthAdjust="spacing" textLength="80.8" x="789.2" y="1135.8797">idAdvertisement</text><text fill="#000000" font-family="sans-serif" font-size="11.2" lengthAdjust="spacing" textLength="58.4" x="789.2" y="1150.7766">idCodClient</text><text fill="#000000" font-family="sans-serif" font-size="11.2" lengthAdjust="spacing" textLength="23.2" x="789.2" y="1165.6734">offer</text></g><!--class User--><g id="elem_User"><rect codeLine="126" fill="#F1F1F1" height="59.0906" id="User" rx="2" ry="2" style="stroke:#181818;stroke-width:0.4000000000000001;" width="57.6" x="595.2" y="5.6"/><text fill="#000000" font-family="sans-serif" font-size="11.2" lengthAdjust="spacing" textLength="23.2" x="612.4" y="21.6859">User</text><line style="stroke:#181818;stroke-width:0.4000000000000001;" x1="596" x2="652" y1="28.4969" y2="28.4969"/><text fill="#000000" font-family="sans-serif" font-size="11.2" lengthAdjust="spacing" textLength="26.4" x="600" y="43.7828">email</text><text fill="#000000" font-family="sans-serif" font-size="11.2" lengthAdjust="spacing" textLength="48" x="600" y="58.6797">password</text></g><!--link Owner to Property--><g id="link_Owner_Property"><path codeLine="131" d="M87.208,737.08 C145.736,773.624 253.552,840.944 318.184,881.296 " fill="none" id="Owner-Property" style="stroke:#181818;stroke-width:0.8000000000000002;"/><polygon fill="#000000" points="216.1929,811.4349,211.3003,805.6082,208.8098,809.5968,216.1929,811.4349" style="stroke:#000000;stroke-width:0.8000000000000002;"/><text fill="#000000" font-family="sans-serif" font-size="10.4" lengthAdjust="spacing" textLength="24" x="220" y="813.6227">owns</text><text fill="#000000" font-family="sans-serif" font-size="10.4" lengthAdjust="spacing" textLength="5.6" x="93.6129" y="737.5827">1</text><text fill="#000000" font-family="sans-serif" font-size="10.4" lengthAdjust="spacing" textLength="16" x="295.8917" y="874.75">1..*</text></g><!--link Agent to Advertisement--><g id="link_Agent_Advertisement"><path codeLine="132" d="M667.44,740.424 C673.472,761.96 682.856,791.864 694.4,816.8 C704.216,838.008 717.664,860.312 729.336,878.232 " fill="none" id="Agent-Advertisement" style="stroke:#181818;stroke-width:0.8000000000000002;"/><polygon fill="#000000" points="700.0389,812.9653,699.2189,805.4011,694.9294,807.3277,700.0389,812.9653" style="stroke:#000000;stroke-width:0.8000000000000002;"/><text fill="#000000" font-family="sans-serif" font-size="10.4" lengthAdjust="spacing" textLength="32.8" x="705.6" y="813.6227">publish</text><text fill="#000000" font-family="sans-serif" font-size="10.4" lengthAdjust="spacing" textLength="5.6" x="662.6375" y="757.9364">1</text><text fill="#000000" font-family="sans-serif" font-size="10.4" lengthAdjust="spacing" textLength="4" x="725.9485" y="869.4149">*</text></g><!--link House to Property--><g id="link_House_Property"><path codeLine="133" d="M273.616,777.72 C287.976,797.832 303.84,820.064 318.536,840.648 " fill="none" id="House-Property" style="stroke:#181818;stroke-width:0.8000000000000002;"/><polygon fill="#000000" points="305.524,812.572,303.2335,805.3165,299.4063,808.0485,305.524,812.572" style="stroke:#000000;stroke-width:0.8000000000000002;"/><text fill="#000000" font-family="sans-serif" font-size="10.4" lengthAdjust="spacing" textLength="8" x="310.4" y="813.6227">is</text><text fill="#000000" font-family="sans-serif" font-size="10.4" lengthAdjust="spacing" textLength="5.6" x="271.833" y="795.289">1</text><text fill="#000000" font-family="sans-serif" font-size="10.4" lengthAdjust="spacing" textLength="5.6" x="308.5162" y="831.8103">1</text></g><!--link Apartment to Property--><g id="link_Apartment_Property"><path codeLine="134" d="M361,755.312 C360.592,770.016 360.2,786.52 360,801.6 C359.912,808.352 359.616,810.056 360,816.8 C360.44,824.544 361.08,832.624 361.832,840.672 " fill="none" id="Apartment-Property" style="stroke:#181818;stroke-width:0.8000000000000002;"/><polygon fill="#000000" points="364.039,813.3162,366.3195,806.0576,361.6174,806.1034,364.039,813.3162" style="stroke:#000000;stroke-width:0.8000000000000002;"/><text fill="#000000" font-family="sans-serif" font-size="10.4" lengthAdjust="spacing" textLength="8" x="371.2" y="813.6227">is</text><text fill="#000000" font-family="sans-serif" font-size="10.4" lengthAdjust="spacing" textLength="5.6" x="354.8881" y="772.7974">1</text><text fill="#000000" font-family="sans-serif" font-size="10.4" lengthAdjust="spacing" textLength="5.6" x="355.2624" y="831.8362">1</text></g><!--link Land to Property--><g id="link_Land_Property"><path codeLine="135" d="M462.184,732.864 C453.16,745.872 441.264,762.808 430.4,777.6 C422.448,788.432 418.448,789.808 412,801.6 C405.304,813.84 399.32,827.4 394.128,840.752 " fill="none" id="Land-Property" style="stroke:#181818;stroke-width:0.8000000000000002;"/><polygon fill="#000000" points="413.8659,812.6995,419.7151,807.8338,415.738,805.325,413.8659,812.6995" style="stroke:#000000;stroke-width:0.8000000000000002;"/><text fill="#000000" font-family="sans-serif" font-size="10.4" lengthAdjust="spacing" textLength="8" x="423.2" y="813.6227">is</text><text fill="#000000" font-family="sans-serif" font-size="10.4" lengthAdjust="spacing" textLength="5.6" x="452.5566" y="750.766">1</text><text fill="#000000" font-family="sans-serif" font-size="10.4" lengthAdjust="spacing" textLength="5.6" x="390.1949" y="831.6695">1</text></g><!--link Store to Agent--><g id="link_Store_Agent"><path codeLine="136" d="M660,580.888 C660,614.952 660,654.752 660,681.064 " fill="none" id="Store-Agent" style="stroke:#181818;stroke-width:0.8000000000000002;"/><polygon fill="#000000" points="664,608.5164,661.6489,615.7525,666.3511,615.7525,664,608.5164" style="stroke:#000000;stroke-width:0.8000000000000002;"/><text fill="#000000" font-family="sans-serif" font-size="10.4" lengthAdjust="spacing" textLength="27.2" x="671.2" y="616.8227">works</text><text fill="#000000" font-family="sans-serif" font-size="10.4" lengthAdjust="spacing" textLength="5.6" x="654.1594" y="598.4543">1</text><text fill="#000000" font-family="sans-serif" font-size="10.4" lengthAdjust="spacing" textLength="4" x="655.6438" y="672.2092">*</text></g><!--link StoreManager to Store--><g id="link_StoreManager_Store"><path codeLine="137" d="M560.048,384.176 C573.712,401.816 591.76,425.112 608.752,447.048 " fill="none" id="StoreManager-Store" style="stroke:#181818;stroke-width:0.8000000000000002;"/><polygon fill="#000000" points="593.6496,418.8786,591.0769,411.7183,587.3595,414.598,593.6496,418.8786" style="stroke:#000000;stroke-width:0.8000000000000002;"/><text fill="#000000" font-family="sans-serif" font-size="10.4" lengthAdjust="spacing" textLength="34.4" x="598.4" y="420.0227">monitor</text><text fill="#000000" font-family="sans-serif" font-size="10.4" lengthAdjust="spacing" textLength="5.6" x="557.7022" y="401.4849">1</text><text fill="#000000" font-family="sans-serif" font-size="10.4" lengthAdjust="spacing" textLength="5.6" x="598.3384" y="438.1136">1</text></g><!--link Property to Location--><g id="link_Property_Location"><path codeLine="138" d="M371.2,989.88 C371.2,1010.248 371.2,1032.336 371.2,1052.696 " fill="none" id="Property-Location" style="stroke:#181818;stroke-width:0.8000000000000002;"/><polygon fill="#000000" points="375.2,1025.3164,377.5511,1018.0803,372.8489,1018.0803,375.2,1025.3164" style="stroke:#000000;stroke-width:0.8000000000000002;"/><text fill="#000000" font-family="sans-serif" font-size="10.4" lengthAdjust="spacing" textLength="16.8" x="382.4" y="1025.6227">has</text><text fill="#000000" font-family="sans-serif" font-size="10.4" lengthAdjust="spacing" textLength="5.6" x="365.4031" y="1006.8514">1</text><text fill="#000000" font-family="sans-serif" font-size="10.4" lengthAdjust="spacing" textLength="5.6" x="365.3769" y="1043.8621">1</text></g><!--link StoreNetworkManager to Store--><g id="link_StoreNetworkManager_Store"><path codeLine="139" d="M673.84,376.512 C672.008,394.616 669.272,421.624 666.72,446.856 " fill="none" id="StoreNetworkManager-Store" style="stroke:#181818;stroke-width:0.8000000000000002;"/><polygon fill="#000000" points="673.1972,419.6961,676.2651,412.7336,671.5867,412.26,673.1972,419.6961" style="stroke:#000000;stroke-width:0.8000000000000002;"/><text fill="#000000" font-family="sans-serif" font-size="10.4" lengthAdjust="spacing" textLength="41.6" x="680.8" y="420.0227">analyzes</text><text fill="#000000" font-family="sans-serif" font-size="10.4" lengthAdjust="spacing" textLength="5.6" x="667.155" y="394.0634">1</text><text fill="#000000" font-family="sans-serif" font-size="10.4" lengthAdjust="spacing" textLength="4" x="663.1256" y="438.1352">*</text></g><!--link Employee to Agent--><g id="link_Employee_Agent"><path codeLine="140" d="M664.912,222.112 C696.208,245.04 736.992,281.304 755.2,324.8 C773.856,369.352 777.96,462.072 739.2,580.8 C726.952,618.32 701.864,656.224 683.192,681.184 " fill="none" id="Employee-Agent" style="stroke:#181818;stroke-width:0.8000000000000002;"/><polygon fill="#000000" points="772.6408,411.7196,770.5795,419.0435,775.278,418.8564,772.6408,411.7196" style="stroke:#000000;stroke-width:0.8000000000000002;"/><text fill="#000000" font-family="sans-serif" font-size="10.4" lengthAdjust="spacing" textLength="8" x="780" y="420.0227">is</text><text fill="#000000" font-family="sans-serif" font-size="10.4" lengthAdjust="spacing" textLength="5.6" x="671.3322" y="222.7663">1</text><text fill="#000000" font-family="sans-serif" font-size="10.4" lengthAdjust="spacing" textLength="5.6" x="681.3518" y="672.124">1</text></g><!--link Employee to StoreManager--><g id="link_Employee_StoreManager"><path codeLine="141" d="M587.856,261.688 C575.84,283.68 563.064,307.032 553.4,324.704 " fill="none" id="Employee-StoreManager" style="stroke:#181818;stroke-width:0.8000000000000002;"/><polygon fill="#000000" points="578.719,289.8068,573.1846,295.0278,577.3104,297.2837,578.719,289.8068" style="stroke:#000000;stroke-width:0.8000000000000002;"/><text fill="#000000" font-family="sans-serif" font-size="10.4" lengthAdjust="spacing" textLength="8" x="584" y="297.6227">is</text><text fill="#000000" font-family="sans-serif" font-size="10.4" lengthAdjust="spacing" textLength="5.6" x="578.9093" y="279.2543">1</text><text fill="#000000" font-family="sans-serif" font-size="10.4" lengthAdjust="spacing" textLength="5.6" x="550.1156" y="315.8563">1</text></g><!--link Employee to StoreNetworkManager--><g id="link_Employee_StoreNetworkManager"><path codeLine="142" d="M645.752,261.688 C654.048,286.888 662.928,313.888 668.912,332.064 " fill="none" id="Employee-StoreNetworkManager" style="stroke:#181818;stroke-width:0.8000000000000002;"/><polygon fill="#000000" points="660.3496,289.5169,660.3783,297.1253,664.8449,295.6553,660.3496,289.5169" style="stroke:#000000;stroke-width:0.8000000000000002;"/><text fill="#000000" font-family="sans-serif" font-size="10.4" lengthAdjust="spacing" textLength="8" x="668.8" y="297.6227">is</text><text fill="#000000" font-family="sans-serif" font-size="10.4" lengthAdjust="spacing" textLength="5.6" x="641.7807" y="279.2543">1</text><text fill="#000000" font-family="sans-serif" font-size="10.4" lengthAdjust="spacing" textLength="5.6" x="661.149" y="323.3174">1</text></g><!--link Advertisement to Request--><g id="link_Advertisement_Request"><path codeLine="143" d="M747.32,952.064 C744.4,974.72 743.416,1004.2 752,1028.8 C758.848,1048.424 771.472,1067.048 784.576,1082.672 " fill="none" id="Advertisement-Request" style="stroke:#181818;stroke-width:0.8000000000000002;"/><polygon fill="#000000" points="757.0972,1025.163,757.3733,1017.5595,752.8514,1018.8494,757.0972,1025.163" style="stroke:#000000;stroke-width:0.8000000000000002;"/><text fill="#000000" font-family="sans-serif" font-size="10.4" lengthAdjust="spacing" textLength="37.6" x="763.2" y="1025.6227">receives</text><text fill="#000000" font-family="sans-serif" font-size="10.4" lengthAdjust="spacing" textLength="5.6" x="740.2071" y="969.9609">1</text><text fill="#000000" font-family="sans-serif" font-size="10.4" lengthAdjust="spacing" textLength="4" x="774.5511" y="1073.7278">*</text></g><!--link Client to Request--><g id="link_Client_Request"><path codeLine="144" d="M877.896,982.096 C878.424,997.552 877.664,1013.856 874.4,1028.8 C870.376,1047.2 862.56,1066.272 854.56,1082.624 " fill="none" id="Client-Request" style="stroke:#181818;stroke-width:0.8000000000000002;"/><polygon fill="#000000" points="879.8955,1025.2128,883.822,1018.6958,879.2415,1017.6325,879.8955,1025.2128" style="stroke:#000000;stroke-width:0.8000000000000002;"/><text fill="#000000" font-family="sans-serif" font-size="10.4" lengthAdjust="spacing" textLength="25.6" x="888" y="1025.6227">make</text><text fill="#000000" font-family="sans-serif" font-size="10.4" lengthAdjust="spacing" textLength="5.6" x="872.8371" y="999.663">1</text><text fill="#000000" font-family="sans-serif" font-size="10.4" lengthAdjust="spacing" textLength="4" x="853.5018" y="1073.6736">*</text></g><!--link Store to Location--><g id="link_Store_Location"><path codeLine="145" d="M631.616,581.048 C601.456,649.016 553.968,748.752 523.2,777.6 C503.92,795.672 484.96,780.688 468.8,801.6 C417.048,868.576 464.096,908.952 438.4,989.6 C430.488,1014.432 418.712,1040.408 407.224,1062.976 " fill="none" id="Store-Location" style="stroke:#181818;stroke-width:0.8000000000000002;"/><polygon fill="#000000" points="471.1116,812.9426,476.2974,807.3752,472.0345,805.3903,471.1116,812.9426" style="stroke:#000000;stroke-width:0.8000000000000002;"/><text fill="#000000" font-family="sans-serif" font-size="10.4" lengthAdjust="spacing" textLength="16.8" x="480" y="813.6227">has</text><text fill="#000000" font-family="sans-serif" font-size="10.4" lengthAdjust="spacing" textLength="5.6" x="623.4336" y="598.3969">1</text><text fill="#000000" font-family="sans-serif" font-size="10.4" lengthAdjust="spacing" textLength="5.6" x="413.6542" y="1048.8818">1</text></g><!--link Advertisement to Visit--><g id="link_Advertisement_Visit"><path codeLine="146" d="M727,952.04 C715.744,965.12 701.896,979.216 687.2,989.6 C664.824,1005.416 645.544,990.76 630.4,1013.6 C617.136,1033.6 617.12,1060.288 620.704,1082.68 " fill="none" id="Advertisement-Visit" style="stroke:#181818;stroke-width:0.8000000000000002;"/><polygon fill="#000000" points="631.8755,1024.4191,638.2661,1020.2902,634.6187,1017.3224,631.8755,1024.4191" style="stroke:#000000;stroke-width:0.8000000000000002;"/><text fill="#000000" font-family="sans-serif" font-size="10.4" lengthAdjust="spacing" textLength="16.8" x="641.6" y="1025.6227">has</text><text fill="#000000" font-family="sans-serif" font-size="10.4" lengthAdjust="spacing" textLength="5.6" x="716.7756" y="969.9332">1</text><text fill="#000000" font-family="sans-serif" font-size="10.4" lengthAdjust="spacing" textLength="4" x="614.898" y="1073.7368">*</text></g><!--link Client to Visit--><g id="link_Client_Visit"><path codeLine="147" d="M839.064,982.224 C829.664,998.68 818.176,1015.424 804.8,1028.8 C794.744,1038.864 725.6,1076.808 678.104,1102.312 " fill="none" id="Client-Visit" style="stroke:#181818;stroke-width:0.8000000000000002;"/><polygon fill="#000000" points="816.794,1023.7083,823.9997,1021.2657,821.1878,1017.4968,816.794,1023.7083" style="stroke:#000000;stroke-width:0.8000000000000002;"/><text fill="#000000" font-family="sans-serif" font-size="10.4" lengthAdjust="spacing" textLength="25.6" x="827.2" y="1025.6227">make</text><text fill="#000000" font-family="sans-serif" font-size="10.4" lengthAdjust="spacing" textLength="5.6" x="830.7696" y="999.5709">1</text><text fill="#000000" font-family="sans-serif" font-size="10.4" lengthAdjust="spacing" textLength="4" x="684.4605" y="1095.6866">*</text></g><!--link Agent to Visit--><g id="link_Agent_Visit"><path codeLine="148" d="M658.24,740.6 C655.592,763.216 649.032,794.432 632.8,816.8 C621.152,832.848 604.728,823.416 595.2,840.8 C552.896,917.984 586.536,1024.032 611.688,1082.776 " fill="none" id="Agent-Visit" style="stroke:#181818;stroke-width:0.8000000000000002;"/><polygon fill="#000000" points="598.6608,919.2799,601.9659,912.4268,597.3066,911.7929,598.6608,919.2799" style="stroke:#000000;stroke-width:0.8000000000000002;"/><text fill="#000000" font-family="sans-serif" font-size="10.4" lengthAdjust="spacing" textLength="88" x="606.4" y="919.6227">schedule and carry</text><text fill="#000000" font-family="sans-serif" font-size="10.4" lengthAdjust="spacing" textLength="5.6" x="651.8848" y="757.9129">1</text><text fill="#000000" font-family="sans-serif" font-size="10.4" lengthAdjust="spacing" textLength="4" x="604.7268" y="1073.8451">*</text></g><!--link User to Employee--><g id="link_User_Employee"><path codeLine="149" d="M624,64.976 C624,82.616 624,105.912 624,127.848 " fill="none" id="User-Employee" style="stroke:#181818;stroke-width:0.8000000000000002;"/><polygon fill="#000000" points="628,92.5164,625.6489,99.7525,630.3511,99.7525,628,92.5164" style="stroke:#000000;stroke-width:0.8000000000000002;"/><text fill="#000000" font-family="sans-serif" font-size="10.4" lengthAdjust="spacing" textLength="8" x="635.2" y="100.8227">is</text><text fill="#000000" font-family="sans-serif" font-size="10.4" lengthAdjust="spacing" textLength="5.6" x="617.9363" y="82.2849">1</text><text fill="#000000" font-family="sans-serif" font-size="10.4" lengthAdjust="spacing" textLength="5.6" x="618.1506" y="118.9136">1</text></g><!--link User to Owner--><g id="link_User_Owner"><path codeLine="150" d="M595.096,37.72 C479.512,45.36 56.8,81.048 56.8,194 C56.8,194 56.8,194 56.8,514.8 C56.8,557.816 54.248,606.088 51.68,643.864 " fill="none" id="User-Owner" style="stroke:#181818;stroke-width:0.8000000000000002;"/><polygon fill="#000000" points="63.4701,351.5381,56.8892,355.3565,60.3905,358.4954,63.4701,351.5381" style="stroke:#000000;stroke-width:0.8000000000000002;"/><text fill="#000000" font-family="sans-serif" font-size="10.4" lengthAdjust="spacing" textLength="8" x="68" y="358.8227">is</text><text fill="#000000" font-family="sans-serif" font-size="10.4" lengthAdjust="spacing" textLength="5.6" x="583.2543" y="34.5337">1</text><text fill="#000000" font-family="sans-serif" font-size="10.4" lengthAdjust="spacing" textLength="5.6" x="46.3009" y="634.931">1</text></g><!--link User to Client--><g id="link_User_Client"><path codeLine="151" d="M652.952,40.952 C716.784,53.712 864,93.976 864,194 C864,194 864,194 864,711.6 C864,757.208 865.232,808.568 866.44,848.192 " fill="none" id="User-Client" style="stroke:#181818;stroke-width:0.8000000000000002;"/><polygon fill="#000000" points="866.9773,411.8494,866.5544,419.446,871.1004,418.2438,866.9773,411.8494" style="stroke:#000000;stroke-width:0.8000000000000002;"/><text fill="#000000" font-family="sans-serif" font-size="10.4" lengthAdjust="spacing" textLength="8" x="875.2" y="420.0227">is</text><text fill="#000000" font-family="sans-serif" font-size="10.4" lengthAdjust="spacing" textLength="5.6" x="659.2032" y="38.402">1</text><text fill="#000000" font-family="sans-serif" font-size="10.4" lengthAdjust="spacing" textLength="5.6" x="860.3966" y="839.4829">1</text></g><!--link Property to Advertisement--><g id="link_Property_Advertisement"><path codeLine="152" d="M424.056,877.288 C475.64,844.776 557.008,805.224 631.6,819.2 C657.656,824.08 665.368,825.76 687.2,840.8 C701.96,850.976 715.72,865 726.904,878.144 " fill="none" id="Property-Advertisement" style="stroke:#181818;stroke-width:0.8000000000000002;"/><polygon fill="#000000" points="582.8,809.3277,575.5706,806.9561,575.5573,811.6584,582.8,809.3277" style="stroke:#000000;stroke-width:0.8000000000000002;"/><text fill="#000000" font-family="sans-serif" font-size="10.4" lengthAdjust="spacing" textLength="44.8" x="586" y="813.6227">is used in</text><text fill="#000000" font-family="sans-serif" font-size="10.4" lengthAdjust="spacing" textLength="5.6" x="430.4912" y="869.7733">1</text><text fill="#000000" font-family="sans-serif" font-size="10.4" lengthAdjust="spacing" textLength="5.6" x="716.8543" y="869.3139">1</text></g><!--link Client to Location--><g id="link_Client_Location"><path codeLine="153" d="M827.928,977.976 C823.456,982.312 818.672,986.272 813.6,989.6 C775.096,1014.856 757.264,1001.616 712.8,1013.6 C690.208,1019.688 684.896,1022.368 662.4,1028.8 C623.088,1040.04 612.576,1040.472 573.6,1052.8 C514.776,1071.408 447.704,1096.6 407.448,1112.168 " fill="none" id="Client-Location" style="stroke:#181818;stroke-width:0.8000000000000002;"/><polygon fill="#000000" points="712.9894,1022.5325,720.5977,1022.5724,719.1681,1018.0927,712.9894,1022.5325" style="stroke:#000000;stroke-width:0.8000000000000002;"/><text fill="#000000" font-family="sans-serif" font-size="10.4" lengthAdjust="spacing" textLength="16.8" x="724" y="1025.6227">has</text><text fill="#000000" font-family="sans-serif" font-size="10.4" lengthAdjust="spacing" textLength="5.6" x="815.9137" y="983.8391">1</text><text fill="#000000" font-family="sans-serif" font-size="10.4" lengthAdjust="spacing" textLength="5.6" x="413.6713" y="1106.3559">1</text></g><!--link Employee to Location--><g id="link_Employee_Location"><path codeLine="154" d="M583.12,199.768 C464.672,212.952 129.6,258.648 129.6,353.6 C129.6,353.6 129.6,353.6 129.6,916 C129.6,1023.624 267.632,1088.76 335.032,1114.144 " fill="none" id="Employee-Location" style="stroke:#181818;stroke-width:0.8000000000000002;"/><polygon fill="#000000" points="132.5526,616.3768,136.7165,610.0089,132.1783,608.7776,132.5526,616.3768" style="stroke:#000000;stroke-width:0.8000000000000002;"/><text fill="#000000" font-family="sans-serif" font-size="10.4" lengthAdjust="spacing" textLength="16.8" x="140.8" y="616.8227">has</text><text fill="#000000" font-family="sans-serif" font-size="10.4" lengthAdjust="spacing" textLength="5.6" x="571.1045" y="197.1405">1</text><text fill="#000000" font-family="sans-serif" font-size="10.4" lengthAdjust="spacing" textLength="5.6" x="323.2215" y="1108.6468">1</text></g><!--link Owner to Location--><g id="link_Owner_Location"><path codeLine="155" d="M36.8,777.8 C30.176,852.784 33.432,971.904 108.8,1028.8 C179.112,1081.88 281.392,1108.72 335.136,1119.872 " fill="none" id="Owner-Location" style="stroke:#181818;stroke-width:0.8000000000000002;"/><polygon fill="#000000" points="78.6291,918.331,75.6449,911.3322,72.1011,914.4229,78.6291,918.331" style="stroke:#000000;stroke-width:0.8000000000000002;"/><text fill="#000000" font-family="sans-serif" font-size="10.4" lengthAdjust="spacing" textLength="16.8" x="83.2" y="919.6227">has</text><text fill="#000000" font-family="sans-serif" font-size="10.4" lengthAdjust="spacing" textLength="5.6" x="30.1731" y="795.1449">1</text><text fill="#000000" font-family="sans-serif" font-size="10.4" lengthAdjust="spacing" textLength="5.6" x="323.0992" y="1131.0537">1</text></g><!--link Agent to Property--><g id="link_Agent_Property"><path codeLine="156" d="M625.488,734.152 C598.184,752.128 559.192,778.096 525.6,801.6 C491.464,825.488 453.688,853.056 424.048,874.968 " fill="none" id="Agent-Property" style="stroke:#181818;stroke-width:0.8000000000000002;"/><polygon fill="#000000" points="526.3216,811.6082,533.5993,809.3893,530.9052,805.5353,526.3216,811.6082" style="stroke:#000000;stroke-width:0.8000000000000002;"/><text fill="#000000" font-family="sans-serif" font-size="10.4" lengthAdjust="spacing" textLength="31.2" x="536.8" y="813.6227">verifies</text><text fill="#000000" font-family="sans-serif" font-size="10.4" lengthAdjust="spacing" textLength="5.6" x="613.7082" y="734.5444">1</text><text fill="#000000" font-family="sans-serif" font-size="10.4" lengthAdjust="spacing" textLength="5.6" x="430.4823" y="882.3575">1</text></g><!--link Store to Advertisement--><g id="link_Store_Advertisement"><path codeLine="157" d="M696.16,580.976 C699.68,588.864 702.928,596.92 705.6,604.8 C737.928,700.136 749.016,819.36 752.68,878.168 " fill="none" id="Store-Advertisement" style="stroke:#181818;stroke-width:0.8000000000000002;"/><polygon fill="#000000" points="747.1473,714.846,748.1051,707.2981,743.4857,708.1766,747.1473,714.846" style="stroke:#000000;stroke-width:0.8000000000000002;"/><text fill="#000000" font-family="sans-serif" font-size="10.4" lengthAdjust="spacing" textLength="39.2" x="753.6" y="715.2227">contains</text><text fill="#000000" font-family="sans-serif" font-size="10.4" lengthAdjust="spacing" textLength="5.6" x="693.3226" y="598.3189">1</text><text fill="#000000" font-family="sans-serif" font-size="10.4" lengthAdjust="spacing" textLength="4" x="748.1336" y="869.3415">*</text></g><!--SRC=[hLPDJnin4BtdLrXSAbK2r6jKLMeHKWyjHGLwT-n9TXIlRMml8Q3-zyxQteszsGAgcWkUcUVvVEFbNHE2zSlpSwku3bshpeHfpuNYtfzAv1l7suNVehQSJgmrseZ6cHPOS1qK5il5bc_W9kmLC0SYSBrH9S0tN9eTwWrRS-LXqQ049j09bSyjXCP8lw1V3CykMwlC7k1vmUY7Sf2Zg7cR3rsx0dU10Pz05vfR_XWbPGGFQ989MeugdcnZD5n5vEBt4F528UZ0Xe19hCELzzuI_X1nJ6GCzsEdmOtHeZIvyszLpjRsULELPcHK7CIRO1mKSFa0Bg27jhnMQUTSMMSi8VQaB9nTP-rngGF-TczJeTm17-1H8T4JbmHGxViB2fClLWKBeoNsKdMJsX2CVo6jhwRpa6jBxVm2qXdJ-bB5GpFLNND7lDwaX1zeM7obuFA-GplsPSMB9YcpJWVVwSj7QtnNjPeM9FJO_v_96ECRrpAvb-25GripCGx_UKg69CRp5OITSTllNDEIkv6R1rmrZtofH4TE7-0qiS15c93k5teCht2jM4gKyK8yEx36bGNdVF9ukPGEVEgSDCOL6xnM9AVfq3CK3qze8rEYCl00TpSvwqvdSWcYuwH_kTnnMOvwCBTdCzsj7KmwFrxy2VST-B5RMNnpxynw7RqbPtSUtFFqXIG3HPPzoFHIdNmuOQUdzEVixFt9kDHBPdRQiq-BzC8C849KMIoPxLOAVKF8j7YZkz8NHa_3Hho0wHbTcgVssBmgcqtCec-cPnyNrSWAFr6_PFsd3kb8dWR79MgWrv8rV8ms6MCHUt1A5hL_Wlx6y3KhlUOKiSzlpbxc_1giJYQZguaSyilaMVOVRi27c5_YoWocvLiOAZu4dJQa_duKhOWhEw3o1_VOd8CSKIgRlMX0TlIVHay2mPtR4xWdSTc6eJMvzgavSleljfHNDjRpJuEgcKqm8hHag8zhcY7BtCoccCd67GFgrbJxGRdX6c5-2-hCupkCSNt_0000]--></g></svg>