<?xml version="1.0" encoding="us-ascii" standalone="no"?><svg xmlns="http://www.w3.org/2000/svg" xmlns:xlink="http://www.w3.org/1999/xlink" contentStyleType="text/css" height="643px" preserveAspectRatio="none" style="width:1109px;height:643px;background:#FFFFFF;" version="1.1" viewBox="0 0 1109 643" width="1109px" zoomAndPan="magnify"><defs/><g><!--class Owner--><g id="elem_Owner"><rect codeLine="18" fill="#F1F1F1" height="111.8438" id="Owner" rx="2.5" ry="2.5" style="stroke:#181818;stroke-width:0.5;" width="102" x="374" y="149"/><text fill="#000000" font-family="sans-serif" font-size="14" lengthAdjust="spacing" textLength="41" x="404.5" y="166.6738">Owner</text><line style="stroke:#181818;stroke-width:0.5;" x1="375" x2="475" y1="174.6406" y2="174.6406"/><text fill="#000000" font-family="sans-serif" font-size="14" lengthAdjust="spacing" textLength="33" x="380" y="191.3145">email</text><text fill="#000000" font-family="sans-serif" font-size="14" lengthAdjust="spacing" textLength="35" x="380" y="206.9551">name</text><text fill="#000000" font-family="sans-serif" font-size="14" lengthAdjust="spacing" textLength="90" x="380" y="222.5957">numberCitizen</text><text fill="#000000" font-family="sans-serif" font-size="14" lengthAdjust="spacing" textLength="15" x="380" y="238.2363">tin</text><text fill="#000000" font-family="sans-serif" font-size="14" lengthAdjust="spacing" textLength="89" x="380" y="253.877">phoneNumber</text></g><!--class Property--><g id="elem_Property"><rect codeLine="26" fill="#F1F1F1" height="111.8438" id="Property" rx="2.5" ry="2.5" style="stroke:#181818;stroke-width:0.5;" width="132" x="102" y="337"/><text fill="#000000" font-family="sans-serif" font-size="14" lengthAdjust="spacing" textLength="54" x="141" y="354.6738">Property</text><line style="stroke:#181818;stroke-width:0.5;" x1="103" x2="233" y1="362.6406" y2="362.6406"/><text fill="#000000" font-family="sans-serif" font-size="14" lengthAdjust="spacing" textLength="83" x="108" y="379.3145">areaProperty</text><text fill="#000000" font-family="sans-serif" font-size="14" lengthAdjust="spacing" textLength="120" x="108" y="394.9551">distanceCityCenter</text><text fill="#000000" font-family="sans-serif" font-size="14" lengthAdjust="spacing" textLength="111" x="108" y="410.5957">conditionProperty</text><text fill="#000000" font-family="sans-serif" font-size="14" lengthAdjust="spacing" textLength="43" x="108" y="426.2363">photos</text><text fill="#000000" font-family="sans-serif" font-size="14" lengthAdjust="spacing" textLength="87" x="108" y="441.877">propertyCode</text></g><!--class House--><g id="elem_House"><rect codeLine="34" fill="#F1F1F1" height="80.5625" id="House" rx="2.5" ry="2.5" style="stroke:#181818;stroke-width:0.5;" width="94" x="155" y="7"/><text fill="#000000" font-family="sans-serif" font-size="14" lengthAdjust="spacing" textLength="40" x="182" y="24.6738">House</text><line style="stroke:#181818;stroke-width:0.5;" x1="156" x2="248" y1="32.6406" y2="32.6406"/><text fill="#000000" font-family="sans-serif" font-size="14" lengthAdjust="spacing" textLength="62" x="161" y="49.3145">basement</text><text fill="#000000" font-family="sans-serif" font-size="14" lengthAdjust="spacing" textLength="19" x="161" y="64.9551">loft</text><text fill="#000000" font-family="sans-serif" font-size="14" lengthAdjust="spacing" textLength="82" x="161" y="80.5957">sunExposure</text></g><!--class PropertyType--><g id="elem_PropertyType"><rect codeLine="40" fill="#F1F1F1" height="49.2813" id="PropertyType" rx="2.5" ry="2.5" style="stroke:#181818;stroke-width:0.5;" width="92" x="7" y="180.5"/><text fill="#000000" font-family="sans-serif" font-size="14" lengthAdjust="spacing" textLength="86" x="10" y="198.1738">PropertyType</text><line style="stroke:#181818;stroke-width:0.5;" x1="8" x2="98" y1="206.1406" y2="206.1406"/><text fill="#000000" font-family="sans-serif" font-size="14" lengthAdjust="spacing" textLength="73" x="13" y="222.8145">designation</text></g><!--class Building--><g id="elem_Building"><rect codeLine="44" fill="#F1F1F1" height="96.2031" id="Building" rx="2.5" ry="2.5" style="stroke:#181818;stroke-width:0.5;" width="135" x="134.5" y="157"/><text fill="#000000" font-family="sans-serif" font-size="14" lengthAdjust="spacing" textLength="50" x="177" y="174.6738">Building</text><line style="stroke:#181818;stroke-width:0.5;" x1="135.5" x2="268.5" y1="182.6406" y2="182.6406"/><text fill="#000000" font-family="sans-serif" font-size="14" lengthAdjust="spacing" textLength="112" x="140.5" y="199.3145">numberBedrooms</text><text fill="#000000" font-family="sans-serif" font-size="14" lengthAdjust="spacing" textLength="116" x="140.5" y="214.9551">numberBathrooms</text><text fill="#000000" font-family="sans-serif" font-size="14" lengthAdjust="spacing" textLength="96" x="140.5" y="230.5957">numberParking</text><text fill="#000000" font-family="sans-serif" font-size="14" lengthAdjust="spacing" textLength="123" x="140.5" y="246.2363">availableEquipment</text></g><!--class Location--><g id="elem_Location"><rect codeLine="51" fill="#F1F1F1" height="111.8438" id="Location" rx="2.5" ry="2.5" style="stroke:#181818;stroke-width:0.5;" width="63" x="272.5" y="525"/><text fill="#000000" font-family="sans-serif" font-size="14" lengthAdjust="spacing" textLength="54" x="277" y="542.6738">Location</text><line style="stroke:#181818;stroke-width:0.5;" x1="273.5" x2="334.5" y1="550.6406" y2="550.6406"/><text fill="#000000" font-family="sans-serif" font-size="14" lengthAdjust="spacing" textLength="36" x="278.5" y="567.3145">street</text><text fill="#000000" font-family="sans-serif" font-size="14" lengthAdjust="spacing" textLength="51" x="278.5" y="582.9551">zipCode</text><text fill="#000000" font-family="sans-serif" font-size="14" lengthAdjust="spacing" textLength="49" x="278.5" y="598.5957">stateUS</text><text fill="#000000" font-family="sans-serif" font-size="14" lengthAdjust="spacing" textLength="21" x="278.5" y="614.2363">city</text><text fill="#000000" font-family="sans-serif" font-size="14" lengthAdjust="spacing" textLength="41" x="278.5" y="629.877">district</text></g><!--class Advertisement--><g id="elem_Advertisement"><rect codeLine="58" fill="#F1F1F1" height="96.2031" id="Advertisement" rx="2.5" ry="2.5" style="stroke:#181818;stroke-width:0.5;" width="113" x="739.5" y="157"/><text fill="#000000" font-family="sans-serif" font-size="14" lengthAdjust="spacing" textLength="90" x="751" y="174.6738">Advertisement</text><line style="stroke:#181818;stroke-width:0.5;" x1="740.5" x2="851.5" y1="182.6406" y2="182.6406"/><text fill="#000000" font-family="sans-serif" font-size="14" lengthAdjust="spacing" textLength="38" x="745.5" y="199.3145">status</text><text fill="#000000" font-family="sans-serif" font-size="14" lengthAdjust="spacing" textLength="101" x="745.5" y="214.9551">idAdvertisement</text><text fill="#000000" font-family="sans-serif" font-size="14" lengthAdjust="spacing" textLength="73" x="745.5" y="230.5957">commission</text><text fill="#000000" font-family="sans-serif" font-size="14" lengthAdjust="spacing" textLength="28" x="745.5" y="246.2363">date</text></g><!--class AdvertisementSale--><g id="elem_AdvertisementSale"><rect codeLine="65" fill="#F1F1F1" height="49.2813" id="AdvertisementSale" rx="2.5" ry="2.5" style="stroke:#181818;stroke-width:0.5;" width="124" x="978" y="368.5"/><text fill="#000000" font-family="sans-serif" font-size="14" lengthAdjust="spacing" textLength="118" x="981" y="386.1738">AdvertisementSale</text><line style="stroke:#181818;stroke-width:0.5;" x1="979" x2="1101" y1="394.1406" y2="394.1406"/><text fill="#000000" font-family="sans-serif" font-size="14" lengthAdjust="spacing" textLength="58" x="984" y="410.8145">salePrice</text></g><!--class AdvertisementLease--><g id="elem_AdvertisementLease"><rect codeLine="69" fill="#F1F1F1" height="64.9219" id="AdvertisementLease" rx="2.5" ry="2.5" style="stroke:#181818;stroke-width:0.5;" width="135" x="644.5" y="360.5"/><text fill="#000000" font-family="sans-serif" font-size="14" lengthAdjust="spacing" textLength="129" x="647.5" y="378.1738">AdvertisementLease</text><line style="stroke:#181818;stroke-width:0.5;" x1="645.5" x2="778.5" y1="386.1406" y2="386.1406"/><text fill="#000000" font-family="sans-serif" font-size="14" lengthAdjust="spacing" textLength="121" x="650.5" y="402.8145">durationOfContract</text><text fill="#000000" font-family="sans-serif" font-size="14" lengthAdjust="spacing" textLength="68" x="650.5" y="418.4551">rentalPrice</text></g><!--class AdvertisementType--><g id="elem_AdvertisementType"><rect codeLine="75" fill="#F1F1F1" height="49.2813" id="AdvertisementType" rx="2.5" ry="2.5" style="stroke:#181818;stroke-width:0.5;" width="128" x="815" y="368.5"/><text fill="#000000" font-family="sans-serif" font-size="14" lengthAdjust="spacing" textLength="122" x="818" y="386.1738">AdvertisementType</text><line style="stroke:#181818;stroke-width:0.5;" x1="816" x2="942" y1="394.1406" y2="394.1406"/><text fill="#000000" font-family="sans-serif" font-size="14" lengthAdjust="spacing" textLength="73" x="821" y="410.8145">designation</text></g><!--class Agent--><g id="elem_Agent"><rect codeLine="79" fill="#F1F1F1" height="33.6406" id="Agent" rx="2.5" ry="2.5" style="stroke:#181818;stroke-width:0.5;" width="43" x="457.5" y="564"/><text fill="#000000" font-family="sans-serif" font-size="14" lengthAdjust="spacing" textLength="37" x="460.5" y="581.6738">Agent</text><line style="stroke:#181818;stroke-width:0.5;" x1="458.5" x2="499.5" y1="589.6406" y2="589.6406"/></g><!--class Store--><g id="elem_Store"><rect codeLine="82" fill="#F1F1F1" height="96.2031" id="Store" rx="2.5" ry="2.5" style="stroke:#181818;stroke-width:0.5;" width="92" x="517" y="345"/><text fill="#000000" font-family="sans-serif" font-size="14" lengthAdjust="spacing" textLength="34" x="546" y="362.6738">Store</text><line style="stroke:#181818;stroke-width:0.5;" x1="518" x2="608" y1="370.6406" y2="370.6406"/><text fill="#000000" font-family="sans-serif" font-size="14" lengthAdjust="spacing" textLength="71" x="523" y="387.3145">idCodStore</text><text fill="#000000" font-family="sans-serif" font-size="14" lengthAdjust="spacing" textLength="69" x="523" y="402.9551">nameStore</text><text fill="#000000" font-family="sans-serif" font-size="14" lengthAdjust="spacing" textLength="67" x="523" y="418.5957">emailStore</text><text fill="#000000" font-family="sans-serif" font-size="14" lengthAdjust="spacing" textLength="80" x="523" y="434.2363">contactStore</text></g><!--link Owner to Property--><g id="link_Owner_Property"><path codeLine="90" d="M373.8,226.88 C320.88,248.74 244.42,281.22 233,291 C218.19,303.68 205.52,320.57 195.42,336.9 " fill="none" id="Owner-Property" style="stroke:#181818;stroke-width:1.0;"/><polygon fill="#000000" points="233.7443,301.8865,242.9857,299.6396,239.9001,294.6368,233.7443,301.8865" style="stroke:#000000;stroke-width:1.0;"/><text fill="#000000" font-family="sans-serif" font-size="13" lengthAdjust="spacing" textLength="30" x="247" y="303.7686">owns</text><text fill="#000000" font-family="sans-serif" font-size="13" lengthAdjust="spacing" textLength="7" x="359.1078" y="226.7888">1</text><text fill="#000000" font-family="sans-serif" font-size="13" lengthAdjust="spacing" textLength="20" x="177.7608" y="326.2352">1..*</text></g><!--link House to Building--><g id="link_House_Building"><path codeLine="92" d="M202,88.14 C202,102.97 202,120.24 202,136.86 " fill="none" id="House-to-Building" style="stroke:#181818;stroke-width:1.0;"/><polygon fill="none" points="209,136.96,202,156.96,195,136.96,209,136.96" style="stroke:#181818;stroke-width:1.0;"/></g><!--link Building to Property--><g id="link_Building_Property"><path codeLine="94" d="M193.33,253.42 C189.81,272.67 185.66,295.38 181.75,316.78 " fill="none" id="Building-to-Property" style="stroke:#181818;stroke-width:1.0;"/><polygon fill="none" points="188.58,318.33,178.1,336.75,174.81,315.82,188.58,318.33" style="stroke:#181818;stroke-width:1.0;"/></g><!--link Property to Location--><g id="link_Property_Location"><path codeLine="96" d="M201.7,449.09 C211.43,464.22 222.32,480.47 233,495 C245.19,511.58 259.59,529.15 272.23,543.98 " fill="none" id="Property-Location" style="stroke:#181818;stroke-width:1.0;"/><polygon fill="#000000" points="240.9827,491.2746,237.9457,482.262,233.2282,485.7684,240.9827,491.2746" style="stroke:#000000;stroke-width:1.0;"/><text fill="#000000" font-family="sans-serif" font-size="13" lengthAdjust="spacing" textLength="30" x="247" y="491.7686">owns</text><text fill="#000000" font-family="sans-serif" font-size="13" lengthAdjust="spacing" textLength="7" x="198.3806" y="468.5891">1</text><text fill="#000000" font-family="sans-serif" font-size="13" lengthAdjust="spacing" textLength="7" x="257.5147" y="532.1935">1</text></g><!--link Owner to Location--><g id="link_Owner_Location"><path codeLine="98" d="M403.95,261.2 C395.28,284.48 385.34,311.95 377,337 C355.7,400.94 333.79,475.25 319.6,524.7 " fill="none" id="Owner-Location" style="stroke:#181818;stroke-width:1.0;"/><polygon fill="#000000" points="380.4756,398.0237,386.0323,390.3052,380.4342,388.5132,380.4756,398.0237" style="stroke:#000000;stroke-width:1.0;"/><text fill="#000000" font-family="sans-serif" font-size="13" lengthAdjust="spacing" textLength="30" x="391" y="397.7686">owns</text><text fill="#000000" font-family="sans-serif" font-size="13" lengthAdjust="spacing" textLength="7" x="393.958" y="280.7125">1</text><text fill="#000000" font-family="sans-serif" font-size="13" lengthAdjust="spacing" textLength="7" x="314.1503" y="514.4018">1</text></g><!--link PropertyType to Property--><g id="link_PropertyType_Property"><path codeLine="100" d="M66.47,229.89 C78.2,250.49 95.83,280.95 112,307 C118.06,316.76 124.65,327.04 131.12,336.95 " fill="none" id="PropertyType-Property" style="stroke:#181818;stroke-width:1.0;"/><polygon fill="#000000" points="114.4154,294.9816,116.5752,304.2436,121.6068,301.2052,114.4154,294.9816" style="stroke:#000000;stroke-width:1.0;"/><text fill="#000000" font-family="sans-serif" font-size="13" lengthAdjust="spacing" textLength="49" x="126" y="303.7686">contains</text><text fill="#000000" font-family="sans-serif" font-size="13" lengthAdjust="spacing" textLength="7" x="61.9002" y="249.4613">1</text><text fill="#000000" font-family="sans-serif" font-size="13" lengthAdjust="spacing" textLength="5" x="120.8283" y="326.2919">*</text></g><!--link Owner to Advertisement--><g id="link_Owner_Advertisement"><path codeLine="102" d="M476.2,205 C545.17,205 667.55,205 739.26,205 " fill="none" id="Owner-Advertisement" style="stroke:#181818;stroke-width:1.0;"/><polygon fill="#000000" points="568.75,194.2617,559.7049,191.3228,559.7049,197.2006,568.75,194.2617" style="stroke:#000000;stroke-width:1.0;"/><text fill="#000000" font-family="sans-serif" font-size="13" lengthAdjust="spacing" textLength="83" x="572.75" y="198.7686">asks to create</text><text fill="#000000" font-family="sans-serif" font-size="13" lengthAdjust="spacing" textLength="7" x="483.8922" y="201.832">1</text><text fill="#000000" font-family="sans-serif" font-size="13" lengthAdjust="spacing" textLength="5" x="726.6699" y="201.8922">*</text></g><!--reverse link Advertisement to AdvertisementSale--><g id="link_Advertisement_AdvertisementSale"><path codeLine="104" d="M868.84,259.36 C882.88,269.79 897.44,280.68 911,291 C945.41,317.18 984.43,347.88 1010.46,368.5 " fill="none" id="Advertisement-backto-AdvertisementSale" style="stroke:#181818;stroke-width:1.0;"/><polygon fill="none" points="864.59,264.93,852.68,247.41,872.92,253.68,864.59,264.93" style="stroke:#181818;stroke-width:1.0;"/></g><!--reverse link Advertisement to AdvertisementLease--><g id="link_Advertisement_AdvertisementLease"><path codeLine="106" d="M766.21,271.96 C752.62,302.05 737.17,336.27 726.25,360.45 " fill="none" id="Advertisement-backto-AdvertisementLease" style="stroke:#181818;stroke-width:1.0;"/><polygon fill="none" points="759.97,268.76,774.59,253.42,772.73,274.53,759.97,268.76" style="stroke:#181818;stroke-width:1.0;"/></g><!--link Advertisement to AdvertisementType--><g id="link_Advertisement_AdvertisementType"><path codeLine="108" d="M817.16,253.42 C833.59,290.23 855.66,339.69 868.51,368.49 " fill="none" id="Advertisement-AdvertisementType" style="stroke:#181818;stroke-width:1.0;"/><polygon fill="#000000" points="846.0376,303.8277,845.0354,294.3701,839.6677,296.7654,846.0376,303.8277" style="stroke:#000000;stroke-width:1.0;"/><text fill="#000000" font-family="sans-serif" font-size="13" lengthAdjust="spacing" textLength="49" x="853" y="303.7686">contains</text><text fill="#000000" font-family="sans-serif" font-size="13" lengthAdjust="spacing" textLength="5" x="814.7841" y="273.0045">*</text><text fill="#000000" font-family="sans-serif" font-size="13" lengthAdjust="spacing" textLength="7" x="857.7502" y="357.8228">1</text></g><!--link Owner to Agent--><g id="link_Owner_Agent"><path codeLine="110" d="M425.65,261.4 C426.99,310.91 430.89,385.26 442,449 C449.34,491.14 464.8,539.18 473.22,563.71 " fill="none" id="Owner-Agent" style="stroke:#181818;stroke-width:1.0;"/><polygon fill="#000000" points="447.7772,398.2009,449.2744,388.809,443.468,389.7226,447.7772,398.2009" style="stroke:#000000;stroke-width:1.0;"/><text fill="#000000" font-family="sans-serif" font-size="13" lengthAdjust="spacing" textLength="42" x="456" y="397.7686">choses</text><text fill="#000000" font-family="sans-serif" font-size="13" lengthAdjust="spacing" textLength="7" x="418.3205" y="280.5385">1</text><text fill="#000000" font-family="sans-serif" font-size="13" lengthAdjust="spacing" textLength="20" x="447.7956" y="553.2806">1..*</text></g><!--link Owner to Store--><g id="link_Owner_Store"><path codeLine="112" d="M465.84,261.05 C485.63,287.72 509.15,319.43 528.1,344.95 " fill="none" id="Owner-Store" style="stroke:#181818;stroke-width:1.0;"/><polygon fill="#000000" points="506.9796,303.2769,503.9495,294.262,499.2294,297.7647,506.9796,303.2769" style="stroke:#000000;stroke-width:1.0;"/><text fill="#000000" font-family="sans-serif" font-size="13" lengthAdjust="spacing" textLength="42" x="513" y="303.7686">choses</text><text fill="#000000" font-family="sans-serif" font-size="13" lengthAdjust="spacing" textLength="7" x="463.3908" y="280.5442">1</text><text fill="#000000" font-family="sans-serif" font-size="13" lengthAdjust="spacing" textLength="7" x="515.22" y="334.3135">1</text></g><!--link Store to Location--><g id="link_Store_Location"><path codeLine="114" d="M516.83,429.14 C507.96,435.79 498.72,442.65 490,449 C436.37,488.07 373.03,532.28 335.81,558.05 " fill="none" id="Store-Location" style="stroke:#181818;stroke-width:1.0;"/><polygon fill="#000000" points="445.9272,490.1621,454.9998,487.3092,451.5902,482.5213,445.9272,490.1621" style="stroke:#000000;stroke-width:1.0;"/><text fill="#000000" font-family="sans-serif" font-size="13" lengthAdjust="spacing" textLength="30" x="459" y="491.7686">owns</text><text fill="#000000" font-family="sans-serif" font-size="13" lengthAdjust="spacing" textLength="7" x="501.9138" y="431.5783">1</text><text fill="#000000" font-family="sans-serif" font-size="13" lengthAdjust="spacing" textLength="7" x="343.5341" y="549.3413">1</text></g><!--link Store to Agent--><g id="link_Store_Agent"><path codeLine="116" d="M541.59,441.42 C523.41,481.67 498.39,537.06 486.23,564 " fill="none" id="Store-Agent" style="stroke:#181818;stroke-width:1.0;"/><polygon fill="#000000" points="531.058,482.7049,524.6566,489.7386,530.0135,492.1579,531.058,482.7049" style="stroke:#000000;stroke-width:1.0;"/><text fill="#000000" font-family="sans-serif" font-size="13" lengthAdjust="spacing" textLength="34" x="538" y="491.7686">works</text><text fill="#000000" font-family="sans-serif" font-size="13" lengthAdjust="spacing" textLength="7" x="531.087" y="461.0045">1</text><text fill="#000000" font-family="sans-serif" font-size="13" lengthAdjust="spacing" textLength="5" x="482.9151" y="553.3758">*</text></g><!--SRC=[XLJ1Rjim3BthAuHS0Wn8iLsB8a2R5TY0RWsGxGCKYR69s98dqStITly-Md9bEqctN4pHJ- -HZtJ27csZlAfbxQpJfNSrIF8jY93VD4hlLG4REbOWFMXIjgZ6W50gumve2xbJLG0XvXNiI9AJ7ekIfC7k5ZehHfTqfKAu9VAuRGc-QcSt-0poen0b6f0QlMQH6DT0fJE1UGc9Q_ZiQeLMVdC6Aav69hck5EsSh-MBc4kvC12qnoQgply8aK2F1mkU4P9_m2HLZAog8GLjlGM_Gk9ARCmGfcTJEWlVuskHsTRUDU3fs1Cg3-ej5HC60tkbWGcFAx34TxiqjsgmAsm2PWLo8OLzViKD3cfVN1iWAMrLW9e9uw5oknI4rjx_RbneFPpN-EFOz9VP6IoiYivas5sBbU49lenyk0FZdQl3EAMeFCsjbUUX5ic29_PKRIku_zLY4qlC4WzEHz7UhK0U81N-Z4riDQKLmSzDCWf7HdhK7LdYkZLFt1Gc5pAXeZOLXcO2w5slQmoXwpfIiinGsmI-KRnZFIU7QrP-3_e0F8aUQreV-tlShPmbhtJIzGnJLI9vXwMRZVp7S6wBr6LERCZvVffesBfupgiydEAA3qTUFEAoKeB9HFeSPfzcSh7WnzNLXrbUc6lf3ZR8fH1nyHZnkinh8iHRbF9vaqN-9ZBhB4z-e3mHlWGPBsv6JkgBxI2ZRoQ44JNnzrggi0_T_v7cJvIWevzkqCqhivyjmVzHSVwdi4w_R-jipAEgbvVzZyDcMEa2NFOgpc-CY8a1SEvb18nDx4KEpkyx-_u2]--></g></svg>